<svg width="32" height="33" viewBox="0 0 32 33" fill="none" xmlns="http://www.w3.org/2000/svg">
<path d="M16.1138 32.661C24.8875 32.661 32 25.5485 32 16.7748C32 8.00115 24.8875 0.888672 16.1138 0.888672C7.34014 0.888672 0.227661 8.00115 0.227661 16.7748C0.227661 25.5485 7.34014 32.661 16.1138 32.661Z" fill="#2563EB"/>
<path d="M13.0818 12.2217C13.0817 12.5753 12.941 12.9144 12.6908 13.1643C12.4407 13.4142 12.1014 13.5545 11.7478 13.5544C11.3942 13.5542 11.0551 13.4135 10.8052 13.1634C10.5553 12.9132 10.415 12.574 10.4152 12.2204C10.4153 11.8667 10.556 11.5277 10.8062 11.2777C11.0563 11.0278 11.3955 10.8875 11.7492 10.8877C12.1028 10.8879 12.4419 11.0285 12.6918 11.2787C12.9417 11.5289 13.082 11.8681 13.0818 12.2217ZM13.1218 14.5417H10.4552V22.8884H13.1218V14.5417ZM17.3352 14.5417H14.6818V22.8884H17.3085V18.5084C17.3085 16.0684 20.4885 15.8417 20.4885 18.5084V22.8884H23.1218V17.6017C23.1218 13.4884 18.4152 13.6417 17.3085 15.6617L17.3352 14.5417Z" fill="white"/>
</svg>
