<svg width="80" height="81" viewBox="0 0 80 81" fill="none" xmlns="http://www.w3.org/2000/svg">
<path d="M46.9037 65.8318H10.3737C9.61222 65.8311 8.88203 65.5285 8.34332 64.9902C7.8046 64.452 7.50132 63.7221 7.5 62.9605V28.5105H46.9C47.2315 28.5105 47.5495 28.3789 47.7839 28.1444C48.0183 27.91 48.15 27.5921 48.15 27.2605C48.15 26.929 48.0183 26.6111 47.7839 26.3767C47.5495 26.1422 47.2315 26.0105 46.9 26.0105H7.5V20.138C7.50033 19.3759 7.80317 18.645 8.34199 18.1059C8.88082 17.5669 9.61157 17.2637 10.3737 17.263H15.1888V19.4318C15.1897 20.5156 15.6207 21.5547 16.387 22.321C17.1534 23.0873 18.1925 23.5183 19.2762 23.5193H20.5625C20.894 23.5193 21.212 23.3876 21.4464 23.1532C21.6808 22.9188 21.8125 22.6008 21.8125 22.2693C21.8125 21.9378 21.6808 21.6198 21.4464 21.3854C21.212 21.151 20.894 21.0193 20.5625 21.0193H19.275C18.8541 21.019 18.4505 20.8516 18.1528 20.554C17.8552 20.2563 17.6878 19.8527 17.6875 19.4318V12.773C17.6882 12.3522 17.8556 11.9488 18.1532 11.6512C18.4508 11.3537 18.8542 11.1862 19.275 11.1855H20.5625C20.9834 11.1859 21.387 11.3532 21.6847 11.6509C21.9823 11.9485 22.1497 12.3521 22.15 12.773V14.763H20.575C20.2435 14.763 19.9255 14.8947 19.6911 15.1292C19.4567 15.3636 19.325 15.6815 19.325 16.013C19.325 16.3446 19.4567 16.6625 19.6911 16.8969C19.9255 17.1314 20.2435 17.263 20.575 17.263H35.125V19.4305C35.126 20.5143 35.557 21.5534 36.3233 22.3197C37.0896 23.0861 38.1287 23.5171 39.2125 23.518H40.4975C40.829 23.518 41.147 23.3864 41.3814 23.1519C41.6158 22.9175 41.7475 22.5996 41.7475 22.268C41.7475 21.9365 41.6158 21.6186 41.3814 21.3842C41.147 21.1497 40.829 21.018 40.4975 21.018H39.2125C38.7916 21.0177 38.388 20.8504 38.0903 20.5527C37.7927 20.2551 37.6253 19.8515 37.625 19.4305V12.773C37.6257 12.3522 37.7931 11.9488 38.0907 11.6512C38.3883 11.3537 38.7917 11.1862 39.2125 11.1855H40.4975C40.9183 11.1862 41.3217 11.3537 41.6193 11.6512C41.9169 11.9488 42.0843 12.3522 42.085 12.773V14.763H40.6625C40.331 14.763 40.013 14.8947 39.7786 15.1292C39.5442 15.3636 39.4125 15.6815 39.4125 16.013C39.4125 16.3446 39.5442 16.6625 39.7786 16.8969C40.013 17.1314 40.331 17.263 40.6625 17.263H55.06V19.4305C55.061 20.5143 55.492 21.5534 56.2583 22.3197C57.0246 23.0861 58.0637 23.5171 59.1475 23.518H60.435C60.7665 23.518 61.0845 23.3864 61.3189 23.1519C61.5533 22.9175 61.685 22.5996 61.685 22.268C61.685 21.9365 61.5533 21.6186 61.3189 21.3842C61.0845 21.1497 60.7665 21.018 60.435 21.018H59.1475C58.7266 21.0177 58.323 20.8504 58.0253 20.5527C57.7277 20.2551 57.5603 19.8515 57.56 19.4305V12.773C57.5607 12.3522 57.7281 11.9488 58.0257 11.6512C58.3233 11.3537 58.7267 11.1862 59.1475 11.1855H60.435C60.8558 11.1862 61.2592 11.3537 61.5568 11.6512C61.8544 11.9488 62.0218 12.3522 62.0225 12.773V14.763H60.635C60.3035 14.763 59.9855 14.8947 59.7511 15.1292C59.5167 15.3636 59.385 15.6815 59.385 16.013C59.385 16.3446 59.5167 16.6625 59.7511 16.8969C59.9855 17.1314 60.3035 17.263 60.635 17.263H69.3363C70.0982 17.2637 70.8288 17.5667 71.3676 18.1055C71.9064 18.6443 72.2093 19.3748 72.21 20.1368V26.0105H51.9C51.5685 26.0105 51.2505 26.1422 51.0161 26.3767C50.7817 26.6111 50.65 26.929 50.65 27.2605C50.65 27.5921 50.7817 27.91 51.0161 28.1444C51.2505 28.3789 51.5685 28.5105 51.9 28.5105H72.21V44.2843C72.21 44.6158 72.3417 44.9338 72.5761 45.1682C72.8105 45.4026 73.1285 45.5343 73.46 45.5343C73.7915 45.5343 74.1095 45.4026 74.3439 45.1682C74.5783 44.9338 74.71 44.6158 74.71 44.2843V20.1355C74.709 18.7105 74.1426 17.3441 73.135 16.3364C72.1275 15.3286 70.7613 14.7619 69.3363 14.7605H64.5213V12.773C64.5199 11.6894 64.0889 10.6505 63.3226 9.88421C62.5563 9.11794 61.5174 8.68687 60.4338 8.68555H59.1475C58.0638 8.68687 57.0249 9.11794 56.2587 9.88421C55.4924 10.6505 55.0613 11.6894 55.06 12.773V14.763H44.585V12.773C44.5837 11.6894 44.1526 10.6505 43.3863 9.88421C42.6201 9.11794 41.5812 8.68687 40.4975 8.68555H39.2125C38.1288 8.68687 37.0899 9.11794 36.3237 9.88421C35.5574 10.6505 35.1263 11.6894 35.125 12.773V14.763H24.65V12.773C24.649 11.6893 24.218 10.6502 23.4517 9.88384C22.6854 9.1175 21.6463 8.68654 20.5625 8.68555H19.275C18.1913 8.68687 17.1524 9.11794 16.3862 9.88421C15.6199 10.6505 15.1888 11.6894 15.1875 12.773V14.763H10.375C8.9502 14.764 7.584 15.3303 6.57628 16.3376C5.56856 17.3448 5.00166 18.7107 5 20.1355V62.958C5.00165 64.3826 5.56839 65.7484 6.57584 66.7556C7.58329 67.7628 8.94917 68.3292 10.3737 68.3306H46.9037C47.2353 68.3306 47.5532 68.1988 47.7876 67.9644C48.0221 67.73 48.1537 67.4121 48.1537 67.0806C48.1537 66.749 48.0221 66.4311 47.7876 66.1967C47.5532 65.9622 47.2353 65.8318 46.9037 65.8318Z" fill="black"/>
<path d="M46.9037 65.8318H10.3737C9.61222 65.8311 8.88203 65.5285 8.34332 64.9902C7.8046 64.452 7.50132 63.7221 7.5 62.9605V28.5105H46.9C47.2315 28.5105 47.5495 28.3789 47.7839 28.1444C48.0183 27.91 48.15 27.5921 48.15 27.2605C48.15 26.929 48.0183 26.6111 47.7839 26.3767C47.5495 26.1422 47.2315 26.0105 46.9 26.0105H7.5V20.138C7.50033 19.3759 7.80317 18.645 8.34199 18.1059C8.88082 17.5669 9.61157 17.2637 10.3737 17.263H15.1888V19.4318C15.1897 20.5156 15.6207 21.5547 16.387 22.321C17.1534 23.0873 18.1925 23.5183 19.2762 23.5193H20.5625C20.894 23.5193 21.212 23.3876 21.4464 23.1532C21.6808 22.9188 21.8125 22.6008 21.8125 22.2693C21.8125 21.9378 21.6808 21.6198 21.4464 21.3854C21.212 21.151 20.894 21.0193 20.5625 21.0193H19.275C18.8541 21.019 18.4505 20.8516 18.1528 20.554C17.8552 20.2563 17.6878 19.8527 17.6875 19.4318V12.773C17.6882 12.3522 17.8556 11.9488 18.1532 11.6512C18.4508 11.3537 18.8542 11.1862 19.275 11.1855H20.5625C20.9834 11.1859 21.387 11.3532 21.6847 11.6509C21.9823 11.9485 22.1497 12.3521 22.15 12.773V14.763H20.575C20.2435 14.763 19.9255 14.8947 19.6911 15.1292C19.4567 15.3636 19.325 15.6815 19.325 16.013C19.325 16.3446 19.4567 16.6625 19.6911 16.8969C19.9255 17.1314 20.2435 17.263 20.575 17.263H35.125V19.4305C35.126 20.5143 35.557 21.5534 36.3233 22.3197C37.0896 23.0861 38.1287 23.5171 39.2125 23.518H40.4975C40.829 23.518 41.147 23.3864 41.3814 23.1519C41.6158 22.9175 41.7475 22.5996 41.7475 22.268C41.7475 21.9365 41.6158 21.6186 41.3814 21.3842C41.147 21.1497 40.829 21.018 40.4975 21.018H39.2125C38.7916 21.0177 38.388 20.8504 38.0903 20.5527C37.7927 20.2551 37.6253 19.8515 37.625 19.4305V12.773C37.6257 12.3522 37.7931 11.9488 38.0907 11.6512C38.3883 11.3537 38.7917 11.1862 39.2125 11.1855H40.4975C40.9183 11.1862 41.3217 11.3537 41.6193 11.6512C41.9169 11.9488 42.0843 12.3522 42.085 12.773V14.763H40.6625C40.331 14.763 40.013 14.8947 39.7786 15.1292C39.5442 15.3636 39.4125 15.6815 39.4125 16.013C39.4125 16.3446 39.5442 16.6625 39.7786 16.8969C40.013 17.1314 40.331 17.263 40.6625 17.263H55.06V19.4305C55.061 20.5143 55.492 21.5534 56.2583 22.3197C57.0246 23.0861 58.0637 23.5171 59.1475 23.518H60.435C60.7665 23.518 61.0845 23.3864 61.3189 23.1519C61.5533 22.9175 61.685 22.5996 61.685 22.268C61.685 21.9365 61.5533 21.6186 61.3189 21.3842C61.0845 21.1497 60.7665 21.018 60.435 21.018H59.1475C58.7266 21.0177 58.323 20.8504 58.0253 20.5527C57.7277 20.2551 57.5603 19.8515 57.56 19.4305V12.773C57.5607 12.3522 57.7281 11.9488 58.0257 11.6512C58.3233 11.3537 58.7267 11.1862 59.1475 11.1855H60.435C60.8558 11.1862 61.2592 11.3537 61.5568 11.6512C61.8544 11.9488 62.0218 12.3522 62.0225 12.773V14.763H60.635C60.3035 14.763 59.9855 14.8947 59.7511 15.1292C59.5167 15.3636 59.385 15.6815 59.385 16.013C59.385 16.3446 59.5167 16.6625 59.7511 16.8969C59.9855 17.1314 60.3035 17.263 60.635 17.263H69.3363C70.0982 17.2637 70.8288 17.5667 71.3676 18.1055C71.9064 18.6443 72.2093 19.3748 72.21 20.1368V26.0105H51.9C51.5685 26.0105 51.2505 26.1422 51.0161 26.3767C50.7817 26.6111 50.65 26.929 50.65 27.2605C50.65 27.5921 50.7817 27.91 51.0161 28.1444C51.2505 28.3789 51.5685 28.5105 51.9 28.5105H72.21V44.2843C72.21 44.6158 72.3417 44.9338 72.5761 45.1682C72.8105 45.4026 73.1285 45.5343 73.46 45.5343C73.7915 45.5343 74.1095 45.4026 74.3439 45.1682C74.5783 44.9338 74.71 44.6158 74.71 44.2843V20.1355C74.709 18.7105 74.1426 17.3441 73.135 16.3364C72.1275 15.3286 70.7613 14.7619 69.3363 14.7605H64.5213V12.773C64.5199 11.6894 64.0889 10.6505 63.3226 9.88421C62.5563 9.11794 61.5174 8.68687 60.4338 8.68555H59.1475C58.0638 8.68687 57.0249 9.11794 56.2587 9.88421C55.4924 10.6505 55.0613 11.6894 55.06 12.773V14.763H44.585V12.773C44.5837 11.6894 44.1526 10.6505 43.3863 9.88421C42.6201 9.11794 41.5812 8.68687 40.4975 8.68555H39.2125C38.1288 8.68687 37.0899 9.11794 36.3237 9.88421C35.5574 10.6505 35.1263 11.6894 35.125 12.773V14.763H24.65V12.773C24.649 11.6893 24.218 10.6502 23.4517 9.88384C22.6854 9.1175 21.6463 8.68654 20.5625 8.68555H19.275C18.1913 8.68687 17.1524 9.11794 16.3862 9.88421C15.6199 10.6505 15.1888 11.6894 15.1875 12.773V14.763H10.375C8.9502 14.764 7.584 15.3303 6.57628 16.3376C5.56856 17.3448 5.00166 18.7107 5 20.1355V62.958C5.00165 64.3826 5.56839 65.7484 6.57584 66.7556C7.58329 67.7628 8.94917 68.3292 10.3737 68.3306H46.9037C47.2353 68.3306 47.5532 68.1988 47.7876 67.9644C48.0221 67.73 48.1537 67.4121 48.1537 67.0806C48.1537 66.749 48.0221 66.4311 47.7876 66.1967C47.5532 65.9622 47.2353 65.8318 46.9037 65.8318Z" fill="url(#paint0_linear_7468_2416)"/>
<path d="M61.355 44.3203C57.7371 44.324 54.2684 45.7627 51.7101 48.3208C49.1518 50.8789 47.7127 54.3474 47.7087 57.9653C48.4587 76.0678 74.2537 76.0628 75 57.9653C74.9957 54.3478 73.5567 50.8796 70.9987 48.3216C68.4407 45.7636 64.9725 44.3246 61.355 44.3203ZM61.355 69.1103C58.4 69.1073 55.5668 67.9322 53.4771 65.8428C51.3875 63.7534 50.212 60.9204 50.2087 57.9653C50.8212 43.1791 71.89 43.1841 72.5 57.9653C72.4964 60.92 71.321 63.7527 69.2317 65.842C67.1424 67.9313 64.3097 69.1067 61.355 69.1103Z" fill="black"/>
<path d="M61.355 44.3203C57.7371 44.324 54.2684 45.7627 51.7101 48.3208C49.1518 50.8789 47.7127 54.3474 47.7087 57.9653C48.4587 76.0678 74.2537 76.0628 75 57.9653C74.9957 54.3478 73.5567 50.8796 70.9987 48.3216C68.4407 45.7636 64.9725 44.3246 61.355 44.3203ZM61.355 69.1103C58.4 69.1073 55.5668 67.9322 53.4771 65.8428C51.3875 63.7534 50.212 60.9204 50.2087 57.9653C50.8212 43.1791 71.89 43.1841 72.5 57.9653C72.4964 60.92 71.321 63.7527 69.2317 65.842C67.1424 67.9313 64.3097 69.1067 61.355 69.1103Z" fill="url(#paint1_linear_7468_2416)"/>
<path d="M66.1475 53.6384L60.545 59.6784L57.2263 56.6234C57.1054 56.5123 56.9639 56.426 56.8098 56.3696C56.6556 56.3131 56.4919 56.2876 56.3279 56.2945C56.1639 56.3013 56.0028 56.3404 55.8539 56.4095C55.705 56.4786 55.5711 56.5763 55.46 56.6971C55.3489 56.818 55.2626 56.9595 55.2062 57.1136C55.1498 57.2678 55.1242 57.4315 55.1311 57.5955C55.1379 57.7596 55.177 57.9206 55.2461 58.0695C55.3152 58.2184 55.4129 58.3523 55.5338 58.4634L59.7675 62.3621C60.0108 62.5859 60.3329 62.7042 60.6632 62.691C60.9935 62.6779 61.3052 62.5345 61.53 62.2921L67.98 55.3396C68.1986 55.0955 68.3126 54.7753 68.2974 54.4479C68.2823 54.1206 68.1391 53.8123 67.8989 53.5894C67.6587 53.3665 67.3405 53.2469 67.0129 53.2563C66.6854 53.2657 66.3746 53.4021 66.1475 53.6384ZM23.4 32.2334H13.765C13.4335 32.2334 13.1156 32.3651 12.8811 32.5995C12.6467 32.8339 12.515 33.1519 12.515 33.4834C12.515 33.8149 12.6467 34.1329 12.8811 34.3673C13.1156 34.6017 13.4335 34.7334 13.765 34.7334H23.3988C23.7303 34.7334 24.0482 34.6017 24.2826 34.3673C24.5171 34.1329 24.6488 33.8149 24.6488 33.4834C24.6488 33.1519 24.5171 32.8339 24.2826 32.5995C24.0482 32.3651 23.7315 32.2334 23.4 32.2334ZM23.4 37.3409H13.765C13.4335 37.3409 13.1156 37.4726 12.8811 37.707C12.6467 37.9414 12.515 38.2594 12.515 38.5909C12.515 38.9224 12.6467 39.2404 12.8811 39.4748C13.1156 39.7092 13.4335 39.8409 13.765 39.8409H23.3988C23.7303 39.8409 24.0482 39.7092 24.2826 39.4748C24.5171 39.2404 24.6488 38.9224 24.6488 38.5909C24.6488 38.2594 24.5171 37.9414 24.2826 37.707C24.0482 37.4726 23.7315 37.3409 23.4 37.3409Z" fill="black"/>
<path d="M66.1475 53.6384L60.545 59.6784L57.2263 56.6234C57.1054 56.5123 56.9639 56.426 56.8098 56.3696C56.6556 56.3131 56.4919 56.2876 56.3279 56.2945C56.1639 56.3013 56.0028 56.3404 55.8539 56.4095C55.705 56.4786 55.5711 56.5763 55.46 56.6971C55.3489 56.818 55.2626 56.9595 55.2062 57.1136C55.1498 57.2678 55.1242 57.4315 55.1311 57.5955C55.1379 57.7596 55.177 57.9206 55.2461 58.0695C55.3152 58.2184 55.4129 58.3523 55.5338 58.4634L59.7675 62.3621C60.0108 62.5859 60.3329 62.7042 60.6632 62.691C60.9935 62.6779 61.3052 62.5345 61.53 62.2921L67.98 55.3396C68.1986 55.0955 68.3126 54.7753 68.2974 54.4479C68.2823 54.1206 68.1391 53.8123 67.8989 53.5894C67.6587 53.3665 67.3405 53.2469 67.0129 53.2563C66.6854 53.2657 66.3746 53.4021 66.1475 53.6384ZM23.4 32.2334H13.765C13.4335 32.2334 13.1156 32.3651 12.8811 32.5995C12.6467 32.8339 12.515 33.1519 12.515 33.4834C12.515 33.8149 12.6467 34.1329 12.8811 34.3673C13.1156 34.6017 13.4335 34.7334 13.765 34.7334H23.3988C23.7303 34.7334 24.0482 34.6017 24.2826 34.3673C24.5171 34.1329 24.6488 33.8149 24.6488 33.4834C24.6488 33.1519 24.5171 32.8339 24.2826 32.5995C24.0482 32.3651 23.7315 32.2334 23.4 32.2334ZM23.4 37.3409H13.765C13.4335 37.3409 13.1156 37.4726 12.8811 37.707C12.6467 37.9414 12.515 38.2594 12.515 38.5909C12.515 38.9224 12.6467 39.2404 12.8811 39.4748C13.1156 39.7092 13.4335 39.8409 13.765 39.8409H23.3988C23.7303 39.8409 24.0482 39.7092 24.2826 39.4748C24.5171 39.2404 24.6488 38.9224 24.6488 38.5909C24.6488 38.2594 24.5171 37.9414 24.2826 37.707C24.0482 37.4726 23.7315 37.3409 23.4 37.3409Z" fill="url(#paint2_linear_7468_2416)"/>
<defs>
<linearGradient id="paint0_linear_7468_2416" x1="39.855" y1="8.68555" x2="39.855" y2="68.3306" gradientUnits="userSpaceOnUse">
<stop stop-color="#115E59"/>
<stop offset="0.5" stop-color="#0F4C47"/>
<stop offset="1" stop-color="#14532D"/>
</linearGradient>
<linearGradient id="paint1_linear_7468_2416" x1="61.3544" y1="44.3203" x2="61.3544" y2="71.5403" gradientUnits="userSpaceOnUse">
<stop stop-color="#115E59"/>
<stop offset="0.5" stop-color="#0F4C47"/>
<stop offset="1" stop-color="#14532D"/>
</linearGradient>
<linearGradient id="paint2_linear_7468_2416" x1="40.4069" y1="32.2334" x2="40.4069" y2="62.692" gradientUnits="userSpaceOnUse">
<stop stop-color="#115E59"/>
<stop offset="0.5" stop-color="#0F4C47"/>
<stop offset="1" stop-color="#14532D"/>
</linearGradient>
</defs>
</svg>
