<svg width="75" height="75" viewBox="0 0 75 75" fill="none" xmlns="http://www.w3.org/2000/svg">
<path d="M44.2988 17.2845L18.1969 12.1387V14.6742L18.7654 14.7848L19.294 31.4547C19.294 31.4547 24.9092 37.2713 35.7226 34.0643L42.6491 19.4329L43.1057 19.5218L44.2988 17.2845Z" fill="#FFA400"/>
<path d="M18.1534 14.8936L18.2388 14.4544L43.1479 19.3012L43.0624 19.7403L18.1534 14.8936Z" fill="#FFDE3F"/>
<path d="M18.1527 12.3584L18.2393 11.9192L44.3412 17.0643L44.2546 17.5035L18.1527 12.3584Z" fill="#FFDE3F"/>
<path d="M36.3265 0.868213C31.7104 1.94268 28.5554 6.39448 26.3386 10.2489C25.1793 12.2647 24.1563 14.4028 23.296 16.5927C23.0316 16.4465 22.7559 16.3644 22.4811 16.3644C22.3592 16.3644 22.2385 16.3803 22.1219 16.4115C21.0076 16.7108 20.499 18.3028 20.9644 20.036C21.3694 21.5455 22.4035 22.6411 23.4215 22.6411C23.5434 22.6411 23.6641 22.6252 23.7807 22.594C24.8946 22.2949 25.4032 20.7028 24.9382 18.9691C24.7721 18.3507 24.4995 17.8036 24.167 17.3708C26.2178 11.4809 29.5658 4.7751 34.9162 1.87515C36.9705 0.762012 40.3377 0.610254 41.7409 2.82598C42.6952 4.33359 42.1556 6.47988 41.6858 8.04448C40.9106 10.6263 39.5625 13.1314 38.0632 15.3866L39.088 15.544C41.0287 12.6952 42.7944 9.40108 43.4102 5.99048C44.2515 1.32774 40.2236 -0.0386714 36.3265 0.868213ZM24.506 19.0853C24.8927 20.5269 24.5073 21.9357 23.6643 22.1621C22.8231 22.3874 21.78 21.3491 21.3964 19.9201C21.0097 18.479 21.3951 17.0701 22.2379 16.8438C22.3172 16.8225 22.3989 16.8118 22.481 16.8119C22.6978 16.8119 22.9184 16.887 23.133 17.0155C23.0936 17.1182 23.0525 17.2204 23.0142 17.3235C22.7918 17.2276 22.5649 17.1935 22.3474 17.2519C21.5817 17.4576 21.2313 18.6319 21.5647 19.8749C21.8985 21.1179 22.7896 21.9592 23.5551 21.7538C24.3207 21.5481 24.6712 20.3738 24.3378 19.1306C24.2443 18.7823 24.0976 18.4504 23.903 18.1468C23.9306 18.0637 23.9577 17.9814 23.9856 17.8982C24.2183 18.2652 24.3937 18.6655 24.506 19.0853ZM36.039 39.1723L27.5931 47.0029C27.5931 47.0029 38.2762 61.5454 59.4189 60.9302L61.3765 51.1419L36.039 39.1723Z" fill="#001943"/>
<path d="M58.5349 60.7263C57.8742 60.7268 57.2388 58.787 56.7428 56.6778C56.7734 58.286 56.6711 59.9746 56.1628 60.5119C56.0218 60.6613 55.8543 60.7323 55.6595 60.7253C54.6318 60.6711 53.8264 57.4206 53.3352 54.7339C53.2758 56.7317 53.0451 59.1317 52.3088 59.8862C52.1235 60.077 51.9269 60.1698 51.6765 60.1662C50.2638 60.1369 49.8586 55.3842 49.7464 52.1998C49.2023 55.1583 48.1991 59.4214 46.847 59.2698C46.7146 59.2553 46.5236 59.1919 46.3655 58.9701C45.6549 57.9753 46.172 54.1815 46.6679 51.4404C45.5553 54.2784 43.8388 58.0353 42.6346 57.6967C42.4594 57.6478 42.3204 57.5283 42.2221 57.3419C41.6051 56.1726 42.7443 51.8974 43.5658 49.1958C41.9464 52.036 39.3844 56.0729 38.2055 55.5613C38.0486 55.4927 37.9337 55.3634 37.8642 55.1763C37.4618 54.0942 38.7551 50.6687 39.8528 48.1048C38.3672 50.3567 36.3305 53.1781 35.3109 53.411C35.0933 53.46 34.9425 53.4014 34.8535 53.3431C33.8577 52.6893 36.0237 48.4225 37.6003 45.6151C35.7995 47.5761 32.8936 50.5427 31.7505 50.5952C31.529 50.6032 31.3922 50.5196 31.3162 50.446C31.2384 50.3712 31.1458 50.2345 31.1454 50.0085C31.1432 48.9702 33.3381 46.4478 35.0685 44.6207C32.9749 46.099 30.0874 47.9504 29.0002 47.7584C28.7525 47.7138 28.6236 47.5798 28.5589 47.4756C27.6924 46.0777 34.8753 41.0536 37.0977 39.5469L37.3485 39.9175C32.964 42.8899 28.502 46.5348 28.9389 47.2396C28.9547 47.2653 28.9865 47.3013 29.0796 47.3179C30.1904 47.5193 34.4824 44.5927 37.0859 42.5756L37.3791 42.9131C35.0518 45.1729 31.5905 48.9271 31.5927 50.0076C31.5927 50.0916 31.6181 50.1157 31.6264 50.1236C31.6334 50.1308 31.6561 50.1503 31.7304 50.1481C32.8058 50.099 36.5008 46.2575 38.7224 43.6874L39.0833 43.9487C36.68 47.9669 34.4729 52.5581 35.099 52.9689C35.123 52.9842 35.1611 52.9864 35.2113 52.9747C36.2963 52.727 39.3861 48.1511 41.1978 45.1358L41.5916 45.3478C40.5092 47.6018 37.8048 53.7329 38.2837 55.0205C38.3221 55.124 38.3689 55.1445 38.3846 55.1511C39.1585 55.4935 42.0565 51.1621 44.2872 46.9568L44.6966 47.1337C43.8943 49.4908 41.9577 55.8822 42.6174 57.1332C42.676 57.2439 42.7355 57.2606 42.7551 57.2661C43.6143 57.504 45.7305 53.0204 47.2556 48.5347L47.6855 48.656C47.1428 51.0648 45.9127 57.5668 46.7294 58.7104C46.7966 58.8046 46.8561 58.8211 46.8951 58.8252C46.906 58.8264 46.9164 58.827 46.927 58.827C47.9547 58.827 49.1678 53.492 49.707 49.6571L50.1523 49.6892C50.1375 53.8404 50.6032 59.6965 51.6861 59.7191L51.6932 59.7194C51.7967 59.7194 51.8937 59.6718 51.9885 59.5745C52.9602 58.5783 52.9551 53.6152 52.8716 51.787L53.3165 51.747C53.8623 55.8189 54.9224 60.2387 55.6831 60.2787C55.7228 60.2822 55.7727 60.2741 55.8378 60.2048C56.4858 59.5194 56.3395 55.7624 56.0829 53.4042L56.5255 53.3412C57.1701 57.0106 58.089 60.1881 58.5321 60.2797C59.0019 60.0689 59.3522 56.2029 59.3998 52.7429L59.8474 52.7491C59.8068 55.6981 59.5847 60.6557 58.5579 60.726L58.5349 60.7263Z" fill="#0081EC"/>
<path d="M50.8857 40.1045L71.0957 3.30078L73.184 4.45684L52.4518 41.1487L50.8857 40.1045Z" fill="#FFB9CD"/>
<path d="M74.0917 0.355353C70.8476 -0.98703 67.7153 8.22332 67.7153 8.22332L70.8476 10.0132C70.8476 10.0131 77.3357 1.69774 74.0917 0.355353ZM73.4397 2.66732C72.8528 2.66732 72.3769 2.29173 72.3769 1.82825C72.3769 1.36478 72.8528 0.98919 73.4397 0.98919C74.0265 0.98919 74.5024 1.36478 74.5024 1.82825C74.5024 2.29173 74.0265 2.66732 73.4397 2.66732ZM53.3956 42.2243L54.4733 39.1725L51.4349 37.3589L49.7041 40.2659L38.8916 34.5302L34.361 40.4779L61.0969 54.7778L63.6699 47.6743L53.3956 42.2243Z" fill="#71C2FF"/>
<path d="M45.8307 43.2318C45.6044 43.2318 45.3814 43.1754 45.1648 43.0631C44.7924 42.87 44.5604 42.5787 44.4748 42.1971C44.2305 41.1081 45.323 39.6581 45.3697 39.5967L45.7254 39.8678C45.7153 39.8811 44.712 41.2142 44.9112 42.0997C44.9676 42.3496 45.1179 42.5347 45.3709 42.666C45.6283 42.7993 45.8861 42.8195 46.1587 42.7282C47.1144 42.4086 47.855 40.8816 47.8624 40.8663L48.2663 41.0593C48.2326 41.1292 47.4338 42.7733 46.3008 43.1524C46.1427 43.2053 45.9858 43.2318 45.8307 43.2318ZM54.2635 47.5818C54.0372 47.5818 53.8143 47.5254 53.5976 47.4131C53.2252 47.22 52.9932 46.9287 52.9077 46.5471C52.6633 45.4581 53.7558 44.0081 53.8025 43.9467L54.1582 44.2178C54.1481 44.2312 53.1448 45.5642 53.344 46.4497C53.4004 46.6996 53.5507 46.8847 53.8037 47.016C54.0606 47.1497 54.3185 47.1696 54.5915 47.0782C55.5472 46.7586 56.2878 45.2315 56.2953 45.2163L56.6991 45.4093C56.6654 45.4792 55.8666 47.1233 54.7336 47.5024C54.5755 47.5555 54.4186 47.5818 54.2635 47.5818Z" fill="#001943"/>
<path d="M51.2161 44.4978C51.6806 43.7125 52.017 43.051 52.017 43.051L49.2763 41.7832C49.2763 41.7832 47.9527 46.5189 48.8477 47.0221C49.3468 47.3026 50.274 46.0361 50.9977 44.8601L49.8549 44.4223L51.2161 44.4978Z" fill="white"/>
<path d="M49.9224 39.9307L50.1227 39.5305L53.7373 41.3392L53.5371 41.7394L49.9224 39.9307Z" fill="#FFB9CD"/>
<path d="M50.376 39.1768L50.5684 38.773L54.0528 40.4331L53.8605 40.8368L50.376 39.1768Z" fill="#FFB9CD"/>
<path d="M50.7853 38.3262L50.9851 37.9257L54.3488 39.6033L54.1491 40.0038L50.7853 38.3262Z" fill="#FFB9CD"/>
<path d="M9.84419 22.7656C3.95244 20.3792 0.373242 23.6977 0.373242 23.6977L0 30.0369L8.4646 24.63L19.5018 55.057L20.4343 54.61L9.84419 22.7656ZM1.30474 27.8741V24.2944C7.17773 23.3994 1.30474 27.8741 1.30474 27.8741Z" fill="#001943"/>
<path d="M20.9254 55.208L20.509 53.3799L18.8682 54.4614L19.6115 56.177C13.6289 61.3728 17.6378 69.6751 17.6378 69.6751L30.6885 74.075L40.1228 60.7259C40.1225 60.7259 28.2407 50.7546 20.9254 55.208Z" fill="#FF5270"/>
<path d="M38.9912 60.7978L30.1783 72.7506L20.6566 65.3505C20.6584 64.8189 20.7759 62.1191 22.9351 60.1693C25.0693 58.2425 28.4881 57.6135 33.0979 58.2995L33.1633 57.8568C28.4121 57.1504 24.8682 57.817 22.6301 59.842C20.6191 61.6613 20.273 64.0253 20.2188 65.0101L17.2709 62.7191L16.9966 63.0725L30.2657 73.3856L39.3513 61.0636L38.9912 60.7978Z" fill="#FFB9CD"/>
<path d="M19.3992 56.0654L20.9724 54.9215L21.2355 55.2833L19.6623 56.4273L19.3992 56.0654Z" fill="#001943"/>
<path d="M18.9456 55.1709L20.6942 53.8995L20.9573 54.2613L19.2087 55.5327L18.9456 55.1709Z" fill="#001943"/>
</svg>
