<svg width="96" height="100" viewBox="0 0 96 100" fill="none" xmlns="http://www.w3.org/2000/svg">
<path d="M33.3789 48.8408H37.4377V51.8182H33.3789V48.8408ZM58.5662 48.8408H62.625V51.8182H58.5662V48.8408Z" fill="#0F3E4C"/>
<path d="M34.0268 51.5168C31.8889 54.7439 32.7184 58.6898 33.8053 61.4516C37.603 71.1 47.8352 74.7211 47.9381 74.7566L48.0018 74.7785L48.0655 74.7566C48.1684 74.7211 58.4008 71.1 62.1985 61.4516C63.2852 58.6906 64.1145 54.7457 61.9782 51.5189L61.9461 51.5049C60.5461 50.8924 59.0345 50.5762 57.5063 50.5762H38.4942C36.966 50.5762 35.4544 50.8924 34.0544 51.5049L34.0268 51.5168Z" fill="#EBF0F2"/>
<path d="M34.0543 51.5051L34.0269 51.517C31.8888 54.7441 32.7185 58.69 33.8052 61.4518C37.6029 71.1002 47.8351 74.7213 47.9382 74.7568L48.0019 74.7787L48.0656 74.7568C48.0705 74.7551 48.1 74.7447 48.1507 74.7258C48.1011 74.6746 48.0535 74.6234 48.0019 74.5721C41.0279 67.598 45.7363 61.1863 45.7363 61.1863L40.9353 50.5762H38.4941C36.9659 50.5763 35.4543 50.8926 34.0543 51.5051Z" fill="#C2D4E6"/>
<path d="M86.3033 63.3113C85.2615 61.4494 83.6063 60.0063 81.6197 59.2279L76.1061 57.0672C76.7004 59.4139 75.485 62.3018 72.4895 65.6531C68.1352 70.5244 61.7129 72.9818 57.0922 74.1855C52.0738 75.4928 48.0357 75.6451 48.009 75.6465C47.9688 75.6449 43.9385 75.4937 38.9211 74.1877C34.2975 72.9842 27.8715 70.5266 23.5152 65.6529C20.5191 62.301 19.3037 59.4125 19.8988 57.0654L14.3814 59.2277C12.395 60.0062 10.7398 61.4493 9.69785 63.3111C8.16094 66.0562 6.51426 69.5092 4.94336 73.0471C9.72656 82.8838 17.7816 90.8346 27.6924 95.4871V90.6025C27.6924 89.4301 28.6516 88.4709 29.824 88.4709H66.3084C67.4809 88.4709 68.44 89.4301 68.44 90.6025V95.4252C78.2904 90.7641 86.2951 82.8398 91.0572 73.0469C89.4865 69.5092 87.8398 66.0562 86.3033 63.3113Z" fill="#2C2C42"/>
<path d="M23.517 66.842C23.7638 66.7197 23.9751 66.5361 24.1307 66.3088C23.9208 66.0946 23.7155 65.876 23.515 65.6529C20.5189 62.301 19.3035 59.4125 19.8986 57.0654L14.3812 59.2277C12.3948 60.0062 10.7396 61.4493 9.69766 63.3111C8.16094 66.0561 6.51426 69.509 4.94336 73.0469C7.39395 78.0865 10.7053 82.6293 14.683 86.4891C15.4896 82.9648 16.7303 77.5881 17.5873 74.0783C18.6678 69.6537 22.1174 67.5357 23.517 66.842Z" fill="#212135"/>
<path d="M48.0004 100C55.3898 100 62.3877 98.3248 68.6355 95.3336V90.2117C68.6355 89.0393 67.6764 88.0801 66.5039 88.0801H29.6287C28.4563 88.0801 27.4971 89.0393 27.4971 90.2117V95.3953C33.7115 98.3473 40.6627 100 48.0004 100Z" fill="#FBCC68"/>
<path d="M44.6244 92.8652C44.6244 90.602 46.1549 88.6803 48.2316 88.0801H29.6287C28.4563 88.0801 27.4971 89.0393 27.4971 90.2117V95.3953C32.75 97.8904 38.5305 99.4525 44.6246 99.8777L44.6244 92.8652Z" fill="#EFAA42"/>
<path d="M64.5002 52.5191L62.2297 51.6293L61.9455 51.5049C60.5455 50.8924 59.0338 50.5762 57.5057 50.5762H38.4936C36.9654 50.5762 35.4538 50.8924 34.0537 51.5049L33.7695 51.6293L31.499 52.5191C33.3463 59.9139 40.0328 65.3918 47.9996 65.3918C55.9664 65.3918 62.6529 59.9139 64.5002 52.5191Z" fill="#C2D4E6"/>
<path d="M35.2416 51.2428C35.3682 51.2119 35.4947 51.1805 35.6223 51.151C35.7029 51.0701 35.783 50.9852 35.8621 50.8965C35.2429 51.0468 34.6379 51.2503 34.0537 51.5047L33.7695 51.6291L31.499 52.5189C33.051 58.7316 38.0193 63.5898 44.2924 64.9848C44.6473 62.6695 45.7357 61.1861 45.7357 61.1861L45.5422 60.7584C40.5559 59.8205 36.5586 56.085 35.2416 51.2428Z" fill="#99B8DA"/>
<path d="M60.8898 51.1061C59.7961 50.755 58.6544 50.5763 57.5057 50.5762H38.4936C37.3426 50.5762 36.201 50.7559 35.1094 51.1061C36.4508 56.9887 41.7105 61.3799 47.9996 61.3799C54.2887 61.3799 59.5484 56.9887 60.8898 51.1061Z" fill="#E0D3CD"/>
<path d="M57.383 45.6674C55.7381 47.9957 53.5322 50.1715 50.5902 51.5945C49.7898 51.9816 48.9111 52.1953 48.0221 52.1971H47.9877C47.0947 52.1957 46.2127 51.9793 45.4092 51.59C42.4684 50.1654 40.2639 47.9883 38.6199 45.6592C38.0287 47.8482 36.9318 50.2326 35.6229 51.5414C35.4953 51.5709 35.3689 51.6021 35.2422 51.6332C36.7697 57.2488 41.9008 61.3797 48.0002 61.3797C54.0996 61.3797 59.2307 57.2488 60.758 51.6332C60.6314 51.6023 60.5049 51.5709 60.3773 51.5414C59.0705 50.2344 57.9746 47.8541 57.383 45.6674Z" fill="#FFAA7B"/>
<path d="M48.4229 52.1805C48.2895 52.1908 48.1558 52.1963 48.0221 52.1971H47.9877C47.0947 52.1957 46.2127 51.9793 45.4092 51.59C42.4684 50.1654 40.2639 47.9883 38.6199 45.6592C38.0289 47.8482 36.9318 50.2326 35.6229 51.5414C35.4953 51.5709 35.3688 51.6021 35.2422 51.6332C36.5764 56.5381 40.6598 60.3098 45.7363 61.1859C47.385 58.2975 48.1129 54.9264 48.4229 52.1805Z" fill="#F7996B"/>
<path d="M65.4109 26.8728C64.6912 26.2132 63.2578 26.5476 62.6379 26.9515C62.7736 27.797 62.7814 28.6622 62.6641 29.5163L61.7379 34.8435C61.7379 35.273 61.6871 35.6942 61.6621 36.1081C63.4457 36.646 64.5637 35.0448 64.7129 33.946C64.777 33.473 64.8824 33.0065 65.0279 32.5519C65.5025 31.0702 67.2141 28.5253 65.4109 26.8728Z" fill="#FFAA7B"/>
<path d="M30.5928 26.8728C31.3125 26.2132 32.7461 26.5476 33.3658 26.9515C33.2306 27.8004 33.2217 28.6648 33.3397 29.5163L34.2658 34.8435C34.2658 35.273 34.3645 35.6942 34.3893 36.1081C32.6057 36.646 31.44 35.0448 31.2906 33.946C31.2265 33.473 31.1211 33.0065 30.9756 32.5519C30.5012 31.0702 28.7897 28.5253 30.5928 26.8728Z" fill="#F7996B"/>
<path d="M62.1979 25.3056C62.0332 24.8761 61.8258 24.4411 61.5643 24.0308C61.1213 23.3359 60.9266 22.514 60.9859 21.6945C61.1566 19.3374 61.065 14.7275 57.9709 13.3351C55.342 12.1521 52.1172 12.837 50.0607 13.521C48.724 13.9652 47.2795 13.9652 45.9428 13.521C43.8863 12.8372 40.6615 12.1523 38.0326 13.3351C34.9295 14.7314 34.8463 19.3638 35.0189 21.7146C35.0802 22.529 34.8768 23.3414 34.4391 24.031C34.1969 24.4111 34.001 24.8122 33.8426 25.2107C33.2949 26.5884 33.1436 28.0921 33.3451 29.5611L34.0705 34.8437C34.0705 34.8437 35.8768 47.3628 45.4088 51.9808C46.2123 52.37 47.0943 52.5864 47.9873 52.5878H48.0217C48.9107 52.5861 49.7895 52.3724 50.5898 51.9853C59.8727 47.4952 61.8338 35.5154 61.9328 34.873L61.9332 34.8439L62.6646 29.5167C62.8594 28.0962 62.7115 26.6456 62.1979 25.3056Z" fill="#FFBB99"/>
<path d="M44.4707 34.8445L44.0084 29.5619C43.8799 28.0929 43.9764 26.5894 44.3254 25.2115C44.4264 24.8131 44.5512 24.4119 44.7055 24.0318C44.9856 23.3422 45.1131 22.5287 45.075 21.7154C44.9731 19.5375 45.0123 15.4035 46.5909 13.6965C46.3719 13.6495 46.1555 13.5912 45.9426 13.5219C43.8862 12.8381 40.6616 12.1531 38.0327 13.3359C34.9295 14.7322 34.8463 19.3646 35.019 21.7154C35.0802 22.5298 34.8768 23.3423 34.4391 24.0318C34.1969 24.4119 34.001 24.8131 33.8426 25.2115C33.2948 26.5892 33.1436 28.0929 33.3452 29.5619L34.0705 34.8445C34.0705 34.8445 35.8768 47.3637 45.4088 51.9816C46.2123 52.3709 47.0944 52.5873 47.9873 52.5887H48.0215C48.9106 52.5869 49.7893 52.3732 50.5897 51.9861C50.8191 51.8745 51.0457 51.7575 51.2696 51.6351C45.5684 46.7695 44.4707 34.8445 44.4707 34.8445Z" fill="#FFAA7B"/>
<path d="M67.7459 16.4168C68.6515 16.2789 69.6486 15.566 70.197 15.1209C70.3943 14.9607 70.3535 14.6537 70.1253 14.542C65.8396 12.4449 63.2648 5.64688 59.7808 3.48907C56.799 1.64219 54.2277 2.70586 53.4183 3.13516C53.3453 3.17377 53.2608 3.18468 53.1803 3.16587C53.0999 3.14706 53.029 3.09981 52.9806 3.03282C51.8294 1.42832 49.9187 0.476175 48.7962 0.0261749C48.4966 -0.0939423 48.2109 0.222269 48.3605 0.508401C48.8562 1.45684 49.065 2.2293 49.1523 2.73887C49.1996 3.01543 48.9109 3.2291 48.6593 3.10469C44.9009 1.24707 38.2177 2.56953 34.1379 7.55801C30.7433 11.7086 28.1277 12.3309 27.1847 12.41C27.1346 12.4141 27.086 12.4293 27.0423 12.4542C26.9986 12.4792 26.9609 12.5135 26.9319 12.5546C26.9029 12.5957 26.8832 12.6426 26.8743 12.6922C26.8654 12.7417 26.8674 12.7926 26.8802 12.8412C27.2457 14.2213 28.6552 15.1152 29.2519 15.4393C29.4177 15.5293 29.4869 15.7397 29.3921 15.9027C29.1089 16.3904 28.5037 16.6861 28.1484 16.8246C28.0719 16.8545 28.0087 16.9108 27.9703 16.9834C27.9319 17.056 27.9209 17.1399 27.9392 17.2199C28.282 18.7459 29.8992 25.6647 31.6113 28.3469C32.8048 30.2168 33.4574 32.7428 33.7818 34.3979C33.8279 34.633 34.1703 34.6119 34.1871 34.3729C34.3144 32.5672 34.4992 29.6236 34.5712 26.8656C34.6597 23.482 37.6156 21.4936 38.9625 20.7613C39.2224 20.6199 39.5279 20.8521 39.464 21.141L39.28 21.9744C39.2273 22.2135 39.4334 22.4313 39.6746 22.391C49.7707 20.7018 53.4781 17.2135 54.8318 15.0393C54.8775 14.9655 54.9466 14.9092 55.0281 14.8793C55.1095 14.8495 55.1987 14.8477 55.2812 14.8744C55.4371 14.9244 55.5429 15.0674 55.5509 15.2309C55.8666 21.7272 60.8892 22.5188 61.6138 25.4006C62.2084 27.765 62.057 32.2512 61.9425 34.368C61.9269 34.6574 62.3238 34.7609 62.4476 34.4988C64.0224 31.1676 63.7962 26.5617 66.2988 23.5176C68.3322 21.0441 69.2783 19.4215 69.6382 18.732C69.7377 18.5418 69.6363 18.3143 69.4322 18.2481C68.5181 17.9523 67.9 17.4035 67.5347 16.9816C67.3578 16.7772 67.4779 16.4576 67.7459 16.4168ZM71.1197 52.3961C70.5549 52.2053 70.0712 51.8291 69.7472 51.3287C68.6287 49.5938 65.297 45.8643 58.5658 48.8408C58.5658 48.8408 65.825 51.7037 62.0164 61.3801C58.2078 71.0564 48.0015 74.5721 48.0015 74.5721V75.8416C48.0015 75.8416 64.1382 75.2883 72.6343 65.783C80.7584 56.694 73.7822 53.2998 71.1197 52.3961ZM24.883 52.3961C25.4478 52.2053 25.9314 51.8291 26.2554 51.3287C27.3742 49.5938 30.7056 45.8643 37.4371 48.8408C37.4371 48.8408 30.1779 51.7037 33.9865 61.3801C37.7951 71.0564 48.0013 74.5721 48.0013 74.5721V75.8416C48.0013 75.8416 31.8646 75.2883 23.3685 65.783C15.2443 56.694 22.2205 53.2998 24.883 52.3961Z" fill="#404051"/>
<path d="M24.0095 66.4657C24.1363 66.3238 24.2357 66.1597 24.3029 65.9817C25.4959 62.7858 28.2834 64.4239 29.7619 61.7838C31.3244 58.994 33.4943 59.9676 33.4943 59.9676C30.8945 51.4231 37.438 48.8413 37.438 48.8413C30.7066 45.8647 27.3752 49.5942 26.2564 51.3292C25.9324 51.8296 25.4487 52.2057 24.8839 52.3965C22.2214 53.3 15.2453 56.6944 23.3695 65.7835C23.5777 66.0156 23.7911 66.243 24.0095 66.4657Z" fill="#2C2C42"/>
<path d="M71.5652 81.375V93.8041C72.5631 93.2381 73.5403 92.6364 74.4949 92.0002V81.375C74.4949 80.9865 74.3406 80.6139 74.0659 80.3392C73.7912 80.0645 73.4186 79.9102 73.0301 79.9102C72.6416 79.9102 72.269 80.0645 71.9943 80.3392C71.7196 80.6139 71.5652 80.9865 71.5652 81.375ZM24.5674 81.375C24.5674 80.5658 23.9115 79.9102 23.1025 79.9102C22.2936 79.9102 21.6377 80.5658 21.6377 81.375V92.0881C22.5926 92.7194 23.5698 93.3162 24.5674 93.8775V81.375Z" fill="#212135"/>
<path d="M62.5057 72.2535C63.9898 72.2535 65.193 71.0504 65.193 69.5662C65.193 68.0821 63.9898 66.8789 62.5057 66.8789C61.0215 66.8789 59.8184 68.0821 59.8184 69.5662C59.8184 71.0504 61.0215 72.2535 62.5057 72.2535Z" fill="#2C2C42"/>
<path d="M33.4939 72.2535C34.9781 72.2535 36.1813 71.0504 36.1813 69.5662C36.1813 68.0821 34.9781 66.8789 33.4939 66.8789C32.0098 66.8789 30.8066 68.0821 30.8066 69.5662C30.8066 71.0504 32.0098 72.2535 33.4939 72.2535Z" fill="#2C2C42"/>
<path d="M62.5059 68.708C62.1174 68.708 61.7448 68.8623 61.4701 69.1371C61.1954 69.4118 61.041 69.7844 61.041 70.1729V91.5971C61.041 92.4063 61.6969 93.0619 62.5059 93.0619C63.3148 93.0619 63.9707 92.4063 63.9707 91.5971V70.1729C63.9707 69.7844 63.8164 69.4118 63.5417 69.1371C63.267 68.8623 62.8944 68.708 62.5059 68.708Z" fill="#545460"/>
<path d="M62.5059 87.1943C61.3949 87.1943 60.4941 88.0949 60.4941 89.2061V92.3768C60.4941 93.4879 61.3947 94.3885 62.5059 94.3885C63.6168 94.3885 64.5176 93.4879 64.5176 92.3768V89.2061C64.5176 88.0949 63.6168 87.1943 62.5059 87.1943Z" fill="#EBF0F2"/>
<path d="M33.4941 68.708C33.1056 68.708 32.7331 68.8623 32.4583 69.1371C32.1836 69.4118 32.0293 69.7844 32.0293 70.1729V91.5971C32.0293 92.4063 32.6852 93.0619 33.4941 93.0619C34.3031 93.0619 34.959 92.4063 34.959 91.5971V70.1729C34.959 69.7844 34.8047 69.4118 34.5299 69.1371C34.2552 68.8623 33.8826 68.708 33.4941 68.708Z" fill="#545460"/>
<path d="M33.4941 87.1943C32.3832 87.1943 31.4824 88.0949 31.4824 89.2061V92.3768C31.4824 93.4879 32.383 94.3885 33.4941 94.3885C34.6053 94.3885 35.5059 93.4879 35.5059 92.3768V89.2061C35.5059 88.0949 34.6053 87.1943 33.4941 87.1943Z" fill="#EBF0F2"/>
<path d="M62.5064 91.2637C61.3955 91.2637 60.4947 90.3631 60.4947 89.252V92.377C60.4947 93.4881 61.3955 94.3887 62.5064 94.3887C63.6176 94.3887 64.5182 93.4881 64.5182 92.377V89.252C64.5182 90.3633 63.6174 91.2637 62.5064 91.2637ZM33.4941 91.2637C32.3832 91.2637 31.4824 90.3631 31.4824 89.252V92.377C31.4824 93.4881 32.383 94.3887 33.4941 94.3887C34.6053 94.3887 35.5059 93.4881 35.5059 92.377V89.252C35.5059 90.3633 34.6053 91.2637 33.4941 91.2637Z" fill="#C2D4E6"/>
<path d="M45.0932 9.56012C40.1257 5.59879 48.6596 3.10485 48.6596 3.10485C44.9012 1.24723 38.218 2.56969 34.1382 7.55817C30.7436 11.7088 28.128 12.331 27.185 12.4101C27.1349 12.4143 27.0863 12.4294 27.0426 12.4544C26.9989 12.4794 26.9612 12.5136 26.9322 12.5547C26.9032 12.5958 26.8835 12.6428 26.8746 12.6923C26.8657 12.7418 26.8677 12.7927 26.8805 12.8414C27.246 14.2215 28.6555 15.1154 29.2522 15.4394C29.418 15.5295 29.4872 15.7398 29.3925 15.9029C29.1093 16.3906 28.504 16.6863 28.1487 16.8248C28.0722 16.8546 28.0091 16.911 27.9707 16.9836C27.9323 17.0561 27.9212 17.1401 27.9395 17.2201C28.2823 18.7461 29.8995 25.6648 31.6116 28.347C32.8052 30.217 33.4577 32.7429 33.7821 34.398C33.8282 34.6332 34.1706 34.6121 34.1874 34.373C34.3147 32.5674 34.4995 29.6238 34.5714 26.8658C34.6598 23.4822 37.6157 21.4937 38.9626 20.7615C39.2225 20.6201 39.528 20.8523 39.4641 21.1412L39.2802 21.9746C39.268 22.0299 39.2695 22.0873 39.2847 22.1419C39.2999 22.1964 39.3281 22.2464 39.3671 22.2875C39.406 22.3286 39.4544 22.3596 39.5081 22.3776C39.5617 22.3957 39.619 22.4003 39.6749 22.3912C41.7202 22.049 43.4993 21.632 45.0538 21.1681C42.9018 15.7548 50.0602 13.5211 45.0932 9.56012Z" fill="#2C2C42"/>
</svg>
