<svg width="134" height="107" viewBox="0 0 134 107" fill="none" xmlns="http://www.w3.org/2000/svg">
<circle cx="1.66667" cy="104.5" r="1.66667" transform="rotate(-90 1.66667 104.5)" fill="#115E59"/>
<circle cx="16.3327" cy="104.5" r="1.66667" transform="rotate(-90 16.3327 104.5)" fill="#115E59"/>
<circle cx="31.0007" cy="104.5" r="1.66667" transform="rotate(-90 31.0007 104.5)" fill="#115E59"/>
<circle cx="45.6667" cy="104.5" r="1.66667" transform="rotate(-90 45.6667 104.5)" fill="#115E59"/>
<circle cx="60.3327" cy="104.5" r="1.66667" transform="rotate(-90 60.3327 104.5)" fill="#115E59"/>
<circle cx="88.6667" cy="104.5" r="1.66667" transform="rotate(-90 88.6667 104.5)" fill="#115E59"/>
<circle cx="117.667" cy="104.5" r="1.66667" transform="rotate(-90 117.667 104.5)" fill="#115E59"/>
<circle cx="74.6667" cy="104.5" r="1.66667" transform="rotate(-90 74.6667 104.5)" fill="#115E59"/>
<circle cx="103.001" cy="104.5" r="1.66667" transform="rotate(-90 103.001 104.5)" fill="#115E59"/>
<circle cx="132.001" cy="104.5" r="1.66667" transform="rotate(-90 132.001 104.5)" fill="#115E59"/>
<circle cx="1.66667" cy="89.8336" r="1.66667" transform="rotate(-90 1.66667 89.8336)" fill="#115E59"/>
<circle cx="16.3327" cy="89.8336" r="1.66667" transform="rotate(-90 16.3327 89.8336)" fill="#115E59"/>
<circle cx="31.0007" cy="89.8336" r="1.66667" transform="rotate(-90 31.0007 89.8336)" fill="#115E59"/>
<circle cx="45.6667" cy="89.8336" r="1.66667" transform="rotate(-90 45.6667 89.8336)" fill="#115E59"/>
<circle cx="60.3327" cy="89.8338" r="1.66667" transform="rotate(-90 60.3327 89.8338)" fill="#115E59"/>
<circle cx="88.6667" cy="89.8338" r="1.66667" transform="rotate(-90 88.6667 89.8338)" fill="#115E59"/>
<circle cx="117.667" cy="89.8338" r="1.66667" transform="rotate(-90 117.667 89.8338)" fill="#115E59"/>
<circle cx="74.6667" cy="89.8338" r="1.66667" transform="rotate(-90 74.6667 89.8338)" fill="#115E59"/>
<circle cx="103.001" cy="89.8338" r="1.66667" transform="rotate(-90 103.001 89.8338)" fill="#115E59"/>
<circle cx="132.001" cy="89.8338" r="1.66667" transform="rotate(-90 132.001 89.8338)" fill="#115E59"/>
<circle cx="1.66667" cy="75.1671" r="1.66667" transform="rotate(-90 1.66667 75.1671)" fill="#115E59"/>
<circle cx="1.66667" cy="31.5003" r="1.66667" transform="rotate(-90 1.66667 31.5003)" fill="#115E59"/>
<circle cx="16.3327" cy="75.1671" r="1.66667" transform="rotate(-90 16.3327 75.1671)" fill="#115E59"/>
<circle cx="16.3327" cy="31.5003" r="1.66667" transform="rotate(-90 16.3327 31.5003)" fill="#115E59"/>
<circle cx="31.0007" cy="75.1671" r="1.66667" transform="rotate(-90 31.0007 75.1671)" fill="#115E59"/>
<circle cx="31.0007" cy="31.5003" r="1.66667" transform="rotate(-90 31.0007 31.5003)" fill="#115E59"/>
<circle cx="45.6667" cy="75.1671" r="1.66667" transform="rotate(-90 45.6667 75.1671)" fill="#115E59"/>
<circle cx="45.6667" cy="31.5003" r="1.66667" transform="rotate(-90 45.6667 31.5003)" fill="#115E59"/>
<circle cx="60.3327" cy="75.1668" r="1.66667" transform="rotate(-90 60.3327 75.1668)" fill="#115E59"/>
<circle cx="60.3327" cy="31.5001" r="1.66667" transform="rotate(-90 60.3327 31.5001)" fill="#115E59"/>
<circle cx="88.6667" cy="75.1668" r="1.66667" transform="rotate(-90 88.6667 75.1668)" fill="#115E59"/>
<circle cx="88.6667" cy="31.5001" r="1.66667" transform="rotate(-90 88.6667 31.5001)" fill="#115E59"/>
<circle cx="117.667" cy="75.1668" r="1.66667" transform="rotate(-90 117.667 75.1668)" fill="#115E59"/>
<circle cx="117.667" cy="31.5001" r="1.66667" transform="rotate(-90 117.667 31.5001)" fill="#115E59"/>
<circle cx="74.6667" cy="75.1668" r="1.66667" transform="rotate(-90 74.6667 75.1668)" fill="#115E59"/>
<circle cx="74.6667" cy="31.5001" r="1.66667" transform="rotate(-90 74.6667 31.5001)" fill="#115E59"/>
<circle cx="103.001" cy="75.1668" r="1.66667" transform="rotate(-90 103.001 75.1668)" fill="#115E59"/>
<circle cx="103.001" cy="31.5001" r="1.66667" transform="rotate(-90 103.001 31.5001)" fill="#115E59"/>
<circle cx="132.001" cy="75.1668" r="1.66667" transform="rotate(-90 132.001 75.1668)" fill="#115E59"/>
<circle cx="132.001" cy="31.5001" r="1.66667" transform="rotate(-90 132.001 31.5001)" fill="#115E59"/>
<circle cx="1.66667" cy="60.5003" r="1.66667" transform="rotate(-90 1.66667 60.5003)" fill="#115E59"/>
<circle cx="1.66667" cy="16.8336" r="1.66667" transform="rotate(-90 1.66667 16.8336)" fill="#115E59"/>
<circle cx="16.3327" cy="60.5003" r="1.66667" transform="rotate(-90 16.3327 60.5003)" fill="#115E59"/>
<circle cx="16.3327" cy="16.8336" r="1.66667" transform="rotate(-90 16.3327 16.8336)" fill="#115E59"/>
<circle cx="31.0007" cy="60.5003" r="1.66667" transform="rotate(-90 31.0007 60.5003)" fill="#115E59"/>
<circle cx="31.0007" cy="16.8336" r="1.66667" transform="rotate(-90 31.0007 16.8336)" fill="#115E59"/>
<circle cx="45.6667" cy="60.5003" r="1.66667" transform="rotate(-90 45.6667 60.5003)" fill="#115E59"/>
<circle cx="45.6667" cy="16.8336" r="1.66667" transform="rotate(-90 45.6667 16.8336)" fill="#115E59"/>
<circle cx="60.3327" cy="60.5003" r="1.66667" transform="rotate(-90 60.3327 60.5003)" fill="#115E59"/>
<circle cx="60.3327" cy="16.8336" r="1.66667" transform="rotate(-90 60.3327 16.8336)" fill="#115E59"/>
<circle cx="88.6667" cy="60.5003" r="1.66667" transform="rotate(-90 88.6667 60.5003)" fill="#115E59"/>
<circle cx="88.6667" cy="16.8336" r="1.66667" transform="rotate(-90 88.6667 16.8336)" fill="#115E59"/>
<circle cx="117.667" cy="60.5003" r="1.66667" transform="rotate(-90 117.667 60.5003)" fill="#115E59"/>
<circle cx="117.667" cy="16.8336" r="1.66667" transform="rotate(-90 117.667 16.8336)" fill="#115E59"/>
<circle cx="74.6667" cy="60.5003" r="1.66667" transform="rotate(-90 74.6667 60.5003)" fill="#115E59"/>
<circle cx="74.6667" cy="16.8336" r="1.66667" transform="rotate(-90 74.6667 16.8336)" fill="#115E59"/>
<circle cx="103.001" cy="60.5003" r="1.66667" transform="rotate(-90 103.001 60.5003)" fill="#115E59"/>
<circle cx="103.001" cy="16.8336" r="1.66667" transform="rotate(-90 103.001 16.8336)" fill="#115E59"/>
<circle cx="132.001" cy="60.5003" r="1.66667" transform="rotate(-90 132.001 60.5003)" fill="#115E59"/>
<circle cx="132.001" cy="16.8336" r="1.66667" transform="rotate(-90 132.001 16.8336)" fill="#115E59"/>
<circle cx="1.66667" cy="45.8336" r="1.66667" transform="rotate(-90 1.66667 45.8336)" fill="#115E59"/>
<circle cx="1.66667" cy="2.16683" r="1.66667" transform="rotate(-90 1.66667 2.16683)" fill="#115E59"/>
<circle cx="16.3327" cy="45.8336" r="1.66667" transform="rotate(-90 16.3327 45.8336)" fill="#115E59"/>
<circle cx="16.3327" cy="2.16683" r="1.66667" transform="rotate(-90 16.3327 2.16683)" fill="#115E59"/>
<circle cx="31.0007" cy="45.8336" r="1.66667" transform="rotate(-90 31.0007 45.8336)" fill="#115E59"/>
<circle cx="31.0007" cy="2.16683" r="1.66667" transform="rotate(-90 31.0007 2.16683)" fill="#115E59"/>
<circle cx="45.6667" cy="45.8336" r="1.66667" transform="rotate(-90 45.6667 45.8336)" fill="#115E59"/>
<circle cx="45.6667" cy="2.16683" r="1.66667" transform="rotate(-90 45.6667 2.16683)" fill="#115E59"/>
<circle cx="60.3327" cy="45.8338" r="1.66667" transform="rotate(-90 60.3327 45.8338)" fill="#115E59"/>
<circle cx="60.3327" cy="2.16707" r="1.66667" transform="rotate(-90 60.3327 2.16707)" fill="#115E59"/>
<circle cx="88.6667" cy="45.8338" r="1.66667" transform="rotate(-90 88.6667 45.8338)" fill="#115E59"/>
<circle cx="88.6667" cy="2.16707" r="1.66667" transform="rotate(-90 88.6667 2.16707)" fill="#115E59"/>
<circle cx="117.667" cy="45.8338" r="1.66667" transform="rotate(-90 117.667 45.8338)" fill="#115E59"/>
<circle cx="117.667" cy="2.16707" r="1.66667" transform="rotate(-90 117.667 2.16707)" fill="#115E59"/>
<circle cx="74.6667" cy="45.8338" r="1.66667" transform="rotate(-90 74.6667 45.8338)" fill="#115E59"/>
<circle cx="74.6667" cy="2.16707" r="1.66667" transform="rotate(-90 74.6667 2.16707)" fill="#115E59"/>
<circle cx="103.001" cy="45.8338" r="1.66667" transform="rotate(-90 103.001 45.8338)" fill="#115E59"/>
<circle cx="103.001" cy="2.16707" r="1.66667" transform="rotate(-90 103.001 2.16707)" fill="#115E59"/>
<circle cx="132.001" cy="45.8338" r="1.66667" transform="rotate(-90 132.001 45.8338)" fill="#115E59"/>
<circle cx="132.001" cy="2.16707" r="1.66667" transform="rotate(-90 132.001 2.16707)" fill="#115E59"/>
</svg>
