<svg width="80" height="81" viewBox="0 0 80 81" fill="none" xmlns="http://www.w3.org/2000/svg">
<path d="M77.7475 42.5628L75.3889 40.2042C73.9645 38.7798 71.6442 38.7798 70.2123 40.2042C67.6853 42.7389 62.7308 47.6934 60.2037 50.2204V45.2735L68.0377 25.4478C69.125 22.6909 67.7695 19.5514 65.0051 18.4562L60.2037 16.5648V14.1909C60.2037 11.2196 57.7839 8.80746 54.8128 8.80746H40.577L27.3369 3.56964C24.5725 2.4823 21.4405 3.83761 20.3453 6.60214L19.4723 8.80746H14.3111C11.3398 8.80746 8.92015 11.2196 8.92015 14.1909V35.5023L1.08625 55.3204C-0.00125253 58.0848 1.35422 61.2245 4.11875 62.312L8.92015 64.211V66.5773C8.92015 69.5485 11.34 71.9684 14.3111 71.9684H28.5469L41.787 77.1985C44.5363 78.286 47.6834 76.9459 48.7786 74.1739L49.6516 71.9684H54.8128C57.7841 71.9684 60.2037 69.5485 60.2037 66.5773V64.7318C60.4564 64.6476 60.847 64.6323 61.0844 64.4026C65.7173 59.762 67.425 58.0543 69.2016 56.2778C70.9781 54.5089 72.8236 52.6556 77.7477 47.7393C79.1719 46.315 79.1719 43.9946 77.7475 42.5628ZM58.6722 66.5773C58.6722 68.7062 56.9416 70.4368 54.8127 70.4368H14.3111C12.1823 70.4368 10.4516 68.7062 10.4516 66.5773V14.1909C10.4516 12.0696 12.1822 10.339 14.3111 10.339H54.8128C56.9416 10.339 58.6723 12.0696 58.6723 14.1909V51.752L53.557 56.8673C53.5494 56.8673 53.5494 56.8673 53.5494 56.875C53.4498 56.9745 53.3733 57.1506 53.3503 57.2273L51.275 65.5971L50.4173 66.4548C50.1187 66.7534 50.1187 67.2359 50.4173 67.5345C50.7159 67.8331 51.2061 67.8331 51.5047 67.5345L52.3547 66.6768L58.6723 65.1146L58.6722 66.5773ZM53.0131 64.9385L54.5141 58.912L59.0473 63.4453L53.0131 64.9385ZM60.5406 62.779L55.1802 57.4109L65.4262 47.1571L70.7944 52.5253L60.5406 62.779ZM71.8817 51.4381L66.5136 46.0776L67.938 44.6456L73.3059 50.0135L71.8817 51.4381Z" fill="url(#paint0_linear_7468_2400)"/>
<path d="M18.0228 27.1473C18.1723 27.2969 18.3683 27.3717 18.5642 27.3717C18.7602 27.3717 18.9561 27.2969 19.1056 27.1473L22.9727 23.28C23.0437 23.2089 23.1001 23.1245 23.1386 23.0316C23.1771 22.9387 23.1969 22.8391 23.1969 22.7386C23.1969 22.638 23.1771 22.5385 23.1386 22.4456C23.1001 22.3527 23.0437 22.2683 22.9727 22.1972C22.9016 22.1261 22.8171 22.0697 22.7243 22.0312C22.6314 21.9927 22.5318 21.9729 22.4312 21.9729C22.3307 21.9729 22.2311 21.9927 22.1382 22.0312C22.0453 22.0697 21.9609 22.1261 21.8898 22.1972L18.5642 25.5231L17.3714 24.3308C17.3003 24.2597 17.2159 24.2033 17.123 24.1648C17.0301 24.1263 16.9305 24.1065 16.83 24.1065C16.6269 24.1065 16.4322 24.1872 16.2886 24.3308C16.145 24.4744 16.0643 24.6691 16.0643 24.8722C16.0643 25.0753 16.145 25.27 16.2886 25.4136L18.0228 27.1473ZM30.925 22.2386H52.2933C52.4964 22.2386 52.6912 22.1579 52.8348 22.0143C52.9784 21.8707 53.0591 21.6759 53.0591 21.4728C53.0591 21.2697 52.9784 21.0749 52.8348 20.9313C52.6912 20.7877 52.4964 20.707 52.2933 20.707H30.925C30.7219 20.707 30.5271 20.7877 30.3835 20.9313C30.2399 21.0749 30.1592 21.2697 30.1592 21.4728C30.1592 21.6759 30.2399 21.8707 30.3835 22.0143C30.5271 22.1579 30.7219 22.2386 30.925 22.2386ZM30.925 28.6373H43.5861C43.7892 28.6373 43.984 28.5567 44.1276 28.4131C44.2712 28.2694 44.3519 28.0747 44.3519 27.8716C44.3519 27.6685 44.2712 27.4737 44.1276 27.3301C43.984 27.1865 43.7892 27.1058 43.5861 27.1058H30.925C30.7219 27.1058 30.5271 27.1865 30.3835 27.3301C30.2399 27.4737 30.1592 27.6685 30.1592 27.8716C30.1592 28.0747 30.2399 28.2694 30.3835 28.4131C30.5271 28.5567 30.7219 28.6373 30.925 28.6373ZM18.0228 42.8617C18.1723 43.0112 18.3683 43.0861 18.5642 43.0861C18.7602 43.0861 18.9561 43.0112 19.1056 42.8617L22.9727 38.9944C23.0437 38.9233 23.1001 38.8389 23.1386 38.746C23.1771 38.6531 23.1969 38.5535 23.1969 38.453C23.1969 38.3524 23.1771 38.2529 23.1386 38.16C23.1001 38.0671 23.0437 37.9827 22.9727 37.9116C22.9016 37.8405 22.8171 37.7841 22.7243 37.7456C22.6314 37.7071 22.5318 37.6873 22.4312 37.6873C22.3307 37.6873 22.2311 37.7071 22.1382 37.7456C22.0453 37.7841 21.9609 37.8405 21.8898 37.9116L18.5642 41.2375L17.3714 40.0452C17.2278 39.9016 17.0331 39.8209 16.83 39.8209C16.6269 39.8209 16.4322 39.9016 16.2886 40.0452C16.145 40.1887 16.0643 40.3835 16.0643 40.5866C16.0643 40.7896 16.145 40.9844 16.2886 41.128L18.0228 42.8617ZM30.925 37.953H52.2933C52.4964 37.953 52.6912 37.8723 52.8348 37.7287C52.9784 37.5851 53.0591 37.3903 53.0591 37.1872C53.0591 36.9841 52.9784 36.7893 52.8348 36.6457C52.6912 36.5021 52.4964 36.4214 52.2933 36.4214H30.925C30.7219 36.4214 30.5271 36.5021 30.3835 36.6457C30.2399 36.7893 30.1592 36.9841 30.1592 37.1872C30.1592 37.3903 30.2399 37.5851 30.3835 37.7287C30.5271 37.8723 30.7219 37.953 30.925 37.953ZM30.925 44.3517H43.5861C43.7892 44.3517 43.984 44.271 44.1276 44.1274C44.2712 43.9838 44.3519 43.789 44.3519 43.5859C44.3519 43.3828 44.2712 43.1881 44.1276 43.0444C43.984 42.9008 43.7892 42.8202 43.5861 42.8202H30.925C30.7219 42.8202 30.5271 42.9008 30.3835 43.0444C30.2399 43.1881 30.1592 43.3828 30.1592 43.5859C30.1592 43.789 30.2399 43.9838 30.3835 44.1274C30.5271 44.271 30.7219 44.3517 30.925 44.3517ZM18.0228 58.5761C18.1723 58.7256 18.3683 58.8005 18.5642 58.8005C18.7602 58.8005 18.9561 58.7256 19.1056 58.5761L22.9727 54.7088C23.0437 54.6377 23.1001 54.5532 23.1386 54.4604C23.1771 54.3675 23.1969 54.2679 23.1969 54.1673C23.1969 54.0668 23.1771 53.9672 23.1386 53.8743C23.1001 53.7814 23.0437 53.697 22.9727 53.6259C22.9016 53.5548 22.8171 53.4984 22.7243 53.46C22.6314 53.4215 22.5318 53.4017 22.4312 53.4017C22.3307 53.4017 22.2311 53.4215 22.1382 53.46C22.0453 53.4984 21.9609 53.5548 21.8898 53.6259L18.5642 56.9519L17.3714 55.7595C17.2278 55.6159 17.0331 55.5353 16.83 55.5353C16.6269 55.5353 16.4322 55.6159 16.2886 55.7595C16.145 55.9031 16.0643 56.0979 16.0643 56.3009C16.0643 56.504 16.145 56.6988 16.2886 56.8423L18.0228 58.5761ZM30.925 53.6673H52.2933C52.4964 53.6673 52.6912 53.5867 52.8348 53.4431C52.9784 53.2994 53.0591 53.1047 53.0591 52.9016C53.0591 52.6985 52.9784 52.5037 52.8348 52.3601C52.6912 52.2165 52.4964 52.1358 52.2933 52.1358H30.925C30.7219 52.1358 30.5271 52.2165 30.3835 52.3601C30.2399 52.5037 30.1592 52.6985 30.1592 52.9016C30.1592 53.1047 30.2399 53.2994 30.3835 53.4431C30.5271 53.5867 30.7219 53.6673 30.925 53.6673ZM30.925 60.0661H43.5861C43.7892 60.0661 43.984 59.9854 44.1276 59.8418C44.2712 59.6982 44.3519 59.5034 44.3519 59.3003C44.3519 59.0972 44.2712 58.9024 44.1276 58.7588C43.984 58.6152 43.7892 58.5345 43.5861 58.5345H30.925C30.7219 58.5345 30.5271 58.6152 30.3835 58.7588C30.2399 58.9024 30.1592 59.0972 30.1592 59.3003C30.1592 59.5034 30.2399 59.6982 30.3835 59.8418C30.5271 59.9854 30.7219 60.0661 30.925 60.0661ZM64.315 52.5553L60.5759 56.2948C60.5048 56.3659 60.4484 56.4503 60.41 56.5432C60.3715 56.6361 60.3517 56.7357 60.3517 56.8363C60.3517 56.9368 60.3715 57.0364 60.41 57.1293C60.4484 57.2222 60.5048 57.3066 60.5759 57.3777C60.647 57.4488 60.7314 57.5051 60.8243 57.5436C60.9172 57.5821 61.0168 57.6019 61.1173 57.6019C61.2179 57.6019 61.3174 57.5821 61.4103 57.5436C61.5032 57.5051 61.5876 57.4488 61.6587 57.3777L65.3978 53.6381C65.4689 53.567 65.5253 53.4826 65.5638 53.3897C65.6023 53.2968 65.6221 53.1973 65.6221 53.0967C65.6221 52.9962 65.6023 52.8966 65.5638 52.8037C65.5253 52.7108 65.4689 52.6264 65.3978 52.5553C65.3267 52.4842 65.2423 52.4278 65.1494 52.3893C65.0565 52.3509 64.9569 52.3311 64.8564 52.3311C64.7558 52.3311 64.6563 52.3509 64.5634 52.3893C64.4705 52.4278 64.3861 52.4842 64.315 52.5553Z" fill="url(#paint1_linear_7468_2400)"/>
<defs>
<linearGradient id="paint0_linear_7468_2400" x1="39.7633" y1="3.19434" x2="39.7633" y2="77.576" gradientUnits="userSpaceOnUse">
<stop stop-color="#115E59"/>
<stop offset="0.5" stop-color="#0F4C47"/>
<stop offset="1" stop-color="#14532D"/>
</linearGradient>
<linearGradient id="paint1_linear_7468_2400" x1="40.8432" y1="20.707" x2="40.8432" y2="60.0661" gradientUnits="userSpaceOnUse">
<stop stop-color="#115E59"/>
<stop offset="0.5" stop-color="#0F4C47"/>
<stop offset="1" stop-color="#14532D"/>
</linearGradient>
</defs>
</svg>
