<svg width="172" height="84" viewBox="0 0 172 84" fill="none" xmlns="http://www.w3.org/2000/svg">
<path d="M0.160156 70.2414C0.160156 70.1122 0.205468 69.998 0.299116 69.8959C0.391254 69.7952 0.512093 69.7441 0.660119 69.7441H13.6305C13.7785 69.7441 13.8993 69.7952 13.9914 69.8959C14.0836 69.9965 14.1304 70.1122 14.1304 70.2414V71.1248C14.1304 71.4748 13.9643 71.6491 13.6305 71.6491H0.660119C0.512093 71.6491 0.391254 71.598 0.299116 71.4974C0.205468 71.3967 0.160156 71.272 0.160156 71.1248V70.2414ZM6.04794 73.6667C6.04794 73.5195 6.09929 73.3993 6.20049 73.3077C6.30169 73.216 6.42706 73.1695 6.57508 73.1695H7.68678C7.83481 73.1695 7.95565 73.216 8.04778 73.3077C8.13992 73.3993 8.18674 73.5195 8.18674 73.6667V83.501C8.18674 83.6482 8.13992 83.7684 8.04778 83.8601C7.95414 83.9517 7.83481 83.9983 7.68678 83.9983H6.57508C6.42706 83.9983 6.30169 83.9532 6.20049 83.8601C6.09929 83.7684 6.04794 83.6482 6.04794 83.501V73.6667Z" fill="#0B3937"/>
<path d="M24.1851 72.7549C24.241 72.6257 24.3377 72.516 24.4766 72.4229C24.6156 72.3312 24.75 72.2847 24.8799 72.2847H25.8798C26.0097 72.2847 26.1442 72.3312 26.2831 72.4229C26.4221 72.5145 26.5278 72.6257 26.6034 72.7549L32.3522 83.5296C32.3884 83.6408 32.4081 83.7144 32.4081 83.7505C32.4081 83.9157 32.3159 83.9984 32.1301 83.9984H30.8523C30.6484 83.9984 30.4822 83.8872 30.3523 83.6663L29.0473 81.2356H23.6308C23.445 81.2356 23.3529 81.153 23.3529 80.9877C23.3529 80.9516 23.371 80.8765 23.4087 80.7668L23.8528 79.9105C23.9827 79.6897 24.1489 79.5785 24.3528 79.5785H28.1576L25.3527 74.1356L20.4648 83.6663C20.4271 83.758 20.3576 83.8361 20.2564 83.9007C20.1537 83.9653 20.057 83.9969 19.9649 83.9969H18.7701C18.5843 83.9969 18.4922 83.9142 18.4922 83.749C18.4922 83.7129 18.5103 83.6378 18.5481 83.5281L24.1851 72.7549Z" fill="#0B3937"/>
<path d="M40.4609 80.9606C40.4609 80.8314 40.5063 80.7218 40.5999 80.6286C40.692 80.537 40.8038 80.4904 40.9337 80.4904H41.8506C42.1089 80.4904 42.2584 80.6196 42.2946 80.8765C42.3868 81.2626 42.5816 81.5901 42.8777 81.8575C43.1737 82.1249 43.5257 82.2587 43.9335 82.2587H48.7111C49.1733 82.2587 49.563 82.0889 49.8772 81.7479C50.1913 81.4068 50.3499 81.0072 50.3499 80.546C50.3499 80.0863 50.1928 79.6897 49.8772 79.3576C49.5615 79.0256 49.1733 78.8604 48.7111 78.8604H44.1283C43.6646 78.8604 43.2342 78.7778 42.8369 78.6125C42.4381 78.4472 42.0877 78.2174 41.7811 77.9214C41.476 77.627 41.2343 77.2814 41.0591 76.8848C40.8824 76.4897 40.7948 76.0615 40.7948 75.6003C40.7948 75.1406 40.8824 74.7124 41.0591 74.3158C41.2343 73.9207 41.476 73.5707 41.7811 73.2657C42.0862 72.9622 42.4381 72.7233 42.8369 72.5476C43.2342 72.3733 43.6661 72.2847 44.1283 72.2847H48.6552C49.063 72.2847 49.4557 72.3583 49.8364 72.5055C50.2155 72.6527 50.5493 72.8556 50.8363 73.114C51.1233 73.3724 51.3635 73.6758 51.5583 74.0259C51.7531 74.3759 51.8785 74.753 51.9329 75.1586C51.9329 75.4726 51.7758 75.6289 51.4601 75.6289H50.572C50.294 75.6289 50.137 75.4997 50.0992 75.2428C50.0252 74.8927 49.85 74.6028 49.572 74.3729C49.2941 74.1431 48.9694 74.0274 48.5993 74.0274H44.0996C43.6737 74.0274 43.3127 74.1776 43.0166 74.4796C42.7206 74.7815 42.5726 75.1406 42.5726 75.5613C42.5726 75.9819 42.7206 76.347 43.0166 76.6565C43.3127 76.9674 43.6737 77.1222 44.0996 77.1222H48.6824C49.1642 77.1222 49.6174 77.2108 50.0433 77.3866C50.4693 77.5624 50.8393 77.8027 51.155 78.1077C51.4692 78.4127 51.7199 78.7732 51.9042 79.1894C52.0885 79.6055 52.1821 80.0532 52.1821 80.5355C52.1821 81.0177 52.0885 81.4639 51.9042 81.8801C51.7184 82.2962 51.4692 82.6613 51.155 82.9753C50.8393 83.2893 50.4693 83.5402 50.0433 83.7234C49.6174 83.9082 49.1642 83.9999 48.6824 83.9999H43.9048C43.4607 83.9999 43.0393 83.9217 42.6405 83.7655C42.2418 83.6093 41.8913 83.3929 41.5847 83.1165C41.2781 82.8401 41.0243 82.5186 40.8204 82.149C40.618 81.7794 40.4987 81.3843 40.4609 80.9606Z" fill="#0B3937"/>
<path d="M73.3193 83.6679C73.4673 83.779 73.5413 83.8707 73.5413 83.9443C73.5413 83.9818 73.5036 83.9999 73.4296 83.9999H71.0974C71.0234 83.9999 70.9207 83.9773 70.7923 83.9308C70.6624 83.8857 70.5521 83.8166 70.4585 83.7234L63.681 78.6951V83.5296C63.681 83.6588 63.6342 83.7685 63.5421 83.8617C63.45 83.9533 63.3382 83.9999 63.2083 83.9999H62.1525C62.0226 83.9999 61.9123 83.9548 61.8186 83.8617C61.725 83.77 61.6797 83.6588 61.6797 83.5296V72.7549C61.6797 72.6077 61.725 72.492 61.8186 72.4094C61.9108 72.3267 62.0226 72.2847 62.1525 72.2847H63.2083C63.3382 72.2847 63.4484 72.3267 63.5421 72.4094C63.6342 72.492 63.681 72.6077 63.681 72.7549V76.6505L73.3193 83.6679ZM66.5419 77.0365C66.4678 77.0741 66.421 77.0921 66.4029 77.0921C66.3651 77.0921 66.3289 77.0741 66.2911 77.0365L65.3471 76.4281C65.2912 76.3725 65.264 76.3169 65.264 76.2628C65.264 76.1892 65.2912 76.1246 65.3471 76.0691L70.2349 72.4499C70.3467 72.3583 70.4388 72.3072 70.5129 72.2982C70.5869 72.2892 70.67 72.2847 70.7636 72.2847H72.7906C72.8465 72.2847 72.8737 72.3027 72.8737 72.3403C72.8737 72.3778 72.8088 72.4514 72.6789 72.5611L66.5419 77.0365Z" fill="#0B3937"/>
<path d="M96.3713 83.5566C96.4075 83.6678 96.4271 83.7324 96.4271 83.7504C96.4271 83.9157 96.335 83.9983 96.1492 83.9983H94.5934C94.4454 83.9983 94.3336 83.9247 94.2596 83.7774L92.6767 80.4903H86.011C85.8811 80.4903 85.8161 80.4257 85.8161 80.2965C85.8161 80.2409 85.8252 80.1959 85.8433 80.1583L86.4536 78.9429C86.5276 78.7597 86.6665 78.6665 86.8704 78.6665H91.787L88.399 71.4012L82.3436 83.7774C82.2696 83.9247 82.1578 83.9983 82.0098 83.9983H80.6217C80.4359 83.9983 80.3438 83.9157 80.3438 83.7504C80.3438 83.7324 80.3619 83.6678 80.3996 83.5566L86.9822 70.2685C87.0562 70.1212 87.1635 69.9965 87.3009 69.8959C87.4399 69.7952 87.5834 69.7441 87.7314 69.7441H89.0365C89.1845 69.7441 89.328 69.7952 89.4669 69.8959C89.6059 69.9965 89.7116 70.1212 89.7856 70.2685L96.3713 83.5566Z" fill="#0B3937"/>
<path d="M104.957 72.7549C104.957 72.6257 105.002 72.516 105.096 72.4229C105.188 72.3312 105.3 72.2847 105.43 72.2847H106.43C106.56 72.2847 106.67 72.3312 106.764 72.4229C106.856 72.5145 106.903 72.6257 106.903 72.7549V82.2587H114.707C114.837 82.2587 114.947 82.3052 115.041 82.3969C115.133 82.49 115.18 82.5997 115.18 82.7289V83.5296C115.18 83.6588 115.133 83.7685 115.041 83.8617C114.949 83.9533 114.837 83.9999 114.707 83.9999H105.43C105.3 83.9999 105.19 83.9548 105.096 83.8617C105.002 83.77 104.957 83.6588 104.957 83.5296V72.7549Z" fill="#0B3937"/>
<path d="M123.312 72.7549C123.312 72.6257 123.358 72.516 123.451 72.4229C123.544 72.3312 123.655 72.2847 123.785 72.2847H124.785C124.915 72.2847 125.025 72.3312 125.119 72.4229C125.211 72.5145 125.258 72.6257 125.258 72.7549V82.2587H133.063C133.192 82.2587 133.303 82.3052 133.396 82.3969C133.488 82.49 133.535 82.5997 133.535 82.7289V83.5296C133.535 83.6588 133.488 83.7685 133.396 83.8617C133.304 83.9533 133.192 83.9999 133.063 83.9999H123.785C123.655 83.9999 123.545 83.9548 123.451 83.8617C123.358 83.77 123.312 83.6588 123.312 83.5296V72.7549Z" fill="#0B3937"/>
<path d="M143.533 82.2587H151.949C152.079 82.2587 152.189 82.3052 152.283 82.3969C152.375 82.49 152.422 82.5997 152.422 82.7289V83.5296C152.422 83.6588 152.375 83.7685 152.283 83.8617C152.191 83.9533 152.079 83.9999 151.949 83.9999H142.137C142.01 83.9999 141.9 83.9548 141.809 83.8617C141.719 83.77 141.672 83.6588 141.672 83.5296V72.7549C141.672 72.6257 141.717 72.516 141.809 72.4229C141.9 72.3312 142.01 72.2847 142.137 72.2847H151.837C151.967 72.2847 152.077 72.3312 152.171 72.4229C152.263 72.5145 152.31 72.6257 152.31 72.7549V73.5556C152.31 73.6848 152.263 73.7945 152.171 73.8877C152.077 73.9793 151.967 74.0259 151.837 74.0259H143.533V82.2587ZM145.005 77.5068C145.005 77.3776 145.051 77.2679 145.144 77.1748C145.237 77.0831 145.348 77.0365 145.478 77.0365H151.173C151.303 77.0365 151.413 77.0831 151.506 77.1748C151.599 77.2664 151.645 77.3776 151.645 77.5068V78.3075C151.645 78.4547 151.599 78.5704 151.506 78.6531C151.413 78.7357 151.303 78.7777 151.173 78.7777H145.478C145.348 78.7777 145.238 78.7357 145.144 78.6531C145.051 78.5704 145.005 78.4547 145.005 78.3075V77.5068Z" fill="#0B3937"/>
<path d="M164.975 76.5122C165.031 76.6053 165.058 76.6684 165.058 76.706C165.058 76.7436 164.818 77.056 164.336 77.645C164.225 77.7561 164.132 77.8102 164.058 77.8102C163.984 77.8102 163.892 77.7546 163.78 77.645L159.725 72.7834C159.633 72.6362 159.586 72.534 159.586 72.4799C159.586 72.3507 159.66 72.2861 159.808 72.2861H161.252C161.418 72.2861 161.548 72.3417 161.64 72.4514L164.975 76.5122ZM166.809 83.5296C166.809 83.6588 166.762 83.7685 166.67 83.8616C166.576 83.9533 166.466 83.9998 166.336 83.9998H165.28C165.15 83.9998 165.04 83.9548 164.947 83.8616C164.853 83.77 164.808 83.6588 164.808 83.5296V78.9715L170.029 72.4799C170.103 72.3507 170.224 72.2861 170.39 72.2861H171.778C171.926 72.2861 172 72.3417 172 72.4514C172 72.507 171.954 72.6076 171.861 72.7549L166.806 78.97V83.5296H166.809Z" fill="#0B3937"/>
<path d="M86.082 5.23535C82.2665 5.23535 79.1641 8.32415 79.1641 12.119C79.1641 13.5568 79.6127 14.8969 80.3724 16.0011L81.7334 15.2184C81.1005 14.3455 80.7274 13.2743 80.7274 12.119C80.7274 9.18048 83.1305 6.79026 86.082 6.79026C89.0334 6.79026 91.4366 9.18048 91.4366 12.119C91.4366 13.2743 91.0635 14.3455 90.4306 15.2184L91.7915 16.0011C92.5528 14.8969 92.9999 13.5568 92.9999 12.119C92.9999 8.32565 89.8974 5.23535 86.082 5.23535Z" fill="#0B3937"/>
<path d="M86.08 0.669922C79.7331 0.669922 74.5703 5.8064 74.5703 12.1207C74.5703 14.3907 75.2379 16.509 76.3889 18.2893L77.7438 17.5111C76.7242 15.9592 76.1336 14.1053 76.1336 12.1207C76.1336 6.66574 80.594 2.22484 86.08 2.22484C91.5645 2.22484 96.0264 6.66424 96.0264 12.1207C96.0264 14.1053 95.4343 15.9592 94.4163 17.5111L95.7712 18.2893C96.9221 16.509 97.5897 14.3907 97.5897 12.1207C97.5897 5.8064 92.427 0.669922 86.08 0.669922Z" fill="#0B3937"/>
<path d="M83.5914 15.9746L69.896 23.8378V24.6716H71.5711L85.5036 16.6687C84.8058 16.58 84.1563 16.3367 83.5914 15.9746ZM86.0821 49.9289L84.0309 48.7525V50.5493L86.0821 51.7256L91.1633 48.8066V47.0098L86.0821 49.9289ZM71.4579 26.7689H69.8945V42.4277L81.9223 49.3354V47.5416L71.4579 41.5308V26.7689ZM100.706 26.7689V41.5308L93.2689 45.8019V47.5957L102.27 42.4277V26.7689H100.706ZM88.5729 15.9746C88.008 16.3382 87.3585 16.5816 86.6606 16.6687L100.593 24.6716H102.268V23.8378L88.5729 15.9746Z" fill="#0B3937"/>
<path d="M58.0856 28.5386C55.9423 28.5386 54.1992 26.8049 54.1992 24.6731C54.1992 22.5413 55.9423 20.8076 58.0856 20.8076C60.229 20.8076 61.9721 22.5413 61.9721 24.6731C61.9705 26.8049 60.2275 28.5386 58.0856 28.5386ZM58.0856 22.364C56.8048 22.364 55.7626 23.4006 55.7626 24.6746C55.7626 25.9486 56.8048 26.9852 58.0856 26.9852C59.3665 26.9852 60.4072 25.9486 60.4072 24.6746C60.4072 23.3991 59.3665 22.364 58.0856 22.364Z" fill="#0B3937"/>
<path d="M114.078 28.5386C111.934 28.5386 110.191 26.8049 110.191 24.6731C110.191 22.5413 111.934 20.8076 114.078 20.8076C116.221 20.8076 117.964 22.5413 117.964 24.6731C117.964 26.8049 116.221 28.5386 114.078 28.5386ZM114.078 22.364C112.797 22.364 111.756 23.4006 111.756 24.6746C111.756 25.9486 112.798 26.9852 114.078 26.9852C115.359 26.9852 116.401 25.9486 116.401 24.6746C116.401 23.3991 115.359 22.364 114.078 22.364Z" fill="#0B3937"/>
<path d="M86.0802 14.6312C87.475 14.6312 88.6057 13.5066 88.6057 12.1193C88.6057 10.732 87.475 9.60742 86.0802 9.60742C84.6854 9.60742 83.5547 10.732 83.5547 12.1193C83.5547 13.5066 84.6854 14.6312 86.0802 14.6312Z" fill="#0B3937"/>
<path d="M82.7051 59.4471H81.1418V33.4372H70.6758V31.8823H82.7051V59.4471Z" fill="#0B3937"/>
<path d="M110.973 23.9302V25.4851H89.7313C88.9685 24.8346 88.097 24.3058 87.1484 23.9302H110.973Z" fill="#0B3937"/>
<path d="M92.073 59.0957H90.5097V33.1278C90.5097 28.8943 87.0477 25.4509 82.7912 25.4509H60.6992V23.896H82.7897C87.9072 23.896 92.0715 28.0379 92.0715 33.1278V59.0957H92.073Z" fill="#0B3937"/>
</svg>
