<svg width="151" height="66" viewBox="0 0 151 66" fill="none" xmlns="http://www.w3.org/2000/svg">
<path d="M0.160156 54.9382C0.160156 54.8374 0.199709 54.7483 0.281456 54.6687C0.361885 54.5901 0.467367 54.5503 0.596581 54.5503H11.9186C12.0478 54.5503 12.1533 54.5901 12.2337 54.6687C12.3141 54.7472 12.355 54.8374 12.355 54.9382V55.6272C12.355 55.9003 12.21 56.0362 11.9186 56.0362H0.596581C0.467367 56.0362 0.361885 55.9964 0.281456 55.9179C0.199709 55.8393 0.160156 55.7421 0.160156 55.6272V54.9382ZM5.29969 57.61C5.29969 57.4952 5.34451 57.4014 5.43285 57.33C5.52119 57.2585 5.63063 57.2221 5.75984 57.2221H6.73026C6.85948 57.2221 6.96496 57.2585 7.04539 57.33C7.12581 57.4014 7.16669 57.4952 7.16669 57.61V65.281C7.16669 65.3959 7.12581 65.4896 7.04539 65.5611C6.96364 65.6326 6.85948 65.6689 6.73026 65.6689H5.75984C5.63063 65.6689 5.52119 65.6338 5.43285 65.5611C5.34451 65.4896 5.29969 65.3959 5.29969 65.281V57.61Z" fill="#0B3937"/>
<path d="M21.1335 56.8985C21.1823 56.7978 21.2667 56.7122 21.388 56.6396C21.5093 56.5681 21.6266 56.5317 21.74 56.5317H22.6129C22.7263 56.5317 22.8436 56.5681 22.9649 56.6396C23.0862 56.711 23.1785 56.7978 23.2444 56.8985L28.2627 65.3031C28.2943 65.3898 28.3114 65.4473 28.3114 65.4754C28.3114 65.6043 28.231 65.6687 28.0688 65.6687H26.9534C26.7754 65.6687 26.6303 65.582 26.517 65.4098L25.3778 63.5137H20.6496C20.4874 63.5137 20.407 63.4492 20.407 63.3203C20.407 63.2922 20.4228 63.2336 20.4558 63.1481L20.8434 62.4801C20.9568 62.3078 21.1019 62.2211 21.2799 62.2211H24.6012L22.1527 57.9755L17.886 65.4098C17.8531 65.4812 17.7924 65.5422 17.7041 65.5926C17.6144 65.643 17.53 65.6676 17.4496 65.6676H16.4067C16.2445 65.6676 16.1641 65.6031 16.1641 65.4742C16.1641 65.4461 16.1799 65.3875 16.2128 65.3019L21.1335 56.8985Z" fill="#0B3937"/>
<path d="M35.3398 63.2992C35.3398 63.1985 35.3794 63.1129 35.4612 63.0403C35.5416 62.9688 35.6391 62.9324 35.7525 62.9324H36.5529C36.7783 62.9324 36.9089 63.0332 36.9405 63.2336C37.0209 63.5348 37.191 63.7902 37.4495 63.9988C37.7079 64.2074 38.0151 64.3117 38.3711 64.3117H42.5415C42.945 64.3117 43.2852 64.1793 43.5594 63.9133C43.8337 63.6473 43.9721 63.3356 43.9721 62.9758C43.9721 62.6172 43.835 62.3078 43.5594 62.0489C43.2838 61.7899 42.945 61.661 42.5415 61.661H38.5412C38.1364 61.661 37.7606 61.5965 37.4139 61.4676C37.0658 61.3387 36.7599 61.1594 36.4922 60.9286C36.2259 60.6989 36.0149 60.4293 35.862 60.12C35.7077 59.8118 35.6312 59.4778 35.6312 59.118C35.6312 58.7595 35.7077 58.4255 35.862 58.1161C36.0149 57.8079 36.2259 57.5349 36.4922 57.297C36.7586 57.0603 37.0658 56.8739 37.4139 56.7368C37.7606 56.6009 38.1377 56.5317 38.5412 56.5317H42.4927C42.8487 56.5317 43.1915 56.5892 43.5238 56.704C43.8547 56.8188 44.1461 56.977 44.3966 57.1786C44.6472 57.3802 44.8568 57.6169 45.0269 57.8899C45.197 58.163 45.3064 58.4571 45.3539 58.7735C45.3539 59.0184 45.2168 59.1403 44.9412 59.1403H44.1659C43.9233 59.1403 43.7862 59.0395 43.7532 58.8391C43.6886 58.5661 43.5357 58.3399 43.2931 58.1606C43.0505 57.9813 42.767 57.8911 42.4439 57.8911H38.5161C38.1443 57.8911 37.8292 58.0083 37.5708 58.2438C37.3123 58.4794 37.1831 58.7595 37.1831 59.0876C37.1831 59.4157 37.3123 59.7004 37.5708 59.9418C37.8292 60.1844 38.1443 60.3051 38.5161 60.3051H42.5165C42.9371 60.3051 43.3326 60.3743 43.7044 60.5114C44.0763 60.6485 44.3993 60.836 44.6749 61.0739C44.9491 61.3118 45.168 61.593 45.3288 61.9176C45.4897 62.2422 45.5714 62.5914 45.5714 62.9676C45.5714 63.3438 45.4897 63.6918 45.3288 64.0164C45.1667 64.341 44.9491 64.6258 44.6749 64.8707C44.3993 65.1156 44.0763 65.3113 43.7044 65.4543C43.3326 65.5984 42.9371 65.6699 42.5165 65.6699H38.346C37.9584 65.6699 37.5905 65.609 37.2425 65.4871C36.8944 65.3652 36.5885 65.1965 36.3208 64.9808C36.0532 64.7652 35.8316 64.5145 35.6536 64.2262C35.477 63.9379 35.3728 63.6297 35.3398 63.2992Z" fill="#0B3937"/>
<path d="M64.0237 65.4109C64.1529 65.4976 64.2175 65.5691 64.2175 65.6265C64.2175 65.6558 64.1845 65.6699 64.1199 65.6699H62.0842C62.0195 65.6699 61.9299 65.6523 61.8178 65.616C61.7044 65.5808 61.6082 65.5269 61.5264 65.4543L55.6103 61.5321V65.3031C55.6103 65.4039 55.5694 65.4894 55.489 65.5621C55.4086 65.6336 55.311 65.6699 55.1976 65.6699H54.276C54.1626 65.6699 54.0663 65.6348 53.9846 65.5621C53.9028 65.4906 53.8633 65.4039 53.8633 65.3031V56.8985C53.8633 56.7837 53.9028 56.6934 53.9846 56.629C54.065 56.5645 54.1626 56.5317 54.276 56.5317H55.1976C55.311 56.5317 55.4073 56.5645 55.489 56.629C55.5694 56.6934 55.6103 56.7837 55.6103 56.8985V59.9372L64.0237 65.4109ZM58.1075 60.2383C58.0429 60.2676 58.0021 60.2817 57.9862 60.2817C57.9533 60.2817 57.9216 60.2676 57.8887 60.2383L57.0646 59.7637C57.0158 59.7204 56.9921 59.677 56.9921 59.6348C56.9921 59.5774 57.0158 59.527 57.0646 59.4837L61.3313 56.6606C61.4289 56.5892 61.5093 56.5493 61.5739 56.5423C61.6385 56.5352 61.711 56.5317 61.7928 56.5317H63.5622C63.611 56.5317 63.6347 56.5458 63.6347 56.5751C63.6347 56.6044 63.578 56.6618 63.4646 56.7474L58.1075 60.2383Z" fill="#0B3937"/>
<path d="M84.1469 65.3244C84.1785 65.4111 84.1957 65.4615 84.1957 65.4756C84.1957 65.6045 84.1153 65.6689 83.9531 65.6689H82.595C82.4658 65.6689 82.3682 65.6115 82.3036 65.4966L80.9218 62.9326H75.1033C74.9899 62.9326 74.9332 62.8822 74.9332 62.7814C74.9332 62.7381 74.9411 62.7029 74.9569 62.6736L75.4896 61.7256C75.5542 61.5826 75.6755 61.51 75.8535 61.51H80.1452L77.1878 55.8429L71.9019 65.4966C71.8373 65.6115 71.7398 65.6689 71.6106 65.6689H70.3989C70.2367 65.6689 70.1562 65.6045 70.1562 65.4756C70.1562 65.4615 70.1721 65.4111 70.205 65.3244L75.9511 54.9593C76.0157 54.8444 76.1093 54.7472 76.2293 54.6687C76.3506 54.5901 76.4758 54.5503 76.6051 54.5503H77.7442C77.8735 54.5503 77.9987 54.5901 78.12 54.6687C78.2413 54.7472 78.3336 54.8444 78.3982 54.9593L84.1469 65.3244Z" fill="#0B3937"/>
<path d="M91.6367 56.8985C91.6367 56.7978 91.6763 56.7122 91.758 56.6396C91.8385 56.5681 91.936 56.5317 92.0494 56.5317H92.9223C93.0357 56.5317 93.1319 56.5681 93.2137 56.6396C93.2941 56.711 93.335 56.7978 93.335 56.8985V64.3117H100.148C100.261 64.3117 100.357 64.3481 100.439 64.4195C100.519 64.4922 100.56 64.5777 100.56 64.6785V65.3031C100.56 65.4039 100.519 65.4894 100.439 65.5621C100.359 65.6336 100.261 65.6699 100.148 65.6699H92.0494C91.936 65.6699 91.8398 65.6348 91.758 65.5621C91.6763 65.4906 91.6367 65.4039 91.6367 65.3031V56.8985Z" fill="#0B3937"/>
<path d="M107.664 56.8985C107.664 56.7978 107.704 56.7122 107.785 56.6396C107.866 56.5681 107.963 56.5317 108.077 56.5317H108.95C109.063 56.5317 109.159 56.5681 109.241 56.6396C109.321 56.711 109.362 56.7978 109.362 56.8985V64.3117H116.175C116.288 64.3117 116.385 64.3481 116.466 64.4195C116.547 64.4922 116.588 64.5777 116.588 64.6785V65.3031C116.588 65.4039 116.547 65.4894 116.466 65.5621C116.386 65.6336 116.288 65.6699 116.175 65.6699H108.077C107.963 65.6699 107.867 65.6348 107.785 65.5621C107.704 65.4906 107.664 65.4039 107.664 65.3031V56.8985Z" fill="#0B3937"/>
<path d="M125.312 64.3117H132.659C132.772 64.3117 132.868 64.3481 132.95 64.4195C133.03 64.4922 133.071 64.5777 133.071 64.6785V65.3031C133.071 65.4039 133.03 65.4894 132.95 65.5621C132.87 65.6336 132.772 65.6699 132.659 65.6699H124.094C123.983 65.6699 123.887 65.6348 123.807 65.5621C123.728 65.4906 123.688 65.4039 123.688 65.3031V56.8985C123.688 56.7978 123.727 56.7122 123.807 56.6396C123.887 56.5681 123.983 56.5317 124.094 56.5317H132.561C132.674 56.5317 132.771 56.5681 132.852 56.6396C132.933 56.711 132.974 56.7978 132.974 56.8985V57.5231C132.974 57.6239 132.933 57.7095 132.852 57.7821C132.771 57.8536 132.674 57.8899 132.561 57.8899H125.312V64.3117ZM126.597 60.6051C126.597 60.5043 126.637 60.4188 126.719 60.3461C126.799 60.2747 126.897 60.2383 127.01 60.2383H131.981C132.094 60.2383 132.191 60.2747 132.272 60.3461C132.353 60.4176 132.394 60.5043 132.394 60.6051V61.2297C132.394 61.3446 132.353 61.4348 132.272 61.4993C132.191 61.5637 132.094 61.5965 131.981 61.5965H127.01C126.897 61.5965 126.8 61.5637 126.719 61.4993C126.637 61.4348 126.597 61.3446 126.597 61.2297V60.6051Z" fill="#0B3937"/>
<path d="M144.029 59.8292C144.077 59.9018 144.101 59.951 144.101 59.9803C144.101 60.0096 143.892 60.2534 143.471 60.7127C143.373 60.7995 143.293 60.8416 143.228 60.8416C143.164 60.8416 143.083 60.7983 142.986 60.7127L139.446 56.9206C139.365 56.8058 139.324 56.7261 139.324 56.6839C139.324 56.5831 139.389 56.5327 139.518 56.5327H140.779C140.924 56.5327 141.037 56.5761 141.117 56.6616L144.029 59.8292ZM145.629 65.3029C145.629 65.4037 145.588 65.4892 145.508 65.5619C145.426 65.6334 145.33 65.6697 145.217 65.6697H144.295C144.182 65.6697 144.085 65.6346 144.004 65.5619C143.922 65.4904 143.882 65.4037 143.882 65.3029V61.7475L148.44 56.6839C148.505 56.5831 148.61 56.5327 148.755 56.5327H149.967C150.096 56.5327 150.161 56.5761 150.161 56.6616C150.161 56.705 150.12 56.7835 150.04 56.8983L145.627 61.7463V65.3029H145.629Z" fill="#0B3937"/>
<path d="M75.1637 4.23145C71.8332 4.23145 69.125 6.64079 69.125 9.60091C69.125 10.7224 69.5166 11.7677 70.1798 12.629L71.3678 12.0185C70.8153 11.3376 70.4896 10.5021 70.4896 9.60091C70.4896 7.30875 72.5874 5.44432 75.1637 5.44432C77.7401 5.44432 79.8378 7.30875 79.8378 9.60091C79.8378 10.5021 79.5122 11.3376 78.9597 12.0185L80.1477 12.629C80.8122 11.7677 81.2025 10.7224 81.2025 9.60091C81.2025 6.64196 78.4943 4.23145 75.1637 4.23145Z" fill="#0B3937"/>
<path d="M75.1603 0.669922C69.6199 0.669922 65.1133 4.67652 65.1133 9.60184C65.1133 11.3725 65.6961 13.0248 66.7008 14.4135L67.8835 13.8065C66.9935 12.5959 66.4779 11.1499 66.4779 9.60184C66.4779 5.34682 70.3715 1.8828 75.1603 1.8828C79.9478 1.8828 83.8426 5.34565 83.8426 9.60184C83.8426 11.1499 83.3258 12.5959 82.4371 13.8065L83.6198 14.4135C84.6245 13.0248 85.2073 11.3725 85.2073 9.60184C85.2073 4.67652 80.7006 0.669922 75.1603 0.669922Z" fill="#0B3937"/>
<path d="M72.9914 12.6074L61.0365 18.7409V19.3913H62.4987L74.6606 13.1488C74.0514 13.0797 73.4845 12.8898 72.9914 12.6074ZM75.1656 39.0926L73.375 38.1751V39.5766L75.1656 40.4942L79.601 38.2173V36.8157L75.1656 39.0926ZM62.3998 21.0272H61.0352V33.2415L71.5344 38.6298V37.2306L62.3998 32.5419V21.0272ZM87.9313 21.0272V32.5419L81.439 35.8735V37.2727L89.296 33.2415V21.0272H87.9313ZM77.3398 12.6074C76.8467 12.891 76.2797 13.0809 75.6706 13.1488L87.8324 19.3913H89.2947V18.7409L77.3398 12.6074Z" fill="#0B3937"/>
<path d="M50.7206 22.4073C48.8497 22.4073 47.3281 21.055 47.3281 19.3921C47.3281 17.7293 48.8497 16.377 50.7206 16.377C52.5916 16.377 54.1132 17.7293 54.1132 19.3921C54.1118 21.055 52.5903 22.4073 50.7206 22.4073ZM50.7206 17.591C49.6026 17.591 48.6928 18.3996 48.6928 19.3933C48.6928 20.3871 49.6026 21.1956 50.7206 21.1956C51.8387 21.1956 52.7472 20.3871 52.7472 19.3933C52.7472 18.3984 51.8387 17.591 50.7206 17.591Z" fill="#0B3937"/>
<path d="M99.6034 22.4073C97.7325 22.4073 96.2109 21.055 96.2109 19.3921C96.2109 17.7293 97.7325 16.377 99.6034 16.377C101.474 16.377 102.996 17.7293 102.996 19.3921C102.996 21.055 101.474 22.4073 99.6034 22.4073ZM99.6034 17.591C98.4854 17.591 97.5769 18.3996 97.5769 19.3933C97.5769 20.3871 98.4867 21.1956 99.6034 21.1956C100.722 21.1956 101.631 20.3871 101.631 19.3933C101.631 18.3984 100.722 17.591 99.6034 17.591Z" fill="#0B3937"/>
<path d="M75.1616 11.5603C76.3791 11.5603 77.3661 10.6831 77.3661 9.60096C77.3661 8.51884 76.3791 7.6416 75.1616 7.6416C73.944 7.6416 72.957 8.51884 72.957 9.60096C72.957 10.6831 73.944 11.5603 75.1616 11.5603Z" fill="#0B3937"/>
<path d="M72.2193 46.5179H70.8547V26.2295H61.7188V25.0166H72.2193V46.5179Z" fill="#0B3937"/>
<path d="M96.8866 18.8135V20.0263H78.3445C77.6786 19.5189 76.9179 19.1064 76.0898 18.8135H96.8866Z" fill="#0B3937"/>
<path d="M80.3945 46.2438H79.0298V25.9882C79.0298 22.6859 76.0078 20 72.2923 20H53.0078V18.7871H72.2909C76.758 18.7871 80.3932 22.0179 80.3932 25.9882V46.2438H80.3945Z" fill="#0B3937"/>
</svg>
