<svg width="298" height="157" viewBox="0 0 298 157" fill="none" xmlns="http://www.w3.org/2000/svg">
<path d="M0.160156 131.189C0.160156 130.946 0.238691 130.732 0.401006 130.541C0.560703 130.352 0.770145 130.256 1.02671 130.256H23.5073C23.7639 130.256 23.9733 130.352 24.133 130.541C24.2927 130.729 24.3739 130.946 24.3739 131.189V132.846C24.3739 133.503 24.0859 133.83 23.5073 133.83H1.02671C0.770145 133.83 0.560703 133.734 0.401006 133.545C0.238691 133.356 0.160156 133.122 0.160156 132.846V131.189ZM10.365 137.615C10.365 137.339 10.4541 137.113 10.6295 136.941C10.8049 136.769 11.0222 136.682 11.2787 136.682H13.2055C13.4621 136.682 13.6716 136.769 13.8312 136.941C13.9909 137.113 14.0721 137.339 14.0721 137.615V156.064C14.0721 156.34 13.9909 156.566 13.8312 156.738C13.6689 156.91 13.4621 156.997 13.2055 156.997H11.2787C11.0222 156.997 10.8049 156.913 10.6295 156.738C10.4541 156.566 10.365 156.34 10.365 156.064V137.615Z" fill="#0B3937"/>
<path d="M41.8007 135.904C41.8976 135.662 42.0652 135.456 42.306 135.281C42.5469 135.109 42.7799 135.022 43.005 135.022H44.7381C44.9633 135.022 45.1963 135.109 45.4371 135.281C45.678 135.453 45.8612 135.662 45.9921 135.904L55.9562 156.118C56.019 156.327 56.053 156.465 56.053 156.532C56.053 156.842 55.8933 156.997 55.5713 156.997H53.3565C53.0031 156.997 52.7151 156.789 52.49 156.374L50.228 151.814H40.84C40.5179 151.814 40.3583 151.659 40.3583 151.349C40.3583 151.282 40.3897 151.141 40.4551 150.935L41.2248 149.328C41.4499 148.914 41.7379 148.705 42.0914 148.705H48.686L43.8245 138.494L35.3527 156.374C35.2872 156.546 35.1668 156.693 34.9914 156.814C34.8134 156.935 34.6458 156.994 34.4861 156.994H32.4153C32.0933 156.994 31.9336 156.839 31.9336 156.529C31.9336 156.462 31.965 156.321 32.0305 156.115L41.8007 135.904Z" fill="#0B3937"/>
<path d="M70.0117 151.298C70.0117 151.056 70.0903 150.85 70.2526 150.676C70.4123 150.504 70.606 150.416 70.8311 150.416H72.4203C72.8679 150.416 73.1271 150.659 73.19 151.141C73.3496 151.865 73.6874 152.479 74.2005 152.981C74.7136 153.483 75.3236 153.734 76.0305 153.734H84.3111C85.1122 153.734 85.7877 153.415 86.3322 152.775C86.8768 152.136 87.1516 151.386 87.1516 150.521C87.1516 149.658 86.8794 148.914 86.3322 148.291C85.7851 147.668 85.1122 147.358 84.3111 147.358H76.3682C75.5645 147.358 74.8183 147.203 74.1298 146.893C73.4387 146.583 72.8313 146.152 72.2998 145.597C71.771 145.044 71.3521 144.396 71.0484 143.652C70.7421 142.911 70.5903 142.108 70.5903 141.242C70.5903 140.38 70.7421 139.577 71.0484 138.833C71.3521 138.091 71.771 137.435 72.2998 136.862C72.8287 136.293 73.4387 135.845 74.1298 135.515C74.8183 135.188 75.5671 135.022 76.3682 135.022H84.2143C84.9211 135.022 85.6018 135.16 86.2615 135.436C86.9186 135.712 87.4972 136.093 87.9946 136.578C88.492 137.063 88.9083 137.632 89.246 138.289C89.5837 138.945 89.801 139.653 89.8953 140.414C89.8953 141.003 89.623 141.296 89.0759 141.296H87.5365C87.0548 141.296 86.7825 141.053 86.7171 140.571C86.5888 139.915 86.2851 139.371 85.8034 138.94C85.3217 138.508 84.7588 138.291 84.1174 138.291H76.3184C75.5802 138.291 74.9545 138.573 74.4414 139.14C73.9282 139.706 73.6717 140.38 73.6717 141.169C73.6717 141.958 73.9282 142.643 74.4414 143.224C74.9545 143.807 75.5802 144.097 76.3184 144.097H84.2614C85.0965 144.097 85.8819 144.264 86.6202 144.593C87.3585 144.923 87.9999 145.374 88.547 145.946C89.0916 146.518 89.5261 147.195 89.8455 147.975C90.1649 148.756 90.3273 149.596 90.3273 150.501C90.3273 151.406 90.1649 152.243 89.8455 153.023C89.5235 153.804 89.0916 154.489 88.547 155.078C87.9999 155.667 87.3585 156.138 86.6202 156.482C85.8819 156.828 85.0965 157 84.2614 157H75.9807C75.211 157 74.4806 156.854 73.7895 156.56C73.0983 156.267 72.4909 155.861 71.9595 155.343C71.428 154.824 70.9882 154.221 70.6348 153.528C70.284 152.834 70.0772 152.093 70.0117 151.298Z" fill="#0B3937"/>
<path d="M126.963 156.377C127.22 156.586 127.348 156.758 127.348 156.896C127.348 156.966 127.283 157 127.154 157H123.112C122.984 157 122.806 156.958 122.583 156.87C122.358 156.786 122.167 156.656 122.005 156.482L110.258 147.048V156.118C110.258 156.36 110.177 156.566 110.017 156.741C109.857 156.913 109.664 157 109.438 157H107.608C107.383 157 107.192 156.916 107.03 156.741C106.868 156.569 106.789 156.36 106.789 156.118V135.904C106.789 135.628 106.868 135.411 107.03 135.256C107.19 135.101 107.383 135.022 107.608 135.022H109.438C109.664 135.022 109.855 135.101 110.017 135.256C110.177 135.411 110.258 135.628 110.258 135.904V143.212L126.963 156.377ZM115.216 143.937C115.088 144.007 115.007 144.041 114.975 144.041C114.91 144.041 114.847 144.007 114.782 143.937L113.146 142.795C113.049 142.691 113.002 142.587 113.002 142.485C113.002 142.347 113.049 142.226 113.146 142.122L121.617 135.332C121.811 135.16 121.971 135.064 122.099 135.047C122.227 135.03 122.371 135.022 122.534 135.022H126.047C126.144 135.022 126.191 135.056 126.191 135.126C126.191 135.197 126.078 135.335 125.853 135.541L115.216 143.937Z" fill="#0B3937"/>
<path d="M166.916 156.169C166.979 156.377 167.013 156.498 167.013 156.532C167.013 156.842 166.853 156.997 166.531 156.997H163.835C163.578 156.997 163.384 156.859 163.256 156.583L160.513 150.416H148.959C148.734 150.416 148.622 150.295 148.622 150.053C148.622 149.948 148.637 149.864 148.669 149.793L149.726 147.513C149.855 147.169 150.096 146.995 150.449 146.995H158.971L153.098 133.365L142.603 156.583C142.475 156.859 142.281 156.997 142.024 156.997H139.618C139.296 156.997 139.137 156.842 139.137 156.532C139.137 156.498 139.168 156.377 139.234 156.169L150.643 131.239C150.771 130.963 150.957 130.729 151.195 130.541C151.436 130.352 151.685 130.256 151.941 130.256H154.203C154.46 130.256 154.708 130.352 154.949 130.541C155.19 130.729 155.373 130.963 155.502 131.239L166.916 156.169Z" fill="#0B3937"/>
<path d="M181.793 135.904C181.793 135.662 181.872 135.456 182.034 135.281C182.194 135.109 182.387 135.022 182.612 135.022H184.345C184.571 135.022 184.762 135.109 184.924 135.281C185.084 135.453 185.165 135.662 185.165 135.904V153.734H198.692C198.917 153.734 199.108 153.821 199.271 153.993C199.43 154.168 199.511 154.373 199.511 154.616V156.118C199.511 156.36 199.43 156.566 199.271 156.741C199.111 156.913 198.917 157 198.692 157H182.612C182.387 157 182.196 156.916 182.034 156.741C181.872 156.569 181.793 156.36 181.793 156.118V135.904Z" fill="#0B3937"/>
<path d="M213.613 135.904C213.613 135.662 213.692 135.456 213.854 135.281C214.014 135.109 214.208 135.022 214.433 135.022H216.166C216.391 135.022 216.582 135.109 216.744 135.281C216.904 135.453 216.985 135.662 216.985 135.904V153.734H230.512C230.738 153.734 230.929 153.821 231.091 153.993C231.251 154.168 231.332 154.373 231.332 154.616V156.118C231.332 156.36 231.251 156.566 231.091 156.741C230.931 156.913 230.738 157 230.512 157H214.433C214.208 157 214.016 156.916 213.854 156.741C213.692 156.569 213.613 156.36 213.613 156.118V135.904Z" fill="#0B3937"/>
<path d="M248.659 153.734H263.246C263.471 153.734 263.663 153.821 263.825 153.993C263.985 154.168 264.066 154.373 264.066 154.616V156.118C264.066 156.36 263.985 156.566 263.825 156.741C263.665 156.913 263.471 157 263.246 157H246.24C246.02 157 245.829 156.916 245.672 156.741C245.515 156.569 245.434 156.36 245.434 156.118V135.904C245.434 135.662 245.512 135.456 245.672 135.281C245.829 135.109 246.02 135.022 246.24 135.022H263.053C263.278 135.022 263.469 135.109 263.631 135.281C263.791 135.453 263.872 135.662 263.872 135.904V137.406C263.872 137.649 263.791 137.855 263.631 138.029C263.469 138.201 263.278 138.289 263.053 138.289H248.659V153.734ZM251.211 144.819C251.211 144.576 251.29 144.371 251.452 144.196C251.612 144.024 251.806 143.937 252.031 143.937H261.901C262.126 143.937 262.317 144.024 262.479 144.196C262.639 144.368 262.72 144.576 262.72 144.819V146.321C262.72 146.597 262.639 146.814 262.479 146.969C262.317 147.124 262.126 147.203 261.901 147.203H252.031C251.806 147.203 251.615 147.124 251.452 146.969C251.29 146.814 251.211 146.597 251.211 146.321V144.819Z" fill="#0B3937"/>
<path d="M285.825 142.953C285.922 143.127 285.969 143.246 285.969 143.316C285.969 143.387 285.553 143.973 284.718 145.078C284.524 145.286 284.364 145.388 284.236 145.388C284.108 145.388 283.948 145.284 283.755 145.078L276.725 135.957C276.566 135.681 276.484 135.489 276.484 135.388C276.484 135.146 276.613 135.024 276.869 135.024H279.372C279.66 135.024 279.885 135.129 280.045 135.334L285.825 142.953ZM289.004 156.118C289.004 156.36 288.922 156.566 288.763 156.74C288.6 156.912 288.409 157 288.184 157H286.354C286.129 157 285.938 156.915 285.776 156.74C285.613 156.569 285.535 156.36 285.535 156.118V147.566L294.585 135.388C294.713 135.146 294.923 135.024 295.211 135.024H297.617C297.873 135.024 298.002 135.129 298.002 135.334C298.002 135.439 297.92 135.628 297.761 135.904L288.998 147.564V156.118H289.004Z" fill="#0B3937"/>
<path d="M149.08 9.23535C142.467 9.23535 137.09 15.0301 137.09 22.1494C137.09 24.8467 137.867 27.3607 139.184 29.4322L141.543 27.9639C140.446 26.3263 139.799 24.3168 139.799 22.1494C139.799 16.6366 143.965 12.1524 149.08 12.1524C154.196 12.1524 158.361 16.6366 158.361 22.1494C158.361 24.3168 157.714 26.3263 156.617 27.9639L158.976 29.4322C160.296 27.3607 161.071 24.8467 161.071 22.1494C161.071 15.0329 155.693 9.23535 149.08 9.23535Z" fill="#0B3937"/>
<path d="M149.082 0.669922C138.081 0.669922 129.133 10.3062 129.133 22.152C129.133 26.4107 130.29 30.3847 132.285 33.7245L134.633 32.2646C132.866 29.3531 131.842 25.8752 131.842 22.152C131.842 11.9183 139.573 3.58701 149.082 3.58701C158.588 3.58701 166.321 11.9155 166.321 22.152C166.321 25.8752 165.295 29.3531 163.53 32.2646L165.879 33.7245C167.874 30.3847 169.031 26.4107 169.031 22.152C169.031 10.3062 160.083 0.669922 149.082 0.669922Z" fill="#0B3937"/>
<path d="M144.763 29.3813L121.026 44.133V45.6973H123.929L148.078 30.6835C146.868 30.5172 145.742 30.0606 144.763 29.3813ZM149.08 93.0808L145.525 90.8739V94.2448L149.08 96.4516L157.887 90.9754V87.6046L149.08 93.0808ZM123.733 49.6318H121.023V79.0083L141.87 91.9675V88.6023L123.733 77.3257V49.6318ZM174.428 49.6318V77.3257L161.537 85.3386V88.7038L177.137 79.0083V49.6318H174.428ZM153.397 29.3813C152.418 30.0634 151.293 30.52 150.083 30.6835L174.231 45.6973H177.135V44.133L153.397 29.3813Z" fill="#0B3937"/>
<path d="M100.556 52.9519C96.8415 52.9519 93.8203 49.6994 93.8203 45.7001C93.8203 41.7007 96.8415 38.4482 100.556 38.4482C104.271 38.4482 107.292 41.7007 107.292 45.7001C107.29 49.6994 104.269 52.9519 100.556 52.9519ZM100.556 41.3681C98.3363 41.3681 96.5299 43.3129 96.5299 45.7029C96.5299 48.0929 98.3363 50.0376 100.556 50.0376C102.776 50.0376 104.58 48.0929 104.58 45.7029C104.58 43.31 102.776 41.3681 100.556 41.3681Z" fill="#0B3937"/>
<path d="M197.607 52.9519C193.892 52.9519 190.871 49.6994 190.871 45.7001C190.871 41.7007 193.892 38.4482 197.607 38.4482C201.322 38.4482 204.343 41.7007 204.343 45.7001C204.343 49.6994 201.322 52.9519 197.607 52.9519ZM197.607 41.3681C195.387 41.3681 193.583 43.3129 193.583 45.7029C193.583 48.0929 195.39 50.0376 197.607 50.0376C199.827 50.0376 201.634 48.0929 201.634 45.7029C201.634 43.31 199.827 41.3681 197.607 41.3681Z" fill="#0B3937"/>
<path d="M149.08 26.8614C151.498 26.8614 153.458 24.7516 153.458 22.149C153.458 19.5464 151.498 17.4365 149.08 17.4365C146.663 17.4365 144.703 19.5464 144.703 22.149C144.703 24.7516 146.663 26.8614 149.08 26.8614Z" fill="#0B3937"/>
<path d="M143.232 110.938H140.523V62.1427H122.383V59.2256H143.232V110.938Z" fill="#0B3937"/>
<path d="M192.227 44.3076V47.2247H155.41C154.088 46.0043 152.578 45.0122 150.934 44.3076H192.227Z" fill="#0B3937"/>
<path d="M159.468 110.279H156.758V61.5624C156.758 53.6201 150.758 47.1602 143.38 47.1602H105.09V44.2432H143.378C152.248 44.2432 159.465 52.0136 159.465 61.5624V110.279H159.468Z" fill="#0B3937"/>
</svg>
