<svg width="80" height="81" viewBox="0 0 80 81" fill="none" xmlns="http://www.w3.org/2000/svg">
<path d="M66.072 31.608C65.2325 30.4906 64.1629 29.5665 62.9355 28.8982C61.708 28.2299 60.3513 27.8331 58.9572 27.7344C57.5631 27.6358 56.164 27.8378 54.8547 28.3267C53.5454 28.8155 52.3563 29.5799 51.368 30.568L47.408 34.568L41.808 28.968L40.136 27.296L40 27.128C39.2909 26.4301 38.4242 25.9131 37.4732 25.6207C36.5221 25.3283 35.5147 25.2691 34.536 25.448V19.296L40.936 10.496C41.1171 10.2523 41.1992 9.94903 41.1656 9.64726C41.132 9.34549 40.9852 9.06768 40.7549 8.86982C40.5246 8.67197 40.2278 8.56878 39.9244 8.58106C39.621 8.59334 39.3336 8.72018 39.12 8.936L34.504 13.552V13.128C34.504 12.8097 34.3776 12.5045 34.1525 12.2795C33.9275 12.0544 33.6223 11.928 33.304 11.928H6.66399C6.34573 11.928 6.0405 12.0544 5.81546 12.2795C5.59042 12.5045 5.46399 12.8097 5.46399 13.128V39.848C5.46399 40.1663 5.59042 40.4715 5.81546 40.6965C6.0405 40.9216 6.34573 41.048 6.66399 41.048H33.336C33.6542 41.048 33.9595 40.9216 34.1845 40.6965C34.4096 40.4715 34.536 40.1663 34.536 39.848V39.216L44.512 49.168H42.696C41.1363 49.1722 39.6415 49.7925 38.5372 50.8939C37.4328 51.9952 36.8084 53.4884 36.8 55.048C36.8021 56.6153 37.4257 58.1178 38.5339 59.2261C39.6422 60.3343 41.1447 60.9579 42.712 60.96H56.84C57.1582 60.96 57.4635 60.8336 57.6885 60.6085C57.9136 60.3835 58.04 60.0783 58.04 59.76C58.04 59.4417 57.9136 59.1365 57.6885 58.9115C57.4635 58.6864 57.1582 58.56 56.84 58.56H42.696C42.0007 58.5603 41.321 58.3541 40.743 57.9677C40.1649 57.5814 39.7146 57.0321 39.449 56.3895C39.1834 55.747 39.1145 55.0401 39.2511 54.3583C39.3876 53.6766 39.7234 53.0507 40.216 52.56C40.541 52.2337 40.9276 51.9752 41.3533 51.7994C41.779 51.6236 42.2354 51.5341 42.696 51.536H46.92L49.32 53.936C49.5453 54.1604 49.85 54.2868 50.168 54.288C50.4052 54.2878 50.637 54.2173 50.8341 54.0854C51.0313 53.9536 51.1849 53.7662 51.2756 53.5471C51.3664 53.3279 51.3901 53.0868 51.3439 52.8542C51.2977 52.6215 51.1836 52.4078 51.016 52.24L46.024 47.232L32.936 34.2C32.4248 33.6855 32.0712 33.0358 31.9167 32.3272C31.7622 31.6185 31.8133 30.8806 32.064 30.2C32.2136 29.7321 32.465 29.3032 32.8 28.944C32.8 28.944 32.8 28.88 32.856 28.856H32.904C33.6177 28.1447 34.5843 27.7453 35.592 27.7453C36.5997 27.7453 37.5662 28.1447 38.28 28.856L38.424 29L40.096 30.672L46.496 37.072C46.722 37.2948 47.0266 37.4197 47.344 37.4197C47.6614 37.4197 47.966 37.2948 48.192 37.072L52.992 32.272C53.7384 31.5278 54.6359 30.9525 55.6239 30.5852C56.6118 30.2178 57.6672 30.067 58.7185 30.1429C59.7698 30.2187 60.7925 30.5195 61.7175 31.0248C62.6425 31.5302 63.4482 32.2283 64.08 33.072L72.376 44.016C72.4886 44.1641 72.6337 44.2844 72.8002 44.3676C72.9666 44.4509 73.1499 44.4948 73.336 44.496C73.5588 44.496 73.7773 44.4339 73.9669 44.3168C74.1564 44.1996 74.3096 44.032 74.4093 43.8327C74.509 43.6333 74.5512 43.4102 74.5311 43.1882C74.5111 42.9663 74.4297 42.7543 74.296 42.576L66.072 31.608ZM32.136 15.968L21.6 26.512L14.096 20.544C13.8736 20.357 13.591 20.257 13.3005 20.2626C13.01 20.2682 12.7314 20.379 12.5164 20.5745C12.3014 20.7699 12.1646 21.0367 12.1315 21.3254C12.0983 21.614 12.171 21.9049 12.336 22.144L20.648 35.448C20.7498 35.6154 20.8915 35.7549 21.0604 35.854C21.2294 35.9531 21.4202 36.0088 21.616 36.016H21.664C21.8522 36.0157 22.0377 35.9714 22.2058 35.8867C22.3739 35.802 22.5198 35.6791 22.632 35.528L32.136 22.568V26.384C31.8141 26.6026 31.5141 26.8518 31.24 27.128C31.2114 27.1622 31.1872 27.1998 31.168 27.24C31.168 27.24 31.112 27.24 31.096 27.288C30.5171 27.8906 30.075 28.611 29.8 29.4C29.7954 29.4211 29.7954 29.4429 29.8 29.464C29.4185 30.5594 29.352 31.7399 29.6079 32.8713C29.8639 34.0026 30.4321 35.0395 31.248 35.864L32.144 36.752V38.584H7.86399V14.352H32.136V15.968ZM29.8 21.688L21.744 32.648L18.056 26.744L20.92 29.024C21.1507 29.2091 21.4415 29.3024 21.7368 29.2862C22.0321 29.27 22.311 29.1452 22.52 28.936L29.8 21.688Z" fill="url(#paint0_linear_7468_2408)"/>
<path d="M34.528 71.4882V44.8162C34.528 44.498 34.4016 44.1927 34.1765 43.9677C33.9515 43.7426 33.6462 43.6162 33.328 43.6162H6.66399C6.34573 43.6162 6.0405 43.7426 5.81546 43.9677C5.59042 44.1927 5.46399 44.498 5.46399 44.8162V71.4882C5.46399 71.8065 5.59042 72.1117 5.81546 72.3367C6.0405 72.5618 6.34573 72.6882 6.66399 72.6882H33.328C33.6462 72.6882 33.9515 72.5618 34.1765 72.3367C34.4016 72.1117 34.528 71.8065 34.528 71.4882ZM32.128 70.2882H7.86399V46.0162H32.128V70.2882Z" fill="url(#paint1_linear_7468_2408)"/>
<defs>
<linearGradient id="paint0_linear_7468_2408" x1="40" y1="8.58008" x2="40" y2="60.96" gradientUnits="userSpaceOnUse">
<stop stop-color="#115E59"/>
<stop offset="0.5" stop-color="#0F4C47"/>
<stop offset="1" stop-color="#14532D"/>
</linearGradient>
<linearGradient id="paint1_linear_7468_2408" x1="19.996" y1="43.6162" x2="19.996" y2="72.6882" gradientUnits="userSpaceOnUse">
<stop stop-color="#115E59"/>
<stop offset="0.5" stop-color="#0F4C47"/>
<stop offset="1" stop-color="#14532D"/>
</linearGradient>
</defs>
</svg>
