<svg width="1138" height="556" viewBox="0 0 1138 556" fill="none" xmlns="http://www.w3.org/2000/svg">
<path d="M0.160156 463.76C0.160156 462.9 0.460139 462.14 1.08014 461.46C1.69014 460.79 2.49015 460.45 3.47015 460.45H89.3402C90.3202 460.45 91.1201 460.79 91.7301 461.46C92.3401 462.13 92.6502 462.9 92.6502 463.76V469.64C92.6502 471.97 91.5502 473.13 89.3402 473.13H3.47015C2.49015 473.13 1.69014 472.79 1.08014 472.12C0.460139 471.45 0.160156 470.62 0.160156 469.64V463.76ZM39.1402 486.56C39.1402 485.58 39.4801 484.78 40.1501 484.17C40.8201 483.56 41.6502 483.25 42.6302 483.25H49.9901C50.9701 483.25 51.7702 483.56 52.3802 484.17C52.9902 484.78 53.3001 485.58 53.3001 486.56V552.02C53.3001 553 52.9902 553.8 52.3802 554.41C51.7602 555.02 50.9701 555.33 49.9901 555.33H42.6302C41.6502 555.33 40.8201 555.03 40.1501 554.41C39.4801 553.8 39.1402 553 39.1402 552.02V486.56Z" fill="#0B3937"/>
<path d="M159.221 480.49C159.591 479.63 160.231 478.9 161.151 478.28C162.071 477.67 162.961 477.36 163.821 477.36H170.441C171.301 477.36 172.191 477.67 173.111 478.28C174.031 478.89 174.731 479.63 175.231 480.49L213.291 552.21C213.531 552.95 213.661 553.44 213.661 553.68C213.661 554.78 213.051 555.33 211.821 555.33H203.361C202.011 555.33 200.911 554.59 200.051 553.12L191.411 536.94H155.551C154.321 536.94 153.711 536.39 153.711 535.29C153.711 535.05 153.831 534.55 154.081 533.82L157.021 528.12C157.881 526.65 158.981 525.91 160.331 525.91H185.521L166.951 489.68L134.591 553.12C134.341 553.73 133.881 554.25 133.211 554.68C132.531 555.11 131.891 555.32 131.281 555.32H123.371C122.141 555.32 121.531 554.77 121.531 553.67C121.531 553.43 121.651 552.93 121.901 552.2L159.221 480.49Z" fill="#0B3937"/>
<path d="M266.969 535.11C266.969 534.25 267.269 533.52 267.889 532.9C268.499 532.29 269.239 531.98 270.099 531.98H276.169C277.879 531.98 278.869 532.84 279.109 534.55C279.719 537.12 281.009 539.3 282.969 541.08C284.929 542.86 287.259 543.75 289.959 543.75H321.589C324.649 543.75 327.229 542.62 329.309 540.35C331.389 538.08 332.439 535.42 332.439 532.35C332.439 529.29 331.399 526.65 329.309 524.44C327.219 522.23 324.649 521.13 321.589 521.13H291.249C288.179 521.13 285.329 520.58 282.699 519.48C280.059 518.38 277.739 516.85 275.709 514.88C273.689 512.92 272.089 510.62 270.929 507.98C269.759 505.35 269.179 502.5 269.179 499.43C269.179 496.37 269.759 493.52 270.929 490.88C272.089 488.25 273.689 485.92 275.709 483.89C277.729 481.87 280.059 480.28 282.699 479.11C285.329 477.95 288.189 477.36 291.249 477.36H321.219C323.919 477.36 326.519 477.85 329.039 478.83C331.549 479.81 333.759 481.16 335.659 482.88C337.559 484.6 339.149 486.62 340.439 488.95C341.729 491.28 342.559 493.79 342.919 496.49C342.919 498.58 341.879 499.62 339.789 499.62H333.909C332.069 499.62 331.029 498.76 330.779 497.05C330.289 494.72 329.129 492.79 327.289 491.26C325.449 489.73 323.299 488.96 320.849 488.96H291.059C288.239 488.96 285.849 489.96 283.889 491.97C281.929 493.98 280.949 496.37 280.949 499.17C280.949 501.97 281.929 504.4 283.889 506.46C285.849 508.53 288.239 509.56 291.059 509.56H321.399C324.589 509.56 327.589 510.15 330.409 511.32C333.229 512.49 335.679 514.09 337.769 516.12C339.849 518.15 341.509 520.55 342.729 523.32C343.949 526.09 344.569 529.07 344.569 532.28C344.569 535.49 343.949 538.46 342.729 541.23C341.499 544 339.849 546.43 337.769 548.52C335.679 550.61 333.229 552.28 330.409 553.5C327.589 554.73 324.589 555.34 321.399 555.34H289.769C286.829 555.34 284.039 554.82 281.399 553.78C278.759 552.74 276.439 551.3 274.409 549.46C272.379 547.62 270.699 545.48 269.349 543.02C268.009 540.56 267.219 537.93 266.969 535.11Z" fill="#0B3937"/>
<path d="M484.509 553.13C485.489 553.87 485.979 554.48 485.979 554.97C485.979 555.22 485.729 555.34 485.239 555.34H469.799C469.309 555.34 468.629 555.19 467.779 554.88C466.919 554.58 466.189 554.12 465.569 553.5L420.699 520.03V552.21C420.699 553.07 420.389 553.8 419.779 554.42C419.169 555.03 418.429 555.34 417.569 555.34H410.579C409.719 555.34 408.989 555.04 408.369 554.42C407.749 553.81 407.449 553.07 407.449 552.21V480.49C407.449 479.51 407.749 478.74 408.369 478.19C408.979 477.64 409.719 477.36 410.579 477.36H417.569C418.429 477.36 419.159 477.64 419.779 478.19C420.389 478.74 420.699 479.51 420.699 480.49V506.42L484.509 553.13ZM439.639 508.99C439.149 509.24 438.839 509.36 438.719 509.36C438.469 509.36 438.229 509.24 437.979 508.99L431.729 504.94C431.359 504.57 431.179 504.2 431.179 503.84C431.179 503.35 431.359 502.92 431.729 502.55L464.089 478.46C464.829 477.85 465.439 477.51 465.929 477.45C466.419 477.39 466.969 477.36 467.589 477.36H481.009C481.379 477.36 481.559 477.48 481.559 477.73C481.559 477.98 481.129 478.47 480.269 479.2L439.639 508.99Z" fill="#0B3937"/>
<path d="M637.13 552.39C637.37 553.13 637.5 553.56 637.5 553.68C637.5 554.78 636.89 555.33 635.66 555.33H625.359C624.379 555.33 623.64 554.84 623.15 553.86L612.67 531.98H568.539C567.679 531.98 567.25 531.55 567.25 530.69C567.25 530.32 567.31 530.02 567.43 529.77L571.469 521.68C571.959 520.46 572.879 519.84 574.229 519.84H606.78L584.349 471.48L544.26 553.86C543.77 554.84 543.029 555.33 542.049 555.33H532.859C531.629 555.33 531.02 554.78 531.02 553.68C531.02 553.56 531.14 553.13 531.39 552.39L574.969 463.94C575.459 462.96 576.17 462.13 577.08 461.46C578 460.79 578.95 460.45 579.93 460.45H588.57C589.55 460.45 590.499 460.79 591.419 461.46C592.339 462.13 593.04 462.96 593.53 463.94L637.13 552.39Z" fill="#0B3937"/>
<path d="M693.949 480.49C693.949 479.63 694.249 478.9 694.869 478.28C695.479 477.67 696.219 477.36 697.079 477.36H703.699C704.559 477.36 705.289 477.67 705.909 478.28C706.519 478.89 706.829 479.63 706.829 480.49V543.75H758.499C759.359 543.75 760.089 544.06 760.709 544.67C761.319 545.29 761.629 546.02 761.629 546.88V552.21C761.629 553.07 761.319 553.8 760.709 554.42C760.099 555.03 759.359 555.34 758.499 555.34H697.079C696.219 555.34 695.489 555.04 694.869 554.42C694.249 553.81 693.949 553.07 693.949 552.21V480.49Z" fill="#0B3937"/>
<path d="M815.488 480.49C815.488 479.63 815.788 478.9 816.408 478.28C817.018 477.67 817.758 477.36 818.618 477.36H825.238C826.098 477.36 826.828 477.67 827.448 478.28C828.058 478.89 828.368 479.63 828.368 480.49V543.75H880.038C880.898 543.75 881.628 544.06 882.248 544.67C882.858 545.29 883.168 546.02 883.168 546.88V552.21C883.168 553.07 882.858 553.8 882.248 554.42C881.638 555.03 880.898 555.34 880.038 555.34H818.618C817.758 555.34 817.028 555.04 816.408 554.42C815.788 553.81 815.488 553.07 815.488 552.21V480.49Z" fill="#0B3937"/>
<path d="M949.359 543.75H1005.08C1005.94 543.75 1006.67 544.06 1007.29 544.67C1007.9 545.29 1008.21 546.02 1008.21 546.88V552.21C1008.21 553.07 1007.9 553.8 1007.29 554.42C1006.68 555.03 1005.94 555.34 1005.08 555.34H940.119C939.279 555.34 938.549 555.04 937.949 554.42C937.349 553.81 937.039 553.07 937.039 552.21V480.49C937.039 479.63 937.339 478.9 937.949 478.28C938.549 477.67 939.279 477.36 940.119 477.36H1004.34C1005.2 477.36 1005.93 477.67 1006.55 478.28C1007.16 478.89 1007.47 479.63 1007.47 480.49V485.82C1007.47 486.68 1007.16 487.41 1006.55 488.03C1005.93 488.64 1005.2 488.95 1004.34 488.95H949.359V543.75ZM959.109 512.12C959.109 511.26 959.409 510.53 960.029 509.91C960.639 509.3 961.379 508.99 962.239 508.99H999.939C1000.8 508.99 1001.53 509.3 1002.15 509.91C1002.76 510.52 1003.07 511.26 1003.07 512.12V517.45C1003.07 518.43 1002.76 519.2 1002.15 519.75C1001.53 520.3 1000.8 520.58 999.939 520.58H962.239C961.379 520.58 960.649 520.3 960.029 519.75C959.409 519.2 959.109 518.43 959.109 517.45V512.12Z" fill="#0B3937"/>
<path d="M1091.32 505.5C1091.69 506.12 1091.87 506.54 1091.87 506.79C1091.87 507.04 1090.28 509.12 1087.09 513.04C1086.35 513.78 1085.74 514.14 1085.25 514.14C1084.76 514.14 1084.15 513.77 1083.41 513.04L1056.56 480.68C1055.95 479.7 1055.64 479.02 1055.64 478.66C1055.64 477.8 1056.13 477.37 1057.11 477.37H1066.67C1067.77 477.37 1068.63 477.74 1069.24 478.47L1091.32 505.5ZM1103.46 552.21C1103.46 553.07 1103.15 553.8 1102.54 554.42C1101.92 555.03 1101.19 555.34 1100.33 555.34H1093.34C1092.48 555.34 1091.75 555.04 1091.13 554.42C1090.51 553.81 1090.21 553.07 1090.21 552.21V521.87L1124.78 478.66C1125.27 477.8 1126.07 477.37 1127.17 477.37H1136.36C1137.34 477.37 1137.83 477.74 1137.83 478.47C1137.83 478.84 1137.52 479.51 1136.91 480.49L1103.44 521.86V552.21H1103.46Z" fill="#0B3937"/>
<path d="M568.999 31.0601C543.739 31.0601 523.199 51.6201 523.199 76.8801C523.199 86.4501 526.169 95.37 531.199 102.72L540.209 97.5101C536.019 91.7001 533.549 84.5701 533.549 76.8801C533.549 57.3201 549.459 41.41 568.999 41.41C588.539 41.41 604.449 57.3201 604.449 76.8801C604.449 84.5701 601.979 91.7001 597.789 97.5101L606.799 102.72C611.839 95.37 614.799 86.4501 614.799 76.8801C614.799 51.6301 594.259 31.0601 568.999 31.0601Z" fill="#0B3937"/>
<path d="M569.001 0.669922C526.981 0.669922 492.801 34.86 492.801 76.89C492.801 92 497.221 106.1 504.841 117.95L513.811 112.77C507.061 102.44 503.151 90.1 503.151 76.89C503.151 40.58 532.681 11.02 569.001 11.02C605.311 11.02 634.851 40.57 634.851 76.89C634.851 90.1 630.931 102.44 624.191 112.77L633.161 117.95C640.781 106.1 645.201 92 645.201 76.89C645.201 34.86 611.021 0.669922 569.001 0.669922Z" fill="#0B3937"/>
<path d="M552.512 102.54L461.842 154.88V160.43H472.932L565.172 107.16C560.552 106.57 556.252 104.95 552.512 102.54ZM569.002 328.55L555.422 320.72V332.68L569.002 340.51L602.642 321.08V309.12L569.002 328.55ZM472.182 174.39H461.832V278.62L541.462 324.6V312.66L472.182 272.65V174.39ZM665.822 174.39V272.65L616.582 301.08V313.02L676.172 278.62V174.39H665.822ZM585.492 102.54C581.752 104.96 577.452 106.58 572.832 107.16L665.072 160.43H676.162V154.88L585.492 102.54Z" fill="#0B3937"/>
<path d="M383.64 186.17C369.45 186.17 357.91 174.63 357.91 160.44C357.91 146.25 369.45 134.71 383.64 134.71C397.83 134.71 409.37 146.25 409.37 160.44C409.36 174.63 397.82 186.17 383.64 186.17ZM383.64 145.07C375.16 145.07 368.26 151.97 368.26 160.45C368.26 168.93 375.16 175.83 383.64 175.83C392.12 175.83 399.01 168.93 399.01 160.45C399.01 151.96 392.12 145.07 383.64 145.07Z" fill="#0B3937"/>
<path d="M754.359 186.17C740.169 186.17 728.629 174.63 728.629 160.44C728.629 146.25 740.169 134.71 754.359 134.71C768.549 134.71 780.089 146.25 780.089 160.44C780.089 174.63 768.549 186.17 754.359 186.17ZM754.359 145.07C745.879 145.07 738.989 151.97 738.989 160.45C738.989 168.93 745.889 175.83 754.359 175.83C762.839 175.83 769.739 168.93 769.739 160.45C769.739 151.96 762.839 145.07 754.359 145.07Z" fill="#0B3937"/>
<path d="M569.001 93.6002C578.235 93.6002 585.721 86.1144 585.721 76.8802C585.721 67.646 578.235 60.1602 569.001 60.1602C559.767 60.1602 552.281 67.646 552.281 76.8802C552.281 86.1144 559.767 93.6002 569.001 93.6002Z" fill="#0B3937"/>
<path d="M546.652 391.91H536.302V218.78H467.012V208.43H546.652V391.91Z" fill="#0B3937"/>
<path d="M733.8 155.5V165.85H593.17C588.12 161.52 582.35 158 576.07 155.5H733.8Z" fill="#0B3937"/>
<path d="M608.679 389.57H598.329V216.72C598.329 188.54 575.409 165.62 547.229 165.62H400.969V155.27H547.219C581.099 155.27 608.669 182.84 608.669 216.72V389.57H608.679Z" fill="#0B3937"/>
</svg>
