<svg width="16" height="21" viewBox="0 0 16 21" fill="none" xmlns="http://www.w3.org/2000/svg">
<path d="M8 0.148438C4.00606 0.148438 0.75676 3.39773 0.75676 7.39164C0.75676 12.3482 7.23875 19.6247 7.51473 19.9321C7.77395 20.2208 8.22653 20.2203 8.48528 19.9321C8.76125 19.6247 15.2432 12.3482 15.2432 7.39164C15.2432 3.39773 11.9939 0.148438 8 0.148438ZM8 18.4972C5.81848 15.9059 2.06113 10.7934 2.06113 7.39172C2.06113 4.11695 4.72528 1.45281 8 1.45281C11.2747 1.45281 13.9389 4.11695 13.9389 7.39168C13.9388 10.7936 10.1821 15.9051 8 18.4972Z" fill="#115E59"/>
<path d="M8.00001 3.74707C5.99056 3.74707 4.35579 5.38187 4.35579 7.39133C4.35579 9.40078 5.99059 11.0356 8.00001 11.0356C10.0094 11.0356 11.6442 9.40078 11.6442 7.39133C11.6442 5.38187 10.0094 3.74707 8.00001 3.74707ZM8.00001 9.73121C6.70977 9.73121 5.66016 8.68156 5.66016 7.39133C5.66016 6.10109 6.70981 5.05145 8.00001 5.05145C9.2902 5.05145 10.3399 6.10109 10.3399 7.39133C10.3399 8.68156 9.2902 9.73121 8.00001 9.73121Z" fill="#115E59"/>
</svg>
