<svg width="24" height="23" viewBox="0 0 24 23" fill="none" xmlns="http://www.w3.org/2000/svg">
<path d="M5.476 13.5242C8.052 13.5242 10.152 15.6242 10.152 18.2002C10.152 20.7762 8.052 22.8762 5.476 22.8762C2.9 22.8762 0.800003 20.7482 0.800003 18.1722C0.800003 15.5962 2.9 13.5242 5.476 13.5242ZM5.476 15.3722C3.936 15.3722 2.676 16.6322 2.676 18.1722C2.676 19.7122 3.936 20.9722 5.476 20.9722C7.016 20.9722 8.276 19.7122 8.276 18.1722C8.276 16.6322 7.016 15.3722 5.476 15.3722ZM16.34 16.6882L6.96 7.30824C6.624 6.97224 6.092 6.97224 5.784 7.30824L5.644 7.44824C5.308 7.78424 5.308 8.31624 5.644 8.62424L15.024 18.0042C15.36 18.3402 15.892 18.3402 16.2 18.0042L16.34 17.8642C16.676 17.5562 16.676 17.0242 16.34 16.6882ZM20.288 15.3722L8.276 3.36024C7.94 3.02424 7.408 3.02424 7.1 3.36024L6.96 3.50024C6.624 3.83624 6.624 4.36824 6.96 4.67624L18.972 16.6882C19.308 17.0242 19.84 17.0242 20.148 16.6882L20.288 16.5482C20.624 16.2122 20.624 15.6802 20.288 15.3722ZM10.292 0.448242H22.36C22.836 0.448242 23.2 0.812242 23.2 1.28824V13.3562C23.2 14.1122 22.304 14.4762 21.772 13.9442L9.704 1.87624C9.172 1.34424 9.536 0.448242 10.292 0.448242ZM14.212 3.75224L19.896 9.43624C20.428 9.96824 21.324 9.60424 21.324 8.84824V3.16424C21.324 2.68824 20.96 2.32424 20.484 2.32424H14.8C14.044 2.32424 13.68 3.22024 14.212 3.75224Z" fill="#115E59"/>
</svg>
