<svg width="79" height="75" viewBox="0 0 79 75" fill="none" xmlns="http://www.w3.org/2000/svg">
<path d="M77.7475 39.5628L75.3889 37.2042C73.9645 35.7798 71.6442 35.7798 70.2123 37.2042C67.6853 39.7389 62.7308 44.6934 60.2037 47.2204V42.2735L68.0377 22.4478C69.125 19.6909 67.7695 16.5514 65.0051 15.4562L60.2037 13.5648V11.1909C60.2037 8.21964 57.7839 5.80746 54.8128 5.80746H40.577L27.3369 0.569643C24.5725 -0.517701 21.4405 0.837611 20.3453 3.60214L19.4723 5.80746H14.3111C11.3398 5.80746 8.92015 8.21964 8.92015 11.1909V32.5023L1.08625 52.3204C-0.00125253 55.0848 1.35422 58.2245 4.11875 59.312L8.92015 61.211V63.5773C8.92015 66.5485 11.34 68.9684 14.3111 68.9684H28.5469L41.787 74.1985C44.5363 75.286 47.6834 73.9459 48.7786 71.1739L49.6516 68.9684H54.8128C57.7841 68.9684 60.2037 66.5485 60.2037 63.5773V61.7318C60.4564 61.6476 60.847 61.6323 61.0844 61.4026C65.7173 56.762 67.425 55.0543 69.2016 53.2778C70.9781 51.5089 72.8236 49.6556 77.7477 44.7393C79.1719 43.315 79.1719 40.9946 77.7475 39.5628ZM58.6722 63.5773C58.6722 65.7062 56.9416 67.4368 54.8127 67.4368H14.3111C12.1823 67.4368 10.4516 65.7062 10.4516 63.5773V11.1909C10.4516 9.06964 12.1822 7.33902 14.3111 7.33902H54.8128C56.9416 7.33902 58.6723 9.06964 58.6723 11.1909V48.752L53.557 53.8673C53.5494 53.8673 53.5494 53.8673 53.5494 53.875C53.4498 53.9745 53.3733 54.1506 53.3503 54.2273L51.275 62.5971L50.4173 63.4548C50.1187 63.7534 50.1187 64.2359 50.4173 64.5345C50.7159 64.8331 51.2061 64.8331 51.5047 64.5345L52.3547 63.6768L58.6723 62.1146L58.6722 63.5773ZM53.0131 61.9385L54.5141 55.912L59.0473 60.4453L53.0131 61.9385ZM60.5406 59.779L55.1802 54.4109L65.4262 44.1571L70.7944 49.5253L60.5406 59.779ZM71.8817 48.4381L66.5136 43.0776L67.938 41.6456L73.3059 47.0135L71.8817 48.4381Z" fill="url(#paint0_linear_7468_2401)"/>
<path d="M18.0228 24.1473C18.1723 24.2969 18.3683 24.3717 18.5642 24.3717C18.7602 24.3717 18.9561 24.2969 19.1056 24.1473L22.9727 20.28C23.0437 20.2089 23.1001 20.1245 23.1386 20.0316C23.1771 19.9387 23.1969 19.8391 23.1969 19.7386C23.1969 19.638 23.1771 19.5385 23.1386 19.4456C23.1001 19.3527 23.0437 19.2683 22.9727 19.1972C22.9016 19.1261 22.8171 19.0697 22.7243 19.0312C22.6314 18.9927 22.5318 18.9729 22.4312 18.9729C22.3307 18.9729 22.2311 18.9927 22.1382 19.0312C22.0453 19.0697 21.9609 19.1261 21.8898 19.1972L18.5642 22.5231L17.3714 21.3308C17.3003 21.2597 17.2159 21.2033 17.123 21.1648C17.0301 21.1263 16.9305 21.1065 16.83 21.1065C16.6269 21.1065 16.4322 21.1872 16.2886 21.3308C16.145 21.4744 16.0643 21.6691 16.0643 21.8722C16.0643 22.0753 16.145 22.27 16.2886 22.4136L18.0228 24.1473ZM30.925 19.2386H52.2933C52.4964 19.2386 52.6912 19.1579 52.8348 19.0143C52.9784 18.8707 53.0591 18.6759 53.0591 18.4728C53.0591 18.2697 52.9784 18.0749 52.8348 17.9313C52.6912 17.7877 52.4964 17.707 52.2933 17.707H30.925C30.7219 17.707 30.5271 17.7877 30.3835 17.9313C30.2399 18.0749 30.1592 18.2697 30.1592 18.4728C30.1592 18.6759 30.2399 18.8707 30.3835 19.0143C30.5271 19.1579 30.7219 19.2386 30.925 19.2386ZM30.925 25.6373H43.5861C43.7892 25.6373 43.984 25.5567 44.1276 25.4131C44.2712 25.2694 44.3519 25.0747 44.3519 24.8716C44.3519 24.6685 44.2712 24.4737 44.1276 24.3301C43.984 24.1865 43.7892 24.1058 43.5861 24.1058H30.925C30.7219 24.1058 30.5271 24.1865 30.3835 24.3301C30.2399 24.4737 30.1592 24.6685 30.1592 24.8716C30.1592 25.0747 30.2399 25.2694 30.3835 25.4131C30.5271 25.5567 30.7219 25.6373 30.925 25.6373ZM18.0228 39.8617C18.1723 40.0112 18.3683 40.0861 18.5642 40.0861C18.7602 40.0861 18.9561 40.0112 19.1056 39.8617L22.9727 35.9944C23.0437 35.9233 23.1001 35.8389 23.1386 35.746C23.1771 35.6531 23.1969 35.5535 23.1969 35.453C23.1969 35.3524 23.1771 35.2529 23.1386 35.16C23.1001 35.0671 23.0437 34.9827 22.9727 34.9116C22.9016 34.8405 22.8171 34.7841 22.7243 34.7456C22.6314 34.7071 22.5318 34.6873 22.4312 34.6873C22.3307 34.6873 22.2311 34.7071 22.1382 34.7456C22.0453 34.7841 21.9609 34.8405 21.8898 34.9116L18.5642 38.2375L17.3714 37.0452C17.2278 36.9016 17.0331 36.8209 16.83 36.8209C16.6269 36.8209 16.4322 36.9016 16.2886 37.0452C16.145 37.1887 16.0643 37.3835 16.0643 37.5866C16.0643 37.7896 16.145 37.9844 16.2886 38.128L18.0228 39.8617ZM30.925 34.953H52.2933C52.4964 34.953 52.6912 34.8723 52.8348 34.7287C52.9784 34.5851 53.0591 34.3903 53.0591 34.1872C53.0591 33.9841 52.9784 33.7893 52.8348 33.6457C52.6912 33.5021 52.4964 33.4214 52.2933 33.4214H30.925C30.7219 33.4214 30.5271 33.5021 30.3835 33.6457C30.2399 33.7893 30.1592 33.9841 30.1592 34.1872C30.1592 34.3903 30.2399 34.5851 30.3835 34.7287C30.5271 34.8723 30.7219 34.953 30.925 34.953ZM30.925 41.3517H43.5861C43.7892 41.3517 43.984 41.271 44.1276 41.1274C44.2712 40.9838 44.3519 40.789 44.3519 40.5859C44.3519 40.3828 44.2712 40.1881 44.1276 40.0444C43.984 39.9008 43.7892 39.8202 43.5861 39.8202H30.925C30.7219 39.8202 30.5271 39.9008 30.3835 40.0444C30.2399 40.1881 30.1592 40.3828 30.1592 40.5859C30.1592 40.789 30.2399 40.9838 30.3835 41.1274C30.5271 41.271 30.7219 41.3517 30.925 41.3517ZM18.0228 55.5761C18.1723 55.7256 18.3683 55.8005 18.5642 55.8005C18.7602 55.8005 18.9561 55.7256 19.1056 55.5761L22.9727 51.7088C23.0437 51.6377 23.1001 51.5532 23.1386 51.4604C23.1771 51.3675 23.1969 51.2679 23.1969 51.1673C23.1969 51.0668 23.1771 50.9672 23.1386 50.8743C23.1001 50.7814 23.0437 50.697 22.9727 50.6259C22.9016 50.5548 22.8171 50.4984 22.7243 50.46C22.6314 50.4215 22.5318 50.4017 22.4312 50.4017C22.3307 50.4017 22.2311 50.4215 22.1382 50.46C22.0453 50.4984 21.9609 50.5548 21.8898 50.6259L18.5642 53.9519L17.3714 52.7595C17.2278 52.6159 17.0331 52.5353 16.83 52.5353C16.6269 52.5353 16.4322 52.6159 16.2886 52.7595C16.145 52.9031 16.0643 53.0979 16.0643 53.3009C16.0643 53.504 16.145 53.6988 16.2886 53.8423L18.0228 55.5761ZM30.925 50.6673H52.2933C52.4964 50.6673 52.6912 50.5867 52.8348 50.4431C52.9784 50.2994 53.0591 50.1047 53.0591 49.9016C53.0591 49.6985 52.9784 49.5037 52.8348 49.3601C52.6912 49.2165 52.4964 49.1358 52.2933 49.1358H30.925C30.7219 49.1358 30.5271 49.2165 30.3835 49.3601C30.2399 49.5037 30.1592 49.6985 30.1592 49.9016C30.1592 50.1047 30.2399 50.2994 30.3835 50.4431C30.5271 50.5867 30.7219 50.6673 30.925 50.6673ZM30.925 57.0661H43.5861C43.7892 57.0661 43.984 56.9854 44.1276 56.8418C44.2712 56.6982 44.3519 56.5034 44.3519 56.3003C44.3519 56.0972 44.2712 55.9024 44.1276 55.7588C43.984 55.6152 43.7892 55.5345 43.5861 55.5345H30.925C30.7219 55.5345 30.5271 55.6152 30.3835 55.7588C30.2399 55.9024 30.1592 56.0972 30.1592 56.3003C30.1592 56.5034 30.2399 56.6982 30.3835 56.8418C30.5271 56.9854 30.7219 57.0661 30.925 57.0661ZM64.315 49.5553L60.5759 53.2948C60.5048 53.3659 60.4484 53.4503 60.41 53.5432C60.3715 53.6361 60.3517 53.7357 60.3517 53.8363C60.3517 53.9368 60.3715 54.0364 60.41 54.1293C60.4484 54.2222 60.5048 54.3066 60.5759 54.3777C60.647 54.4488 60.7314 54.5051 60.8243 54.5436C60.9172 54.5821 61.0168 54.6019 61.1173 54.6019C61.2179 54.6019 61.3174 54.5821 61.4103 54.5436C61.5032 54.5051 61.5876 54.4488 61.6587 54.3777L65.3978 50.6381C65.4689 50.567 65.5253 50.4826 65.5638 50.3897C65.6023 50.2968 65.6221 50.1973 65.6221 50.0967C65.6221 49.9962 65.6023 49.8966 65.5638 49.8037C65.5253 49.7108 65.4689 49.6264 65.3978 49.5553C65.3267 49.4842 65.2423 49.4278 65.1494 49.3893C65.0565 49.3509 64.9569 49.3311 64.8564 49.3311C64.7558 49.3311 64.6563 49.3509 64.5634 49.3893C64.4705 49.4278 64.3861 49.4842 64.315 49.5553Z" fill="url(#paint1_linear_7468_2401)"/>
<defs>
<linearGradient id="paint0_linear_7468_2401" x1="39.7633" y1="0.194336" x2="39.7633" y2="74.576" gradientUnits="userSpaceOnUse">
<stop stop-color="#115E59"/>
<stop offset="0.5" stop-color="#0F4C47"/>
<stop offset="1" stop-color="#14532D"/>
</linearGradient>
<linearGradient id="paint1_linear_7468_2401" x1="40.8432" y1="17.707" x2="40.8432" y2="57.0661" gradientUnits="userSpaceOnUse">
<stop stop-color="#115E59"/>
<stop offset="0.5" stop-color="#0F4C47"/>
<stop offset="1" stop-color="#14532D"/>
</linearGradient>
</defs>
</svg>
