<svg width="75" height="76" viewBox="0 0 75 76" fill="none" xmlns="http://www.w3.org/2000/svg">
<path d="M16.0313 73.5537C15.9948 73.5539 15.9596 73.5405 15.9325 73.5161C15.9054 73.4917 15.8884 73.4581 15.8848 73.4219L11.6367 30.4434C11.6347 30.4229 11.6369 30.4023 11.6434 30.3828C11.6498 30.3633 11.6603 30.3454 11.6741 30.3302C11.6879 30.315 11.7047 30.3029 11.7235 30.2946C11.7423 30.2863 11.7627 30.2821 11.7832 30.2822H34.9497C34.9859 30.282 35.0209 30.2952 35.048 30.3193C35.075 30.3434 35.0922 30.3766 35.0962 30.4126L40.04 73.2681C40.0443 73.3069 40.033 73.3459 40.0085 73.3764C39.9841 73.4069 39.9485 73.4264 39.9097 73.4307C39.8708 73.4349 39.8319 73.4236 39.8014 73.3992C39.7709 73.3747 39.7513 73.3391 39.7471 73.3003L34.8193 30.5752H11.9458L16.1763 73.394C16.1781 73.4142 16.1757 73.4346 16.1693 73.4538C16.1628 73.473 16.1524 73.4907 16.1388 73.5057C16.1252 73.5207 16.1086 73.5327 16.0901 73.541C16.0716 73.5493 16.0515 73.5536 16.0313 73.5537Z" fill="#68003C"/>
<path d="M15.2974 65.9771H39.2461V67.6631H15.2974V65.9771ZM11.6396 29.498H35.3071V31.8286H11.6396V29.498Z" fill="#68003C"/>
<path d="M30.8657 73.5537C30.8453 73.5538 30.8251 73.5496 30.8064 73.5414C30.7877 73.5333 30.7709 73.5213 30.7572 73.5063C30.7434 73.4912 30.7329 73.4735 30.7263 73.4542C30.7198 73.4348 30.7174 73.4144 30.7192 73.394L34.9511 30.5752H12.0776L7.14987 73.3047C7.1456 73.3435 7.12607 73.3791 7.09557 73.4035C7.06508 73.428 7.02612 73.4393 6.98727 73.4351C6.94842 73.4308 6.91286 73.4113 6.88841 73.3808C6.86396 73.3503 6.85263 73.3113 6.8569 73.2725L11.8022 30.4126C11.8062 30.3766 11.8234 30.3434 11.8504 30.3193C11.8775 30.2952 11.9125 30.282 11.9487 30.2822H35.1137C35.1343 30.2821 35.1546 30.2863 35.1734 30.2946C35.1922 30.3029 35.209 30.315 35.2229 30.3302C35.2367 30.3454 35.2471 30.3633 35.2536 30.3828C35.26 30.4023 35.2623 30.4229 35.2602 30.4434L31.0122 73.4219C31.0085 73.4581 30.9915 73.4917 30.9644 73.5161C30.9373 73.5405 30.9021 73.5539 30.8657 73.5537Z" fill="#68003C"/>
<path d="M34.4429 37.3574H11.165C11.1262 37.3574 11.0889 37.342 11.0615 37.3145C11.034 37.287 11.0186 37.2498 11.0186 37.2109C11.0186 37.1721 11.034 37.1348 11.0615 37.1074C11.0889 37.0799 11.1262 37.0645 11.165 37.0645H34.4429C34.4817 37.0645 34.519 37.0799 34.5465 37.1074C34.5739 37.1348 34.5894 37.1721 34.5894 37.2109C34.5894 37.2498 34.5739 37.287 34.5465 37.3145C34.519 37.342 34.4817 37.3574 34.4429 37.3574ZM33.7808 44.0576H10.3916C10.3528 44.0576 10.3155 44.0422 10.288 44.0147C10.2606 43.9872 10.2451 43.95 10.2451 43.9111C10.2451 43.8723 10.2606 43.835 10.288 43.8076C10.3155 43.7801 10.3528 43.7646 10.3916 43.7646H33.7808C33.8196 43.7646 33.8569 43.7801 33.8843 43.8076C33.9118 43.835 33.9272 43.8723 33.9272 43.9111C33.9272 43.95 33.9118 43.9872 33.8843 44.0147C33.8569 44.0422 33.8196 44.0576 33.7808 44.0576ZM33.1128 50.8223H9.6123C9.57345 50.8223 9.5362 50.8068 9.50872 50.7794C9.48125 50.7519 9.46582 50.7146 9.46582 50.6758C9.46582 50.6369 9.48125 50.5997 9.50872 50.5722C9.5362 50.5447 9.57345 50.5293 9.6123 50.5293H33.1128C33.1516 50.5293 33.1889 50.5447 33.2164 50.5722C33.2438 50.5997 33.2593 50.6369 33.2593 50.6758C33.2593 50.7146 33.2438 50.7519 33.2164 50.7794C33.1889 50.8068 33.1516 50.8223 33.1128 50.8223ZM32.4375 57.6528H8.82422C8.78537 57.6528 8.74811 57.6374 8.72064 57.6099C8.69317 57.5825 8.67773 57.5452 8.67773 57.5063C8.67773 57.4675 8.69317 57.4302 8.72064 57.4028C8.74811 57.3753 8.78537 57.3599 8.82422 57.3599H32.4375C32.4763 57.3599 32.5136 57.3753 32.5411 57.4028C32.5686 57.4302 32.584 57.4675 32.584 57.5063C32.584 57.5452 32.5686 57.5825 32.5411 57.6099C32.5136 57.6374 32.4763 57.6528 32.4375 57.6528ZM31.7563 64.5479H8.02588C7.98703 64.5479 7.94977 64.5324 7.9223 64.5049C7.89483 64.4775 7.87939 64.4402 7.87939 64.4014C7.87939 64.3625 7.89483 64.3253 7.9223 64.2978C7.94977 64.2703 7.98703 64.2549 8.02588 64.2549H31.7563C31.7952 64.2549 31.8325 64.2703 31.8599 64.2978C31.8874 64.3253 31.9028 64.3625 31.9028 64.4014C31.9028 64.4402 31.8874 64.4775 31.8599 64.5049C31.8325 64.5324 31.7952 64.5479 31.7563 64.5479Z" fill="#68003C"/>
<path d="M9.96094 12.5264L5.83594 26.6182L9.73096 26.5933C11.0581 22.394 12.3857 18.1982 13.7139 14.0059L15.5347 10.5781L11.9912 10.8711C11.5253 10.91 11.0821 11.0889 10.7198 11.3843C10.3574 11.6798 10.0929 12.0779 9.96094 12.5264ZM20.1724 10.5781H16.3154L18.186 13.0684L23.521 24.8281L27.0908 22.5737L22.4121 12.0371C22.2196 11.6035 21.9057 11.235 21.5082 10.9761C21.1107 10.7172 20.6467 10.5789 20.1724 10.5781Z" fill="#E67925"/>
<path d="M34.6934 15.5967L23.5605 23.3604C23.3906 23.886 23.3788 24.4499 23.5266 24.9822C23.6744 25.5144 23.9753 25.9915 24.3919 26.3543C24.8085 26.7171 25.3224 26.9495 25.8699 27.0227C26.4175 27.0959 26.9744 27.0067 27.4717 26.7661L37.4063 17.3252L34.6934 15.5967Z" fill="#E67925"/>
<path d="M52.0752 4.45703H69.4512V73.2754H58.3184C56.6641 73.2754 55.0776 72.6182 53.9079 71.4485C52.7382 70.2788 52.0811 68.6923 52.0811 67.0381V4.45703H52.0752Z" fill="#FDC500"/>
<path d="M46.1646 4.45703H53.8799V36.2881H51.9023C50.3806 36.2881 48.9212 35.6836 47.8451 34.6075C46.7691 33.5315 46.1646 32.0721 46.1646 30.5503V4.45703Z" fill="#FDC500"/>
<path d="M14.9941 7.90918H16.9644V11.6533H14.9941V7.90918Z" fill="#E67925"/>
<path d="M18.4263 6.38947C18.4008 6.01663 18.2833 5.65593 18.0843 5.33963C17.8852 5.02334 17.6109 4.76134 17.2857 4.57707C16.9606 4.3928 16.5949 4.29203 16.2213 4.28376C15.8477 4.27549 15.4778 4.35999 15.1449 4.52969C14.8119 4.69939 14.5262 4.949 14.3134 5.25618C14.1006 5.56335 13.9672 5.91851 13.9253 6.28986C13.8834 6.6612 13.9342 7.03715 14.0731 7.38405C14.2121 7.73096 14.4349 8.03798 14.7217 8.27766C14.7803 8.38752 14.8374 8.48273 14.8901 8.57062C15.3384 9.27228 15.8877 9.98566 16.7358 9.97834C17.4683 10.0032 18.0454 9.40266 18.1436 8.71857C18.4438 6.59894 18.4468 6.68244 18.4263 6.38947Z" fill="#E67925"/>
<path d="M16.7754 8.5865C16.7559 8.5865 16.7373 8.57878 16.7236 8.56505C16.7098 8.55131 16.7021 8.53268 16.7021 8.51326C16.7021 8.49383 16.7098 8.4752 16.7236 8.46147C16.7373 8.44773 16.7559 8.44002 16.7754 8.44002C17.0537 8.42537 17.0522 8.43123 17.0683 8.41658C17.0845 8.40193 17.0845 8.43855 16.8574 7.66365C16.8547 7.65403 16.8539 7.64398 16.8551 7.63406C16.8563 7.62414 16.8595 7.61456 16.8644 7.60585C16.8692 7.59715 16.8758 7.58949 16.8837 7.58332C16.8915 7.57715 16.9005 7.57259 16.9101 7.5699C16.9198 7.56721 16.9298 7.56643 16.9397 7.56763C16.9496 7.56882 16.9592 7.57195 16.9679 7.57685C16.9766 7.58175 16.9843 7.58831 16.9905 7.59617C16.9966 7.60402 17.0012 7.61302 17.0039 7.62263L17.2178 8.35506C17.2248 8.37895 17.2264 8.40411 17.2226 8.42871C17.2187 8.45332 17.2094 8.47677 17.1954 8.49736C17.1814 8.51796 17.163 8.53519 17.1416 8.54781C17.1201 8.56044 17.0961 8.56815 17.0713 8.57039L16.7754 8.5865ZM17.5854 7.30916C17.5476 7.31184 17.5114 7.32568 17.4815 7.3489C17.4515 7.37213 17.4291 7.40372 17.4171 7.43967C17.405 7.47563 17.4039 7.51434 17.4139 7.55093C17.4238 7.58751 17.4444 7.62033 17.473 7.64524C17.5015 7.67015 17.5369 7.68603 17.5745 7.69088C17.6121 7.69574 17.6503 7.68934 17.6842 7.67251C17.7182 7.65567 17.7464 7.62915 17.7654 7.59629C17.7843 7.56343 17.793 7.5257 17.7905 7.48787C17.7888 7.46265 17.7822 7.43801 17.771 7.41536C17.7597 7.39271 17.7442 7.3725 17.7251 7.3559C17.706 7.33929 17.6839 7.32661 17.6599 7.31859C17.636 7.31057 17.6106 7.30736 17.5854 7.30916ZM16.1308 7.41023C16.0929 7.41263 16.0566 7.42623 16.0264 7.4493C15.9963 7.47237 15.9736 7.50388 15.9614 7.53983C15.9491 7.57578 15.9478 7.61456 15.9576 7.65125C15.9674 7.68795 15.9879 7.72091 16.0164 7.74596C16.0449 7.77102 16.0803 7.78704 16.1179 7.79199C16.1556 7.79695 16.1939 7.79062 16.2279 7.77381C16.262 7.75699 16.2903 7.73045 16.3093 7.69754C16.3282 7.66463 16.337 7.62684 16.3345 7.58894C16.3311 7.53827 16.3077 7.49102 16.2696 7.45752C16.2314 7.42402 16.1815 7.40702 16.1308 7.41023ZM16.2187 6.79207C16.1616 6.78181 15.8247 6.72175 15.6196 6.94588C15.5508 7.02205 15.4995 7.12752 15.5244 7.14949C15.5493 7.17146 15.7031 6.97224 15.9463 6.95173C16.1572 6.93416 16.3037 7.07185 16.4004 6.98836C16.413 6.97843 16.4231 6.96572 16.4299 6.95124C16.4368 6.93676 16.4402 6.92088 16.4399 6.90486C16.4282 6.82869 16.2597 6.80086 16.2187 6.79207ZM18.0425 6.76277C17.8066 6.57234 17.4814 6.6822 17.4272 6.69978C17.373 6.71736 17.2265 6.76863 17.2251 6.84627C17.2251 6.89021 17.2749 6.92244 17.2763 6.9239C17.3847 6.99129 17.5107 6.83308 17.7158 6.81843C17.9604 6.80232 18.1333 6.99129 18.164 6.95173C18.1948 6.91218 18.123 6.82722 18.0425 6.76277Z" fill="#262246"/>
<path d="M15.6445 9.52631C15.6383 9.51897 15.6336 9.51045 15.6308 9.50128C15.6279 9.4921 15.627 9.48244 15.6279 9.47287C15.6289 9.46331 15.6317 9.45404 15.6364 9.4456C15.641 9.43717 15.6472 9.42975 15.6547 9.42377C15.662 9.41749 15.6704 9.41273 15.6796 9.40976C15.6887 9.4068 15.6983 9.40569 15.7079 9.40651C15.7174 9.40733 15.7267 9.41006 15.7352 9.41453C15.7437 9.41901 15.7512 9.42514 15.7573 9.43256C15.8977 9.60312 16.0783 9.73608 16.2829 9.81944C16.4874 9.9028 16.7095 9.93396 16.9292 9.9101C16.9388 9.90914 16.9485 9.91008 16.9577 9.91287C16.967 9.91567 16.9756 9.92025 16.9831 9.92638C16.9906 9.9325 16.9968 9.94003 17.0013 9.94855C17.0059 9.95707 17.0088 9.9664 17.0097 9.97602C17.0107 9.98564 17.0097 9.99535 17.007 10.0046C17.0042 10.0139 16.9996 10.0225 16.9935 10.03C16.9873 10.0374 16.9798 10.0436 16.9713 10.0482C16.9628 10.0528 16.9534 10.0556 16.9438 10.0566C16.7003 10.0828 16.454 10.0481 16.2272 9.95549C16.0004 9.86293 15.8002 9.71545 15.6445 9.52631Z" fill="#68003C"/>
<path d="M15.5361 10.5781L10.7373 12.0737L13.1367 26.6357L20.4902 25.8491C20.6221 20.8892 20.7534 15.9297 20.8843 10.9707L15.5361 10.5781Z" fill="#FDC500"/>
<path d="M19.7651 23.9258L20.8843 25.7085L31.3125 27.4355C31.6932 27.4982 32.0537 27.65 32.3646 27.8784C32.6756 28.1068 32.9281 28.4055 33.1018 28.75C33.2754 29.0946 33.3652 29.4753 33.3638 29.8611C33.3624 30.2469 33.2699 30.6269 33.0938 30.9702L24.4248 47.9624L22.2026 47.3062C22.9389 41.9123 24.6736 36.7028 27.3179 31.9443C23.3949 32.2149 19.4548 32.0907 15.5566 31.5737L15.3062 24.6348L19.7651 23.9258Z" fill="#2351FB"/>
<path d="M13.2261 24.5649L12.4307 27.1519C11.8447 29.0535 11.8931 31.0941 12.5684 32.9658C14.0186 36.9912 15.4683 41.0171 16.9175 45.0435C14.5083 50.1541 12.9091 55.6085 12.1772 61.2109L14.502 61.8496C17.0107 56.0098 19.5181 50.1714 22.0239 44.3345C20.9497 39.0249 19.8779 33.7144 18.8086 28.4028C17.8984 26.9927 16.9883 25.582 16.0781 24.1709L13.2261 24.5649Z" fill="#2351FB"/>
<path d="M12.5317 58.0405L10.8076 64.2603H23.3467C24.2256 63.1499 23.2148 62.0176 21.8687 61.9605C18.5522 61.2064 15.3926 59.8799 12.5317 58.0405ZM22.8267 44.4863L20.7642 50.5728H33.3032C33.3836 50.3789 33.4197 50.1695 33.4088 49.9599C33.3979 49.7503 33.3403 49.5458 33.2402 49.3613C32.8711 48.7183 32.1313 48.6875 32.0918 48.686C29.7334 48.2617 27.4863 47.3605 25.4883 46.0376L22.8267 44.4863Z" fill="#FDC500"/>
<path d="M16.4575 43.1289L11.165 58.7295L16.585 60.146L21.7119 45.9941C22.1474 44.7904 22.2358 43.4884 21.9668 42.2368L19.2466 29.5615L16.0913 33.6631C16.2104 36.8145 16.3325 39.9697 16.4575 43.1289Z" fill="#2351FB"/>
<path d="M32.3525 32.4175L26.7788 46.5547L21.4556 45.7549L26.7905 30.667L32.3525 32.4175Z" fill="#2351FB"/>
<path d="M15.5361 10.5787L12.0557 10.7046C11.5716 10.7221 11.1034 10.8821 10.7099 11.1646C10.3164 11.4471 10.0151 11.8395 9.84375 12.2925L6.73828 20.5074L11.2002 21.9532C13.9629 14.6861 12.9756 17.2774 15.5361 10.5787ZM15.7017 10.5787L20.0757 10.4966C20.6199 10.486 21.1559 10.6302 21.6214 10.9123C22.0869 11.1945 22.4627 11.603 22.7051 12.0904L25.7505 18.2266L21.4292 20.2159L18.813 14.8458L15.7017 10.5787Z" fill="#FDC500"/>
<path d="M16.9644 10.5555C16.9644 10.5555 15.9727 9.93437 14.9941 10.5994C14.9941 10.5994 15.4438 11.4153 16.2144 11.4432C16.9849 11.471 16.9644 10.5555 16.9644 10.5555Z" fill="#E67925"/>
<path d="M21.6797 26.668L20.5151 15.9482L18.5815 10.5283H17.6221L18.7939 14.2358C18.1368 14.5296 17.4276 14.6892 16.7079 14.7053C15.9883 14.7214 15.2727 14.5937 14.603 14.3296L13.6084 10.6528L12.7295 10.6851C13.4843 13.8226 13.2016 17.1202 11.9238 20.0835L12.6357 28.0244L21.6797 26.668Z" fill="#2351FB"/>
<path d="M15.0879 6.27615C15.0387 6.10776 15.0577 5.92681 15.1406 5.77224C15.2285 5.6341 15.3623 5.5314 15.5185 5.4822C15.8393 5.3533 16.1469 5.32546 17.2939 5.39724C17.6147 5.41628 17.7509 5.42947 17.9135 5.52175C18.141 5.66437 18.3115 5.88199 18.3955 6.13699C18.4453 5.35623 18.186 4.95193 18.0366 4.77029C17.1225 3.67605 14.4697 3.99831 13.7402 5.39724C13.2788 6.27615 13.6523 7.47585 14.0537 8.11453C14.3473 8.53736 14.6653 8.94282 15.0058 9.32888C14.9912 7.60476 14.9751 8.29763 15.0879 6.27615Z" fill="#68003C"/>
<path d="M15.2944 7.60314C15.2269 7.47368 15.1111 7.37602 14.9721 7.33133C14.8331 7.28664 14.6821 7.29851 14.5517 7.36437C14.3144 7.51086 14.2588 7.8551 14.4316 8.13488C14.6045 8.41467 14.9355 8.52014 15.1728 8.37365C15.2903 8.28701 15.369 8.15756 15.3917 8.01335C15.4145 7.86913 15.3795 7.72176 15.2944 7.60314Z" fill="#E67925"/>
<path d="M14.9883 8.25045C14.9453 8.23876 14.9054 8.21774 14.8714 8.18887C14.8375 8.16001 14.8103 8.12402 14.7918 8.08346C14.7734 8.0429 14.7641 7.99877 14.7646 7.95421C14.7651 7.90964 14.7755 7.86575 14.7949 7.82564L14.6089 7.83883C14.5895 7.84019 14.5703 7.83377 14.5556 7.821C14.5409 7.80823 14.5319 7.79014 14.5305 7.77071C14.5292 7.75129 14.5356 7.73212 14.5483 7.71742C14.5611 7.70272 14.5792 7.6937 14.5986 7.69234L14.978 7.66597C14.9876 7.66376 14.9976 7.66347 15.0073 7.6651C15.0171 7.66674 15.0264 7.67028 15.0347 7.67551C15.0431 7.68075 15.0504 7.68759 15.0561 7.69562C15.0618 7.70366 15.0659 7.71275 15.0681 7.72237C15.0703 7.73199 15.0706 7.74195 15.069 7.75168C15.0673 7.76141 15.0638 7.77073 15.0586 7.7791C15.0533 7.78746 15.0465 7.79471 15.0385 7.80044C15.0304 7.80616 15.0213 7.81025 15.0117 7.81246C14.9801 7.82457 14.9532 7.84649 14.935 7.87502C14.9168 7.90354 14.9082 7.93715 14.9105 7.97091C14.9128 8.00468 14.9258 8.03682 14.9478 8.06261C14.9697 8.08841 14.9993 8.10649 15.0322 8.11422C15.0467 8.12261 15.0578 8.13571 15.0638 8.15132C15.0698 8.16693 15.0703 8.18413 15.0652 8.20004C15.06 8.21596 15.0496 8.22964 15.0356 8.23881C15.0216 8.24798 15.0049 8.25208 14.9883 8.25045Z" fill="#262246"/>
<path d="M13.582 6.90177L15.2563 6.19132C15.2563 6.19132 17.0507 5.08829 18.3515 5.4589C18.3345 5.14314 18.255 4.8339 18.1177 4.54903C17.9804 4.26416 17.7881 4.00932 17.5517 3.79923C16.4956 2.92032 14.3379 3.14591 13.5791 4.55069C12.9917 5.62882 13.519 6.77286 13.582 6.90177Z" fill="#FDC500"/>
<path d="M18.0176 4.4761C17.4932 4.5259 17.1387 4.76907 16.4824 5.23196C16.1024 5.4999 15.7412 5.79355 15.4014 6.11087C15.4761 6.06692 17.0317 5.17776 18.0381 5.88967C18.1941 6.00149 18.3278 6.14162 18.4321 6.30276C19.0869 5.78274 19.333 5.1221 19.1265 4.77493C18.8965 4.3926 18.1509 4.45706 18.0176 4.4761Z" fill="#2351FB"/>
<path d="M39.8672 13.2462C39.8521 13.2456 39.8375 13.2405 39.8254 13.2316C39.8132 13.2226 39.8041 13.2101 39.7992 13.1958C39.7943 13.1816 39.7938 13.1661 39.7978 13.1516C39.8019 13.137 39.8102 13.1241 39.8218 13.1143L41.2324 11.9908C41.2755 11.9569 41.3114 11.9147 41.338 11.8668C41.3647 11.8188 41.3816 11.7661 41.3877 11.7116C41.3938 11.6571 41.3891 11.6019 41.3737 11.5493C41.3584 11.4966 41.3328 11.4475 41.2983 11.4049L38.1767 7.48641C38.0839 7.36998 38.041 7.22147 38.0575 7.07347C38.0739 6.92546 38.1484 6.79002 38.2646 6.69686L39.2344 5.92196C39.351 5.82927 39.4996 5.78662 39.6476 5.80337C39.7956 5.82013 39.931 5.89491 40.0239 6.01131L41.3818 7.71492C41.388 7.72248 41.3926 7.73119 41.3953 7.74054C41.3981 7.7499 41.3989 7.7597 41.3978 7.76939C41.3967 7.77908 41.3937 7.78845 41.3889 7.79695C41.3842 7.80546 41.3778 7.81293 41.3701 7.81893C41.3549 7.8309 41.3356 7.83639 41.3164 7.8342C41.2972 7.832 41.2796 7.8223 41.2676 7.80721L39.9096 6.10213C39.8756 6.05923 39.8334 6.02348 39.7854 5.99693C39.7375 5.97038 39.6848 5.95357 39.6304 5.94744C39.5759 5.94132 39.5208 5.94601 39.4682 5.96124C39.4156 5.97647 39.3665 6.00195 39.3237 6.03621L38.354 6.80965C38.3109 6.8436 38.275 6.88576 38.2484 6.93369C38.2217 6.98162 38.2048 7.03436 38.1987 7.08886C38.1925 7.14335 38.1973 7.19853 38.2126 7.25118C38.228 7.30383 38.2536 7.35292 38.2881 7.39559L41.4126 11.3126C41.4587 11.3702 41.4929 11.4364 41.5134 11.5074C41.5338 11.5783 41.5401 11.6526 41.5318 11.7259C41.5235 11.7992 41.5008 11.8702 41.465 11.9348C41.4292 11.9994 41.381 12.0562 41.3232 12.1021C39.7939 13.3223 39.9053 13.2462 39.8672 13.2462Z" fill="#68003C"/>
<path d="M46.9524 12.8757L41.5931 6.14783C41.4116 5.92002 41.0799 5.88246 40.8521 6.06392L39.6341 7.03411C39.4063 7.21557 39.3687 7.54734 39.5502 7.77515L44.9095 14.5031C45.091 14.7309 45.4227 14.7684 45.6505 14.587L46.8685 13.6168C47.0963 13.4353 47.1339 13.1035 46.9524 12.8757Z" fill="#68003C"/>
<path d="M42.9829 7.88477C42.9829 7.88477 42.1714 8.55859 42.6123 9.38037C43.0532 10.2021 43.7739 9.87695 44.1445 10.3164C44.5151 10.7559 43.5879 11.7432 44.0947 12.4697C44.6016 13.1963 45.5215 12.269 45.8906 12.3115C46.2598 12.354 45.939 12.9443 46.7988 12.6675L42.9829 7.88477Z" fill="#FDC500"/>
<path d="M40.0181 12.2109L40.8293 13.2293L9.71382 38.0181L8.90259 36.9998L40.0181 12.2109ZM20.5151 16.0291C20.5051 16.0289 20.4951 16.0267 20.486 16.0225C20.4768 16.0184 20.4685 16.0125 20.4617 16.0051C20.4548 15.9977 20.4495 15.989 20.4461 15.9796C20.4427 15.9701 20.4413 15.96 20.4419 15.95L20.6543 12.8064C20.6557 12.787 20.6647 12.7689 20.6794 12.7561C20.6941 12.7433 20.7132 12.7369 20.7327 12.7383C20.7521 12.7396 20.7702 12.7487 20.783 12.7634C20.7957 12.7781 20.8021 12.7972 20.8008 12.8167L20.5898 15.947C20.5909 15.9574 20.5897 15.9679 20.5864 15.9779C20.5831 15.9878 20.5778 15.9969 20.5707 16.0046C20.5637 16.0124 20.5551 16.0185 20.5455 16.0228C20.5359 16.027 20.5256 16.0291 20.5151 16.0291Z" fill="#68003C"/>
<path d="M34.043 16.1262L35.4902 14.2717C35.5962 14.1355 35.7349 14.0282 35.8934 13.9598C36.0519 13.8915 36.2251 13.8642 36.397 13.8806L37.9526 14.0271C38.0775 14.0446 38.1904 14.1105 38.2672 14.2105C38.3439 14.3105 38.3782 14.4367 38.3628 14.5618C38.3245 14.7037 38.2324 14.8252 38.1061 14.9004C37.9797 14.9756 37.8291 14.9986 37.686 14.9646L36.6416 14.9075L34.957 16.2507L34.043 16.1262Z" fill="#E67925"/>
<path d="M37.2979 14.4453C36.9536 14.4688 36.7222 14.7939 36.9844 15.0591C36.8861 15.0336 36.7817 15.0472 36.6932 15.097C36.6048 15.1468 36.539 15.2289 36.5098 15.3262C36.4806 15.4235 36.4902 15.5283 36.5367 15.6186C36.5831 15.7089 36.6627 15.7777 36.7588 15.8105C36.4028 15.7227 36.1143 15.9102 36.0835 16.1035C36.0527 16.2969 36.271 16.4697 36.2827 16.4785C35.8096 16.3804 35.3247 16.6675 35.5679 17.0645C35.5894 17.0992 35.6177 17.1292 35.6512 17.1527C35.6847 17.1761 35.7227 17.1924 35.7627 17.2007L37.3858 17.542C37.8252 17.5537 38.1943 17.249 37.9863 16.8433C38.0713 16.8655 38.1612 16.8602 38.2429 16.828C38.3247 16.7959 38.3941 16.7386 38.4412 16.6645C38.4883 16.5903 38.5106 16.5031 38.505 16.4155C38.4993 16.3278 38.4659 16.2442 38.4097 16.1768C38.7817 16.1768 39.063 15.8838 38.9385 15.5132C39.0582 15.519 39.1762 15.4837 39.273 15.413C39.3698 15.3424 39.4395 15.2408 39.4705 15.125C39.5015 15.0093 39.4919 14.8864 39.4434 14.7769C39.3948 14.6673 39.3102 14.5777 39.2036 14.5229L37.2979 14.4453Z" fill="#E67925"/>
<path d="M24.2871 22.9333C24.2714 22.9334 24.2562 22.9285 24.2435 22.9194C24.2309 22.9102 24.2215 22.8972 24.2167 22.8823C24.212 22.8674 24.2121 22.8514 24.2171 22.8366C24.2221 22.8218 24.2318 22.809 24.2446 22.8L26.4506 21.2605C26.4585 21.2544 26.4675 21.2499 26.4771 21.2474C26.4867 21.245 26.4968 21.2444 26.5066 21.2459C26.5164 21.2474 26.5258 21.2509 26.5343 21.2562C26.5427 21.2615 26.55 21.2684 26.5556 21.2765C26.5613 21.2847 26.5653 21.2939 26.5673 21.3037C26.5693 21.3134 26.5692 21.3234 26.5672 21.3332C26.5652 21.3429 26.5612 21.3521 26.5556 21.3603C26.5499 21.3684 26.5426 21.3753 26.5341 21.3806C24.1699 23.0271 24.3164 22.9333 24.2871 22.9333ZM37.0004 14.9733C36.981 14.9733 36.9624 14.9656 36.9487 14.9519C36.9349 14.9382 36.9272 14.9195 36.9272 14.9001C36.9272 14.8807 36.9349 14.8621 36.9487 14.8483C36.9624 14.8346 36.981 14.8269 37.0004 14.8269L37.8706 14.7536C37.96 14.7462 38.0448 14.7108 38.1129 14.6524C38.181 14.5941 38.229 14.5157 38.25 14.4284C38.2544 14.409 38.2664 14.3921 38.2833 14.3816C38.2917 14.3763 38.301 14.3728 38.3107 14.3712C38.3205 14.3695 38.3304 14.3698 38.34 14.372C38.3497 14.3742 38.3587 14.3783 38.3668 14.3841C38.3748 14.3898 38.3817 14.397 38.3869 14.4054C38.3921 14.4138 38.3957 14.4231 38.3973 14.4328C38.3989 14.4425 38.3986 14.4525 38.3964 14.4621C38.3694 14.5799 38.3056 14.686 38.2142 14.765C38.1228 14.844 38.0086 14.8919 37.8881 14.9016C36.7031 15.0041 37.0708 14.9733 37.0004 14.9733Z" fill="#68003C"/>
<path d="M38.9385 15.5898C38.9238 15.5898 39.041 15.6162 36.9683 15.124C36.9488 15.1195 36.932 15.1075 36.9214 15.0906C36.9108 15.0737 36.9074 15.0533 36.9119 15.0339C36.9163 15.0145 36.9283 14.9976 36.9452 14.987C36.9621 14.9765 36.9825 14.973 37.002 14.9775L38.9546 15.4404C38.9744 15.4425 38.9926 15.4524 39.0051 15.468C39.0176 15.4835 39.0234 15.5033 39.0212 15.5232C39.0191 15.543 39.0092 15.5611 38.9937 15.5736C38.9781 15.5861 38.9583 15.5919 38.9385 15.5898ZM38.4463 16.2402C38.4316 16.2402 38.5312 16.2592 36.7441 15.8813C36.7345 15.8793 36.7254 15.8754 36.7173 15.8698C36.7092 15.8643 36.7022 15.8572 36.6969 15.849C36.6915 15.8407 36.6878 15.8315 36.686 15.8219C36.6842 15.8122 36.6843 15.8023 36.6863 15.7927C36.6883 15.7831 36.6922 15.7739 36.6977 15.7658C36.7033 15.7577 36.7104 15.7508 36.7186 15.7454C36.7268 15.74 36.736 15.7363 36.7457 15.7345C36.7554 15.7327 36.7653 15.7328 36.7749 15.7348L38.4624 16.0908C38.4822 16.0929 38.5004 16.1028 38.5129 16.1184C38.5254 16.1339 38.5312 16.1537 38.5291 16.1735C38.5269 16.1934 38.517 16.2115 38.5015 16.224C38.486 16.2365 38.4661 16.2423 38.4463 16.2402ZM38.0142 16.936C37.9995 16.936 38.1094 16.958 36.2681 16.5581C36.2486 16.554 36.2316 16.5424 36.2208 16.5257C36.2099 16.5091 36.2061 16.4889 36.2102 16.4694C36.2143 16.45 36.2259 16.433 36.2425 16.4222C36.2592 16.4113 36.2794 16.4075 36.2988 16.4116L38.0303 16.788C38.0499 16.7902 38.0679 16.8 38.0802 16.8154C38.0926 16.8308 38.0983 16.8505 38.0962 16.8701C38.0941 16.8897 38.0842 16.9077 38.0688 16.92C38.0534 16.9324 38.0338 16.9381 38.0142 16.936ZM36.7588 17.5175C36.7441 17.5175 36.7896 17.5278 35.8081 17.2949C35.7895 17.29 35.7735 17.2782 35.7634 17.2618C35.7533 17.2454 35.7499 17.2258 35.7539 17.207C35.756 17.1976 35.7599 17.1887 35.7655 17.1808C35.771 17.173 35.7781 17.1663 35.7863 17.1612C35.7946 17.1562 35.8037 17.1528 35.8132 17.1514C35.8227 17.1499 35.8325 17.1504 35.8418 17.1528L36.7764 17.374C36.7931 17.3788 36.8076 17.3894 36.8171 17.404C36.8267 17.4185 36.8309 17.436 36.8287 17.4532C36.8266 17.4705 36.8184 17.4865 36.8056 17.4983C36.7928 17.5101 36.7762 17.5169 36.7588 17.5175Z" fill="#68003C"/>
<path d="M21.2168 25.6543L24.1729 24.4824L26.0889 25.0464C26.5532 25.3159 26.6748 25.8096 26.502 26.0615C26.3291 26.3135 25.9585 26.2827 25.9277 26.2827C26.0188 26.4111 26.0601 26.5682 26.0439 26.7248C26.0277 26.8814 25.9552 27.0267 25.8398 27.1338C25.7598 27.1873 25.6686 27.2219 25.5732 27.2351C25.4778 27.2483 25.3807 27.2397 25.2891 27.21C25.3462 27.3291 25.3639 27.4634 25.3396 27.5932C25.3154 27.7231 25.2504 27.8419 25.1542 27.9325C25.058 28.023 24.9354 28.0806 24.8043 28.0968C24.6732 28.1131 24.5403 28.0872 24.4248 28.0229C24.6533 28.4053 24.3911 28.8052 23.9619 28.8623L21.9653 29.1187C21.459 29.2055 20.9391 29.1652 20.4521 29.0015L18.9639 28.499L21.2168 25.6543Z" fill="#E67925"/>
<path d="M22.7329 25.5039L6.27537 25.8438C5.51219 26.6729 5.291 27.8462 5.71287 28.8115C6.22996 29.9966 7.63475 30.6719 9.01903 30.3145L21.8686 28.2109C22.1557 27.3076 22.4438 26.4053 22.7329 25.5039Z" fill="#E67925"/>
<path d="M7.00342 25.9006C6.98399 25.9006 6.96536 25.8929 6.95163 25.8791C6.93789 25.8654 6.93018 25.8468 6.93018 25.8273C6.93018 25.8079 6.93789 25.7893 6.95163 25.7756C6.96536 25.7618 6.98399 25.7541 7.00342 25.7541L9.99316 25.697C10.0126 25.697 10.0312 25.7047 10.045 25.7184C10.0587 25.7322 10.0664 25.7508 10.0664 25.7702C10.0664 25.7896 10.0587 25.8083 10.045 25.822C10.0312 25.8357 10.0126 25.8435 9.99316 25.8435C5.92236 25.9226 7.29346 25.9006 7.00342 25.9006ZM23.4565 24.6716C23.8447 24.5339 24.1099 24.4006 24.5186 24.5251C24.5282 24.5278 24.5372 24.5324 24.545 24.5385C24.5529 24.5447 24.5594 24.5523 24.5643 24.5611C24.5692 24.5698 24.5724 24.5793 24.5736 24.5893C24.5748 24.5992 24.574 24.6092 24.5713 24.6189C24.5686 24.6285 24.564 24.6375 24.5579 24.6453C24.5517 24.6532 24.544 24.6597 24.5353 24.6646C24.5266 24.6695 24.517 24.6727 24.5071 24.6739C24.4972 24.6751 24.4872 24.6743 24.4775 24.6716C24.1157 24.5647 23.8916 24.6848 23.5063 24.8181C23.4869 24.8247 23.4657 24.8233 23.4473 24.8142C23.4289 24.8052 23.4148 24.7892 23.4082 24.7697C23.4016 24.7503 23.403 24.7291 23.412 24.7106C23.4211 24.6922 23.4371 24.6782 23.4565 24.6716ZM26.0244 26.633C26.0055 26.633 25.9873 26.6257 25.9736 26.6126C25.96 26.5995 25.9519 26.5816 25.9512 26.5627C25.95 26.5234 25.9436 26.4845 25.9321 26.447C25.8926 26.3269 25.8354 26.3181 25.856 26.2565C25.8598 26.2453 25.8664 26.2351 25.8751 26.2269C25.8837 26.2188 25.8943 26.2128 25.9058 26.2097C26.004 26.1802 26.0939 26.1281 26.1685 26.0577C26.243 25.9872 26.3 25.9003 26.335 25.8039C26.3665 25.6648 26.3496 25.5191 26.287 25.391C26.2244 25.2628 26.1198 25.1599 25.9907 25.0993C25.9736 25.09 25.9608 25.0744 25.9551 25.0558C25.9494 25.0372 25.9511 25.017 25.96 24.9997C25.9643 24.9912 25.9703 24.9836 25.9776 24.9774C25.9849 24.9712 25.9934 24.9665 26.0025 24.9636C26.0117 24.9608 26.0213 24.9597 26.0309 24.9607C26.0404 24.9616 26.0497 24.9644 26.0581 24.9689C26.6177 25.2619 26.6851 26.031 26.0361 26.3166C26.0737 26.3918 26.0947 26.4743 26.0977 26.5583C26.0979 26.568 26.0961 26.5777 26.0925 26.5868C26.0889 26.5958 26.0835 26.6041 26.0767 26.611C26.0699 26.618 26.0618 26.6235 26.0528 26.6273C26.0438 26.6311 26.0342 26.633 26.0244 26.633Z" fill="#68003C"/>
<path d="M25.9277 26.3535C25.9131 26.3535 26.0435 26.3872 24.0059 25.8496C23.9962 25.8472 23.9872 25.8429 23.9792 25.837C23.9713 25.8311 23.9645 25.8237 23.9594 25.8152C23.9543 25.8067 23.951 25.7973 23.9495 25.7875C23.948 25.7777 23.9485 25.7677 23.9509 25.7581C23.9533 25.7484 23.9576 25.7394 23.9635 25.7314C23.9694 25.7235 23.9768 25.7167 23.9853 25.7116C23.9938 25.7065 24.0033 25.7032 24.0131 25.7017C24.0229 25.7002 24.0329 25.7007 24.0425 25.7031L25.9468 26.2041C25.9666 26.2066 25.9846 26.2169 25.9968 26.2327C26.009 26.2485 26.0145 26.2685 26.012 26.2883C26.0094 26.3081 25.9991 26.3261 25.9833 26.3384C25.9676 26.3506 25.9475 26.356 25.9277 26.3535ZM25.2876 27.2808C25.2729 27.2808 25.3491 27.2969 23.606 26.897C23.5865 26.8927 23.5696 26.8809 23.5589 26.8641C23.5482 26.8474 23.5446 26.827 23.5488 26.8076C23.5531 26.7882 23.5649 26.7713 23.5817 26.7605C23.5984 26.7498 23.6188 26.7462 23.6382 26.7505L25.3037 27.1328C25.3233 27.1349 25.3413 27.1448 25.3537 27.1602C25.366 27.1756 25.3718 27.1952 25.3696 27.2148C25.3675 27.2345 25.3576 27.2524 25.3423 27.2648C25.3269 27.2772 25.3072 27.2829 25.2876 27.2808ZM24.4233 28.0938C24.4087 28.0938 24.4893 28.1084 23.0815 27.8301C23.072 27.8283 23.063 27.8247 23.0549 27.8194C23.0468 27.814 23.0399 27.8071 23.0345 27.799C23.0292 27.791 23.0256 27.7819 23.0238 27.7724C23.0221 27.7629 23.0223 27.7531 23.0244 27.7437C23.026 27.7342 23.0295 27.7251 23.0346 27.7171C23.0398 27.709 23.0466 27.7021 23.0546 27.6967C23.0625 27.6914 23.0715 27.6877 23.0809 27.686C23.0903 27.6842 23.1 27.6844 23.1094 27.6865L24.438 27.9487C24.4558 27.9523 24.4716 27.9624 24.4824 27.9771C24.4932 27.9917 24.4981 28.0098 24.4963 28.0279C24.4945 28.0459 24.486 28.0627 24.4725 28.0749C24.459 28.087 24.4415 28.0938 24.4233 28.0938ZM19.7256 31.9023C19.7142 31.9023 19.703 31.8996 19.6928 31.8945C19.6826 31.8894 19.6737 31.8821 19.6667 31.8731C19.6598 31.864 19.655 31.8535 19.6528 31.8423C19.6506 31.8311 19.6509 31.8196 19.6538 31.8086L20.2002 29.8237C20.206 29.8052 20.2186 29.7896 20.2355 29.7801C20.2523 29.7706 20.2722 29.7679 20.291 29.7725C20.3097 29.7779 20.3255 29.7905 20.3351 29.8074C20.3447 29.8244 20.3473 29.8444 20.3423 29.8633L19.7959 31.8496C19.7913 31.8647 19.7819 31.8779 19.7693 31.8874C19.7567 31.8969 19.7414 31.9021 19.7256 31.9023ZM26.3145 32.0825C26.3014 32.0826 26.2886 32.0792 26.2773 32.0727C26.266 32.0661 26.2567 32.0567 26.2503 32.0453C26.2439 32.034 26.2406 32.0211 26.2408 32.0081C26.241 31.9951 26.2447 31.9823 26.2515 31.9712L28.1558 28.8467C28.1607 28.8385 28.1672 28.8315 28.1749 28.8259C28.1826 28.8203 28.1914 28.8163 28.2007 28.8141C28.2099 28.8119 28.2195 28.8116 28.2289 28.8132C28.2383 28.8147 28.2473 28.8182 28.2554 28.8232C28.2638 28.8279 28.2711 28.8343 28.277 28.8419C28.2829 28.8495 28.2871 28.8583 28.2894 28.8676C28.2918 28.877 28.2922 28.8867 28.2906 28.8962C28.289 28.9057 28.2855 28.9148 28.2803 28.9229L26.376 32.0474C26.3695 32.058 26.3605 32.0667 26.3497 32.0729C26.339 32.079 26.3268 32.0823 26.3145 32.0825ZM16.3462 43.5288C16.3322 43.529 16.3185 43.5251 16.3066 43.5177C16.2947 43.5103 16.2852 43.4997 16.2792 43.487C16.2732 43.4744 16.2709 43.4603 16.2727 43.4464C16.2744 43.4325 16.2801 43.4194 16.2891 43.4087L17.6792 41.7256C17.6915 41.7107 17.7092 41.7013 17.7284 41.6994C17.7476 41.6975 17.7667 41.7032 17.7817 41.7153C17.7964 41.7281 17.8056 41.746 17.8075 41.7653C17.8094 41.7846 17.8039 41.804 17.792 41.8193C16.3066 43.6182 16.3975 43.5288 16.3462 43.5288ZM14.8799 16.1113L19.5571 15.6719C19.5571 15.6719 17.6792 16.8994 14.8799 16.1113ZM21.7178 45.8286C21.4351 45.8286 21.4248 45.8374 21.3955 45.7979C21.3886 45.7882 21.384 45.7771 21.3822 45.7654C21.3805 45.7537 21.3815 45.7417 21.3853 45.7305L22.0181 43.9448C22.0244 43.9266 22.0376 43.9117 22.0549 43.9032C22.0722 43.8947 22.0921 43.8933 22.1104 43.8994C22.1286 43.9061 22.1436 43.9196 22.1521 43.9371C22.1606 43.9546 22.1619 43.9747 22.1558 43.9932L21.5581 45.6821H21.7178C21.7372 45.6821 21.7558 45.6898 21.7696 45.7036C21.7833 45.7173 21.791 45.7359 21.791 45.7554C21.791 45.7748 21.7833 45.7934 21.7696 45.8072C21.7558 45.8209 21.7372 45.8286 21.7178 45.8286ZM18.4102 62.7095C18.3861 62.7093 18.3625 62.7025 18.342 62.6898C18.3216 62.6771 18.305 62.659 18.2943 62.6374C18.2835 62.6159 18.2789 62.5918 18.281 62.5678C18.2831 62.5438 18.2918 62.5208 18.3062 62.5015L18.8716 61.7339L17.5781 62.1367C17.5508 62.1481 17.5204 62.1497 17.4919 62.1415C17.4635 62.1332 17.4387 62.1156 17.4216 62.0913C17.4046 62.0671 17.3963 62.0378 17.3981 62.0083C17.3999 61.9787 17.4118 61.9507 17.4316 61.9287L17.9282 61.3296L16.3667 61.6416C16.3362 61.6478 16.3045 61.6429 16.2773 61.6278C16.2501 61.6126 16.2292 61.5883 16.2184 61.5591C16.2076 61.5299 16.2076 61.4978 16.2184 61.4686C16.2292 61.4394 16.2501 61.415 16.2773 61.3999L17.2002 60.8828C17.2171 60.8733 17.2371 60.8709 17.2558 60.8761C17.2744 60.8814 17.2903 60.8938 17.2998 60.9106C17.3093 60.9276 17.3117 60.9475 17.3065 60.9662C17.3013 60.9849 17.2889 61.0007 17.272 61.0103L16.437 61.479L17.9443 61.1772C17.9707 61.172 17.9981 61.175 18.0227 61.1859C18.0473 61.1969 18.068 61.2151 18.0818 61.2383C18.0956 61.2614 18.1019 61.2882 18.0998 61.315C18.0978 61.3419 18.0875 61.3674 18.0703 61.3882L17.5796 61.9741L18.8672 61.5742C18.8936 61.5643 18.9225 61.5633 18.9495 61.5713C18.9765 61.5794 19.0001 61.5961 19.0168 61.6188C19.0334 61.6416 19.0421 61.6692 19.0415 61.6974C19.041 61.7256 19.0312 61.7528 19.0137 61.7749L18.46 62.5293L19.8545 61.8276C19.8631 61.8224 19.8727 61.8191 19.8827 61.8178C19.8927 61.8165 19.9029 61.8172 19.9125 61.82C19.9222 61.8228 19.9312 61.8276 19.939 61.834C19.9467 61.8404 19.9531 61.8484 19.9576 61.8573C19.9622 61.8663 19.9648 61.8762 19.9654 61.8862C19.966 61.8963 19.9644 61.9063 19.961 61.9158C19.9575 61.9252 19.9521 61.9339 19.9451 61.9411C19.9381 61.9484 19.9297 61.9541 19.9204 61.958C18.3267 62.7681 18.457 62.7095 18.4102 62.7095ZM28.4429 49.085C28.4201 49.0847 28.3979 49.0777 28.379 49.065C28.3601 49.0523 28.3454 49.0343 28.3365 49.0134C28.3276 48.9924 28.3251 48.9693 28.3292 48.9469C28.3332 48.9245 28.3437 48.9037 28.3594 48.8872L28.9453 48.2822L27.1875 48.729C27.1616 48.7352 27.1344 48.7325 27.1103 48.7212C27.0863 48.7099 27.0667 48.6907 27.055 48.6669C27.0432 48.643 27.0399 48.6159 27.0456 48.5899C27.0514 48.5639 27.0657 48.5406 27.0864 48.5239L27.8599 47.9219L26.2632 48.0229C26.2356 48.0243 26.2084 48.0158 26.1864 47.999C26.1644 47.9822 26.1491 47.9582 26.1431 47.9312C26.1372 47.9042 26.141 47.8759 26.1538 47.8514C26.1667 47.8269 26.1878 47.8078 26.2134 47.7974L27.4907 47.3022C27.5084 47.2969 27.5275 47.2984 27.5441 47.3065C27.5607 47.3146 27.5737 47.3286 27.5803 47.3459C27.587 47.3631 27.5869 47.3822 27.5801 47.3994C27.5732 47.4166 27.5602 47.4305 27.5435 47.4385L26.4448 47.8647L27.9463 47.7695C27.9713 47.768 27.9961 47.7745 28.0171 47.7881C28.0381 47.8017 28.0542 47.8217 28.0631 47.8451C28.0719 47.8685 28.073 47.8942 28.0663 47.9183C28.0595 47.9423 28.0452 47.9636 28.0254 47.979L27.293 48.5532L29.0068 48.1138C29.0316 48.1072 29.0578 48.1089 29.0815 48.1186C29.1052 48.1284 29.1251 48.1456 29.138 48.1677C29.151 48.1898 29.1564 48.2156 29.1533 48.241C29.1502 48.2665 29.1389 48.2902 29.1211 48.3086L28.5483 48.9062L29.8667 48.4902C29.8861 48.4842 29.9071 48.4862 29.9251 48.4956C29.9431 48.5051 29.9566 48.5213 29.9626 48.5408C29.9687 48.5602 29.9667 48.5812 29.9572 48.5992C29.9478 48.6172 29.9315 48.6307 29.9121 48.6367C28.3813 49.1099 28.4692 49.085 28.4429 49.085Z" fill="#68003C"/>
<path d="M16.8325 9.09766C17.0008 9.09766 17.1372 9.02617 17.1372 8.93799C17.1372 8.84981 17.0008 8.77832 16.8325 8.77832C16.6642 8.77832 16.5278 8.84981 16.5278 8.93799C16.5278 9.02617 16.6642 9.09766 16.8325 9.09766Z" fill="#262246"/>
<path d="M36.8218 61.1504H47.6177V73.4082H36.8218V61.1504Z" fill="#2351FB"/>
<path d="M36.2959 60.6582H48.1436V61.9854H36.2959V60.6582Z" fill="#2351FB"/>
<path d="M38.25 60.6582C38.25 60.6582 37.9483 62.3105 39.3516 62.8628C40.7549 63.415 41.6016 61.71 42.334 61.6104C43.0664 61.5107 43.6392 65.2915 45.4805 65.4189C47.3218 65.5464 46.7695 60.6597 46.7695 60.6597L38.25 60.6582Z" fill="#FDC500"/>
<path d="M49.1572 67.7821C49.0704 67.7822 48.9863 67.7516 48.9199 67.6957L41.5561 61.4393C41.4821 61.3764 41.4361 61.2866 41.4283 61.1898C41.4205 61.0929 41.4514 60.997 41.5144 60.923C41.5773 60.8489 41.6671 60.803 41.7639 60.7951C41.8608 60.7873 41.9567 60.8183 42.0307 60.8812L49.3945 67.1376C49.4514 67.1862 49.492 67.251 49.5108 67.3234C49.5297 67.3958 49.526 67.4722 49.5002 67.5424C49.4743 67.6126 49.4276 67.6732 49.3663 67.716C49.305 67.7589 49.232 67.7819 49.1572 67.7821Z" fill="#68003C"/>
<path d="M41.8696 61.7832C42.258 61.7832 42.5728 61.4684 42.5728 61.0801C42.5728 60.6918 42.258 60.377 41.8696 60.377C41.4813 60.377 41.1665 60.6918 41.1665 61.0801C41.1665 61.4684 41.4813 61.7832 41.8696 61.7832Z" fill="#68003C"/>
</svg>
