<svg width="75" height="76" viewBox="0 0 75 76" fill="none" xmlns="http://www.w3.org/2000/svg">
<mask id="mask0_11020_3141" style="mask-type:luminance" maskUnits="userSpaceOnUse" x="31" y="27" width="9" height="15">
<path d="M31.7358 27.0918H39.1099V41.9585H31.7358V27.0918Z" fill="white"/>
</mask>
<g mask="url(#mask0_11020_3141)">
<path d="M31.7358 27.0918H39.1099V41.9585H31.7358V27.0918Z" fill="#F5B493"/>
<path d="M32.1138 30.4639C32.1138 30.4639 33.5786 36.5855 40.04 37.1304V31.9302L32.1138 30.4639Z" fill="#EBA284"/>
</g>
<path d="M33.9976 38.087C29.354 38.9498 27.0645 40.8512 25.8296 42.4493C25.8149 42.4303 26.8198 70.9567 26.8198 70.9742L48.6592 70.8805C48.9902 64.4074 49.0591 58.8336 49.0327 54.4215C48.9741 44.7037 48.3984 42.6661 46.8047 40.8717C43.7109 37.3868 37.916 37.5436 33.9976 38.087Z" fill="#917EEC"/>
<path d="M31.5674 38.6924C31.5674 38.6924 24.5918 40.6553 23.3555 45.7236C22.1191 50.792 18.0337 67.1382 21.2505 69.2417C24.4673 71.3452 28.0239 68.3745 30.6401 60.9507C33.2563 53.5269 31.5674 38.6924 31.5674 38.6924ZM39.227 37.8252C39.227 37.8252 46.248 37.8091 49.7139 41.7686C53.1797 45.728 61.5937 62.5591 58.3755 65.7759C55.1572 68.9927 50.5796 64.1016 45.7529 54.2974C40.9263 44.4932 39.227 37.8252 39.227 37.8252Z" fill="#917EEC"/>
<path d="M31.7358 38.6393C33.4146 40.9186 35.4199 42.2457 36.7808 41.7696C37.0699 41.6567 37.336 41.4919 37.5659 41.2833C37.5659 41.2833 38.3145 40.6388 39.1113 37.7897C39.126 37.7897 34.8267 35.547 31.7358 38.6393Z" fill="#F5B493"/>
<path d="M31.7358 36.7348C31.5116 36.7553 31.297 36.8356 31.1144 36.9673C30.9317 37.0989 30.7877 37.2771 30.6973 37.4833C30.4043 38.1952 29.9297 39.3173 29.9297 39.3173C29.9297 39.3173 31.9893 43.3793 34.1968 44.5775C36.4043 45.7758 36.7808 41.7694 36.7808 41.7694C36.7808 41.7694 33.4687 41.8105 31.7358 36.7348ZM36.7808 41.7694C38.1378 40.2393 38.9564 38.3068 39.1113 36.2675C39.1113 36.2675 39.6621 36.1547 39.9067 36.4726C40.1514 36.7904 40.9907 37.9447 40.9907 37.9447C40.9907 37.9447 41.1226 44.3124 39.7749 44.8002C38.4272 45.288 36.7808 41.7694 36.7808 41.7694Z" fill="#917EEC"/>
<path d="M29.9297 39.3208C29.9297 39.3208 33.8232 45.9653 34.6465 46.0034C35.4697 46.0415 36.7808 41.7729 36.7808 41.7729C36.7808 41.7729 34.8765 45.1201 34.5337 44.8491C34.1909 44.5781 29.9297 39.3208 29.9297 39.3208ZM40.9907 37.9453C40.9907 37.9453 40.6728 44.3687 40.1499 44.8477C39.627 45.3267 36.7808 41.7715 36.7808 41.7715C36.7808 41.7715 39.5874 43.9058 39.8877 43.6055C40.188 43.3052 40.9907 37.9453 40.9907 37.9453ZM36.7808 42.6592C36.7808 42.6592 38.0874 49.2935 37.4341 53.4111C36.7808 57.5288 37.1543 70.9292 37.1543 70.9292H38.0039C38.0039 70.9292 37.5293 60.3999 38.0039 56.1562C38.4785 51.9126 37.7783 44.5342 36.7808 42.6592ZM26.187 45.7383L26.2617 50.0435C24.8877 52.3975 24.8481 55.0855 25.8296 57.5142C26.1533 61.8193 25.9482 59.0522 26.8198 70.9746H35.4243C35.4243 70.9746 29.748 70.0825 29.0215 69.0337C28.2949 67.9849 33.835 66.5889 34.0854 65.7393C34.3359 64.8896 27.9463 64.3418 27.6401 63.0938C27.334 61.8457 27.5903 58.3228 27.1919 57.5142C26.625 56.3672 25.0474 54.4102 27.1919 50.0435L26.187 45.7383ZM48.3604 44.5781C48.4922 46.1904 48.625 47.8042 48.7588 49.4194C50.2866 52.0752 50.3394 55.1323 49.1616 57.8042L48.6592 70.8809H43.5938C43.5938 70.8809 46.9482 69.7324 47.1094 68.0112C47.2705 66.29 44.8696 65.313 45.1699 64.3037C45.4702 63.2944 47.9648 63.4937 48.3647 58.0283C49.6978 55.2363 49.4502 52.1309 47.915 49.5688L48.3604 44.5781Z" fill="#6D5FDE"/>
<path d="M15.2344 63.4026C15.1965 63.92 15.2275 64.4402 15.3267 64.9494C15.5321 66.0756 15.9876 67.1414 16.6597 68.0681C16.9526 68.4944 17.4404 69.199 18.1699 69.7512C20.3672 71.4182 24.2534 71.3332 26.4419 69.3879C27.0977 68.8366 27.5868 68.1132 27.854 67.2991C28.1147 66.4377 28.0928 65.4504 27.1304 63.0832C25.8926 60.0408 25.2729 58.5203 24.1611 57.9563C21.0483 56.3684 15.5918 59.3743 15.2344 63.4026ZM61.9834 58.51C62.0845 59.1238 62.9048 64.1584 59.688 66.5447C57.9946 67.803 55.3901 68.1706 53.4888 66.7952C51.9712 65.6877 51.5229 63.9446 51.3311 63.1975C50.4756 59.862 51.7236 55.6887 53.8564 54.9621C53.9268 54.9372 54.0571 54.8977 54.7515 54.8552C57.6973 54.6765 59.8535 54.4612 60.9741 55.8103C61.6846 56.6628 61.8413 57.6311 61.9834 58.51Z" fill="#6D5FDE"/>
<path d="M14.2266 43.3047C14.8638 55.5479 16.5205 64.6724 18.5127 67.4863C19.7798 69.2734 21.4321 69.8066 21.4321 69.8066C22.6523 70.2007 24.4863 70.2461 25.582 69.1797C26.3804 68.4033 26.5122 67.3076 26.5488 66.6382C26.814 61.7954 23.4565 55.4248 21.583 50.6406C20.4618 47.7671 19.6052 44.7973 19.0239 41.7681L14.2266 43.3047ZM61.5615 40.1992C62.1357 47.4326 63.0659 64.7896 57.709 66.5166C56.7041 66.8403 55.2349 66.6938 54.2241 65.916C52.0444 64.2358 52.752 60.1958 53.8491 53.4121C54.3853 50.1089 55.2144 44.9072 56.2192 38.2539L61.5615 40.1992Z" fill="#F5B493"/>
<path d="M40.0679 47.5869C40.0679 47.5869 40.3887 49.8574 40.6099 50.0244C40.8311 50.1914 43.125 51.3589 43.3682 51.3999C43.6113 51.4409 46.4634 50.2017 46.6538 49.9981C46.8003 49.8384 46.793 48.4248 46.7812 47.8389C46.9145 48.3062 47.3599 49.9321 47.1841 50.1592C46.9805 50.4258 43.7769 51.9243 43.2964 51.8833C42.8159 51.8423 40.3052 50.5547 40.0664 50.1987C39.8276 49.8428 40.0679 47.5869 40.0679 47.5869Z" fill="#6D5FDE"/>
<path d="M46.7754 47.5869V47.8389C46.7534 47.7598 46.7388 47.7129 46.7388 47.7129L46.7754 47.5869Z" fill="#6D5FDE"/>
<path d="M43.5937 50.9912C43.9198 50.9912 44.1841 50.7269 44.1841 50.4009C44.1841 50.0749 43.9198 49.8105 43.5937 49.8105C43.2677 49.8105 43.0034 50.0749 43.0034 50.4009C43.0034 50.7269 43.2677 50.9912 43.5937 50.9912Z" fill="white"/>
<path d="M55.7974 41.0349L56.2192 38.2517C56.0725 37.0151 56.002 35.7705 56.0083 34.5252C56.0171 33.0603 56.146 32.8816 56.0215 31.9983C55.7959 30.4192 55.2012 29.5725 55.5908 29.1917C55.875 28.9134 56.48 29.0818 56.77 29.2107C57.6797 29.615 58.1939 30.8323 58.1177 32.2986C58.1177 32.2986 60.4878 30.951 61.4106 31.5999C62.3335 32.2488 61.4106 32.9724 61.4106 32.9724C61.4106 32.9724 63.583 32.5725 62.6836 34.2205C62.6836 34.2205 64.5557 34.2454 63.2578 35.7425C63.2578 35.7425 63.8291 35.5257 64.0679 35.7791C64.2539 35.9783 64.1411 36.346 64.0811 36.5408C63.7383 37.6585 62.2368 38.968 61.6113 39.4851L61.686 41.9563C59.6754 42.2172 57.6322 41.8975 55.7974 41.0349Z" fill="#F5B493"/>
<path d="M60.9712 37.4973C60.7764 37.0901 61.6553 36.5378 62.0493 36.3005C61.2129 36.5935 60.2227 36.8469 59.9312 36.5437C59.6396 36.2405 60.416 35.615 60.7793 35.3454C60.0469 35.6618 59.3335 35.8493 59.042 35.5461C58.6816 35.1682 59.3262 34.5207 59.7144 34.1633C59.0039 34.5515 58.2759 34.8357 57.9565 34.6028C57.3354 34.1633 58.3198 32.8449 58.8179 32.2986C58.8244 32.2916 58.8324 32.286 58.8412 32.2822C58.85 32.2783 58.8595 32.2764 58.8691 32.2764C58.8787 32.2764 58.8883 32.2783 58.8971 32.2822C58.9059 32.286 58.9138 32.2916 58.9204 32.2986C58.9272 32.3052 58.9326 32.3132 58.9363 32.322C58.94 32.3308 58.942 32.3403 58.942 32.3498C58.942 32.3594 58.94 32.3688 58.9363 32.3776C58.9326 32.3864 58.9272 32.3944 58.9204 32.4011C58.5103 32.8581 57.5347 34.1369 58.0342 34.4885C58.415 34.7566 59.6367 34.0813 60.5537 33.4822C60.9814 33.1658 61.3345 32.9387 61.3726 32.9153C61.3885 32.907 61.4068 32.9048 61.4242 32.9092C61.4416 32.9135 61.4568 32.9241 61.4669 32.9389C61.477 32.9537 61.4813 32.9717 61.4791 32.9895C61.4768 33.0073 61.4681 33.0236 61.4546 33.0354C61.3638 33.1042 61.0386 33.343 60.6182 33.6213C60.1626 33.9597 58.7593 35.0451 59.1533 35.4509C59.4961 35.8098 60.75 35.2502 61.7227 34.7185C62.1738 34.4358 62.5547 34.2219 62.6543 34.1662C62.671 34.1567 62.6907 34.1542 62.7093 34.1591C62.7279 34.164 62.7438 34.176 62.7536 34.1925C62.7634 34.209 62.7663 34.2287 62.7617 34.2474C62.7571 34.266 62.7454 34.2821 62.729 34.2922C62.6279 34.3581 62.2588 34.5852 61.7886 34.8533C60.9829 35.3616 60.0659 36.0163 60.0146 36.3547C60.0109 36.3716 60.0114 36.3893 60.0163 36.4059C60.0211 36.4226 60.0302 36.4377 60.0425 36.4499C60.4058 36.8293 62.4697 36.0266 63.2344 35.6853C63.2432 35.6806 63.2529 35.6778 63.2629 35.6771C63.2729 35.6763 63.2829 35.6776 63.2923 35.6808C63.3018 35.6841 63.3105 35.6892 63.3179 35.696C63.3253 35.7027 63.3312 35.7109 63.3353 35.72C63.3394 35.7291 63.3416 35.739 63.3418 35.749C63.3419 35.759 63.34 35.7689 63.3362 35.7781C63.3324 35.7874 63.3267 35.7957 63.3195 35.8027C63.3123 35.8096 63.3038 35.815 63.2944 35.8186C62.7451 36.072 61.2803 36.8323 61.1104 37.3039C61.0994 37.3268 61.0938 37.3518 61.0938 37.3772C61.0938 37.4025 61.0994 37.4275 61.1104 37.4504C61.2891 37.8225 62.5093 37.4724 63.2373 37.1574C63.255 37.1501 63.2749 37.1499 63.2927 37.157C63.3105 37.1642 63.3248 37.178 63.3325 37.1955C63.3364 37.2044 63.3385 37.2139 63.3387 37.2236C63.3389 37.2332 63.3371 37.2428 63.3336 37.2518C63.33 37.2608 63.3248 37.269 63.318 37.2759C63.3113 37.2829 63.3033 37.2884 63.2944 37.2922C62.7261 37.5207 61.2305 38.051 60.9712 37.4973Z" fill="#2D1929"/>
<path d="M19.6436 37.6815C20.083 36.47 19.0576 35.827 18.1992 36.7703C17.3408 37.7137 16.3213 42.8362 16.3213 42.8362C16.3213 42.8362 17.1284 44.5604 18.9683 42.7044C18.9683 42.7088 19.1997 38.8914 19.6436 37.6815ZM46.0151 24.6253C45.7969 22.8851 45.3794 21.8275 45.2739 20.6878C45.0161 17.8738 45.3237 15.7249 43.3125 13.803C42.6973 13.0867 41.9813 12.4635 41.187 11.9529C38.2925 9.84064 33.4907 9.78351 30.2476 12.221C26.5107 15.0233 26.5562 19.8382 26.5679 21.0408C26.6206 26.6307 30.5039 30.3821 32.1987 31.7606C33.1151 32.6399 34.1447 33.3931 35.2603 34.0003C36.5039 34.661 39.835 36.429 42.2358 34.8792C42.8643 34.4749 43.7256 33.4612 44.7407 31.0867C46.0547 28.0135 46.2319 26.3655 46.0151 24.6253Z" fill="#F5B493"/>
<path d="M41.2134 27.0295C41.7993 26.7014 42.0923 26.3674 42.1055 26.0363C42.1216 25.2717 40.6509 25.1428 40.1704 22.5339C40.167 22.5149 40.1712 22.4953 40.1822 22.4793C40.1932 22.4634 40.21 22.4525 40.229 22.4489C40.2384 22.447 40.2482 22.4471 40.2576 22.449C40.267 22.4509 40.276 22.4547 40.2839 22.4602C40.2918 22.4657 40.2986 22.4727 40.3038 22.4808C40.3089 22.4889 40.3124 22.498 40.314 22.5075C40.7856 25.071 42.2695 25.1735 42.252 26.0393C42.2446 26.426 41.9194 26.8025 41.2852 27.1569C41.2684 27.1652 41.249 27.1668 41.2311 27.1612C41.2132 27.1557 41.1981 27.1435 41.1889 27.1272C41.1798 27.1109 41.1772 27.0917 41.1817 27.0735C41.1863 27.0553 41.1976 27.0396 41.2134 27.0295ZM43.2935 23.7937C42.8848 23.8274 42.5098 23.3425 42.457 22.7097C42.4043 22.0769 42.6929 21.5378 43.1016 21.5012C43.5103 21.4646 43.8867 21.9524 43.9395 22.5852C43.9922 23.218 43.7036 23.7512 43.2935 23.7937ZM40.7944 19.383C40.7648 19.3827 40.736 19.3734 40.7118 19.3563C40.6876 19.3393 40.6691 19.3153 40.6588 19.2875C40.6485 19.2598 40.6468 19.2296 40.654 19.2008C40.6613 19.1721 40.677 19.1463 40.6992 19.1267C40.7153 19.112 42.3413 17.7439 44.1826 18.7956C44.1994 18.8052 44.214 18.8181 44.2258 18.8333C44.2376 18.8486 44.2462 18.8661 44.2513 18.8847C44.2563 18.9034 44.2576 18.9228 44.2551 18.942C44.2527 18.9611 44.2464 18.9796 44.2368 18.9963C44.2272 19.013 44.2144 19.0277 44.1991 19.0395C44.1838 19.0513 44.1663 19.0599 44.1477 19.065C44.1291 19.07 44.1096 19.0713 44.0905 19.0688C44.0713 19.0663 44.0529 19.0601 44.0361 19.0505C42.3765 18.1027 40.9482 19.2966 40.8882 19.3435C40.8627 19.3674 40.8294 19.3815 40.7944 19.383ZM34.4736 19.8459C34.4442 19.8461 34.4153 19.8374 34.3909 19.821C34.3664 19.8045 34.3475 19.7811 34.3366 19.7537C34.3257 19.7263 34.3233 19.6963 34.3297 19.6675C34.3361 19.6388 34.351 19.6126 34.3726 19.5925C35.9106 18.1276 37.8149 19.0725 37.834 19.0813C37.8688 19.0987 37.8952 19.1293 37.9074 19.1663C37.9196 19.2032 37.9167 19.2435 37.8992 19.2783C37.8817 19.3131 37.8511 19.3395 37.8142 19.3517C37.7772 19.3639 37.7369 19.3609 37.7022 19.3435C37.6318 19.3083 35.9605 18.488 34.5747 19.8049C34.5476 19.8311 34.5113 19.8458 34.4736 19.8459Z" fill="#2D1929"/>
<path d="M38.1548 12.0859C38.1548 12.0859 36.3735 12.707 35.4243 16.2021C34.4751 19.6972 29.5811 20.8632 29.5811 20.8632C29.5811 20.8632 27.2915 27.4316 31.7358 31.3603C30.271 30.8959 27.7046 29.8266 25.8501 27.3525C22.0151 22.2255 23.2134 13.766 27.5713 10.8818C29.1431 9.84173 30.8657 9.789 34.3096 9.68353C38.2324 9.56927 41.1621 9.47991 43.1982 11.4882C45.5068 13.7646 45.2607 17.3593 45.1289 18.5429C45.1289 18.5414 42.5244 11.6347 38.1548 12.0859Z" fill="#2D1929"/>
<path d="M30.583 22.868C29.9648 21.3402 28.4443 20.5125 27.186 21.0208C25.9277 21.5291 25.4092 23.18 26.0273 24.7079C26.6455 26.2357 28.1645 27.0633 29.4228 26.555C30.6811 26.0467 31.2012 24.3958 30.583 22.868Z" fill="#F5B493"/>
<path d="M29.5415 25.0951C29.5327 25.0951 28.7124 24.9735 28.6362 24.1781C28.5894 23.6786 29.2222 23.4853 29.4756 23.4296C29.3174 23.0985 28.6729 21.8812 27.7764 21.9252C26.9297 21.9677 26.9575 22.9198 26.959 22.9594C26.9594 22.969 26.9579 22.9786 26.9545 22.9876C26.9512 22.9967 26.9462 23.005 26.9396 23.012C26.9331 23.0191 26.9252 23.0248 26.9165 23.0289C26.9077 23.0329 26.8983 23.0352 26.8887 23.0355C26.8791 23.0359 26.8694 23.0344 26.8604 23.0311C26.8514 23.0278 26.8431 23.0227 26.836 23.0162C26.8289 23.0096 26.8232 23.0018 26.8192 22.993C26.8151 22.9843 26.8129 22.9749 26.8125 22.9652C26.8125 22.955 26.7788 21.8285 27.769 21.7787C28.9058 21.723 29.6191 23.39 29.6484 23.456C29.6528 23.4662 29.6548 23.4773 29.6542 23.4884C29.6537 23.4995 29.6506 23.5103 29.6452 23.5201C29.6399 23.5298 29.6324 23.5382 29.6233 23.5446C29.6142 23.551 29.6038 23.5553 29.5928 23.557C29.584 23.557 28.7388 23.6947 28.7827 24.1635C28.8472 24.8417 29.5313 24.9457 29.5605 24.9501C29.579 24.9535 29.5953 24.9639 29.6063 24.9791C29.6173 24.9942 29.6221 25.013 29.6197 25.0316C29.6172 25.0502 29.6078 25.0671 29.5932 25.0789C29.5787 25.0907 29.5602 25.0965 29.5415 25.0951Z" fill="#2D1929"/>
<path d="M29.1812 19.6992C29.1812 19.6992 28.6567 26.0859 31.689 28.9277C31.689 28.9277 29.9678 22.3359 31.4268 18.5391L29.1812 19.6992Z" fill="#2D1929"/>
<path d="M23.7202 20.8636L29.2353 19.1424C34.4563 17.3228 39.4743 14.9664 44.209 12.1112C43.5044 9.15806 41.4097 6.70445 39.1802 5.66588C36.0557 4.22154 32.7788 5.55162 28.6245 7.23912C26.25 8.20299 25.0898 8.75084 24.1318 9.89635C20.9106 13.7533 23.4038 20.0946 23.7202 20.8636Z" fill="#917EEC"/>
<path d="M30.9404 16.9775C35.9048 19.4385 38.4565 19.062 39.876 18.2241C40.7461 17.7114 41.1299 17.0522 42.5713 16.4282C45.1465 15.3003 47.0361 16.018 47.3628 15.3296C47.5972 14.8359 46.9966 13.6831 42.9214 10.6875C37.8018 9.84812 33.1187 12.5024 30.9404 16.9775Z" fill="#917EEC"/>
<path d="M26.8857 28.1875C26.8857 28.1875 23.8242 31.9609 26.0742 36.2441C28.4956 40.8613 22.4121 43.6064 23.3906 47.1323C23.5371 47.6479 24.0278 49.3442 25.5513 50.4883C28.522 52.7236 33.9448 51.7612 36.1816 48.5488C38.0464 45.8682 37.667 42.3452 36.3809 40.189C35.4639 38.6509 34.5469 38.5776 33.1113 37.0205C31.812 35.6099 30.3647 33.2866 29.855 29.3081L26.8857 28.1875Z" fill="#2D1929"/>
<path d="M24.8013 10.6378C24.3384 11.3205 24.1597 11.9064 23.9531 12.5846C23.2734 14.8185 22.8867 18.7853 24.5522 19.673C25.6245 20.2443 26.291 18.8688 29.6924 18.1745C30.0893 18.0939 31.0444 17.9167 31.2905 17.2765C31.3774 16.9971 31.3597 16.6957 31.2407 16.4284C30.3413 14.0055 28.897 10.1002 30.0923 8.44205C30.4321 7.9733 30.7822 7.86929 30.7251 7.74917C30.5464 7.36392 26.6601 7.9191 24.8013 10.6378Z" fill="#6D5FDE"/>
<path d="M37.4139 11.4465C39.1272 10.7967 40.2466 9.55922 39.9141 8.68251C39.5816 7.8058 37.9231 7.62186 36.2098 8.27167C34.4965 8.92147 33.3771 10.159 33.7096 11.0357C34.0421 11.9124 35.7006 12.0963 37.4139 11.4465Z" fill="#EFBD42"/>
<path d="M38.3789 28.4561C39.8741 28.9617 41.4993 28.9265 42.9712 28.3564C42.6079 29.6748 41.3687 30.457 40.2261 30.2534C39.3574 30.0996 38.6338 29.3892 38.3789 28.4561Z" fill="white"/>
<path d="M16.7121 27.3891L16.0843 27.3611C15.3036 27.3261 14.6424 27.9308 14.6075 28.7115L13.6196 50.8056C13.5847 51.5863 14.1893 52.2475 14.9701 52.2824L15.5979 52.3105C16.3786 52.3454 17.0398 51.7408 17.0747 50.9601L18.0625 28.866C18.0974 28.0852 17.4928 27.424 16.7121 27.3891Z" fill="#86EBF9"/>
<path d="M19.604 20.4239L19.188 20.4077L18.9771 25.8701L13.8398 25.6724L14.0493 20.21L13.4912 20.188C12.9354 20.167 12.3939 20.3675 11.9858 20.7454C11.5776 21.1234 11.3362 21.6478 11.3145 22.2036L11.1328 27.0962C11.0963 28.0269 11.4306 28.9339 12.0623 29.6183C12.694 30.3027 13.5714 30.7085 14.502 30.7466L18.0439 30.8828C18.9423 30.9165 19.8172 30.5921 20.4764 29.9809C21.1357 29.3698 21.5253 28.5219 21.5596 27.6236L21.7485 22.7427C21.77 22.1513 21.5564 21.5754 21.1546 21.1409C20.7528 20.7064 20.1953 20.4486 19.604 20.4239Z" fill="#86EBF9"/>
<path d="M16.3777 30.8269L16.1172 30.8152C15.794 30.8008 15.5202 31.0511 15.5057 31.3744L14.6864 49.7003C14.6719 50.0236 14.9223 50.2974 15.2455 50.3119L15.506 50.3235C15.8293 50.338 16.1031 50.0876 16.1176 49.7643L16.9369 31.4384C16.9514 31.1151 16.701 30.8413 16.3777 30.8269Z" fill="#40C2D6"/>
<path d="M13.9951 43.4485L14.0537 41.7918C14.0537 41.7918 15.0571 42.5242 15.5552 42.1448C16.0532 41.7654 14.5019 40.324 14.5019 40.324C14.5019 40.324 16.248 41.5604 16.5981 40.8016C16.9482 40.0428 14.9019 38.8357 14.9019 38.8357C14.9019 38.8357 16.623 39.9065 16.9731 39.2151C17.3232 38.5237 14.9883 37.0179 14.9883 37.0179C14.9883 37.0179 16.7695 37.9671 17.0083 37.1937C17.2471 36.4202 14.2925 35.0726 14.2925 35.0726C14.2925 35.0726 12.4614 34.8001 12.8276 36.5096C12.8276 36.5096 11.7612 36.7264 12.4717 38.1707C12.4717 38.1707 11.3862 38.6102 12.3413 39.5184C12.3413 39.5184 11.6294 39.8201 11.855 40.5115C12.0806 41.2029 13.9951 43.4485 13.9951 43.4485Z" fill="#F5B493"/>
<path d="M15.1099 37.1568C13.7476 36.5709 12.835 36.587 12.8247 36.5885C12.8057 36.5875 12.7877 36.5797 12.774 36.5665C12.7603 36.5533 12.7517 36.5356 12.75 36.5167C12.7498 36.5071 12.7515 36.4975 12.755 36.4886C12.7585 36.4796 12.7638 36.4714 12.7704 36.4645C12.7771 36.4575 12.785 36.452 12.7939 36.4481C12.8027 36.4443 12.8122 36.4422 12.8218 36.442C12.8584 36.442 13.7725 36.423 15.1655 37.0279C15.1776 37.0381 15.1862 37.0518 15.1898 37.0672C15.1934 37.0825 15.192 37.0987 15.1858 37.1131C15.1795 37.1276 15.1688 37.1397 15.1551 37.1476C15.1414 37.1555 15.1255 37.1587 15.1099 37.1568ZM14.8711 38.8985C13.2598 37.9977 12.4995 38.2438 12.4922 38.2467C12.4728 38.2533 12.4515 38.2519 12.4331 38.2428C12.4147 38.2338 12.4007 38.2178 12.394 38.1983C12.3874 38.1789 12.3888 38.1577 12.3979 38.1393C12.407 38.1209 12.423 38.1068 12.4424 38.1002C12.4746 38.0885 13.2554 37.8248 14.9429 38.7638C14.9517 38.7685 14.9596 38.7749 14.9659 38.7826C14.9723 38.7904 14.9771 38.7993 14.98 38.8089C14.9829 38.8185 14.9839 38.8285 14.983 38.8385C14.982 38.8485 14.9791 38.8582 14.9744 38.867C14.9697 38.8759 14.9632 38.8837 14.9555 38.8901C14.9478 38.8965 14.9388 38.9013 14.9293 38.9042C14.9099 38.9101 14.889 38.9081 14.8711 38.8985ZM14.4741 40.3883C13.7991 40.0223 13.0748 39.7554 12.3237 39.5958C12.3142 39.5942 12.3052 39.5907 12.297 39.5856C12.2889 39.5804 12.2819 39.5737 12.2764 39.5657C12.271 39.5578 12.2671 39.5489 12.2652 39.5394C12.2633 39.53 12.2632 39.5203 12.2651 39.5108C12.2665 39.5014 12.2699 39.4923 12.2749 39.4842C12.2799 39.4761 12.2865 39.4691 12.2943 39.4636C12.3021 39.4581 12.311 39.4543 12.3203 39.4523C12.3296 39.4504 12.3393 39.4504 12.3486 39.4522C13.1158 39.6143 13.8558 39.8856 14.5459 40.2579C14.5632 40.2674 14.576 40.2834 14.5815 40.3024C14.587 40.3213 14.5847 40.3417 14.5752 40.359C14.5657 40.3763 14.5497 40.3891 14.5307 40.3946C14.5118 40.4001 14.4914 40.3978 14.4741 40.3883ZM14.0537 41.8648C14.0317 41.8648 14.1108 41.8956 13.0488 41.44C13.0313 41.4323 13.0175 41.418 13.0103 41.4002C13.0032 41.3824 13.0034 41.3625 13.0107 41.3448C13.0185 41.3269 13.033 41.3127 13.051 41.3053C13.0691 41.298 13.0893 41.2979 13.1074 41.3053L14.083 41.7242C14.0986 41.7309 14.1114 41.7427 14.1192 41.7577C14.1271 41.7727 14.1295 41.79 14.126 41.8065C14.1226 41.8231 14.1135 41.838 14.1003 41.8486C14.0871 41.8593 14.0707 41.865 14.0537 41.8648ZM37.6992 22.964C37.6247 22.7589 37.4953 22.5783 37.325 22.4419C37.1547 22.3055 36.9503 22.2185 36.7339 22.1905C36.4708 22.1661 36.2069 22.2285 35.9826 22.3682C35.7583 22.5079 35.5859 22.7171 35.4917 22.964C35.4845 22.982 35.4704 22.9965 35.4526 23.0042C35.4347 23.0119 35.4146 23.0122 35.3965 23.005C35.3784 22.9978 35.364 22.9837 35.3563 22.9659C35.3486 22.948 35.3483 22.9278 35.3555 22.9098C35.4619 22.6329 35.6559 22.3985 35.9079 22.2422C36.16 22.0859 36.4562 22.0163 36.7515 22.044C36.9946 22.076 37.2244 22.174 37.4158 22.3274C37.6071 22.4809 37.7528 22.6838 37.8369 22.9142C37.8429 22.9323 37.8416 22.952 37.8332 22.9691C37.8249 22.9863 37.8102 22.9995 37.7923 23.006C37.7744 23.0125 37.7546 23.0117 37.7372 23.0039C37.7198 22.996 37.7062 22.9817 37.6992 22.964Z" fill="#2D1929"/>
</svg>
