<svg width="75" height="76" viewBox="0 0 75 76" fill="none" xmlns="http://www.w3.org/2000/svg">
<g clip-path="url(#clip0_11020_271)">
<path fill-rule="evenodd" clip-rule="evenodd" d="M32.8992 41.5973C36.5469 41.4234 40.4609 41.6046 43.9495 41.8492C50.977 42.3422 57.79 42.9726 63.7812 44.6223C66.7611 45.4431 69.4201 46.4759 71.5122 48.1941C72.6548 49.1323 73.4319 50.0222 74.1594 51.2188C74.9297 52.4865 75.2736 53.8705 74.7474 55.673C73.9262 58.4863 71.6335 60.1728 69.1593 61.3872C66.607 62.6399 63.7214 63.4908 60.462 63.9921C57.2026 64.4934 53.6146 64.6223 49.7897 64.6223C42.3338 64.6223 34.543 65.0726 27.605 64.5383C24.0117 64.2615 20.6875 63.9186 17.8571 62.9837C14.3647 61.83 11.5774 59.8861 9.36985 57.3114C8.57942 56.3896 7.82429 54.9017 7.77331 53.2779C7.74607 52.4091 7.91862 51.678 8.23532 50.925C9.31755 48.3528 11.7265 46.6703 14.0759 45.4627C16.4421 44.246 19.6425 43.4396 22.7733 42.8575C24.392 42.5565 26.017 42.2903 27.6471 42.0591C29.3059 41.8242 31.0044 41.688 32.8992 41.5973Z" fill="#DBA13A"/>
<path fill-rule="evenodd" clip-rule="evenodd" d="M42.4368 45.4625C45.5845 45.3125 48.8741 45.5186 51.8064 45.7987C57.5644 46.3491 63.5333 46.9652 67.8148 49.1178C68.752 49.5888 69.9586 50.358 70.6299 51.1348C71.3489 51.9667 71.9534 53.3744 71.5542 54.7905C71.1762 56.1307 70.079 57.1807 68.8652 57.8995C66.8707 59.081 64.455 59.8948 61.7224 60.3786C60.3445 60.6222 58.9219 60.7493 57.4367 60.8826C54.4912 61.1468 51.4651 61.387 48.319 61.387C45.1373 61.387 41.9278 61.4068 38.7814 61.3447C35.7382 61.2846 32.6975 61.0202 29.6638 60.8406C26.6918 60.6651 23.7048 60.487 20.7564 60.1685C18.0228 59.8725 15.3532 59.1887 13.3616 57.9414C12.4556 57.3739 11.4778 56.6514 10.9245 55.5889C10.349 54.4829 10.0755 53.0318 10.7565 51.8071C11.1116 51.1685 11.8572 50.4648 12.4791 49.9581C12.6954 49.7824 12.8978 49.5685 13.1093 49.4122C13.5265 49.1041 14.1012 48.8062 14.6221 48.5301C15.1573 48.2459 15.7413 48.0281 16.2606 47.8157C17.4557 47.3271 18.5688 46.8922 19.8322 46.6388C21.0861 46.3882 22.4196 46.1711 23.9918 46.0508C27.062 45.8166 30.197 45.8408 33.2774 45.8408C36.3779 45.8408 39.2562 45.4625 42.353 45.4625C42.3807 45.4625 42.4091 45.4634 42.4368 45.4625ZM36.3863 47.1849C31.5809 47.4121 25.7913 46.9722 21.3866 47.5634C20.5207 47.6794 19.3482 47.7896 18.6133 48.0254C18.0785 48.1975 17.3048 48.6569 16.6387 48.9915C15.2972 49.6659 14.0314 50.5066 13.1092 51.4287C12.5748 51.9629 12.0467 52.5377 11.9748 53.2776C11.9213 53.8269 12.1153 54.5387 12.3529 54.9581C12.7819 55.7151 13.7889 56.3274 14.748 56.8067C15.7356 57.3007 16.8133 57.6976 17.857 57.9833C20.1807 58.6195 22.8183 58.7832 25.378 58.9917C28.0406 59.2082 30.6811 59.4172 33.2771 59.6221C35.9328 59.8319 38.6194 59.8655 41.4703 59.9999C44.3464 60.1362 47.1372 59.9227 49.9157 59.9999C51.2703 60.0379 52.669 59.916 54.0334 59.8322C55.3789 59.7497 56.7154 59.6594 58.0251 59.5379C61.8819 59.1802 65.476 58.498 68.1089 56.8067C69.0287 56.2161 69.919 55.588 70.2519 54.6642C70.7013 53.4156 70.0405 52.3428 69.3694 51.6811C68.0916 50.4203 65.9716 49.6288 64.0333 49.0762C59.9099 47.9 54.8676 47.4464 50.1258 47.0591C47.6644 46.8581 44.8781 46.7689 42.3108 46.8909C40.2874 46.9876 38.3695 47.0913 36.3863 47.1849Z" fill="#F4BE53"/>
<path fill-rule="evenodd" clip-rule="evenodd" d="M35.3359 48.8653C38.2388 48.727 41.5626 48.8126 44.4534 48.9492C47.4259 49.0899 50.5362 49.2432 53.1509 49.4536C54.537 49.5653 55.8744 49.7851 57.2264 49.9995C59.7747 50.4043 62.395 50.9407 64.5375 51.8903C65.5876 52.3562 66.9273 52.9518 66.8903 54.2855C66.8641 55.2334 65.9642 55.8549 65.0837 56.2184C63.2523 56.9741 61.1992 57.3251 58.9073 57.4787C55.4276 57.7119 51.6495 57.708 48.0252 57.563C46.7915 57.5136 45.5625 57.5596 44.3276 57.5206C38.3701 57.3337 31.9571 57.5042 26.2604 57.0167C24.1393 56.8351 21.7366 56.6631 19.5378 56.3023C18.5359 56.1375 17.6033 55.8913 16.6804 55.4621C15.8565 55.0786 14.8854 54.4414 14.8738 53.5713C14.8605 52.5602 16 51.674 16.7226 51.218C19.9419 49.1884 25.4282 49.2399 30.5459 49.0335C32.1357 48.9693 33.7318 48.9415 35.3359 48.8653ZM36.9747 49.916C33.4716 50.0791 30.2982 50.1448 26.7644 50.2938C25.878 50.3315 25.0296 50.3216 24.2018 50.378C23.3935 50.4327 22.6196 50.5626 21.8487 50.672C20.2516 50.8992 18.1671 51.2988 17.0588 52.0585C16.7014 52.3034 15.7968 52.9071 15.8403 53.4454C15.8623 53.7179 16.3126 54.0595 16.7228 54.2857C17.8813 54.9239 19.4613 55.1233 20.8825 55.2941C23.0255 55.5514 25.1301 55.7991 27.1009 55.9661C29.2996 56.1528 31.5039 56.1343 33.8233 56.1343C38.3726 56.1343 42.839 56.3386 47.3947 56.3862C53.0311 56.4453 58.9946 56.7544 63.571 55.5041C64.3812 55.2831 65.7565 54.886 65.798 54.2438C65.8227 53.8609 65.1969 53.4109 64.7896 53.1932C64.269 52.9153 63.7589 52.765 63.319 52.6049C60.2891 51.5033 56.4931 50.9824 52.941 50.5882C50.6981 50.3392 47.9107 50.1432 45.21 50.042C42.6515 49.9464 39.6678 49.792 37.0586 49.9162C37.0309 49.9173 37.0026 49.9143 36.9747 49.916Z" fill="#F4BE53"/>
<path fill-rule="evenodd" clip-rule="evenodd" d="M37.5627 51.3449C40.5798 51.2013 44.0934 51.4 47.1004 51.5968C49.2413 51.7375 51.5524 51.9311 53.655 52.3531C54.3215 52.487 55.1865 52.7286 55.2097 53.2357C55.2479 54.0686 53.3344 54.3913 52.3947 54.58C51.11 54.8377 49.8827 54.8977 48.6132 54.9582C42.1523 55.266 34.748 55.3364 28.5293 54.6642C27.5506 54.5582 25.5703 54.3887 25.5041 53.5297C25.4404 52.7043 26.9557 52.3676 27.7311 52.1851C30.5987 51.5103 34.0028 51.3449 37.4789 51.3449C37.5067 51.3449 37.535 51.3459 37.5627 51.3449ZM46.5965 52.1853C43.9031 51.9863 40.589 51.806 37.8571 51.9333C35.7971 52.0293 33.647 52.0654 31.6386 52.2276C30.139 52.348 28.5381 52.4582 27.3949 52.8575C27.0168 52.9898 26.5844 53.1297 26.3446 53.4461C28.3257 54.0638 30.6775 54.131 33.1091 54.2444C37.8896 54.4666 43.0797 54.5631 47.8991 54.3286C49.9602 54.2276 52.1695 54.051 53.7392 53.53C53.976 53.4512 54.2537 53.4424 54.4116 53.236C52.185 52.6452 49.4446 52.3959 46.5965 52.1853Z" fill="#F4BE53"/>
<path fill-rule="evenodd" clip-rule="evenodd" d="M30.1092 37.4361C29.8347 37.2861 29.3853 37.4743 28.8644 37.6251C28.4661 37.7421 27.9578 37.8624 27.8834 38.0036C27.7834 38.1928 28.0012 38.6881 28.1102 39.0216C29.4943 43.2605 30.8937 47.2633 32.2636 51.5819C32.309 51.7252 32.4262 52.1414 32.5656 52.5631C32.6087 52.6926 32.7662 53.3685 33.094 53.317C33.4393 53.263 33.2775 52.5707 33.2441 52.4121C32.2804 47.7495 31.311 43.1024 30.3735 38.3793C30.2978 37.9979 30.2793 37.5924 30.1092 37.4361ZM7.08555 38.3156C7.35948 38.1646 7.80918 38.3515 8.33037 38.5038C8.7291 38.619 9.23682 38.7394 9.31138 38.8807C9.41158 39.0703 9.19375 39.5657 9.08535 39.8991C7.70371 44.1379 6.30713 48.1425 4.93911 52.4625C4.894 52.6044 4.7774 53.0214 4.6375 53.4433C4.59532 53.5725 4.4377 54.249 4.10987 54.198C3.7646 54.1434 3.92632 53.4511 3.95869 53.2923C4.92051 48.629 5.88643 43.9819 6.82173 39.2582C6.89732 38.8763 6.91548 38.4706 7.08555 38.3156ZM14.8806 33.5628C15.077 33.3191 15.5641 33.3218 16.1034 33.2635C16.5161 33.2188 17.0317 33.1377 17.1546 33.2396C17.3189 33.3758 17.3065 33.9174 17.3324 34.2668C17.6667 38.7133 17.8976 42.9477 18.2752 47.4629C18.2878 47.6122 18.3382 48.0419 18.3694 48.4857C18.3795 48.6206 18.4907 49.3065 18.168 49.3837C17.8281 49.465 17.7142 48.7628 17.6838 48.6042C16.8 43.9248 15.9269 39.2606 14.9957 34.5358C14.9203 34.1532 14.7833 33.7715 14.8806 33.5628Z" fill="#754E27"/>
<path d="M4.38484 35.4822C4.83835 36.4131 6.01917 37.0228 7.17727 37.4429C10.6554 38.7069 15.3534 38.9174 19.8898 38.5714C24.1511 38.2462 28.2042 37.55 31.3198 35.8518C31.7909 35.5944 32.2744 35.2981 32.7151 34.8702C33.4743 34.134 33.4944 33.8357 33.5821 33.3418C33.6583 33.5146 33.5846 34.2639 33.583 34.4467C33.5774 35.0168 33.1258 35.529 32.7151 35.9182C32.2699 36.3417 31.7919 36.6419 31.3199 36.8993C28.2048 38.5972 24.1511 39.2949 19.8906 39.6194C15.3537 39.9647 10.6555 39.7549 7.17727 38.4916C6.0199 38.0705 4.83879 37.4611 4.38557 36.5303C4.10857 35.9636 4.06287 35.3407 4.1471 34.718C4.18795 34.9831 4.26808 35.2407 4.38484 35.4822Z" fill="#C19263"/>
<path d="M32.7152 34.8702C32.2694 35.294 31.791 35.5943 31.3195 35.8518C28.2042 37.5502 24.1505 38.2464 19.8902 38.5715C15.3537 38.9175 10.6552 38.707 7.17696 37.4429C6.01929 37.0228 4.83834 36.4132 4.38482 35.4822C4.26819 35.2406 4.18802 34.983 4.14693 34.7179C3.92047 33.285 6.32721 30.5781 7.01158 29.7023C7.77345 28.7279 8.47554 27.9799 9.38726 27.212C10.2016 26.5268 11.3286 25.7144 12.5551 25.4759C12.9317 25.4028 13.5646 25.4595 13.7623 25.4759C14.8728 25.5669 15.88 25.8367 16.8562 26.1162C19.6929 26.9296 30.0465 29.6888 31.9976 31.2871C32.5876 31.7709 33.5899 32.5367 33.5819 33.3988C33.5806 33.5769 33.5357 33.7485 33.462 33.9119C33.2998 34.2757 32.9969 34.6022 32.7152 34.8702Z" fill="#754E27"/>
<path fill-rule="evenodd" clip-rule="evenodd" d="M29.2573 19.2686C28.7721 19.4692 28.6753 20.0732 28.2685 20.3558C27.9814 20.5547 27.607 20.6235 27.3457 20.8383C27.1572 20.9927 27.0224 21.2292 26.8264 21.3809C26.2837 21.7997 25.5351 22.101 24.5319 22.1314C24.802 21.7758 25.0971 21.4285 25.5159 21.1956C25.9053 20.9798 26.5939 21.0023 26.6484 20.4157C26.1621 20.353 25.9409 20.5701 25.6302 20.6938C26.0781 20.0569 26.8538 19.3167 27.3529 18.5631C27.7024 18.491 27.8521 18.202 28.223 18.1802C28.6648 18.154 29.1624 18.6694 29.5361 18.2644C29.4841 17.9514 29.1574 17.9014 28.7868 17.8909C28.7783 17.6254 29.1734 17.4949 29.359 17.2482C29.5618 16.9805 29.7382 16.6381 29.6376 16.2439C29.0805 16.3513 29.0379 17.0083 28.7494 17.3842C28.4632 17.7573 28.1308 17.915 27.6684 18.1153C27.7916 17.4801 28.2789 16.9553 28.6245 16.3187C28.9456 15.7277 29.4107 15.0442 29.2337 14.2617C28.7209 14.2973 28.7152 14.9251 28.5983 15.3573C28.4761 15.813 28.3396 16.2773 28.162 16.6103C28.0637 16.3513 28.2987 15.7173 27.8311 15.6923C27.5191 15.8342 27.7175 16.1764 27.712 16.3969C27.688 17.4552 27.2213 18.3284 26.7379 18.9009C26.8185 18.6781 26.8611 18.1932 26.6575 18.0898C26.1858 18.0938 26.3344 18.6968 26.2806 18.9901C26.1663 19.6135 25.8419 20.0924 25.4858 20.3861C25.4042 19.5016 25.6085 18.4755 26.0535 17.9728C26.0893 17.5027 26.1994 17.1853 26.3839 16.9201C26.6402 16.551 27.1807 16.5135 27.3171 16.0332C27.0076 15.7727 26.6552 16.0983 26.4512 16.2637C26.5657 16.0896 26.5094 15.8717 26.5674 15.6604C26.6966 15.1942 27.0858 14.7668 27.0072 14.3054C26.1303 14.4088 26.4649 15.703 26.2412 16.5617C26.126 17.0033 25.8054 17.3036 25.8578 17.7154C25.5972 17.1078 25.6497 16.2037 25.3028 15.6779C24.8446 15.7638 24.9655 16.3219 24.9782 16.5299C24.9949 16.8013 25.0998 17.0922 25.2099 17.3449C25.3185 17.5937 25.5299 17.8375 25.5467 18.0107C25.5898 18.4415 25.2766 18.6174 25.2672 19.0657C24.9634 18.6242 24.6608 17.9418 23.9789 18.0217C24.0108 18.8063 25.0166 18.8065 25.1546 19.5176C25.1931 19.7183 25.162 20.499 25.0703 20.8307C24.9861 21.1387 24.611 21.4156 24.3904 21.7229C24.1563 22.0497 24.0151 22.3642 23.7609 22.6175C23.8213 22.1467 23.887 21.4663 23.8554 20.9004C23.8296 20.445 23.7618 19.8652 23.3269 19.8246C23.1619 21.0025 23.7178 22.1246 23.5405 23.3202C23.7923 23.308 23.8213 23.0618 23.9058 22.8738C24.238 22.3276 25.0331 22.4212 25.8445 22.2155C26.3179 22.0957 26.6034 21.8713 27.2169 21.9478C27.6017 21.994 28.0378 22.3648 28.2778 21.9743C28.1415 21.5615 27.6035 21.5313 27.0766 21.4881C27.2997 21.1975 28.0589 20.4294 28.6084 20.9213C28.889 21.172 28.7286 21.7639 29.137 21.9965C29.3031 21.6302 29.0997 21.2184 28.9607 20.9811C29.4514 21.0609 29.5659 21.7478 30.1591 21.5676C29.9927 20.8542 29.1657 20.769 28.4656 20.5633C28.7871 20.3606 29.2142 20.256 29.5907 20.0868C29.9245 19.9355 30.3882 19.7536 30.4192 19.2983C29.8945 19.1665 29.6358 19.7493 29.1912 19.8738C29.2916 19.7269 29.4536 19.4276 29.2573 19.2686Z" fill="#687C15"/>
<path d="M18.4084 25.7672C18.7292 25.0166 19.5309 24.4437 20.3219 24.0979C20.5409 24.0012 20.9301 23.9458 21.1399 23.7646C21.3316 23.5975 21.2634 22.9348 21.5657 22.9147C22.2328 22.8718 22.9008 22.8983 23.569 22.9345C24.2387 22.9329 24.9072 22.9392 25.5706 23.017C25.872 23.0526 25.7701 23.7109 25.9529 23.8874C26.1533 24.08 26.5387 24.1538 26.7526 24.2619C27.525 24.6475 28.2964 25.261 28.5791 26.028C28.9419 27.0145 28.4651 28.0682 27.9064 28.5892C26.9414 29.4906 25.1784 29.9211 23.419 29.8852V29.8868C23.4096 29.8868 23.4012 29.8852 23.3916 29.8852C23.3823 29.8852 23.3735 29.8855 23.3641 29.8852V29.8834C21.6051 29.8291 19.8671 29.3099 18.9486 28.3603C18.4175 27.8116 17.995 26.7343 18.4084 25.7672Z" fill="#B8B7E5"/>
<path d="M26.0987 29.229C23.0574 29.2625 20.3562 27.484 19.0352 24.916C18.7654 25.1653 18.5437 25.4502 18.4084 25.7669C17.995 26.734 18.4175 27.8111 18.9486 28.3602C19.8671 29.3098 21.6051 29.829 23.3641 29.8833V29.8851C23.3735 29.8854 23.3823 29.8851 23.3916 29.8851C23.4012 29.8851 23.4095 29.8867 23.419 29.8867V29.8851C24.7605 29.9129 26.1035 29.668 27.0937 29.1509C26.7641 29.1984 26.4317 29.2245 26.0987 29.229Z" fill="#A2A2DB"/>
<path d="M17.4389 30.4567L14.4883 21.9309C14.3535 21.5285 13.9536 21.2726 13.5334 21.3265L0.788798 23.0862C0.660409 23.1013 0.536833 23.1441 0.426612 23.2117C0.316392 23.2792 0.222156 23.3699 0.150419 23.4775C0.0787245 23.5851 0.0311585 23.707 0.0109818 23.8348C-0.00919489 23.9625 -0.00150503 24.0931 0.0335242 24.2176L3.49143 33.8324C3.54718 34.0299 3.66905 34.2023 3.83667 34.3207C4.00428 34.4391 4.20747 34.4963 4.41224 34.4828C4.45984 34.4798 4.50745 34.4721 4.55564 34.461L16.7935 31.6135C16.915 31.5853 17.0291 31.5321 17.1287 31.4571C17.2283 31.3822 17.3111 31.2872 17.3717 31.1783C17.4325 31.0693 17.4698 30.9488 17.4814 30.8246C17.493 30.7003 17.4785 30.575 17.4389 30.4567Z" fill="#8580BC"/>
<path d="M16.3957 29.8325L4.25814 32.7639L1.10345 24.1698L13.7171 22.2793L16.3957 29.8325Z" fill="#5C548E"/>
<path d="M26.3926 32.1475C26.3732 32.1532 26.3537 32.1568 26.3346 32.1612L15.3288 36.9349L3.62004 34.043C3.60129 34.043 3.58298 34.0403 3.56438 34.0396C3.52516 34.145 3.50661 34.257 3.50974 34.3695C3.51562 34.5644 3.58498 34.752 3.70727 34.9038C3.82956 35.0557 3.99808 35.1634 4.18723 35.2107L15.1255 37.9324C15.2161 37.9545 15.3096 37.9625 15.4027 37.9559C15.5109 37.9488 15.6169 37.9218 15.7154 37.8763L25.9049 33.1919C26.0793 33.1117 26.2233 32.9774 26.3156 32.809C26.4079 32.6406 26.4434 32.447 26.4171 32.2567C26.411 32.2199 26.4028 32.1834 26.3926 32.1475Z" fill="#8580BC"/>
<path d="M3.57129 34.0308L15.3286 36.9347L26.3905 32.1366L26.3965 32.134L26.3893 32.1327L17.4192 30.3662L3.57129 34.0308Z" fill="#B8B7E5"/>
<path d="M14.1154 34.6003L13.8698 34.6869C13.6998 34.7459 13.6112 34.9299 13.6711 35.096C13.7206 35.233 13.8559 35.3151 13.9979 35.3074C14.0278 35.3053 14.0575 35.2996 14.0871 35.2889L14.3336 35.2034C14.5034 35.1436 14.592 34.9608 14.532 34.7947C14.472 34.6281 14.2857 34.5421 14.1154 34.6003ZM15.4686 34.1285L15.2229 34.2143C15.0526 34.2733 14.9641 34.4573 15.0241 34.6224C15.0741 34.7597 15.2096 34.8426 15.3515 34.8338C15.3808 34.8325 15.4112 34.8271 15.4407 34.8164L15.6867 34.7308C15.8565 34.6708 15.9451 34.4875 15.885 34.3214C15.8245 34.1553 15.6386 34.0687 15.4686 34.1285ZM12.7624 35.0727L12.5163 35.1596C12.3469 35.2186 12.2575 35.4026 12.318 35.5677C12.3675 35.7052 12.5033 35.7884 12.6448 35.7798C12.6742 35.7777 12.7046 35.7717 12.7343 35.7616L12.9801 35.6761C13.1502 35.6163 13.2389 35.4335 13.179 35.2674C13.1185 35.1013 12.9321 35.015 12.7624 35.0727ZM20.8812 32.2369L20.6349 32.3235C20.4655 32.3822 20.377 32.5658 20.437 32.7316C20.4865 32.8689 20.622 32.9521 20.7638 32.944C20.7943 32.942 20.8242 32.9356 20.8528 32.9248L21.0996 32.8398C21.2694 32.7801 21.3577 32.597 21.2981 32.4309C21.2374 32.2647 21.051 32.1785 20.8812 32.2369ZM22.6509 31.958C22.5908 31.7916 22.404 31.7058 22.2343 31.7648L21.9882 31.8506C21.8187 31.9104 21.7299 32.0926 21.79 32.2593C21.8393 32.3956 21.9754 32.4795 22.1166 32.4707C22.1465 32.4687 22.177 32.4624 22.2058 32.4525L22.4519 32.3663C22.6221 32.3071 22.7112 32.1246 22.6509 31.958ZM19.5315 32.7083L19.327 32.7798L19.2823 32.7959H19.2817L18.0432 33.2285L17.9288 33.2685L16.2643 33.85C16.0947 33.9101 16.0059 34.0926 16.0658 34.259C16.1155 34.3955 16.2514 34.4792 16.3936 34.4701C16.4229 34.468 16.4528 34.4623 16.4824 34.4529L16.7932 34.3435H16.7935L16.8154 34.3362L18.2606 33.8305L18.3923 33.7842H18.3926L19.5445 33.3826L19.7452 33.3124H19.7456L19.7497 33.3111C19.9192 33.2513 20.008 33.0688 19.9479 32.9024C19.8877 32.7363 19.7015 32.6497 19.5315 32.7083ZM11.5202 33.9915L11.2724 34.0734C11.1009 34.1285 11.0083 34.3092 11.065 34.4764C11.1126 34.6177 11.2495 34.7036 11.3941 34.6952C11.4214 34.6936 11.4496 34.6885 11.4772 34.6788L11.725 34.5982C11.896 34.5429 11.9887 34.3614 11.9322 34.1939C11.8755 34.0271 11.6907 33.9356 11.5202 33.9915ZM15.3394 33.0808C15.3626 33.1483 15.4075 33.2062 15.4671 33.2455C15.5266 33.2848 15.5975 33.3033 15.6687 33.2982C15.6962 33.2972 15.7245 33.2925 15.7514 33.2831L15.9994 33.202C16.1705 33.1459 16.2628 32.966 16.2066 32.7985C16.1497 32.6304 15.9663 32.5401 15.7947 32.5962L15.5464 32.6768C15.3754 32.7329 15.282 32.9137 15.3394 33.0808ZM16.7641 32.6162C16.8117 32.7565 16.9495 32.8426 17.0934 32.834C17.1203 32.8322 17.1488 32.8272 17.1761 32.8179L17.4244 32.7363C17.5955 32.6806 17.6878 32.5004 17.631 32.333C17.5746 32.1656 17.3894 32.0746 17.2188 32.1316L16.9708 32.2122C16.8 32.2678 16.7077 32.4486 16.7641 32.6162ZM10.0952 34.457L9.8471 34.5382C9.67644 34.5936 9.58357 34.7745 9.64026 34.9425C9.68743 35.0834 9.82527 35.1687 9.96926 35.1603C9.99757 35.1588 10.0255 35.1534 10.0523 35.1442L10.3 35.0633C10.4716 35.008 10.564 34.8265 10.5074 34.6593C10.4509 34.4922 10.2663 34.4009 10.0952 34.457ZM12.9449 33.5269L12.6969 33.6077C12.6566 33.6204 12.6192 33.6409 12.5869 33.6681C12.5546 33.6953 12.528 33.7287 12.5087 33.7663C12.4894 33.8039 12.4777 33.845 12.4745 33.8871C12.4712 33.9292 12.4763 33.9716 12.4895 34.0117C12.537 34.1529 12.6744 34.2386 12.8188 34.2298C12.8461 34.2282 12.8745 34.2231 12.9017 34.2134L13.1497 34.1323C13.3205 34.0776 13.4136 33.896 13.357 33.7296C13.3006 33.561 13.1156 33.4705 12.9449 33.5269ZM20.4808 31.4021C20.4244 31.2347 20.2399 31.1444 20.0686 31.2001L19.8208 31.2813C19.65 31.3374 19.5573 31.5178 19.6139 31.6855C19.6611 31.8259 19.799 31.9127 19.9427 31.9034C19.9708 31.9023 19.998 31.896 20.0259 31.8873L20.2736 31.807C20.4448 31.7503 20.5378 31.5701 20.4808 31.4021ZM14.3695 33.0613L14.1217 33.1422C13.9507 33.1979 13.8578 33.3788 13.9148 33.5459C13.9618 33.6876 14.0997 33.7731 14.244 33.765C14.2714 33.763 14.2986 33.758 14.3264 33.7486L14.5743 33.6675C14.7451 33.6121 14.8381 33.4309 14.7816 33.2627C14.7256 33.0963 14.5403 33.0057 14.3695 33.0613ZM18.1889 32.1511C18.2364 32.291 18.3741 32.3778 18.5178 32.3692C18.5455 32.3668 18.5736 32.3625 18.601 32.3534L18.849 32.2715C19.0205 32.2158 19.1124 32.0352 19.0561 31.8675C18.9994 31.6998 18.8144 31.6091 18.6439 31.6661L18.3961 31.7463C18.2248 31.8023 18.1318 31.9832 18.1889 32.1511ZM16.3739 31.8446C16.3974 31.843 16.4215 31.8392 16.4456 31.8319L16.6963 31.7601C16.8688 31.7107 16.968 31.5332 16.9177 31.3634C16.8678 31.1947 16.6866 31.0973 16.5132 31.1474L16.2625 31.2191C16.0903 31.2691 15.9908 31.4466 16.041 31.6164C16.0845 31.7622 16.225 31.8544 16.3739 31.8446ZM14.8702 32.2775C14.8941 32.2769 14.9179 32.2721 14.9421 32.2655L15.1927 32.1933C15.3655 32.1433 15.4651 31.9658 15.4142 31.7963C15.3641 31.6275 15.1835 31.5301 15.0096 31.5802L14.759 31.6527C14.5867 31.7021 14.4874 31.8802 14.5381 32.0497C14.5813 32.195 14.7212 32.2869 14.8702 32.2775ZM17.8772 31.4118C17.9008 31.4107 17.9247 31.4064 17.9491 31.3996L18.0019 31.3838C18.1752 31.3341 18.2745 31.156 18.2241 30.9868C18.1733 30.8181 17.9918 30.7204 17.8191 30.7713L17.7663 30.7864C17.5938 30.8364 17.494 31.0139 17.5447 31.1827C17.5879 31.3296 17.7282 31.4206 17.8772 31.4118ZM7.49309 33.7445L7.24246 33.8173C7.06975 33.8664 6.97014 34.0448 7.02053 34.2136C7.04189 34.2837 7.08639 34.3445 7.14676 34.386C7.20712 34.4276 7.27979 34.4475 7.35291 34.4424C7.37725 34.441 7.40137 34.437 7.42483 34.4304L7.67546 34.3579C7.84861 34.3082 7.94778 34.1311 7.89695 33.9612C7.847 33.7926 7.66565 33.6953 7.49309 33.7445ZM13.9115 32.2299C13.8614 32.0604 13.6796 31.9634 13.5067 32.0131L13.2559 32.0853C13.0834 32.1347 12.9836 32.3125 13.0343 32.482C13.0777 32.6276 13.2184 32.7209 13.3665 32.7118C13.3906 32.7098 13.4146 32.7051 13.4385 32.6983L13.6892 32.6266C13.8618 32.5768 13.9615 32.3994 13.9115 32.2299ZM12.4081 32.6625C12.3577 32.4934 12.1761 32.3967 12.0033 32.4467L11.7526 32.5185C11.5794 32.5681 11.4801 32.7457 11.5306 32.9144C11.5522 32.9847 11.5968 33.0456 11.6572 33.0874C11.7176 33.1292 11.7904 33.1494 11.8637 33.1447C11.8872 33.1423 11.9111 33.1379 11.9354 33.1316L12.186 33.0594C12.3586 33.0098 12.4582 32.8322 12.4081 32.6625ZM8.99646 33.3117L8.74568 33.3842C8.57312 33.4338 8.47322 33.6117 8.52405 33.7812C8.54556 33.8513 8.59011 33.9121 8.65048 33.9538C8.71086 33.9954 8.78352 34.0155 8.85671 34.0107C8.88045 34.0081 8.90461 34.0043 8.92864 33.9969L9.17927 33.9251C9.35183 33.8751 9.45129 33.6977 9.4009 33.5282C9.35066 33.3597 9.16946 33.2623 8.99646 33.3117ZM10.4998 32.8791L10.249 32.9506C10.0759 33.0013 9.97659 33.1788 10.0274 33.3486C10.0711 33.4932 10.2113 33.5862 10.3604 33.5768C10.3845 33.5751 10.4084 33.5709 10.4316 33.5641L10.6823 33.4923C10.8556 33.4419 10.955 33.2648 10.9047 33.0956C10.8543 32.9258 10.6727 32.8292 10.4998 32.8791Z" fill="#8580BC"/>
<path fill-rule="evenodd" clip-rule="evenodd" d="M10.0201 23.9272C10.0611 23.7816 10.234 23.7481 10.375 23.7259C10.5867 23.6931 10.8628 23.7081 11.1026 23.7418C11.2397 23.7618 11.3736 23.7545 11.48 23.7911C11.6664 23.8543 11.7668 23.9887 11.7006 24.1257C11.6489 24.2328 11.4933 24.2656 11.3452 24.2697C11.1086 24.276 10.7751 24.2499 10.525 24.2281C10.3248 24.2104 9.95024 24.1792 10.0201 23.9272ZM11.3241 23.1617C11.3867 22.968 11.6534 23.0309 11.8547 23.0918C11.9143 23.11 11.9685 23.1378 12.0325 23.1586C12.1942 23.2113 12.444 23.1976 12.4815 23.375C12.4932 23.4256 12.4712 23.4844 12.4535 23.5132C12.3644 23.6569 12.1236 23.58 11.9184 23.533C11.8186 23.5111 11.7195 23.4857 11.6215 23.4568C11.4475 23.4044 11.2714 23.3272 11.3241 23.1617ZM12.6643 24.2457C12.7323 23.9725 13.1815 24.1916 13.438 24.2647C13.6286 24.319 13.9077 24.4368 13.8245 24.612C13.7487 24.7707 13.4836 24.6801 13.2932 24.6245C13.1975 24.5966 13.0904 24.5711 13 24.5405C12.8434 24.4875 12.6261 24.4002 12.6643 24.2457ZM5.69897 31.9815C5.56552 32.0087 5.49272 31.8929 5.42006 31.7878C5.36484 31.7063 5.30185 31.5957 5.33158 31.4972C5.3745 31.36 5.56449 31.4237 5.65063 31.5113C5.67861 31.5398 5.73222 31.6267 5.75815 31.6746C5.81176 31.7769 5.8453 31.9521 5.69897 31.9815ZM4.75004 31.4457C4.57455 31.4729 4.4893 31.3255 4.42997 31.1933C4.35263 31.0225 4.28217 30.7745 4.22885 30.5665C4.16396 30.3098 4.17538 29.8755 4.4707 29.889C4.7808 29.9023 4.86972 30.503 4.92509 30.809C4.96508 31.033 5.00185 31.4067 4.75004 31.4457Z" fill="#8580BC"/>
<path fill-rule="evenodd" clip-rule="evenodd" d="M20.1331 31.4774C20.6798 31.7553 21.4221 31.8798 21.8029 31.7525L42.6269 26.6943C43.2675 26.5728 43.5961 26.2516 43.3494 25.9786L43.0251 25.6292C42.7642 25.3554 41.9972 25.2316 41.3237 25.3537L19.1516 30.3901C18.7378 30.5159 18.8661 30.8437 19.4272 31.1222L20.1331 31.4774Z" fill="#4F2F12"/>
<path fill-rule="evenodd" clip-rule="evenodd" d="M41.5378 33.5033C40.2096 34.2966 38.7568 34.8573 37.3366 35.5147C33.1655 37.4466 28.7266 39.309 24.1428 40.925C24.0498 38.1898 24.2203 35.289 24.0062 32.1595C23.9399 31.1921 23.8946 29.8489 23.253 29.7649C22.2558 29.6365 22.3321 31.1249 22.3063 31.9313C22.2068 34.9147 22.1554 47.7552 22.1581 51.3226C22.1589 52.1846 22.1819 53.7517 22.8273 53.7226C23.4405 53.6937 23.5413 51.9911 23.598 51.4357C23.8848 48.6566 23.8388 46.2607 24.0049 43.448C30.0588 41.2367 35.9913 38.4238 41.432 35.6499C41.3528 38.2408 41.3434 41.0105 41.4123 43.9828C41.4285 44.6691 41.3326 46.3647 41.9566 46.3922C42.6013 46.4208 42.5819 45.005 42.6281 44.5144C42.8472 42.1916 42.9166 39.9038 43.0352 37.5339C43.4217 29.8059 43.0596 16.0469 43.0538 15.1352C43.0489 14.3568 43.1405 12.8118 42.3905 12.8243C41.4566 12.8398 41.5882 14.6719 41.5513 15.338C41.3649 18.7198 41.5435 29.193 41.5378 33.5033Z" fill="#4F2F12"/>
<path fill-rule="evenodd" clip-rule="evenodd" d="M23.3635 35.9717C23.1875 36.4505 23.2658 37.1273 23.2782 37.8045C23.2992 39.0105 23.2413 40.2272 23.7509 41.0211C24.5701 42.2963 26.7474 42.5728 28.3542 43.0338C33.1034 44.3982 37.3359 45.8992 42.2384 47.1052C42.7196 47.2233 43.2726 47.3875 43.5944 47.225C44.4089 46.8146 44.0865 42.9792 43.722 42.3773C43.3854 41.8206 42.4425 41.2968 41.7303 40.9685C39.4141 39.9008 36.6773 39.6172 34.2922 38.7075C30.8279 37.3892 27.7141 36.4452 24.031 35.8767C23.8753 35.8531 23.5489 35.7985 23.3635 35.9717Z" fill="#DBA13A"/>
<path fill-rule="evenodd" clip-rule="evenodd" d="M40.7893 29.6169C39.1748 29.6585 37.172 30.1059 35.6678 30.4957C31.8171 31.4919 28.3475 32.9636 25.0865 34.6821C24.535 34.973 23.3646 35.4783 23.3991 35.8793C23.4318 36.2565 24.3318 36.3621 24.5732 36.4145C25.1905 36.5487 25.7555 36.6696 25.9417 36.7119C27.0034 36.9536 27.6996 37.1237 28.5973 37.3574C30.4786 37.8477 31.7442 38.0984 33.3511 38.703C34.9396 39.3 37.1562 39.5877 38.727 40.2657C39.7702 40.7171 41.1475 41.0131 42.3312 41.5331C42.772 41.7278 43.2431 41.9499 43.5407 41.9764C44.3293 42.0469 44.8532 42.6006 45.5748 42.3083C47.087 41.6973 48.3056 41.1769 50.019 40.7688C53.1773 40.0164 56.6354 39.4624 59.7193 38.4748C60.5852 38.1974 61.3396 37.9172 61.3074 37.0627C61.2738 36.1718 60.3123 35.5024 59.6117 35.0518C58.8069 34.5357 58.0204 34.1333 57.335 33.7992C55.5007 32.9062 53.9852 32.3415 52.3521 31.7711C50.7233 31.2017 48.8688 30.6517 46.98 30.2172C45.0825 29.7817 43.1517 29.4386 40.8728 29.6108C40.8454 29.6128 40.8171 29.6169 40.7893 29.6169Z" fill="#F4BE53"/>
<path fill-rule="evenodd" clip-rule="evenodd" d="M61.415 36.7857C61.3238 36.8538 61.2501 36.6838 61.2474 36.7992C61.0088 36.9096 60.803 37.1576 60.5241 37.2994C59.2579 37.9421 57.5989 38.2692 56.0256 38.6645C52.1982 39.6266 48.3486 39.4692 44.8337 40.9087C44.2044 41.1663 43.1962 41.5144 43.0529 41.9797C42.8518 42.6344 43.0883 44.535 43.2487 45.2461C43.3191 45.5572 43.3842 45.9776 43.4534 46.3892C43.4995 46.6664 43.5778 47.2456 43.7323 47.3922C44.1104 47.7506 45.7469 47.717 46.3939 47.5254C47.2938 47.2576 48.0348 46.9492 48.7337 46.6721C51.782 45.4661 54.6212 44.3118 57.6082 43.0088C58.6153 42.5702 60.083 42.0102 61.1386 41.425C61.5146 41.2163 61.921 40.9968 62.0212 40.779C62.2429 40.2975 61.8099 39.3539 61.7162 38.7234C61.6107 38.0192 61.6643 37.2347 61.415 36.7857Z" fill="#DBA13A"/>
<path fill-rule="evenodd" clip-rule="evenodd" d="M42.3368 11.5178C42.3319 11.5178 42.2294 11.4769 42.1226 11.51C41.7921 11.6076 41.973 12.208 42.0693 12.5533C42.4466 13.9085 42.3262 14.8797 42.1639 16.229C42.074 16.977 40.6608 20.9956 40.7206 22.8466C40.8029 25.3854 40.8176 28.0743 40.6537 30.6886C40.6159 31.2762 40.2658 32.6708 40.6362 33.0772C40.9767 33.452 42.3592 32.9061 43.1996 32.8664C44.1457 32.8201 44.9681 32.961 45.6163 33.0838C47.2236 33.3898 48.6305 33.7767 49.8864 34.2916C52.0282 35.1724 54.0495 35.7209 56.3714 36.068C56.7809 36.1293 57.1863 36.1176 57.6146 36.126C58.2784 36.139 59.0793 36.1411 59.6445 36.3207C59.9925 36.4311 60.4418 36.7085 60.8095 36.9773C61.0301 37.1391 61.4421 37.6819 62.0363 37.488C62.6836 37.2769 62.4091 36.335 62.445 35.7078C62.4817 35.0635 62.8248 34.2927 63.0552 33.5783C63.283 32.873 63.4371 32.1193 63.5698 31.3756C64.0698 28.5674 64.2447 24.8188 64.3247 21.5687C64.345 20.757 64.3009 19.8533 64.212 18.8873C64.1309 18.0021 64.0103 17.0729 64.1547 16.286C64.2228 15.9129 64.4005 15.3636 64.5823 14.9082C64.7793 14.4139 65.1281 13.9354 64.9134 13.4562C64.7749 13.1468 63.87 13.0907 63.4573 13.1193C62.3136 13.1988 60.975 13.8404 59.9241 13.9465C58.9402 14.0458 58.1609 13.5086 57.2604 13.2297C51.4214 11.4211 46.9052 12.5512 44.5929 12.0781C43.8473 11.926 43.1366 11.6109 42.4198 11.504C42.3945 11.5002 42.3625 11.516 42.3368 11.5178Z" fill="#F4BE53"/>
<path d="M52.7449 32.5523C53.1467 32.652 55.1176 32.5503 55.5458 32.5588C56.2097 32.5715 57.0111 32.5733 57.5762 32.753C57.9238 32.863 58.3731 33.1406 58.7405 33.41C58.9613 33.5714 59.3738 34.1143 59.9683 33.9204C60.6149 33.7093 60.3408 32.7671 60.3764 32.1406C60.4132 31.4959 60.7567 30.7248 60.9871 30.0107C61.2143 29.3054 61.3683 28.5517 61.5011 27.8082C62.0011 24.9999 61.9941 21.2392 62.2561 18.0012C62.4489 15.6204 64.9134 13.4561 64.9134 13.4561C65.1281 13.9359 64.7787 14.4133 64.5824 14.9077C64.4009 15.3637 64.2231 15.9133 64.1543 16.2866C64.0104 17.0728 64.1311 18.0013 64.212 18.8875C64.301 19.8529 64.3446 20.757 64.3246 21.5692C64.2446 24.8184 64.0697 28.5674 63.5695 31.3753C63.4374 32.1189 63.2827 32.8723 63.0552 33.578C62.8248 34.2935 62.4813 35.0632 62.4454 35.7085C62.4092 36.335 62.684 37.2769 62.0365 37.4886C61.442 37.6818 61.0298 37.1386 60.809 36.9772C60.4418 36.7084 59.9919 36.4305 59.6447 36.3205C59.0793 36.1411 58.2783 36.1383 57.6146 36.1258C57.1863 36.1175 56.7801 36.1285 56.3717 36.0681C54.0495 35.7208 52.0276 35.1718 49.8864 34.2913C48.6304 33.7758 47.2238 33.3889 45.6167 33.0842C44.9679 32.9605 44.1454 32.8198 43.1997 32.8658C42.3587 32.9058 40.9768 33.4518 40.6359 33.0775C40.2659 32.6704 43.6109 30.2994 52.7449 32.5523Z" fill="#DBA13A"/>
<path fill-rule="evenodd" clip-rule="evenodd" d="M63.7078 40.1321C62.3804 40.9248 60.9273 41.4855 59.5069 42.1431C55.3357 44.0749 50.8969 45.9366 46.3128 47.553C46.2201 44.8186 46.3904 41.9166 46.1766 38.7873C46.1109 37.8199 46.0648 36.4769 45.4232 36.3934C44.4261 36.2642 44.5031 37.7531 44.4762 38.5601C44.3769 41.5432 44.5786 44.738 44.4661 47.6487C39.3199 46.2145 24.5704 41.467 24.1257 41.571C23.8529 41.6641 23.8376 43.2512 23.9625 43.4992C24.0816 43.7361 42.6662 49.7547 44.4413 50.0389C44.5299 52.7837 44.3256 54.3827 44.3279 57.9506C44.3288 58.8127 44.3518 60.3798 44.9974 60.3506C45.6104 60.3218 45.7112 58.6185 45.7685 58.0642C46.0553 55.2848 46.0087 52.8892 46.1751 50.0765C52.2287 47.8645 58.1616 45.0525 63.6019 42.2781C63.5225 44.869 63.5133 47.6383 63.582 50.6121C63.5984 51.2973 63.5024 52.9926 64.1265 53.0207C64.7709 53.0485 64.7518 51.6328 64.7981 51.1429C65.0171 48.8206 65.0867 46.5326 65.2053 44.1616C65.5918 36.4344 65.9808 28.4611 66.155 20.4782C66.1714 19.7198 66.2071 18.9802 66.2008 18.0688C66.1957 17.2894 66.2637 15.5598 65.5371 15.7579C64.9787 15.9095 64.7987 17.6132 64.6982 18.2715C64.2573 21.1653 64.2839 24.6656 64.152 27.5354C63.9615 31.6812 63.7138 35.8215 63.7078 40.1321Z" fill="#4F2F12"/>
<path fill-rule="evenodd" clip-rule="evenodd" d="M42.3063 37.6141C42.8525 37.893 43.5955 38.016 43.9761 37.8899L64.8004 32.8306C65.441 32.7098 65.7696 32.3887 65.5227 32.1152L65.1984 31.7661C64.9374 31.4924 64.1705 31.3686 63.497 31.49L41.3251 36.5267C40.9115 36.6523 41.0395 36.9807 41.6005 37.2586L42.3063 37.6141Z" fill="#4F2F12"/>
<path fill-rule="evenodd" clip-rule="evenodd" d="M57.0623 14.7832C57.1935 14.6306 57.4203 14.6876 57.6021 14.7399C57.8752 14.8194 58.1987 14.9929 58.4685 15.1678C58.6222 15.2691 58.7871 15.3359 58.8946 15.4392C59.083 15.6201 59.1283 15.8378 58.9718 15.9657C58.8489 16.0657 58.6437 16.0177 58.4637 15.9384C58.1755 15.8132 57.789 15.5952 57.5008 15.4278C57.2695 15.2943 56.8368 15.0463 57.0623 14.7832ZM59.0607 14.5954C59.2449 14.3974 59.5304 14.623 59.7379 14.8099C59.7993 14.865 59.8488 14.929 59.914 14.9898C60.079 15.1442 60.3872 15.268 60.3325 15.5025C60.3177 15.5706 60.2584 15.6283 60.2209 15.6531C60.0327 15.7763 59.7867 15.5477 59.5664 15.3766C59.4687 15.2997 59.3651 15.2183 59.2522 15.118C59.0726 14.9568 58.904 14.7652 59.0607 14.5954ZM60.0627 16.6521C60.298 16.3615 60.7151 16.878 60.9825 17.1094C61.1811 17.2823 61.4506 17.5809 61.2516 17.7453C61.0717 17.893 60.8036 17.6346 60.606 17.4611C60.5067 17.3738 60.3921 17.2826 60.3006 17.1957C60.1422 17.0439 59.93 16.8157 60.0627 16.6521ZM24.6652 36.5457C24.7356 36.3572 24.9683 36.3326 25.1568 36.3195C25.4407 36.2997 25.8041 36.3507 26.1174 36.4225C26.2966 36.4638 26.4744 36.4698 26.6111 36.5296C26.8503 36.6343 26.9681 36.8231 26.8651 36.9977C26.7844 37.1337 26.5751 37.1592 26.3789 37.1477C26.0654 37.1293 25.6272 37.0575 25.2992 37.0001C25.0359 36.9541 24.5442 36.8709 24.6652 36.5457ZM28.1259 37.2654C28.2467 36.9113 28.8164 37.2519 29.1473 37.3779C29.3933 37.4712 29.7489 37.6584 29.6191 37.8815C29.5011 38.0822 29.1604 37.9322 28.915 37.8372C28.7917 37.7896 28.6526 37.7436 28.5366 37.6935C28.3358 37.6057 28.0579 37.4647 28.1259 37.2654Z" fill="white"/>
<path fill-rule="evenodd" clip-rule="evenodd" d="M42.883 16.7131C43.4053 16.4779 43.3536 15.8656 43.3977 15.4662C43.4422 15.0596 43.6482 14.5059 43.2521 14.1455C43.0982 14.1357 42.9001 14.1945 42.7749 14.4754C42.5153 15.0561 42.4057 16.3913 42.883 16.7131ZM43.0278 18.9146C43.3255 18.8458 43.4149 18.3972 43.4688 18.0341C43.5187 17.6949 43.652 17.1489 43.2861 17.0439C42.8715 17.2695 42.6095 18.6096 43.0278 18.9146Z" fill="#DBA13A"/>
<path fill-rule="evenodd" clip-rule="evenodd" d="M43.0525 44.2375C43.575 44.0022 43.5233 43.3895 43.5674 42.9906C43.6119 42.5835 43.8179 42.0299 43.4218 41.6699C43.268 41.6605 43.0698 41.7185 42.9442 41.9998C42.685 42.5801 42.5752 43.9153 43.0525 44.2375ZM43.1975 46.4388C43.4952 46.3704 43.5848 45.9214 43.6384 45.5583C43.6884 45.2193 43.8217 44.6734 43.4556 44.5681C43.0414 44.7938 42.7792 46.1337 43.1975 46.4388Z" fill="#BF8528"/>
<path fill-rule="evenodd" clip-rule="evenodd" d="M45.4481 32.4726C45.4534 31.5058 45.2839 30.5824 45.2515 29.5912C45.2298 28.9345 45.3117 28.2765 45.1213 27.6863C44.9981 27.3064 44.6892 26.9994 44.6708 26.6508C44.6502 26.2649 45.011 26.089 45.0684 25.6847C45.1632 25.0186 44.8381 24.179 44.8304 23.4315C44.8201 22.5395 45.399 21.5865 44.7141 21.1229C44.3761 21.1343 44.1792 21.4786 43.9427 21.5386C43.4982 21.6491 42.9375 21.5383 42.4307 21.608C41.5238 21.7326 40.8121 22.0123 39.9975 22.3721C39.6596 22.5204 39.1717 22.8419 38.8932 22.8559C38.4696 22.8775 37.9172 22.2929 37.5337 22.0677C37.0469 21.7828 36.4705 21.6258 36.0189 21.4698C35.1899 21.1835 34.5395 20.8786 33.6498 20.713C33.3469 20.6577 33.0209 20.701 32.7576 20.6036C32.4268 20.4794 32.2435 19.9217 31.9099 19.9107C31.0859 19.8825 31.5455 20.9007 31.633 21.4009C31.7218 21.9107 31.6734 22.5726 31.6734 23.2244C31.6724 24.4145 31.6539 25.6702 31.8769 26.8182C31.9797 27.3473 32.1622 27.8768 32.2372 28.3944C32.2865 28.7323 32.2658 29.1236 32.3106 29.4581C32.3449 29.7163 32.4494 29.9662 32.4423 30.1608C32.4296 30.5051 32.1009 30.8004 31.967 31.2215C31.7544 31.8954 31.7606 32.4551 31.5316 32.8591C31.4002 33.0896 30.7885 33.3816 30.7992 33.85C30.8133 34.4577 31.4629 34.5491 31.8984 34.5239C32.4233 34.4957 32.9477 34.2631 33.4727 34.137C34.9998 33.772 36.6274 33.4585 38.5254 33.4878C40.2494 33.514 41.7434 33.7189 43.357 33.923C43.8762 33.9891 44.411 33.9814 44.9257 34.072C45.0747 34.0977 46.2045 34.488 46.2992 33.8336C46.4024 33.1273 45.5645 33.0088 45.4481 32.4726Z" fill="#ED500A"/>
<path d="M31.5312 32.8591C31.7606 32.4554 31.7538 31.8957 31.9671 31.222C32.1007 30.8008 32.4295 30.5055 32.442 30.1613C32.4492 29.966 32.3443 29.7177 32.31 29.4586C32.265 29.124 32.2867 28.7331 32.2369 28.3948C32.1618 27.8767 31.9797 27.3479 31.8766 26.8181C31.6535 25.6708 31.6727 24.4151 31.6727 23.2255C31.6734 22.5732 31.6327 21.4014 31.6327 21.4014C33.0203 23.3634 31.9305 24.0744 34.0142 27.8783C34.1384 28.1042 34.1543 28.3853 34.1471 28.5816C34.1345 28.9242 33.8052 29.2201 33.6722 29.641C33.4587 30.3144 33.4653 30.8755 33.2364 31.2785C33.1047 31.5091 32.493 31.8016 32.5035 32.2695C32.5176 32.8775 33.1672 32.9678 33.603 32.9433C34.1274 32.9142 34.6523 32.6826 35.177 32.5567C36.704 32.191 38.3702 32.1047 40.2607 32.2853C41.6165 32.4151 42.7652 32.8745 44.1542 33.4037C45.2348 33.8147 46.2996 33.8342 46.2996 33.8342C46.2042 34.4875 45.0742 34.098 44.9258 34.0714C44.4111 33.9814 43.8764 33.9892 43.3573 33.9231C41.7438 33.7188 40.2495 33.5145 38.5249 33.4879C36.6274 33.4588 34.9993 33.7715 33.4727 34.1376C32.9474 34.2637 32.4227 34.496 31.8983 34.5242C31.4629 34.5494 30.8129 34.4578 30.7995 33.8503C30.7882 33.3819 31.4001 33.0902 31.5312 32.8591Z" fill="#C6360A"/>
<path d="M44.3714 26.4339C40.7943 24.781 36.6473 25.786 36.6473 25.786L44.3714 26.4339Z" fill="#C6360A"/>
<path fill-rule="evenodd" clip-rule="evenodd" d="M34.9599 24.309C35.1586 24.3415 35.2279 24.5651 35.2775 24.7479C35.3516 25.0224 35.3718 25.3887 35.3625 25.71C35.356 25.8943 35.3849 26.0697 35.3525 26.2154C35.296 26.4704 35.1337 26.6224 34.9429 26.5549C34.7937 26.5022 34.7279 26.3015 34.7015 26.1067C34.6588 25.796 34.6443 25.352 34.6369 25.0192C34.6312 24.752 34.6179 24.2532 34.9599 24.309ZM36.1598 25.918C36.4243 25.9726 36.3804 26.3334 36.3285 26.6082C36.3137 26.6894 36.2847 26.7647 36.2666 26.8518C36.2206 27.0733 36.2751 27.4009 36.0463 27.476C35.9808 27.4991 35.9004 27.4783 35.8596 27.4589C35.6569 27.3622 35.7236 27.0338 35.7553 26.7562C35.77 26.633 35.7855 26.5022 35.8131 26.3535C35.8571 26.1163 35.9333 25.8727 36.1598 25.918ZM34.9242 27.8437C35.2944 27.8933 35.0707 28.5185 35.0116 28.8672C34.9675 29.1266 34.8527 29.5121 34.6088 29.4279C34.3891 29.3507 34.4702 28.9876 34.5158 28.7283C34.5386 28.5981 34.5571 28.4528 34.5835 28.3297C34.6309 28.1153 34.715 27.8155 34.9242 27.8437Z" fill="#C6360A"/>
<path fill-rule="evenodd" clip-rule="evenodd" d="M70.3935 19.1536C70.3475 20.5076 70.3845 22.155 70.052 23.2884C70.518 24.419 71.0453 25.6549 71.3562 26.8381C72.0329 24.3046 71.4937 22.1637 71.1373 20.6343C70.9687 19.9102 70.8391 19.1384 70.6111 18.6297C70.3526 17.8171 70.3996 18.9833 70.3935 19.1536Z" fill="#95A534"/>
<path d="M70.8134 22.3315C70.9501 22.3382 71.0345 22.2594 71.0699 22.1637C71.118 22.3278 71.315 22.6802 71.4978 22.4479C71.5035 22.4407 71.5073 22.4325 71.5126 22.4251C71.4351 21.9537 71.3408 21.5147 71.2479 21.1108C71.2073 21.0663 71.1617 21.0267 71.112 20.9926C70.9709 20.8993 70.8571 21.0238 70.7891 21.0963C70.756 20.8732 70.593 20.5088 70.3914 20.7137C70.3775 20.7279 70.3653 20.7469 70.3524 20.7641C70.3434 21.0601 70.3286 21.356 70.3081 21.6515C70.3098 21.6535 70.3107 21.6563 70.3123 21.6582C70.5191 21.896 70.4753 22.3143 70.8134 22.3315ZM71.663 23.7516C71.5929 23.6407 71.5023 23.564 71.3898 23.5549C71.2211 23.5411 71.0803 23.5674 70.905 23.6941C70.8742 23.4749 70.7778 22.7676 70.3042 22.8931C70.1055 22.946 70.0728 23.1755 70.1192 23.4515C70.2687 23.813 70.4223 24.1835 70.5725 24.5596C70.7518 24.8582 70.9801 24.9868 71.2804 24.6294C71.3378 24.7914 71.3699 25.0176 71.548 25.0139C71.5907 25.013 71.6269 24.9956 71.6597 24.9708C71.686 24.5494 71.6849 24.1422 71.663 23.7516Z" fill="#525E0A"/>
<path fill-rule="evenodd" clip-rule="evenodd" d="M53.5399 29.8509C53.2465 30.1022 54.8739 33.0524 55.3147 34.1719C55.8951 35.6464 56.5843 37.0542 57.3148 38.3902C58.0502 39.7345 58.9308 40.8867 59.8882 42.0118C60.3566 42.5619 60.8634 43.096 61.35 43.64C61.709 44.0404 62.0071 44.5098 62.3832 44.9514C62.5024 45.092 62.5324 45.2802 62.8745 45.1365C62.9955 45.0952 62.8532 44.9741 62.8379 44.9426C61.8577 42.862 60.6626 40.7253 60.1689 38.1066C60.1355 37.928 60.1004 37.7218 60.0601 37.524C60.0237 37.3425 60.009 37.1008 59.9514 36.9409C59.8538 36.6691 59.4952 36.2875 59.2503 35.9795C58.5226 35.0678 57.5896 34.3091 56.8115 33.5175C55.9729 32.6648 53.6734 29.7375 53.5399 29.8509Z" fill="#95A534"/>
<path d="M55.0117 33.1718C55.0703 33.1477 55.0816 32.9763 55.0611 32.8447C55.1837 33.0104 55.4668 33.4075 55.6843 33.1575C55.7662 33.0639 55.6785 32.7834 55.5779 32.6719C55.7141 32.7229 55.9587 32.9829 56.0998 32.7917C56.1094 32.7787 56.1119 32.7601 56.1109 32.7391C55.8965 32.4895 55.6833 32.2388 55.4715 31.9869C55.3272 31.8995 55.192 31.8634 55.1084 31.9333C55.0199 32.0071 55.0297 32.237 55.0841 32.3565C54.9686 32.2471 54.7613 32.0482 54.592 32.1387C54.5082 32.1835 54.4909 32.3023 54.5131 32.4438C54.6203 32.6663 54.7266 32.8859 54.8268 33.0954C54.8923 33.1606 54.9576 33.1945 55.0117 33.1718ZM56.0911 35.557C56.2023 35.5181 56.2282 35.3587 56.213 35.2272C56.287 35.3819 56.4052 35.5557 56.6076 35.4791C56.7292 35.4334 56.7127 35.0832 56.6293 34.9264C56.7931 35.0668 57.158 35.5945 57.4492 35.3C57.6408 35.107 57.4044 34.7862 57.3062 34.6209C57.4328 34.7464 57.9322 35.1179 58.0571 34.801C58.0665 34.7757 58.0704 34.7487 58.0684 34.7218C57.6409 34.3128 57.2066 33.9196 56.8118 33.5181C56.698 33.4843 56.6013 33.4839 56.5373 33.5306C56.3815 33.6447 56.5067 34.0266 56.5823 34.1799C56.5233 34.1441 56.4316 34.0799 56.3213 34.1202C56.1894 34.1678 56.1295 34.3182 56.1338 34.5135C56.0402 34.3619 55.8075 34.0146 55.5421 34.1675C55.4624 34.2135 55.4249 34.3086 55.4183 34.4281C55.5639 34.7883 55.7157 35.1445 55.8729 35.4967C55.9473 35.5557 56.0226 35.5814 56.0911 35.557ZM58.37 39.1824C58.5795 39.0214 58.383 38.5283 58.2562 38.3395C58.3602 38.3876 58.6442 38.7186 58.9753 38.5532C59.2901 38.3955 58.9949 37.8563 58.8282 37.6781C58.9143 37.6694 59.2635 37.8785 59.3155 37.6688C59.392 37.362 59.133 37.218 59.0104 37.0245C59.2529 37.089 59.765 37.354 59.8887 37.0729C59.9173 37.0081 59.9258 36.9419 59.9216 36.8754C59.7963 36.61 59.4762 36.2641 59.2501 35.9799C59.2104 35.9301 59.1679 35.8825 59.127 35.8336C58.8459 35.5754 58.438 35.2444 58.2332 35.5125C57.9998 35.8182 58.4651 36.0229 58.6052 36.2531C58.5084 36.1951 58.3088 36.1307 58.2149 36.2279C58.128 36.3182 58.2091 36.4809 58.2859 36.5518C58.1195 36.4692 57.7243 36.0992 57.47 36.3727C57.2678 36.5898 57.4247 36.8385 57.4744 36.8901C57.0689 36.797 56.616 36.7112 56.6702 37.1669C56.8787 37.5781 57.0936 37.9861 57.3147 38.3906C57.4274 38.5966 57.5447 38.7968 57.6639 38.9945C57.8681 39.2463 58.1009 39.3897 58.37 39.1824ZM59.5476 41.2068C59.6157 41.1327 59.5657 40.9357 59.5237 40.8447C59.6107 40.9672 59.8205 41.1973 60.0316 41.0347C60.1911 40.9112 60.0697 40.6099 59.9873 40.4502C60.1137 40.5213 60.3072 40.7341 60.4782 40.6036C60.8615 40.3113 60.342 39.6885 60.1285 39.3425C60.0045 39.1428 59.7773 38.7914 59.5678 38.9315C59.3719 39.0623 59.5499 39.4878 59.6467 39.6448C59.4839 39.5716 59.386 39.309 59.1549 39.4267C59.0183 39.4965 59.0003 39.7546 59.1015 40.013C58.9945 39.9508 58.6945 39.4217 58.3798 39.6697C58.3422 39.6981 58.3116 39.7347 58.2903 39.7767C58.269 39.8186 58.2576 39.8649 58.2569 39.912C58.5859 40.389 58.9332 40.8467 59.2943 41.2948C59.3803 41.3149 59.4661 41.2948 59.5476 41.2068ZM61.4087 43.3141C61.4818 43.1265 61.3548 42.9715 61.2699 42.8622C61.3565 42.8669 61.5475 43.0068 61.659 42.8846C61.7195 42.8178 61.7407 42.7371 61.7368 42.6498C61.655 42.4748 61.5745 42.2992 61.4954 42.1231C61.3841 41.9782 61.2575 41.8458 61.1176 41.7283C60.9754 41.6115 60.7282 41.4218 60.5615 41.5444C60.326 41.7179 60.6547 42.0387 60.7372 42.2225C60.622 42.1507 60.3612 42.0511 60.2818 42.1994C60.2418 42.2739 60.2383 42.3539 60.2579 42.4357C60.5497 42.7632 60.8492 43.0877 61.1453 43.414C61.2588 43.4574 61.3578 43.4433 61.4087 43.3141Z" fill="#687C15"/>
<path fill-rule="evenodd" clip-rule="evenodd" d="M57.3413 22.7419C57.5755 23.2787 57.7668 23.8415 57.9842 24.4351C58.2622 25.1947 58.5383 25.9726 58.777 26.7598C59.2637 28.3638 59.7051 29.9597 60.5225 31.2425C61.3114 32.4823 62.3307 33.5908 63.2874 34.6991C64.2328 35.7933 65.2374 36.8735 66.1476 38.0231C66.1491 38.0728 66.2384 38.1281 66.213 38.0221C65.8334 36.9869 65.5409 36.0393 65.4975 34.6884C65.4921 34.5272 65.5117 34.3276 65.4873 34.1682C65.4496 33.9229 65.2595 33.5773 65.1123 33.2656C64.1944 31.3267 62.735 29.655 61.501 28.1038C59.9922 26.2072 58.5079 24.3825 57.3243 22.2705C57.1523 22.0176 57.1265 22.2485 57.3413 22.7419Z" fill="#95A534"/>
<path d="M59.1846 26.0039C59.2674 26.1482 59.4085 26.3317 59.6122 26.2548C59.798 26.1851 59.7599 25.9682 59.6433 25.7351C59.4749 25.5131 59.3086 25.2895 59.1444 25.0645C59.1307 25.0519 59.1161 25.0403 59.1009 25.0296C58.9163 24.9102 58.7027 24.974 58.6825 25.2334C58.5322 25.1855 58.4206 25.2271 58.3594 25.3371C58.3472 25.3591 58.3391 25.3847 58.3346 25.4133C58.4115 25.633 58.4864 25.8533 58.5593 26.0744C58.7796 26.3931 59.0928 26.5636 59.1846 26.0039ZM59.9922 29.0752C60.1703 29.0367 60.146 28.6041 60.0764 28.391C60.1368 28.4191 60.2622 28.5064 60.4352 28.4487C60.6234 28.3913 60.6236 28.0346 60.5531 27.8292C60.6304 27.9013 60.8093 28.0471 60.9775 27.9182C61.0783 27.841 61.0637 27.6485 60.9801 27.4487C60.8472 27.2817 60.7156 27.1148 60.5839 26.9481C60.4966 26.8917 60.4028 26.8573 60.3069 26.8592C60.1951 26.8683 60.1671 26.9585 60.1479 27.0571C59.8175 26.7155 59.4369 27.0028 59.6357 27.4569C59.5492 27.3602 59.4533 27.2757 59.2753 27.3017C59.1189 27.3246 59.0615 27.5052 59.0748 27.743C59.1663 28.0419 59.2594 28.3383 59.3566 28.6301C59.526 28.9192 59.7536 29.1268 59.9922 29.0752ZM61.9577 28.672C61.6878 28.4783 61.3302 28.4662 61.2549 28.823C61.2016 29.0783 61.3492 29.3511 61.4001 29.6001C60.9842 29.6021 60.9099 30.0579 61.0588 30.4188C60.9471 30.3605 60.7904 30.3907 60.7022 30.4591C60.4566 30.6482 60.4881 31.0392 60.6192 31.3869C60.7495 31.5853 60.8847 31.7804 61.0246 31.9721C61.2054 30.7865 61.5376 29.6291 61.9658 28.6822L61.9577 28.672ZM63.7459 31.5369C63.4746 31.7735 63.6861 32.2295 63.8292 32.4775C63.4054 32.3514 63.0997 32.6933 63.3551 33.1698C63.0455 33.0302 62.7326 33.04 62.6103 33.3141C62.39 33.809 63.4213 34.714 63.7364 34.3646C63.8354 34.2287 63.843 34.0121 63.7904 33.8109C63.8887 33.8921 64.078 34.0894 64.3459 33.963C64.4935 33.8925 64.4852 33.6505 64.465 33.4077C64.5712 33.5067 64.7543 33.41 64.788 33.3039C64.8838 33.1598 64.8936 32.9588 64.8477 32.7433C64.6525 32.3793 64.4422 32.0237 64.2173 31.6772C64.05 31.5365 63.8798 31.471 63.7459 31.5369ZM64.9346 34.1462C64.8444 34.3361 64.9049 34.5344 64.9788 34.7629C64.8553 34.7536 64.6901 34.7613 64.6227 34.8347C64.5444 34.92 64.4645 35.0014 64.5 35.1948C64.3762 35.1017 64.0903 34.9368 63.9137 35.1412C63.9067 35.5225 64.2889 35.7596 64.5157 36.0073C64.756 36.2691 64.9553 36.6325 65.3099 36.7389C65.4423 36.6999 65.4712 36.4885 65.3998 36.3473C65.4852 36.3505 65.5752 36.3486 65.6708 36.2058C65.5775 35.7463 65.5154 35.2526 65.4972 34.6879C65.4918 34.5268 65.5115 34.3271 65.487 34.1678C65.4826 34.141 65.4768 34.1144 65.4699 34.0882C65.3115 33.9905 65.0106 33.9851 64.9346 34.1462Z" fill="#525E0A"/>
<path fill-rule="evenodd" clip-rule="evenodd" d="M67.8249 25.7373C67.8189 25.6666 67.7958 25.5574 67.7276 25.7394C67.2623 27.3064 66.7327 28.8661 66.2597 30.448C66.0167 31.2563 65.8051 32.0739 65.6253 32.8986C65.4346 33.7727 65.3908 34.5892 65.4822 35.566C65.6703 37.5743 66.5383 38.5975 67.229 40.1142C67.7405 41.2393 67.9976 42.4913 68.2443 43.8305C68.324 44.2644 68.3467 44.7136 68.4647 45.1584C69.0615 45.2777 69.8963 45.1822 70.512 45.1184C70.4774 43.3245 70.1085 41.7645 69.7343 40.2601C69.3664 38.7832 68.8119 37.4139 68.4476 35.9629C68.076 34.4824 67.772 32.816 67.6702 31.103C67.5665 29.3628 67.7977 27.6119 67.8268 25.835C67.8262 25.8025 67.8253 25.7703 67.8249 25.7373Z" fill="#687C15"/>
<path d="M67.3209 28.2168C67.3219 28.3093 67.3809 28.4412 67.4883 28.4731C67.5831 28.4901 67.6535 28.4574 67.7038 28.3944C67.7177 28.1466 67.7323 27.8983 67.7471 27.6497C67.6898 27.4559 67.5911 27.297 67.4648 27.2715C67.3884 27.2561 67.3011 27.3024 67.2201 27.3814C67.1404 27.6332 67.061 27.8851 66.9807 28.1372C66.9912 28.1613 67.0053 28.1838 67.0225 28.2037C67.0739 28.262 67.2226 28.3093 67.3209 28.2168ZM67.2546 29.8104C67.2393 29.9986 67.3006 30.2318 67.4584 30.2617C67.5379 30.2765 67.5995 30.2516 67.6462 30.2019C67.6455 29.8917 67.6509 29.581 67.6625 29.2698C67.6269 29.196 67.5834 29.1419 67.5338 29.1225C67.3796 29.0617 67.3116 29.1852 67.2105 29.2268C67.1414 29.0409 67.0015 28.6436 66.7814 28.8771C66.76 28.9004 66.7402 28.9252 66.7223 28.9512C66.6548 29.1647 66.5887 29.3785 66.5222 29.5924C66.532 29.6946 66.5688 29.7898 66.6486 29.8637C66.7989 30.0027 67.0141 30.0241 67.2546 29.8104ZM66.0971 32.1083C66.2887 32.2388 66.4819 32.0412 66.5474 31.872C66.5966 32.0478 66.7502 32.2955 67.0087 32.1878C67.1149 32.1436 67.1744 32.0284 67.1978 31.8915C67.2426 32.029 67.3493 32.2484 67.5623 32.2421C67.6365 32.2401 67.7029 32.1964 67.7572 32.1296C67.7285 31.8566 67.7043 31.5818 67.6853 31.3054C67.5753 31.2729 67.5148 31.3559 67.4707 31.3086C67.3521 31.1784 67.3504 30.9191 67.1788 30.9173C66.9686 30.9143 66.9432 31.124 66.7629 31.2502C66.728 31.1565 66.7002 30.9647 66.6577 30.862C66.5187 30.5245 66.2974 30.6307 66.1307 30.8929C66.053 31.1643 65.9787 31.4368 65.9079 31.7101C65.9186 31.8787 65.9751 32.0248 66.0971 32.1083ZM65.5566 34.3937C65.8472 34.55 65.994 34.0692 66.0987 33.8631C66.1588 34.2786 66.6908 34.3544 66.8155 33.9466C66.8896 34.2989 67.3645 34.9628 67.6034 34.3537C67.6427 34.4728 67.8135 34.8942 68.0653 34.7023C68.096 34.6788 68.1205 34.6455 68.1413 34.6074C68.061 34.212 67.9894 33.8148 67.9264 33.4162C67.9026 33.3964 67.8753 33.3814 67.8459 33.372C67.7688 33.3502 67.576 33.3712 67.553 33.4448C67.3872 33.1024 66.9366 32.6347 66.474 33.1086C66.3984 32.7904 66.2789 32.3053 65.8777 32.5348C65.7979 32.5807 65.7201 32.6728 65.6495 32.7912C65.6416 32.8269 65.6329 32.8622 65.6251 32.898C65.5249 33.353 65.4645 33.8158 65.4448 34.2814C65.4746 34.3288 65.5103 34.3688 65.5566 34.3937ZM65.9238 36.8242C66.1012 36.8476 66.1535 36.7732 66.2124 36.6235C66.3501 36.9875 67.0037 37.0637 67.023 36.5426C67.1603 36.8621 67.8354 37.451 68.0361 36.8151C68.0902 37.0023 68.3134 37.3137 68.5616 37.098C68.6383 37.031 68.6747 36.9257 68.6817 36.8056C68.6218 36.604 68.5646 36.4013 68.5105 36.1975C68.3924 36.0097 68.2267 35.8773 68.0508 35.905C67.8734 35.9328 67.7953 36.0503 67.7314 36.204C67.527 35.8748 67.3232 35.1573 66.739 35.313C66.6157 35.346 66.5301 35.4708 66.4525 35.611C66.2843 35.2634 65.9543 34.7378 65.597 35.0752C65.5285 35.14 65.4882 35.2543 65.4687 35.3926C65.4732 35.4502 65.4766 35.5065 65.4822 35.5651C65.5109 35.8725 65.5595 36.1778 65.6275 36.4789C65.7088 36.6714 65.8121 36.8094 65.9238 36.8242ZM68.7459 37.9067C68.6005 37.9033 68.5289 38.0593 68.5578 38.2678C68.4558 38.0866 68.2564 37.8055 67.9964 37.8235C67.7561 37.8403 67.6636 38.053 67.5823 38.2547C67.3888 38.0585 66.7862 37.3209 66.4036 37.7904C66.1554 38.0933 66.4597 38.6252 66.6861 38.9544C66.8552 39.2 67.1316 39.5523 67.3455 39.4285C67.4186 39.3872 67.412 39.2286 67.3717 39.1033C67.5125 39.2136 68.0725 39.703 68.0521 38.9929C68.1826 39.252 68.2937 39.504 68.5816 39.4697C68.7308 39.452 68.717 39.2173 68.7026 39.0119C68.8378 39.2173 69.1885 39.9335 69.5278 39.646C69.5399 39.6356 69.5499 39.6244 69.56 39.6129C69.4137 39.1019 69.252 38.6002 69.0897 38.1005C68.9911 37.9883 68.8765 37.9092 68.7459 37.9067ZM69.6258 41.3667C69.4633 41.374 69.3606 41.5211 69.3738 41.7613C69.2285 41.6251 69.1838 41.3126 68.9432 41.3476C68.7813 41.3718 68.7756 41.6123 68.7242 41.774C68.4672 41.6308 68.4403 41.0287 68.1242 41.0391C67.6846 41.0526 67.8598 42.3777 68.2148 42.3364C68.3011 42.3263 68.3947 42.276 68.3732 42.138C68.4624 42.4048 68.8206 43.0944 68.9977 42.483C69.1591 42.6575 69.1661 43.0528 69.4315 43.0594C69.6378 43.0638 69.6396 42.7706 69.6486 42.5353C69.8186 42.69 69.893 43.1715 70.1454 43.0128C70.2287 42.9606 70.2646 42.834 70.2655 42.6734C70.2285 42.4605 70.1886 42.2481 70.1455 42.0362C70.0214 41.6757 69.8191 41.3582 69.6258 41.3667ZM70.5015 45.1186C70.5341 44.75 70.3813 44.3053 70.1071 44.3782C70.011 44.4042 69.9362 44.49 69.95 44.6416C69.8029 44.5946 69.8221 44.3731 69.6519 44.3544C69.4934 44.3369 69.4915 44.4765 69.4282 44.554C69.2858 44.2298 69.0677 43.7188 68.7338 43.9496C68.5375 44.0857 68.464 44.6674 68.4355 45.0362C68.4404 45.0578 68.4457 45.0793 68.451 45.101C68.5985 45.1613 68.7728 45.1937 68.9624 45.2106C69.4709 45.2296 70.045 45.1659 70.5015 45.1186Z" fill="#525E0A"/>
<path fill-rule="evenodd" clip-rule="evenodd" d="M72.3356 45.3097C72.5114 45.2634 72.7824 45.3588 72.9526 45.298C73.1502 45.2283 73.3944 44.5792 73.5491 44.2139C74.0479 43.0344 74.3918 41.677 74.5772 40.2952C74.9782 37.3125 74.7981 33.935 74.585 30.7073C74.4416 28.5406 74.3197 26.5084 74.2308 24.247C74.1861 23.1047 74.3235 21.9267 74.1992 20.9653C74.1998 20.8572 74.1542 20.6781 74.0679 20.9029C73.2278 23.3781 72.8804 26.328 71.8132 28.5843C72.1226 29.7687 72.4176 31.0698 72.5717 32.4698C73.0348 36.6869 72.8164 41.6014 72.3356 45.3097Z" fill="#525E0A"/>
<path d="M73.3335 24.8819C73.4854 24.9446 73.6928 24.802 73.7499 24.5816C73.7442 24.8184 73.9012 25.2611 74.1812 25.0282C74.2113 25.003 74.2365 24.9683 74.2594 24.9293C74.2495 24.7019 74.2401 24.4744 74.231 24.247C74.2234 24.0326 74.2209 23.8181 74.2234 23.6036C74.1757 23.5093 74.1183 23.4381 74.0523 23.4053C73.8213 23.2906 73.7486 23.5382 73.7005 23.7046C73.6108 23.6234 73.552 23.5821 73.4386 23.6123C73.3767 23.6288 73.3217 23.6949 73.2765 23.7867L73.1545 24.295C73.1366 24.5628 73.1849 24.8206 73.3335 24.8819ZM72.5445 27.7576C72.9297 27.8439 73.015 27.4527 73.1515 27.2258C73.1983 27.4321 73.2703 27.5452 73.4192 27.6103C73.6292 27.6422 73.7212 27.5606 73.8063 27.4727C73.8141 27.7459 73.8964 28.055 74.1114 28.117C74.2677 28.1619 74.3597 28.0566 74.4095 27.8959C74.385 27.4719 74.3617 27.0478 74.3395 26.6237C74.2664 26.3786 74.1535 26.1993 73.9764 26.202C73.8053 26.2046 73.6903 26.2989 73.5919 26.47C73.6006 26.3167 73.5431 26.2272 73.4558 26.1794C73.3358 26.1126 73.2585 26.1763 73.1653 26.2502C73.1514 25.9991 73.0336 25.7297 72.8307 25.8018C72.8089 25.8101 72.7881 25.8208 72.7686 25.8337C72.6239 26.3744 72.4663 26.9029 72.2877 27.4111C72.3226 27.5933 72.4034 27.7258 72.5445 27.7576ZM74.234 29.382C73.7525 29.3022 73.4693 29.738 73.3371 30.0494C73.3666 29.6839 73.4606 28.8051 73.0522 28.7877C72.7736 28.7753 72.6525 29.1675 72.6101 29.446C72.5104 29.3158 72.4688 29.0843 72.1496 29.1629C71.943 29.3474 72.1383 29.8089 72.2357 30.2337C72.3163 30.587 72.3437 31.1631 72.5796 31.2021C72.8228 31.2418 72.9012 30.9585 72.9599 30.7068C73.0138 30.9715 73.1269 31.2413 73.425 31.2179C73.6967 31.1964 73.8349 30.832 73.8677 30.5918C73.9362 30.8183 73.9628 31.2441 74.2386 31.2673C74.413 31.2816 74.5324 31.0389 74.5863 30.7232L74.5853 30.7071C74.5626 30.3636 74.5406 30.024 74.519 29.6857C74.4557 29.5203 74.3619 29.4032 74.234 29.382ZM73.1934 34.3427C73.3978 34.3433 73.5028 34.1266 73.5092 33.8487C73.6203 33.9847 73.7071 34.0554 73.87 34.0367C74.0783 34.0133 74.1248 33.7988 74.1536 33.5763C74.2364 33.7374 74.3704 34.143 74.6811 33.9561C74.713 33.9368 74.7394 33.9082 74.763 33.8757C74.7466 33.4794 74.7276 33.0832 74.706 32.6871C74.6707 32.6299 74.6315 32.5846 74.5885 32.5598C74.4772 32.4957 74.4003 32.5918 74.33 32.63C74.2773 32.3118 74.1073 32.0643 73.8664 32.1847C73.6652 32.2847 73.6225 32.6641 73.6204 32.9038C73.4909 32.837 73.3108 32.8149 73.2312 32.9444C73.1338 32.6924 73.0597 32.1722 72.7329 32.4018C72.659 32.4536 72.6139 32.5452 72.5909 32.6606C72.6196 32.9356 72.6454 33.2132 72.6686 33.4931C72.7926 33.9371 73.0138 34.342 73.1934 34.3427ZM73.1946 37.7227C73.2608 37.7562 73.3998 37.7196 73.4846 37.5864C73.4852 37.769 73.5182 37.978 73.6553 38.0063C74.0545 38.0882 74.1753 37.362 74.2506 36.8895C74.3073 37.1026 74.2896 37.5501 74.589 37.5649C74.6792 37.5695 74.7476 37.5072 74.7992 37.4115C74.8132 36.9295 74.8169 36.442 74.814 35.9515C74.8046 35.9458 74.7952 35.9401 74.7845 35.9366C74.6959 35.906 74.5713 35.9231 74.5251 35.9738C74.4306 35.3953 73.8375 35.6359 73.7801 36.0862C73.679 36.0046 73.4249 36.1026 73.4265 36.2876C73.3732 36.1462 73.3159 35.8248 73.0601 35.8402C72.9308 35.8478 72.8499 35.9855 72.809 36.183C72.8161 36.4669 72.8209 36.751 72.8234 37.0358C72.8895 37.388 73.021 37.6894 73.1946 37.7227ZM74.5591 39.3532C74.4914 39.3103 74.4026 39.3511 74.365 39.3898C74.2393 39.0911 73.8356 39.0586 73.7477 39.402C73.6127 39.2858 73.4158 39.3952 73.36 39.5392C73.3346 39.3634 73.2615 39.2064 73.0931 39.1869C72.9441 39.1702 72.8451 39.3157 72.7935 39.5184C72.7868 39.7256 72.7792 39.9327 72.7705 40.1398C72.8294 40.5198 73.0241 40.7887 73.3449 40.4174C73.3724 40.6279 73.4061 40.8019 73.5482 40.8359C73.874 40.9131 74.0654 40.3815 74.1188 40.1095C74.1233 40.3292 74.1448 40.5434 74.2907 40.5936C74.393 40.6289 74.4762 40.5971 74.5427 40.5277C74.5541 40.4502 74.5669 40.373 74.5773 40.2954C74.6121 40.0361 74.6411 39.7729 74.6675 39.508C74.6404 39.4382 74.6049 39.3823 74.5591 39.3532ZM73.7007 42.0018C73.5025 42.0216 73.484 42.1294 73.3478 42.2833C73.351 42.1588 73.1824 41.6209 72.7868 41.7927C72.7442 41.8112 72.7058 41.8464 72.6715 41.8929C72.6447 42.2806 72.6142 42.6679 72.5801 43.055C72.6147 43.1285 72.6593 43.1883 72.7171 43.2229C72.9845 43.3836 73.1206 43.0658 73.1653 42.889C73.2107 42.9642 73.2765 43.0316 73.3638 43.0477C73.4835 43.0702 73.5467 42.9684 73.6212 42.9132C73.6228 43.0549 73.5996 43.229 73.6931 43.2689C73.7786 43.3053 73.8523 43.2886 73.913 43.2378C73.9818 43.0274 74.0458 42.8154 74.105 42.6021C74.0966 42.2817 73.9718 41.9754 73.7007 42.0018ZM73.2516 44.5529C73.0759 44.3728 72.8337 44.5821 72.8109 44.6832C72.7784 44.6039 72.6399 44.5084 72.5165 44.5919C72.4754 44.6195 72.4392 44.6657 72.4078 44.7211C72.3844 44.9197 72.3605 45.1174 72.3356 45.3098C72.5114 45.2635 72.7824 45.3588 72.9526 45.2981C73.057 45.2612 73.1745 45.0621 73.2848 44.8289C73.308 44.7177 73.3108 44.614 73.2516 44.5529Z" fill="#687C15"/>
<path fill-rule="evenodd" clip-rule="evenodd" d="M70.4476 45.1519C71.0931 45.2211 71.7851 45.2416 72.465 45.2754C72.7327 42.7335 72.8416 40.0323 72.927 37.3382C72.972 35.9234 73.0119 34.5276 72.8463 33.2121C72.5303 30.7039 71.9227 28.4442 71.2143 26.2234C70.261 23.2342 68.9406 20.6712 67.895 17.7088C67.8216 17.4998 67.5554 16.7105 67.4203 16.6877C67.2399 16.6578 67.2744 17.2118 67.3393 17.5246C67.4091 17.8621 67.4953 18.2135 67.5178 18.3333C67.6502 19.055 67.6663 19.3745 67.7788 20.0507C67.9757 21.2335 68.0927 22.4322 68.1734 23.6183C68.3407 26.0649 68.5235 28.7031 68.6766 31.0509C69.0031 36.0711 69.8281 40.4702 70.4476 45.1519Z" fill="#687C15"/>
<path d="M67.9118 18.9551C67.9684 18.9051 67.9814 18.7749 67.9466 18.6816C68.0135 18.8139 68.1344 19.051 68.3087 18.9023C68.3164 18.8954 68.3231 18.8874 68.3286 18.8786C68.2338 18.633 68.1412 18.3866 68.0507 18.1394C68.0448 18.1356 68.039 18.1309 68.0331 18.1276C67.9583 18.0852 67.8415 18.1131 67.8398 18.1963C67.7421 18.0832 67.6032 17.9247 67.4586 18.0647C67.4857 18.1837 67.5078 18.2807 67.5175 18.3325C67.5552 18.5382 67.5833 18.7106 67.6072 18.8685C67.7002 18.9874 67.8105 19.0443 67.9118 18.9551ZM68.0881 20.9215C68.1339 20.9265 68.2135 20.8721 68.2158 20.7892C68.2917 20.9509 68.4617 21.1352 68.5794 21.1066C68.6468 21.0908 68.6812 20.9522 68.6718 20.8449C68.7414 21.0117 68.9857 21.2704 69.1011 21.1942C69.1572 21.1567 69.1827 21.0857 69.1876 20.9975C69.0546 20.6796 68.9221 20.3603 68.7907 20.039C68.6976 19.9674 68.6245 19.9862 68.5912 20.0664C68.4987 19.9655 68.3775 19.8912 68.2962 19.9097C68.2307 19.9248 68.2146 20.0446 68.2362 20.1712C68.1834 20.0688 67.9952 19.8641 67.9061 19.9175C67.8408 19.9564 67.8072 20.0593 67.7988 20.1844C67.8248 20.3464 67.8484 20.5087 67.8717 20.6711C67.9231 20.8075 67.9975 20.9109 68.0881 20.9215ZM68.4365 23.775C68.5228 23.7773 68.6481 23.6596 68.6588 23.5103C68.6932 23.6263 68.7995 23.7948 68.892 23.7981C68.9939 23.8018 69.0635 23.6018 69.0799 23.437C69.1688 23.676 69.4619 23.9544 69.6417 23.9136C69.7551 23.8873 69.7439 23.6505 69.7301 23.4568C69.7967 23.5541 70.1043 23.8169 70.2237 23.7397C70.2572 23.7179 70.2738 23.6812 70.2783 23.6352C70.1725 23.3689 70.065 23.1032 69.956 22.8382C69.8063 22.6033 69.5246 22.2271 69.3172 22.2625C69.2182 22.2786 69.2081 22.4763 69.2273 22.6541C69.0383 22.4471 68.9054 22.3504 68.7658 22.3383C68.6085 22.3242 68.5703 22.4262 68.5757 22.5691C68.4856 22.4207 68.294 22.2416 68.1799 22.2845C68.1285 22.3037 68.0986 22.3922 68.0851 22.5145C68.1078 22.7661 68.1282 23.0171 68.1468 23.2682C68.2099 23.5437 68.3116 23.7707 68.4365 23.775ZM70.3757 25.0364C70.2962 25.0938 70.3471 25.286 70.3505 25.4269C70.227 25.2537 70.0769 25.0762 69.9547 25.1102C69.8425 25.1411 69.8649 25.386 69.8659 25.5665C69.7023 25.2299 69.2806 25.0374 69.2167 25.6122C69.1114 25.3213 68.7803 25.0878 68.5899 25.1367C68.3223 25.2061 68.2449 26.3081 68.4987 26.5967C68.5315 26.6336 68.6223 26.7186 68.7792 26.4981C68.7808 26.7407 68.9497 27.0561 69.1154 27.0766C69.2706 27.0953 69.3938 26.792 69.397 26.5185C69.4953 26.7776 69.7338 26.9601 69.8926 26.9313C70.0291 26.9068 70.0991 26.6373 70.0773 26.4082C70.2679 26.7833 70.8783 27.2092 70.8232 26.3284C71.0756 26.4763 71.2154 26.4898 71.2766 26.423C71.2555 26.3563 71.2353 26.2892 71.214 26.2226C71.1361 25.9795 71.0552 25.7373 70.9716 25.496C70.7607 25.1856 70.5064 24.9426 70.3757 25.0364ZM68.7521 29.9433C68.826 29.9557 68.9201 29.8296 68.9426 29.7124C69.0071 29.9412 69.2021 30.2675 69.376 30.2563C69.576 30.2439 69.6474 29.8378 69.6537 29.5033C69.7171 29.6002 69.8443 29.7496 69.9503 29.725C70.0851 29.6941 70.2144 29.5183 70.201 29.2328C70.3011 29.4671 70.5689 29.7825 70.7639 29.7744C70.9058 29.7684 70.9653 29.5254 70.9813 29.2495C71.0655 29.4461 71.2843 29.7058 71.4449 29.6959C71.5398 29.6902 71.5849 29.512 71.5681 29.3358C71.6547 29.5204 71.8672 29.7325 71.9973 29.6852C72.0758 29.6565 72.1093 29.5232 72.1206 29.3852C72.0135 28.9546 71.8996 28.5257 71.779 28.0986C71.6816 27.9359 71.5677 27.819 71.4408 27.8111C71.3427 27.8051 71.2987 28.0147 71.2849 28.1719C71.1563 27.9779 70.9718 27.7169 70.822 27.7582C70.6955 27.7931 70.6384 28.1064 70.6366 28.2495C70.5232 27.9901 70.1967 27.7132 70.0098 27.774C69.8727 27.819 69.8265 28.1336 69.8579 28.3296C69.7137 28.1471 69.5599 27.986 69.4294 28.0132C69.2551 28.0488 69.2079 28.385 69.1499 28.6683C69.0535 28.425 68.8398 28.1278 68.6857 28.1905C68.6084 28.2218 68.5468 28.3022 68.5009 28.4121C68.5335 28.8953 68.5656 29.3727 68.5968 29.8438C68.6412 29.898 68.6929 29.9339 68.7521 29.9433ZM69.1063 33.0895C69.1868 33.0918 69.3005 32.979 69.3294 32.8576C69.3691 33.1009 69.6105 33.264 69.7597 33.2717C70.1051 33.2899 70.3293 32.8131 70.3583 32.4042C70.5406 32.6442 70.7933 32.9887 71.0204 32.9216C71.1843 32.8733 71.2763 32.5834 71.3006 32.2985C71.3935 32.5197 71.9186 33.12 72.1178 32.5428C72.2101 32.7321 72.3817 32.8454 72.4808 32.7958C72.5988 32.7369 72.6774 32.5432 72.718 32.3061C72.6529 31.8959 72.5797 31.487 72.4984 31.0797C72.4716 31.0697 72.4425 31.0678 72.4146 31.0743C72.3096 31.0988 72.3023 31.262 72.3228 31.369C72.1822 31.0781 71.8751 30.5351 71.6251 30.6026C71.4345 30.6543 71.4386 31.1429 71.5107 31.3846C71.3999 31.1184 71.0555 30.6299 70.8141 30.6835C70.6315 30.7241 70.5497 31.1351 70.6009 31.4023C70.4514 31.0862 70.22 30.8922 70.0388 30.9262C69.9531 30.9423 69.9301 31.1194 69.9155 31.2533C69.7096 31.0204 69.6155 30.9671 69.4879 31.0019C69.3828 31.0305 69.3052 31.1446 69.3005 31.3952C69.1353 30.997 68.8285 31.0914 68.7026 31.4162C68.7339 31.8618 68.7685 32.3035 68.8069 32.7401C68.8817 32.9407 68.9815 33.0855 69.1063 33.0895ZM72.2722 33.775C71.9961 33.7616 71.9164 34.3895 71.8373 34.7912C71.6771 34.4738 71.4689 34.0996 71.2381 34.0882C71.0626 34.0788 70.8642 34.4524 70.8598 34.6802C70.6373 34.6235 70.4949 34.501 70.3693 34.5275C70.1879 34.5652 69.9793 34.8929 69.7934 34.9936C69.6442 34.7846 69.4691 34.343 69.2947 34.4185C68.9334 34.5748 69.4362 36.9288 69.9083 35.8692C70.0959 36.0114 70.1681 36.2313 70.4025 36.2168C70.722 36.1967 70.7837 35.7704 70.842 35.4283C71.0078 35.6092 71.155 36.1879 71.4739 36.1632C71.6308 36.1512 71.7178 36.0142 71.7591 35.8005C71.9324 35.9557 71.9238 36.3578 72.16 36.3451C72.351 36.335 72.3839 36.0628 72.4092 35.7877C72.5325 35.8909 72.5673 36.2411 72.7725 36.1056C72.8629 36.0461 72.925 35.9411 72.9639 35.8085C72.9673 35.4953 72.9658 35.1848 72.9591 34.8765C72.8476 34.3195 72.5804 33.7897 72.2722 33.775ZM69.9111 39.346C70.0406 39.353 70.063 39.1953 70.0679 39.0504C70.2282 39.1359 70.2538 39.3535 70.4636 39.3353C70.6274 39.3212 70.6622 39.1715 70.7497 39.0048C70.9861 39.187 71.0673 39.585 71.4102 39.5443C71.6621 39.5149 71.7402 39.2102 71.8536 38.9508C71.9966 39.1348 71.9796 39.5042 72.2223 39.5286C72.4439 39.5512 72.5355 39.2984 72.5696 39.0015C72.6302 39.0933 72.6092 39.3007 72.7378 39.291C72.7887 39.2872 72.829 39.2628 72.8613 39.2248C72.8777 38.8009 72.8926 38.3763 72.9067 37.9515C72.8056 37.5693 72.6109 37.2369 72.3765 37.4453C72.2293 37.5769 72.1882 37.7749 72.1931 38.0344C72.0338 37.9626 72.0439 37.7757 71.8631 37.7807C71.6813 37.7856 71.6309 37.9709 71.5783 38.1763C71.364 37.7786 70.8787 37.7035 70.735 38.2575C70.6261 37.997 69.8891 36.883 69.8844 37.9819C69.8024 38.0323 69.6786 37.6832 69.5246 37.8587C69.481 37.9102 69.4474 37.9694 69.4253 38.0332C69.4754 38.3925 69.5261 38.7511 69.5777 39.1087C69.6673 39.2455 69.781 39.3389 69.9111 39.346ZM72.4009 40.3372C72.3106 40.3638 72.2947 40.4909 72.2756 40.6C72.1701 40.5107 72.1454 40.3131 71.9778 40.3138C71.8252 40.3138 71.812 40.4943 71.789 40.6419C71.6205 40.4637 71.566 40.006 71.2272 40.1651C71.04 40.2536 71.0306 40.5507 70.9792 40.7878C70.7437 40.5908 70.6156 40.0479 70.2213 40.2499C70.1117 40.3066 70.0993 40.4733 70.0989 40.6425C70.0331 40.6986 69.8807 40.3345 69.8035 40.4858C69.7964 40.4997 69.7917 40.5168 69.786 40.5327L69.9461 41.6162C70.0698 41.8742 70.2387 42.062 70.4189 42.0331C70.5855 42.0066 70.6006 41.8454 70.6716 41.671C70.7777 42.0368 71.2158 41.9928 71.2882 41.6267C71.4689 41.77 71.4585 42.1747 71.7215 42.1703C71.9321 42.1667 71.9659 41.8951 72.0045 41.6774C72.1681 41.8479 72.2116 42.2257 72.4698 42.2204C72.5772 42.2182 72.6642 42.1198 72.7287 41.9692C72.7539 41.5466 72.7766 41.122 72.7971 40.6955C72.7284 40.444 72.599 40.2804 72.4009 40.3372ZM72.4181 42.871C72.3241 42.8717 72.284 42.976 72.2591 43.069C72.1827 42.9713 72.1767 42.7818 72.0263 42.7818C71.8706 42.7807 71.8564 42.9583 71.8044 43.0777C71.6772 42.9562 71.6591 42.6039 71.4393 42.6955C71.3331 42.7391 71.292 42.872 71.2835 43.0233C71.1097 42.8946 71.0741 42.4613 70.7878 42.6113C70.6855 42.6643 70.6789 42.8244 70.698 43.0022C70.5852 42.931 70.5212 42.6056 70.3688 42.7815C70.2544 42.9129 70.203 43.1342 70.2014 43.367C70.2245 43.5294 70.2472 43.6926 70.2702 43.8555C70.3321 44.0604 70.4325 44.2241 70.5606 44.272C70.7126 44.3294 70.6767 44.0434 70.716 43.9113C70.8165 44.0278 70.7851 44.3166 70.9515 44.3291C71.0995 44.3402 71.1015 44.1331 71.1074 43.9683C71.2473 44.0219 71.1836 44.3083 71.3736 44.2885C71.5476 44.2701 71.5146 44.021 71.5931 43.8939C71.6908 44.0137 71.6538 44.3073 71.8287 44.3119C71.9588 44.3156 71.9807 44.1614 71.9856 44.0163C72.065 44.3073 72.215 44.4858 72.3836 44.431C72.4539 44.4082 72.5178 44.3136 72.5693 44.182C72.6002 43.8277 72.6283 43.4704 72.6543 43.1114C72.6122 42.9665 72.5368 42.87 72.4181 42.871Z" fill="#95A534"/>
<path fill-rule="evenodd" clip-rule="evenodd" d="M64.469 45.2359C65.7122 45.1919 67.1854 45.1355 68.5299 45.1568C68.372 40.8586 66.6784 38.2795 64.6128 35.9728C63.9016 35.1789 63.1935 34.3919 62.582 33.5098C62.5541 33.5041 62.5513 33.5233 62.5499 33.5426C62.5223 33.5376 62.5195 33.5557 62.5182 33.5762C62.1325 34.6054 62.0252 35.8566 62.1678 37.2553C62.2106 37.6774 62.243 38.1277 62.3545 38.4868C62.4987 38.9526 62.7866 39.3897 62.9986 39.8394C63.7078 41.3472 64.4556 42.9796 64.469 45.2359Z" fill="#687C15"/>
<mask id="mask0_11020_271" style="mask-type:luminance" maskUnits="userSpaceOnUse" x="62" y="33" width="7" height="13">
<path d="M64.469 45.2359C65.7122 45.1919 67.1854 45.1355 68.5299 45.1568C68.372 40.8586 66.6784 38.2795 64.6128 35.9728C63.9016 35.1789 63.1935 34.3919 62.582 33.5098C62.5541 33.5041 62.5513 33.5233 62.5499 33.5426C62.5223 33.5376 62.5195 33.5557 62.5182 33.5762C62.1325 34.6054 62.0252 35.8566 62.1678 37.2553C62.2106 37.6774 62.243 38.1277 62.3545 38.4868C62.4987 38.9526 62.7866 39.3897 62.9986 39.8394C63.7078 41.3472 64.4556 42.9796 64.469 45.2359Z" fill="white"/>
</mask>
<g mask="url(#mask0_11020_271)">
<path fill-rule="evenodd" clip-rule="evenodd" d="M62.647 33.5089C62.5943 33.5008 62.5915 33.5408 62.5499 33.5432C62.4173 33.8062 62.2658 34.1676 62.1888 34.6085C62.1223 34.9951 61.9028 35.5579 62.2002 35.7495C62.3378 35.8384 62.5065 35.6263 62.5232 35.4942C62.5943 35.5644 62.6975 35.6585 62.85 35.5852C62.9816 35.522 63.0298 35.3543 63.0035 35.1268C63.0867 35.199 63.3922 35.5671 63.6591 35.407C64.0909 35.1473 63.5244 34.6204 63.2797 34.3091C63.0388 34.0021 62.8341 33.7488 62.647 33.5089ZM62.8991 36.4289C62.8005 36.5058 62.7611 36.6363 62.7769 36.8218C62.6767 36.7378 62.5584 36.6869 62.4173 36.7308C61.5733 36.9946 62.7478 39.109 63.237 38.7627C63.4174 38.6353 63.3451 38.0906 63.2526 37.8848C63.4364 37.9979 64.2935 38.5496 64.2243 37.7355C64.391 37.8664 64.9239 38.263 65.1419 38.1081C65.2723 38.015 65.1689 37.8453 65.1441 37.6944C65.3911 37.8098 65.8412 38.3786 66.1174 38.1212C66.3759 37.8803 65.3512 36.6337 64.9178 36.617C64.8264 36.6133 64.7362 36.6552 64.7589 36.7831C64.581 36.605 64.1451 36.2408 63.8737 36.4103C63.7884 36.4633 63.7669 36.5837 63.7494 36.7049C63.5986 36.5565 63.2196 36.1799 62.8991 36.4289ZM65.0761 39.7339C64.521 39.354 64.1435 39.4991 64.0729 39.9486C63.883 39.7983 63.2734 39.3507 63.1278 39.8046C62.9634 40.3167 63.7028 41.2422 64.0639 41.1516C64.1606 41.1271 64.2582 41.0616 64.221 40.8877C64.4518 41.1378 65.0101 41.383 65.0978 40.8391C65.2538 41.1209 65.9543 41.4308 65.9086 40.7575C66.0796 40.8831 66.2906 41.3659 66.6967 41.1646C66.8274 41.1001 66.8882 40.9449 66.8833 40.7385C67.0046 40.9298 67.3135 41.4167 67.7049 41.2099C67.9765 41.0669 67.6969 40.577 67.5574 40.3025C67.3611 39.917 66.8876 39.2562 66.3375 39.4166C66.1828 39.4619 66.0779 39.6129 66.0859 39.844C65.435 39.1245 65.0555 39.4872 65.0761 39.7339ZM64.5003 43.5139C64.5576 43.5696 64.7019 43.5458 64.7269 43.477C64.8894 43.6951 64.9847 44.0095 65.288 43.9206C65.507 43.8565 65.6076 43.4692 65.5995 43.2327C65.6657 43.4602 65.8512 43.9008 66.1652 43.9031C66.4242 43.9052 66.5361 43.5883 66.6079 43.2779C66.7084 43.5327 67.05 44.2097 67.501 44.0719C67.6594 44.0243 67.7168 43.8105 67.7184 43.5485C67.8091 43.7227 67.9924 44.1568 68.3127 44.0237C68.8604 43.7972 68.3381 42.3845 67.856 42.2792C67.4691 42.1939 67.3033 42.4274 67.2139 42.6819C67.0919 42.3511 66.8171 41.7806 66.3539 41.9188C66.1989 41.9651 66.1371 42.183 66.0705 42.379C65.9876 42.1595 65.8688 41.977 65.6394 41.9331C65.2812 41.8646 65.1314 42.23 65.0008 42.5297C64.9418 42.2351 64.2404 41.3541 64.0805 41.9958C63.9554 42.4972 64.3102 43.2035 64.5003 43.5139Z" fill="#95A534"/>
</g>
<path fill-rule="evenodd" clip-rule="evenodd" d="M62.3586 38.5013C62.3133 37.8459 62.264 37.1986 62.2516 36.5707C62.2122 34.5554 62.8414 32.9766 63.1897 31.3525C63.6758 29.0841 63.8436 26.4621 63.4968 23.8065C63.4055 23.525 63.3072 23.9321 63.2766 24.1686C62.9464 26.7081 61.7625 28.5279 61.2292 30.806C60.9192 32.1277 60.8384 33.6402 61.1165 35.0334C61.3711 36.3071 61.9062 37.5087 62.3586 38.5013Z" fill="#525E0A"/>
<path d="M63.3039 25.5657C63.3703 25.6512 63.457 25.8509 63.5997 25.7224C63.6215 25.7027 63.6398 25.6788 63.6566 25.6531C63.6442 25.376 63.6275 25.098 63.6043 24.8188C63.5392 24.7322 63.4541 24.6784 63.352 24.6875C63.2871 24.6932 63.2254 24.7388 63.1716 24.8063C63.1265 25.0439 63.0741 25.28 63.0143 25.5143C63.0175 25.5226 63.0203 25.5316 63.0243 25.5392C63.0631 25.6136 63.1631 25.6016 63.3039 25.5657ZM62.5649 27.6598C62.4193 28.4809 63.0925 28.6175 63.2204 27.9396C63.2236 28.0712 63.2831 28.2716 63.4546 28.2926C63.5289 28.2771 63.5878 28.2121 63.6331 28.1185C63.6583 27.7259 63.673 27.3282 63.6777 26.9268C63.6464 26.8306 63.6049 26.7598 63.5544 26.7311C63.3511 26.6157 63.2291 26.7512 63.1343 26.869C63.1639 26.6076 63.1113 26.2115 62.8306 26.2898C62.8149 26.2942 62.799 26.3013 62.7832 26.31C62.6405 26.7551 62.4821 27.186 62.3194 27.6113C62.3556 27.6847 62.4691 27.7183 62.5649 27.6598ZM61.8347 30.2094C61.9677 30.2651 62.0853 30.1956 62.1585 30.1379C62.1669 30.4278 62.166 30.7268 62.3666 30.8164C62.4978 30.8863 62.5894 30.8318 62.69 30.7452C62.7111 31.0772 62.6419 31.503 62.8699 31.6187C62.9936 31.6508 63.1018 31.5436 63.1864 31.3672L63.1896 31.353C63.262 31.0155 63.3263 30.6694 63.3839 30.3174C63.3789 30.0932 63.3392 29.906 63.2572 29.8243C63.1454 29.713 62.9603 29.8256 62.8356 29.8646C62.8502 29.6286 62.8415 29.3998 62.6957 29.3481C62.5832 29.3075 62.484 29.3571 62.4036 29.386C62.397 29.0169 62.5356 28.4303 62.1899 28.4153C62.0859 28.4107 61.9693 28.5614 61.871 28.7775C61.8313 28.8831 61.7923 28.9892 61.7537 29.0954C61.6163 29.5578 61.5827 30.1041 61.8347 30.2094ZM62.4436 33.0902C62.4364 32.7691 62.5683 32.3862 62.3302 32.2801C62.0046 32.1335 61.899 32.4815 61.7525 32.6482C61.7499 32.1587 61.7119 31.5724 61.2785 31.6832C61.1714 31.7103 61.0809 31.854 61.0142 32.0547C60.9629 32.5066 60.9408 32.9613 60.9481 33.4161C60.9999 33.6226 61.0889 33.7788 61.2232 33.829C61.2074 34.121 61.2725 34.3297 61.3981 34.4756C61.4711 34.5209 61.5563 34.5541 61.6917 34.5349C61.5632 35.1097 62.0888 35.4685 62.3186 35.0101C62.2451 34.7232 62.3721 34.43 62.5031 34.1418C62.5647 33.8488 62.634 33.5626 62.7057 33.2801C62.6975 33.247 62.6865 33.2146 62.6727 33.1833C62.6414 33.1133 62.5722 33.0667 62.4436 33.0902Z" fill="#687C15"/>
<path fill-rule="evenodd" clip-rule="evenodd" d="M55.645 26.1383C56.3991 27.3152 57.0318 28.6745 57.6072 30.0976C58.5948 32.5375 58.7676 35.6424 59.5556 38.3141C59.8053 39.1611 60.1503 39.9563 60.5133 40.7331C61.2428 42.2955 61.9244 43.8048 62.7779 45.2055C63.3769 45.2229 63.9526 45.2648 64.5671 45.2673C64.6113 43.013 63.9322 41.1785 63.2187 39.4779C62.5185 37.8096 61.4884 36.3575 60.7859 34.7482C60.0378 33.0338 59.4312 31.3198 58.5765 29.7864C57.7078 28.2281 56.7785 26.7683 55.4716 25.5891C55.0772 25.2679 55.5431 25.9797 55.645 26.1383Z" fill="#687C15"/>
<path d="M57.0789 27.9945C57.1816 28.0384 57.2763 28.1281 57.4048 28.0532C57.436 28.02 57.4539 27.9845 57.466 27.9482C57.3342 27.7515 57.199 27.558 57.0594 27.3681C56.8474 27.2602 56.6038 27.22 56.448 27.3246C56.4225 27.3583 56.4051 27.3948 56.392 27.4326C56.5238 27.684 56.6509 27.9378 56.7732 28.194C56.8115 28.2113 56.8504 28.2227 56.8882 28.2261C56.9999 28.2357 57.0969 28.1502 57.0789 27.9945ZM56.2023 26.6798C56.2785 26.712 56.3481 26.7781 56.443 26.7231C56.4664 26.6982 56.4798 26.6714 56.4887 26.6442C56.3501 26.4804 56.2069 26.3205 56.0594 26.1647C55.94 26.1291 55.8206 26.1278 55.7362 26.1842C55.7242 26.2004 55.7139 26.2178 55.7054 26.2361C55.8311 26.4354 55.953 26.6404 56.0721 26.8494C56.15 26.8501 56.2152 26.7896 56.2023 26.6798ZM57.8623 29.8324C57.9635 29.7784 57.9742 29.621 57.9519 29.4404C58.0058 29.4874 58.1178 29.6364 58.2787 29.5314C58.3272 29.4996 58.3433 29.4379 58.337 29.3629C58.2304 29.1767 58.1217 28.9917 58.011 28.8079C57.9165 28.7316 57.8119 28.6847 57.7099 28.6973C57.6001 28.7114 57.5908 28.7956 57.5506 28.8631C57.4205 28.7735 57.1918 28.7202 57.129 28.9037C57.1246 28.9163 57.1224 28.9314 57.1199 28.9462C57.2424 29.2232 57.3615 29.5016 57.477 29.7816C57.5914 29.8714 57.7241 29.9054 57.8623 29.8324ZM58.9338 31.436C58.9868 31.476 59.1455 31.7464 59.3268 31.5907C59.3646 31.5582 59.3828 31.5001 59.3867 31.4292C59.2672 31.1613 59.143 30.8955 59.0142 30.6319C58.8987 30.542 58.7651 30.5029 58.6241 30.5644C58.5399 30.6013 58.4676 30.6687 58.4659 30.795C58.3622 30.7053 58.1964 30.5883 58.0417 30.7061C57.9508 30.7752 57.9222 30.883 57.9291 31.0015C57.968 31.1256 58.0048 31.2517 58.041 31.3781C58.0854 31.4673 58.1361 31.5456 58.1803 31.5977C58.3288 31.7726 58.9 32.0937 58.9338 31.436ZM58.6498 33.5218C58.7469 33.5543 58.8456 33.5187 58.8758 33.4523C59.0021 33.7383 59.5319 33.7534 59.4906 33.3104C59.658 33.5657 59.9528 34.2278 60.315 33.9114C60.3496 33.8811 60.3691 33.8372 60.3784 33.785C60.2062 33.37 60.037 32.9577 59.8672 32.5493C59.5879 32.2794 59.0487 32.1423 59.0235 32.7018C58.9348 32.5222 58.8263 32.3631 58.5631 32.4186C58.4513 32.442 58.3899 32.5414 58.365 32.6707C58.4188 32.9146 58.4699 33.1608 58.5191 33.4088C58.5585 33.4646 58.6026 33.506 58.6498 33.5218ZM59.4801 36.1053C59.5892 36.065 59.6485 35.9489 59.6692 35.8093C59.7908 36.0492 60.2761 36.7878 60.6235 36.408C60.7048 36.319 60.6764 36.0294 60.614 35.9207C60.7732 36.0634 61.0804 36.5405 61.3696 36.3284C61.4169 36.2937 61.438 36.1939 61.4356 36.0625C61.2281 35.6767 61.031 35.2868 60.8514 34.8885C60.7372 34.8485 60.6081 34.8602 60.4653 34.9485C60.2019 34.5516 59.8309 34.5573 59.6841 34.8989C59.4849 34.7832 59.1335 34.6378 58.9348 34.816C58.8824 34.863 58.8452 34.9267 58.8194 34.9994C58.8771 35.3118 58.9359 35.6238 58.9967 35.935C59.1199 36.0913 59.2865 36.1771 59.4801 36.1053ZM60.9995 39.2424C61.0926 39.4036 61.4662 39.9521 61.8585 39.8955C62.0797 39.864 62.1572 39.6602 62.1648 39.3256C62.2615 39.4696 62.5326 39.8804 62.9135 39.734C63.2664 39.1022 62.154 37.4536 61.585 38.5257C61.4504 38.1532 60.8364 37.5703 60.6278 38.2623C60.3846 38.0996 59.8892 37.6583 59.6361 38.0348C59.5836 38.1126 59.5603 38.2113 59.5581 38.3215C59.6511 38.6336 59.756 38.9421 59.8726 39.2462C60.2825 39.9047 60.9512 40.3334 60.9995 39.2424ZM62.1899 41.7072C62.4034 42.0371 63.1731 42.785 63.1655 41.7532C63.2681 41.7981 63.8506 42.6078 63.9836 42.0296C64.0792 41.6139 63.642 41.0134 63.4709 40.7401C63.1072 40.588 62.6807 40.7395 62.6655 41.1132C62.4937 40.8199 62.0907 40.6585 61.8187 41.0323C61.5499 40.6891 60.9543 40.2324 60.6153 40.5519C60.561 40.6031 60.5365 40.6833 60.5356 40.7811C60.7061 41.1464 60.8741 41.5088 61.0425 41.8676C61.4257 42.2979 61.9287 42.4824 62.1899 41.7072ZM63.7855 43.5275C63.6572 43.5514 63.572 43.6077 63.563 43.7916C63.4876 43.5816 63.1561 43.1008 62.9059 43.4144C62.7683 43.5866 62.9249 43.8621 62.9831 44.0306C62.8489 43.8081 62.6394 43.4565 62.3251 43.6531C62.12 43.7821 62.2266 44.1705 62.384 44.5273C62.5112 44.7556 62.6427 44.9816 62.7782 45.2051C63.3648 45.2222 63.9297 45.2622 64.53 45.2662C64.5437 45.2613 64.5552 45.2546 64.5673 45.2486C64.5724 44.9439 64.5644 44.6392 64.5431 44.3353C64.4098 43.8647 64.1328 43.4632 63.7855 43.5275Z" fill="#525E0A"/>
<path fill-rule="evenodd" clip-rule="evenodd" d="M61.6189 46.3812C61.6307 45.9226 61.6132 45.3051 61.8953 45.1427C61.9994 45.0833 62.203 45.0598 62.4363 45.0497L62.4361 45.0473L62.5911 45.0442H62.5939L72.891 44.8425V44.8431C73.0863 44.8374 73.2774 44.8377 73.4607 44.8562C74.0517 44.9152 74.0287 45.3836 74.0246 46.0169C74.0197 46.5779 74.1058 47.2242 73.7816 47.4346C73.514 47.6064 72.8221 47.5731 72.8221 47.5731C72.6673 49.6878 72.4347 51.8471 72.257 54.0158C72.2043 54.659 72.2072 55.7621 71.9068 56.0358C71.6218 56.2956 64.2685 56.4637 63.9761 56.2207C63.7797 56.058 63.7663 55.7281 63.7176 55.2942C63.4335 52.7738 63.1337 50.2553 62.8181 47.7387C62.4087 47.7239 62.0941 47.7705 61.8849 47.6367C61.6032 47.4583 61.6091 46.8133 61.6189 46.3812Z" fill="#ED500A"/>
<path fill-rule="evenodd" clip-rule="evenodd" d="M62.8184 47.7389L72.7721 48.2272L72.8228 47.5732L62.8184 47.7389Z" fill="#C6360A"/>
<path fill-rule="evenodd" clip-rule="evenodd" d="M64.4531 51.5499C64.9757 51.3143 64.9239 50.7023 64.9678 50.3026C65.0123 49.8962 65.2184 49.3422 64.8223 48.9825C64.6685 48.9726 64.4703 49.0308 64.3448 49.3119C64.0852 49.8929 63.976 51.2278 64.4531 51.5499ZM64.5981 53.7511C64.8957 53.6827 64.9851 53.234 65.0388 52.8706C65.0889 52.5316 65.2223 51.9857 64.8562 51.8804C64.4421 52.1065 64.1796 53.4464 64.5981 53.7511Z" fill="white"/>
</g>
<defs>
<clipPath id="clip0_11020_271">
<rect width="75" height="75" fill="white" transform="translate(0 0.648438)"/>
</clipPath>
</defs>
</svg>
