<svg width="75" height="76" viewBox="0 0 75 76" fill="none" xmlns="http://www.w3.org/2000/svg">
<path d="M26.0742 35.2754C26.0742 35.2754 19.3462 36.875 17.7349 39.6699C16.1235 42.4648 15.2168 66.7124 15.2168 66.7124C15.2168 66.7124 18.293 68.0439 21.2388 67.4126L26.0742 35.2754Z" fill="#D89071"/>
<path d="M27.9141 34.8438C27.9141 34.8438 19.7549 36.3086 17.7935 39.0112C15.832 41.7139 15.5054 55.0615 15.5054 55.0615C15.5054 55.0615 18.9141 56.0415 22.4121 55.4336L27.9141 34.8438Z" fill="#FFF3E3"/>
<path d="M17.0141 31.8127L17.3672 30.7097C17.3891 30.6497 17.429 30.5979 17.4814 30.5613C17.5338 30.5247 17.5962 30.505 17.6601 30.505C17.724 30.505 17.7864 30.5247 17.8388 30.5613C17.8912 30.5979 17.9311 30.6497 17.9531 30.7097L18.3296 31.8098C18.3447 31.8543 18.3697 31.8948 18.4027 31.9283C18.4356 31.9618 18.4757 31.9874 18.52 32.0032L19.497 32.3547C19.5616 32.3777 19.6169 32.4213 19.6542 32.4789C19.6915 32.5364 19.7088 32.6046 19.7035 32.673C19.6982 32.7413 19.6705 32.806 19.6247 32.8571C19.5789 32.9081 19.5176 32.9426 19.4502 32.9553L18.539 33.1296C18.4819 33.1403 18.4289 33.1668 18.3861 33.2062C18.3434 33.2456 18.3126 33.2962 18.2973 33.3523L17.9663 34.5242C17.9478 34.5906 17.9078 34.649 17.8526 34.6904C17.7974 34.7317 17.7301 34.7536 17.6611 34.7525C17.5922 34.7515 17.5255 34.7277 17.4715 34.6848C17.4175 34.6419 17.3793 34.5823 17.3628 34.5154L17.0698 33.3289C17.0551 33.2699 17.0236 33.2166 16.9791 33.1752C16.9346 33.1339 16.8791 33.1063 16.8193 33.0959L15.9214 32.9495C15.8535 32.9371 15.7915 32.9028 15.7452 32.8517C15.6988 32.8005 15.6706 32.7356 15.6649 32.6668C15.6593 32.598 15.6764 32.5293 15.7138 32.4713C15.7512 32.4133 15.8066 32.3692 15.8716 32.3459L16.8149 32.0193C16.8623 32.0034 16.9051 31.9764 16.9398 31.9404C16.9745 31.9044 17 31.8607 17.0141 31.8127ZM48.1216 60.9558L48.4746 59.8528C48.495 59.7902 48.5347 59.7357 48.588 59.697C48.6412 59.6583 48.7054 59.6375 48.7712 59.6375C48.837 59.6375 48.9012 59.6583 48.9545 59.697C49.0077 59.7357 49.0474 59.7902 49.0678 59.8528L49.4443 60.9529C49.4594 60.9974 49.4844 61.0379 49.5174 61.0713C49.5504 61.1048 49.5905 61.1304 49.6347 61.1462L50.6133 61.4978C50.6778 61.5209 50.733 61.5647 50.7703 61.6223C50.8075 61.6799 50.8247 61.7482 50.8192 61.8166C50.8137 61.885 50.7858 61.9497 50.7398 62.0006C50.6938 62.0515 50.6324 62.0859 50.5649 62.0984L49.6582 62.2668C49.601 62.2775 49.548 62.304 49.5053 62.3434C49.4625 62.3828 49.4318 62.4334 49.4165 62.4895L49.0854 63.6614C49.0669 63.7278 49.027 63.7863 48.9718 63.8276C48.9166 63.8689 48.8492 63.8908 48.7803 63.8898C48.7113 63.8888 48.6446 63.8649 48.5907 63.822C48.5367 63.7791 48.4984 63.7195 48.4819 63.6526L48.1889 62.4661C48.1742 62.4072 48.1427 62.3538 48.0983 62.3124C48.0538 62.2711 47.9983 62.2435 47.9384 62.2332L47.0405 62.0867C46.9726 62.0743 46.9107 62.04 46.8643 61.9889C46.818 61.9378 46.7898 61.8728 46.7841 61.804C46.7784 61.7352 46.7956 61.6665 46.8329 61.6085C46.8703 61.5505 46.9257 61.5064 46.9907 61.4832L47.9341 61.1565C47.9786 61.1397 48.0187 61.1128 48.0512 61.078C48.0837 61.0432 48.1078 61.0014 48.1216 60.9558ZM57.0234 27.2307C57.1836 26.7297 57.3437 26.2292 57.5039 25.7292C57.5313 25.6441 57.5848 25.5698 57.6567 25.5167C57.7287 25.4637 57.8156 25.4346 57.905 25.4336C57.9944 25.4326 58.0819 25.4598 58.155 25.5113C58.2281 25.5628 58.2832 25.6359 58.3125 25.7205C58.4843 26.2195 58.6552 26.7195 58.8252 27.2205C58.846 27.2808 58.8801 27.3357 58.925 27.381C58.9699 27.4264 59.0244 27.4612 59.0844 27.4827L60.4175 27.9631C60.505 27.9951 60.5796 28.0548 60.63 28.1331C60.6803 28.2115 60.7037 28.3042 60.6963 28.397C60.689 28.4899 60.6515 28.5778 60.5895 28.6473C60.5275 28.7169 60.4444 28.7641 60.353 28.782L59.1108 29.0193C59.033 29.034 58.9609 29.0701 58.9026 29.1237C58.8444 29.1773 58.8023 29.2462 58.7812 29.3225L58.3301 30.9338C58.3043 31.024 58.2495 31.1032 58.1741 31.159C58.0988 31.2149 58.0072 31.2444 57.9134 31.2429C57.8196 31.2414 57.7289 31.209 57.6554 31.1507C57.5819 31.0925 57.5297 31.0116 57.5068 30.9207C57.374 30.3816 57.2402 29.8445 57.1054 29.3093C57.0853 29.2292 57.0424 29.1566 56.9818 29.1004C56.9212 29.0443 56.8456 29.0069 56.7641 28.9929L55.5395 28.7732C55.4468 28.7568 55.3621 28.7101 55.2987 28.6405C55.2352 28.5708 55.1967 28.4822 55.189 28.3883C55.1813 28.2944 55.2049 28.2006 55.2561 28.1216C55.3073 28.0426 55.3833 27.9827 55.4721 27.9514L56.7568 27.512C56.8203 27.4895 56.8776 27.4523 56.9239 27.4034C56.9703 27.3545 57.0044 27.2953 57.0234 27.2307Z" fill="#FFB833"/>
<path d="M41.5928 21.843C41.707 21.7302 42.3369 21.1384 43.2378 21.2043C43.3696 21.2131 43.894 21.2527 44.2485 21.5837C45.1655 22.4407 44.814 25.1506 43.2305 25.8464C42.3442 26.2346 41.4038 25.8464 41.0859 25.6999L41.5928 21.843Z" fill="#D17352"/>
<path d="M42.5976 25.003C42.5902 25.003 42.5828 25.0015 42.576 24.9985C42.5692 24.9954 42.5631 24.991 42.5581 24.9854C42.548 24.975 42.5423 24.9611 42.5423 24.9466C42.5423 24.9321 42.548 24.9182 42.5581 24.9078C42.9258 24.5533 43.0942 24.1885 43.0561 23.8267C42.9887 23.1968 42.3237 22.7735 42.3134 22.7691C42.3032 22.7626 42.2954 22.7529 42.2912 22.7416C42.2869 22.7302 42.2865 22.7177 42.29 22.7061C42.2938 22.6946 42.3014 22.6846 42.3114 22.6777C42.3215 22.6708 42.3335 22.6674 42.3457 22.668L43.8735 22.7384C43.8815 22.737 43.8896 22.7375 43.8974 22.7396C43.9052 22.7418 43.9124 22.7456 43.9185 22.7509C43.9247 22.7561 43.9296 22.7626 43.933 22.7699C43.9364 22.7772 43.9382 22.7852 43.9382 22.7933C43.9382 22.8014 43.9364 22.8093 43.933 22.8167C43.9296 22.824 43.9247 22.8305 43.9185 22.8357C43.9124 22.8409 43.9052 22.8448 43.8974 22.8469C43.8896 22.8491 43.8815 22.8495 43.8735 22.8482L42.5288 22.7852C42.7441 22.9581 43.1147 23.3228 43.1689 23.8106C43.2114 24.2076 43.0327 24.6031 42.6386 24.9825C42.6337 24.9886 42.6274 24.9936 42.6203 24.9972C42.6133 25.0007 42.6055 25.0027 42.5976 25.003Z" fill="#383333"/>
<path d="M22.8691 21.843C22.7534 21.7302 22.1235 21.1384 21.2227 21.2043C21.0908 21.2131 20.5664 21.2527 20.2119 21.5837C19.2949 22.4407 19.6465 25.1506 21.2373 25.8464C22.1162 26.2346 23.0625 25.8464 23.3804 25.6999L22.8691 21.843Z" fill="#D17352"/>
<path d="M21.8628 25.0027C21.8485 25.0024 21.8349 24.9967 21.8247 24.9866C21.4307 24.6072 21.252 24.2117 21.2945 23.8147C21.3472 23.324 21.7193 22.9593 21.9361 22.7893L20.5899 22.8523C20.5753 22.8527 20.5612 22.8474 20.5506 22.8376C20.5399 22.8277 20.5335 22.8141 20.5327 22.7996C20.5323 22.7924 20.5334 22.7851 20.5359 22.7783C20.5383 22.7715 20.5421 22.7652 20.547 22.7599C20.5519 22.7546 20.5579 22.7503 20.5645 22.7473C20.5711 22.7443 20.5782 22.7427 20.5855 22.7425L22.1133 22.6722C22.1257 22.6709 22.1381 22.6739 22.1485 22.6807C22.1589 22.6876 22.1667 22.6978 22.1704 22.7096C22.1742 22.7215 22.1738 22.7343 22.1693 22.7458C22.1647 22.7574 22.1564 22.7671 22.1455 22.7732C22.1382 22.7732 21.4702 23.201 21.4043 23.8308C21.3648 24.1927 21.5332 24.5633 21.9009 24.9119C21.9061 24.917 21.9102 24.923 21.913 24.9297C21.9158 24.9363 21.9173 24.9435 21.9173 24.9507C21.9173 24.958 21.9158 24.9651 21.913 24.9718C21.9102 24.9785 21.9061 24.9845 21.9009 24.9895C21.8904 24.9988 21.8768 25.0035 21.8628 25.0027Z" fill="#383333"/>
<path d="M32.1621 30.998C38.1019 30.998 42.917 26.1829 42.917 20.2432C42.917 14.3034 38.1019 9.48828 32.1621 9.48828C26.2224 9.48828 21.4072 14.3034 21.4072 20.2432C21.4072 26.1829 26.2224 30.998 32.1621 30.998Z" fill="#D89071"/>
<path d="M42.9199 21.2701C42.0908 26.6665 38.9751 30.9571 34.7344 32.2256C33.0812 32.7236 31.3219 32.7505 29.6543 32.3033C25.4707 31.1431 22.3389 26.8936 21.5728 21.4751C22.125 15.5411 27.2622 11.1568 32.8623 11.4688C37.9717 11.7515 42.334 15.8824 42.9199 21.2701Z" fill="#D89071"/>
<path d="M34.8018 30.0796C34.8018 30.0796 34.7651 33.7666 35.6807 34.8492C36.5962 35.9317 42.8145 35.8101 43.9365 39.3682C45.0586 42.9263 41.5225 54.6026 43.1426 67.8741C43.1426 67.8741 27.7617 72.7784 21.2007 67.8741C21.2007 67.8741 22.8472 59.1729 22.6773 53.7896C22.5073 48.4063 19.7754 39.3682 21.9917 37.4449C24.208 35.5215 27.8584 35.3296 28.8838 34.0757C29.9092 32.8218 29.4434 29.5274 29.4434 29.5274C29.4434 29.5274 33.312 28.0992 34.8018 30.0796Z" fill="#D89071"/>
<path d="M35.5078 33.6328C35.5078 33.6328 30.8203 34.2407 28.4561 33.3516C28.3671 33.5777 28.2552 33.7942 28.1221 33.9976C27.869 34.371 27.5246 34.6736 27.1216 34.8765C25.9717 35.5151 23.7876 36.1392 22.8735 36.4878C22.8735 36.4878 21.334 37.084 19.7197 38.7847C16.3008 42.3896 21.5464 50.1973 20.8682 61.3242C20.7375 63.444 20.4397 65.5501 19.9775 67.623C23.7684 69.8341 28.0709 71.0167 32.4593 71.0537C36.8476 71.0907 41.1695 69.9808 44.9971 67.834C44.2285 65.6084 43.7404 63.2956 43.544 60.9492C43.0664 55.0459 44.5313 49.3872 44.48 42.397C44.4697 41.1987 44.4053 38.5708 42.6987 37.3535C42.4805 37.1982 42.1436 37.0796 41.4844 36.8042C40.6157 36.4424 36.9844 35.3877 36.375 34.8999C35.9835 34.5576 35.6851 34.1217 35.5078 33.6328Z" fill="#FFF3E3"/>
<path d="M38.4844 20.6373C37.8862 20.2081 37.1698 19.9747 36.4336 19.9693C35.9355 19.9576 35.2617 19.94 35.0566 20.3297C35.0098 20.4142 34.9864 20.5096 34.9887 20.6061C34.991 20.7027 35.019 20.7969 35.0698 20.879C35.3027 21.191 35.8887 20.9083 36.8276 20.901C38.0742 20.8893 38.8857 21.3609 38.9678 21.1822C39.041 21.0533 38.6411 20.7545 38.4844 20.6373ZM25.7358 20.7164C26.3386 20.3013 27.0548 20.0824 27.7866 20.0895C28.2847 20.0895 28.9585 20.0895 29.1562 20.4776C29.2013 20.5628 29.2228 20.6585 29.2187 20.7547C29.2146 20.851 29.1849 20.9444 29.1328 21.0255C28.894 21.3331 28.314 21.0401 27.3662 21.0123C26.1211 20.9771 25.3008 21.4327 25.2231 21.2525C25.1704 21.1266 25.5762 20.8365 25.7358 20.7164ZM31.6069 24.5001C31.3389 24.5001 31.1059 24.4825 31.0107 24.4752C30.9913 24.4736 30.9733 24.4644 30.9607 24.4496C30.948 24.4348 30.9418 24.4155 30.9434 24.3961C30.9449 24.3767 30.9541 24.3587 30.9689 24.346C30.9838 24.3334 31.003 24.3272 31.0225 24.3287C31.6523 24.3814 32.5825 24.3521 32.6792 24.1192C32.7876 23.86 32.3013 22.5445 31.9702 21.7755C31.9648 21.7665 31.9613 21.7565 31.9601 21.7461C31.9588 21.7357 31.9598 21.7251 31.963 21.7151C31.9662 21.7051 31.9716 21.6959 31.9786 21.6882C31.9857 21.6804 31.9943 21.6743 32.0039 21.6701C32.0136 21.666 32.024 21.664 32.0345 21.6642C32.045 21.6645 32.0553 21.667 32.0647 21.6715C32.0742 21.6761 32.0825 21.6827 32.0892 21.6907C32.0959 21.6988 32.1008 21.7082 32.1035 21.7184C32.1943 21.9278 32.9824 23.7691 32.8154 24.1764C32.7041 24.443 32.0962 24.5001 31.6069 24.5001ZM32.1929 29.0851C31.9285 29.0836 31.6662 29.0386 31.4165 28.9518C31.4097 28.9493 31.4035 28.9455 31.3982 28.9407C31.3929 28.9358 31.3886 28.9299 31.3856 28.9234C31.3826 28.9168 31.381 28.9097 31.3807 28.9025C31.3805 28.8953 31.3817 28.8882 31.3843 28.8814C31.3895 28.868 31.3998 28.8571 31.4129 28.8511C31.426 28.8451 31.441 28.8444 31.4546 28.8492C31.4634 28.8492 32.2309 29.1334 32.8418 28.8404C32.8484 28.836 32.856 28.833 32.8639 28.8317C32.8718 28.8305 32.8799 28.8309 32.8876 28.8331C32.8953 28.8352 32.9025 28.839 32.9086 28.8442C32.9147 28.8493 32.9197 28.8558 32.9231 28.863C32.9265 28.8703 32.9283 28.8781 32.9284 28.8862C32.9285 28.8942 32.9268 28.9021 32.9235 28.9094C32.9203 28.9167 32.9155 28.9233 32.9094 28.9285C32.9034 28.9338 32.8963 28.9377 32.8887 28.94C32.6703 29.0392 32.4327 29.0887 32.1929 29.0851Z" fill="#383333"/>
<path d="M26.2207 27.4834C26.9836 27.4834 27.6021 27.0984 27.6021 26.6235C27.6021 26.1486 26.9836 25.7637 26.2207 25.7637C25.4578 25.7637 24.8394 26.1486 24.8394 26.6235C24.8394 27.0984 25.4578 27.4834 26.2207 27.4834Z" fill="#D17352"/>
<path d="M36.5596 27.6602C37.3225 27.6602 37.9409 27.2752 37.9409 26.8003C37.9409 26.3254 37.3225 25.9404 36.5596 25.9404C35.7967 25.9404 35.1782 26.3254 35.1782 26.8003C35.1782 27.2752 35.7967 27.6602 36.5596 27.6602Z" fill="#D17352"/>
<path fill-rule="evenodd" clip-rule="evenodd" d="M37.207 23.9791C37.0811 24.1224 36.9154 24.2251 36.7311 24.2742C36.5467 24.3233 36.3519 24.3166 36.1714 24.2549C35.9909 24.1932 35.8327 24.0793 35.7169 23.9276C35.6012 23.776 35.533 23.5934 35.5211 23.403C35.5092 23.2125 35.554 23.0229 35.65 22.858C35.746 22.6931 35.8887 22.5604 36.0601 22.4767C36.2316 22.3929 36.424 22.362 36.6131 22.3877C36.8021 22.4134 36.9793 22.4947 37.1221 22.6212C37.3123 22.7907 37.428 23.0284 37.4439 23.2827C37.4598 23.5369 37.3747 23.7872 37.207 23.9791ZM28.6289 24.0626C28.4864 24.1887 28.3096 24.2698 28.1209 24.2955C27.9323 24.3211 27.7403 24.2903 27.5692 24.2068C27.3981 24.1233 27.2556 23.991 27.1597 23.8265C27.0638 23.662 27.0189 23.4728 27.0306 23.2828C27.0422 23.0928 27.11 22.9105 27.2253 22.759C27.3406 22.6075 27.4983 22.4936 27.6783 22.4317C27.8583 22.3698 28.0527 22.3627 28.2368 22.4113C28.4208 22.4599 28.5864 22.562 28.7124 22.7047C28.8802 22.8964 28.9656 23.1465 28.9499 23.4008C28.9343 23.6551 28.8189 23.8929 28.6289 24.0626Z" fill="#383333"/>
<path d="M30.0293 26.6953C31.4221 27.0575 32.8845 27.0575 34.2773 26.6953C34.1532 27.1639 33.8776 27.5783 33.4934 27.874C33.1093 28.1697 32.6381 28.33 32.1533 28.33C31.6685 28.33 31.1974 28.1697 30.8132 27.874C30.429 27.5783 30.1534 27.1639 30.0293 26.6953Z" fill="white"/>
<path d="M38.4038 36.3579C41.4419 36.0445 43.3843 36.7403 44.5474 37.3687C46.9541 38.6665 47.77 40.4815 51.2271 44.6475C52.4904 46.1714 53.8096 47.648 55.1821 49.0742L50.3906 53.9243C48.6542 53.1403 47.0228 52.1418 45.5347 50.9522C44.1914 49.8755 42.0366 48.1177 40.4224 45.1382C38.5254 41.6387 38.3423 38.249 38.4038 36.3579Z" fill="#FFF3E3"/>
<path d="M32.0142 32.7039C31.1006 32.717 30.1926 32.56 29.3364 32.241C29.3275 32.2375 29.3193 32.2322 29.3124 32.2255C29.3055 32.2188 29.3 32.2108 29.2962 32.2019C29.2924 32.1931 29.2904 32.1836 29.2902 32.1739C29.2901 32.1643 29.2919 32.1548 29.2954 32.1458C29.299 32.1369 29.3043 32.1287 29.311 32.1218C29.3177 32.1149 29.3257 32.1094 29.3345 32.1056C29.3434 32.1018 29.3529 32.0998 29.3625 32.0996C29.3721 32.0995 29.3817 32.1012 29.3906 32.1048C31.897 33.0877 34.8208 32.1663 34.8501 32.1575C34.8686 32.1515 34.8886 32.1531 34.9059 32.1619C34.9232 32.1707 34.9364 32.186 34.9424 32.2044C34.9479 32.2231 34.946 32.2431 34.937 32.2604C34.9279 32.2776 34.9125 32.2906 34.894 32.2967C33.9575 32.5648 32.9883 32.7018 32.0142 32.7039Z" fill="#383333"/>
<path d="M48.085 37.8208C47.7629 41.1344 47.8569 44.4753 48.3647 47.7656C49.2261 53.2925 50.6001 54.2109 51.3179 54.5039C52.0649 54.8101 53.0874 54.8188 53.7627 54.4512C56.4375 53.0024 55.9175 46.0034 51.3179 36.2871L48.085 37.8208Z" fill="#D89071"/>
<path d="M52.262 16.7454L52.2605 16.7451C51.7585 16.6254 51.2544 16.9353 51.1347 17.4374L44.2026 46.5126C44.0829 47.0147 44.3929 47.5187 44.895 47.6384L44.8964 47.6388C45.3985 47.7585 45.9025 47.4485 46.0222 46.9464L52.9543 17.8712C53.074 17.3692 52.764 16.8651 52.262 16.7454Z" fill="#FF1A26"/>
<path d="M46.8149 12.3925C46.6224 13.1973 46.5904 14.0323 46.7207 14.8495C46.8511 15.6667 47.1412 16.4503 47.5744 17.1554C48.0077 17.8605 48.5757 18.4733 49.2459 18.9587C49.9161 19.4442 50.6754 19.7929 51.4804 19.9848C52.2856 20.1779 53.121 20.2104 53.9387 20.0804C54.7565 19.9504 55.5406 19.6604 56.2461 19.2271C56.9517 18.7937 57.5649 18.2256 58.0507 17.555C58.5365 16.8845 58.8853 16.1247 59.0771 15.3192L59.3701 14.0814C59.3817 14.0351 59.3839 13.9869 59.3768 13.9396C59.3696 13.8924 59.3532 13.847 59.3284 13.8061C59.3036 13.7653 59.271 13.7297 59.2324 13.7016C59.1938 13.6734 59.15 13.6531 59.1035 13.642L47.5693 10.8925C47.4701 10.8687 47.3654 10.8852 47.2783 10.9385C47.1913 10.9918 47.1289 11.0774 47.105 11.1766L46.8149 12.3925Z" fill="#FF832F"/>
<path d="M52.3566 19.791L50.8021 19.4204C50.5793 19.3673 50.3558 19.5048 50.3027 19.7275L50.197 20.1706C50.1439 20.3933 50.2814 20.6169 50.5041 20.67L52.0587 21.0406C52.2814 21.0937 52.505 20.9562 52.5581 20.7335L52.6637 20.2904C52.7168 20.0677 52.5793 19.8441 52.3566 19.791Z" fill="#FFB833"/>
<path d="M59.5979 13.1662L47.3337 10.2422C47.0079 10.1645 46.6809 10.3657 46.6032 10.6915C46.5255 11.0173 46.7267 11.3444 47.0525 11.422L59.3166 14.346C59.6424 14.4237 59.9695 14.2226 60.0472 13.8968C60.1248 13.571 59.9237 13.2439 59.5979 13.1662Z" fill="#FFB833"/>
<path d="M23.9941 35.7947C24.1172 36.5271 24.3223 37.5892 24.6577 38.8592C25.1982 40.91 25.4678 41.9266 26.0112 42.5008C27.0469 43.595 28.585 43.5877 31.6611 43.576C34.5029 43.5643 35.9238 43.5584 36.7969 42.8743C39.1992 40.9949 39.0571 35.9764 39.0571 35.9764C39.0571 35.9764 40.6011 36.0628 40.9863 36.3323C40.9863 36.3323 41.1841 48.0423 43.8633 51.9666L45.5273 68.1341C45.5273 68.1341 32.0801 75.804 19.522 67.5804L21.1333 51.0921C21.1333 51.0921 23.2017 45.2327 21.854 36.511C21.8496 36.511 22.8882 35.7405 23.9941 35.7947Z" fill="#00CCC1"/>
<path d="M25.3418 48.0371C27.6533 48.3763 29.9869 48.5427 32.3232 48.5352C34.5588 48.5285 36.791 48.3621 39.0029 48.0371C39.5961 49.8695 39.8406 51.7968 39.7236 53.7192C39.6137 55.4228 39.5244 56.8174 38.5224 57.96C37.4018 59.2402 35.7949 59.4526 34.2026 59.6401C32.6909 59.8188 27.6855 60.4136 25.6435 57.4839C24.7368 56.1802 24.747 54.6479 24.7646 52.3569C24.7735 50.8984 24.9674 49.4468 25.3418 48.0371Z" fill="#AAEEEA"/>
<path d="M48.353 39.4666C47.9936 39.2965 47.6781 39.0459 47.4312 38.7342C47.1843 38.4225 47.0125 38.058 46.9292 37.6692C46.6186 36.3128 45.3647 34.8201 46.6245 34.4466C46.6245 34.4466 46.251 33.2556 47.064 33.2337C47.064 33.2337 46.5044 32.0427 47.3906 31.9021C47.3906 31.9021 46.7432 30.9104 47.896 30.9514C49.0488 30.9924 50.4023 31.8084 50.9868 32.7664C51.5713 33.7244 51.8013 37.3352 51.8013 37.3352C51.8013 37.3352 50.8066 39.6131 48.353 39.4666Z" fill="#D89071"/>
<path d="M20.5884 21.3468C20.6426 21.3243 20.7008 21.3129 20.7595 21.3133C20.8183 21.3138 20.8763 21.3259 20.9302 21.3491C20.9842 21.3723 21.0329 21.4061 21.0736 21.4485C21.1142 21.4909 21.146 21.541 21.167 21.5958C21.3545 22.0162 21.646 24.1022 22.4853 23.607C23.3247 23.1119 22.1001 20.7667 22.4853 19.5758C22.8706 18.3849 23.7319 17.525 23.8608 15.6793C23.9897 13.8336 23.9209 13.3077 24.5859 13.1686C25.251 13.0294 27.6621 14.569 30.7485 14.8487C33.8349 15.1285 31.7988 13.1598 31.7988 13.1598C31.7988 13.1598 33.8027 15.1637 35.6543 14.9176C37.5058 14.6715 35.3716 13.1598 35.3716 13.1598C35.3716 13.1598 36.9287 14.7433 39.126 15.0245C41.3232 15.3058 41.1138 19.545 41.6279 20.4591C42.1421 21.3732 41.4053 23.0138 42.1479 23.1339C42.8906 23.254 43.1733 21.6544 43.3608 21.4083C43.4169 21.3408 43.4955 21.2957 43.5822 21.2815C43.6688 21.2672 43.7577 21.2847 43.8325 21.3307C43.8823 20.2159 43.9629 15.6544 40.6245 12.152C39.5655 11.0533 38.2954 10.1799 36.8906 9.58409C33.1318 7.99473 27.0996 7.89952 23.3496 11.9659C19.9482 15.6559 20.4858 20.5397 20.5884 21.3468Z" fill="#383333"/>
<path d="M20.9985 16.1333C24.2812 16.3545 27.8232 16.4702 31.5908 16.4263C35.6763 16.3765 39.501 16.1421 43.0063 15.7964C42.9448 14.5029 42.6211 11.9395 40.8003 9.59717C38.0171 6.0083 33.1831 4.83643 29.2793 5.78857C27.3298 6.26795 25.5493 7.27321 24.1318 8.69482C21.2622 11.6025 21.0293 15.209 20.9985 16.1333Z" fill="#00CCC1"/>
<path d="M22.5586 16.1754C22.6925 16.4998 22.8542 16.812 23.042 17.1085C23.3703 17.604 23.7612 18.055 24.2051 18.4503C25.4985 19.5694 30.0645 18.8575 34.0796 18.7667C37.5952 18.6847 39.46 19.1095 40.4971 17.7779C40.8787 17.2503 41.0838 16.6156 41.083 15.9644C39.0986 14.9517 36.9578 14.2802 34.7505 13.9781C29.0039 13.2018 24.4629 15.1969 22.5586 16.1754Z" fill="#00CCC1"/>
<path d="M22.5586 16.2536C22.5392 16.2579 22.5189 16.2543 22.5021 16.2436C22.4854 16.2328 22.4735 16.2159 22.4693 16.1965C22.465 16.1771 22.4686 16.1567 22.4793 16.14C22.49 16.1232 22.507 16.1114 22.5264 16.1071C24.5792 15.1709 26.7373 14.4853 28.9541 14.0651C32.3233 13.4265 37.1748 13.2287 41.1299 15.902C41.1391 15.9068 41.1471 15.9135 41.1536 15.9216C41.16 15.9298 41.1646 15.9392 41.1671 15.9492C41.1696 15.9592 41.17 15.9697 41.1681 15.9799C41.1663 15.9901 41.1624 15.9998 41.1565 16.0083C41.1507 16.0168 41.1431 16.0241 41.1343 16.0295C41.1255 16.0349 41.1156 16.0383 41.1053 16.0396C41.0951 16.041 41.0846 16.0401 41.0747 16.0371C41.0648 16.034 41.0557 16.029 41.0479 16.0222C38.8887 14.5573 35.042 13.0632 28.982 14.2087C26.7782 14.6274 24.6326 15.3085 22.5908 16.2375C22.5819 16.2459 22.5707 16.2515 22.5586 16.2536ZM48.5611 32.4123C48.5513 32.4127 48.5416 32.4101 48.5332 32.405C48.1629 32.2216 47.7771 32.0711 47.3804 31.9553C47.3664 31.9509 47.3547 31.9413 47.3476 31.9284C47.3405 31.9156 47.3386 31.9006 47.3423 31.8864C47.3467 31.8725 47.3564 31.8609 47.3692 31.854C47.3821 31.8472 47.3972 31.8457 47.4112 31.8498C47.8149 31.968 48.2071 32.1225 48.583 32.3112C48.5934 32.3172 48.6015 32.3265 48.606 32.3376C48.6105 32.3487 48.6113 32.3609 48.6081 32.3725C48.6049 32.384 48.598 32.3942 48.5884 32.4014C48.5789 32.4086 48.5672 32.4124 48.5552 32.4123H48.5611ZM47.9781 33.8713C47.9702 33.8715 47.9624 33.8698 47.9553 33.8665C47.9482 33.8632 47.942 33.8583 47.937 33.8522C47.6889 33.598 47.3857 33.4041 47.0508 33.2854C47.044 33.283 47.0377 33.2794 47.0322 33.2747C47.0268 33.2699 47.0224 33.2642 47.0192 33.2577C47.016 33.2512 47.0141 33.2442 47.0136 33.237C47.0131 33.2298 47.0141 33.2226 47.0164 33.2158C47.0187 33.2089 47.0223 33.2026 47.0271 33.1972C47.0318 33.1918 47.0376 33.1873 47.044 33.1841C47.0505 33.181 47.0575 33.1791 47.0647 33.1786C47.0719 33.1781 47.0791 33.179 47.086 33.1813C47.4399 33.3062 47.7599 33.5118 48.0205 33.7819C48.0302 33.7922 48.0356 33.8059 48.0356 33.82C48.0356 33.8342 48.0302 33.8478 48.0205 33.8581C48.0147 33.8631 48.008 33.8669 48.0007 33.8691C47.9934 33.8714 47.9857 33.8721 47.9781 33.8713ZM47.395 35.2673C47.3855 35.2671 47.3762 35.2644 47.368 35.2595C47.3598 35.2546 47.3529 35.2477 47.3482 35.2395C47.146 34.8967 46.5982 34.4953 46.5923 34.4924C46.5808 34.4834 46.5732 34.4703 46.571 34.4559C46.5688 34.4415 46.5723 34.4267 46.5806 34.4147C46.5894 34.4029 46.6024 34.3951 46.617 34.3929C46.6315 34.3907 46.6464 34.3943 46.6582 34.403C46.6802 34.4191 47.2295 34.822 47.4434 35.1838C47.447 35.19 47.4494 35.1969 47.4503 35.2041C47.4513 35.2112 47.4507 35.2185 47.4488 35.2255C47.4469 35.2324 47.4436 35.2389 47.4392 35.2446C47.4347 35.2503 47.4292 35.255 47.4229 35.2585C47.4147 35.2642 47.405 35.2673 47.395 35.2673ZM44.1592 49.8791C44.1471 49.879 44.1353 49.876 44.1246 49.8704C44.1139 49.8648 44.1046 49.8567 44.0977 49.8469C42.9156 48.0891 43.0884 44.5837 43.0972 44.4357C43.0976 44.4261 43.0998 44.4167 43.1039 44.4079C43.1079 44.3992 43.1136 44.3913 43.1207 44.3848C43.1278 44.3783 43.1361 44.3732 43.1451 44.3699C43.1541 44.3665 43.1637 44.365 43.1734 44.3654C43.1929 44.3666 43.2113 44.3753 43.2244 44.3899C43.2376 44.4044 43.2445 44.4235 43.2437 44.4431C43.2437 44.4782 43.065 48.051 44.2193 49.7648C44.23 49.7808 44.234 49.8004 44.2305 49.8193C44.2269 49.8382 44.216 49.8549 44.2002 49.8659C44.1881 49.8742 44.1739 49.8788 44.1592 49.8791ZM21.6519 52.3781C21.6423 52.3776 21.6328 52.3751 21.6242 52.3709C21.6155 52.3667 21.6077 52.3608 21.6013 52.3536C21.5949 52.3464 21.59 52.338 21.5869 52.3289C21.5837 52.3198 21.5824 52.3101 21.583 52.3005L21.6416 51.4216C21.6435 51.4025 21.6526 51.3849 21.667 51.3724C21.6815 51.3599 21.7002 51.3534 21.7193 51.3542C21.7289 51.3548 21.7383 51.3572 21.747 51.3614C21.7557 51.3656 21.7634 51.3715 21.7698 51.3787C21.7762 51.3859 21.7811 51.3943 21.7843 51.4035C21.7874 51.4126 21.7887 51.4222 21.7881 51.4318L21.7295 52.3107C21.728 52.3299 21.719 52.3477 21.7045 52.3603C21.69 52.373 21.6711 52.3793 21.6519 52.3781ZM20.8096 65.1149C20.7999 65.1146 20.7904 65.1123 20.7816 65.1081C20.7729 65.104 20.765 65.0981 20.7586 65.0908C20.7521 65.0836 20.7472 65.0751 20.7442 65.0659C20.7411 65.0567 20.7399 65.047 20.7407 65.0373L20.8462 63.445C20.8476 63.4256 20.8566 63.4075 20.8713 63.3947C20.886 63.382 20.9052 63.3755 20.9246 63.3769C20.944 63.3783 20.9621 63.3873 20.9749 63.402C20.9876 63.4167 20.9941 63.4358 20.9927 63.4553L20.8872 65.0476C20.8857 65.0667 20.8767 65.0845 20.8622 65.0972C20.8477 65.1098 20.8288 65.1161 20.8096 65.1149ZM21.0205 61.9318C21.0108 61.9313 21.0012 61.9288 20.9925 61.9245C20.9837 61.9202 20.9759 61.9142 20.9694 61.9068C20.963 61.8994 20.9581 61.8908 20.9551 61.8816C20.952 61.8723 20.9509 61.8625 20.9517 61.8527L21.0572 60.2604C21.0585 60.241 21.0675 60.2229 21.0822 60.2102C21.0969 60.1974 21.1161 60.191 21.1355 60.1923C21.1549 60.1937 21.173 60.2027 21.1858 60.2174C21.1986 60.2321 21.205 60.2513 21.2036 60.2707L21.0938 61.863C21.0923 61.8815 21.084 61.8988 21.0705 61.9116C21.0569 61.9243 21.0391 61.9315 21.0205 61.9318ZM21.2315 58.7473C21.2123 58.7458 21.1945 58.7368 21.1819 58.7223C21.1693 58.7077 21.1629 58.6888 21.1641 58.6696L21.2696 57.0773C21.2701 57.0677 21.2726 57.0583 21.2768 57.0496C21.281 57.041 21.2869 57.0332 21.2941 57.0268C21.3013 57.0204 21.3097 57.0155 21.3188 57.0124C21.3279 57.0092 21.3376 57.0079 21.3472 57.0085C21.3568 57.0091 21.3662 57.0115 21.3749 57.0158C21.3836 57.02 21.3913 57.0258 21.3977 57.0331C21.4041 57.0403 21.409 57.0487 21.4121 57.0578C21.4153 57.0669 21.4166 57.0765 21.416 57.0861L21.312 58.6784C21.3115 58.6883 21.3089 58.698 21.3046 58.7069C21.3002 58.7157 21.294 58.7236 21.2865 58.7301C21.279 58.7365 21.2702 58.7414 21.2607 58.7443C21.2513 58.7473 21.2413 58.7483 21.2315 58.7473ZM21.4409 55.5627C21.4218 55.5612 21.404 55.5522 21.3913 55.5377C21.3787 55.5232 21.3723 55.5043 21.3736 55.4851L21.4776 53.8928C21.4791 53.8732 21.4882 53.855 21.503 53.8421C21.5178 53.8293 21.5371 53.8227 21.5567 53.8239C21.5758 53.8254 21.5937 53.8344 21.6063 53.8489C21.6189 53.8635 21.6253 53.8824 21.624 53.9016L21.5186 55.4938C21.5182 55.5035 21.5159 55.5131 21.5118 55.5218C21.5076 55.5306 21.5017 55.5384 21.4945 55.5449C21.4872 55.5513 21.4787 55.5562 21.4695 55.5593C21.4603 55.5623 21.4506 55.5635 21.4409 55.5627ZM20.6543 67.592C20.6351 67.5905 20.6173 67.5815 20.6047 67.567C20.5921 67.5525 20.5857 67.5336 20.5869 67.5144L20.6441 66.6354C20.6459 66.616 20.6552 66.5981 20.6699 66.5852C20.6846 66.5724 20.7037 66.5658 20.7232 66.5666C20.7328 66.5673 20.7422 66.57 20.7508 66.5744C20.7594 66.5787 20.7671 66.5848 20.7733 66.5921C20.7796 66.5995 20.7843 66.608 20.7873 66.6172C20.7902 66.6264 20.7914 66.6361 20.7906 66.6457L20.7334 67.5246C20.7327 67.5342 20.73 67.5436 20.7257 67.5522C20.7213 67.5608 20.7152 67.5685 20.7079 67.5748C20.7005 67.581 20.692 67.5858 20.6828 67.5887C20.6736 67.5917 20.6639 67.5928 20.6543 67.592ZM43.2129 52.8146C43.1942 52.8147 43.1762 52.8076 43.1626 52.7948C43.149 52.782 43.1408 52.7645 43.1397 52.7458L43.084 51.8669C43.0828 51.8477 43.0892 51.8288 43.1018 51.8143C43.1144 51.7997 43.1322 51.7908 43.1514 51.7893C43.1701 51.7892 43.1881 51.7963 43.2017 51.8091C43.2153 51.8219 43.2235 51.8395 43.2246 51.8581L43.2803 52.737C43.2811 52.7563 43.2744 52.7752 43.2616 52.7897C43.2487 52.8042 43.2307 52.8131 43.2114 52.8146H43.2129ZM44.0039 65.2248C43.9852 65.2248 43.9672 65.2177 43.9536 65.2049C43.94 65.1921 43.9318 65.1746 43.9307 65.156L43.8325 63.6047C43.832 63.5951 43.8333 63.5854 43.8364 63.5763C43.8395 63.5672 43.8444 63.5588 43.8508 63.5516C43.8572 63.5444 43.865 63.5385 43.8737 63.5343C43.8823 63.5301 43.8918 63.5276 43.9014 63.5271C43.9111 63.526 43.9209 63.527 43.9302 63.53C43.9395 63.533 43.9481 63.5379 43.9554 63.5444C43.9627 63.5508 43.9686 63.5588 43.9726 63.5676C43.9767 63.5765 43.9789 63.5861 43.979 63.5959L44.0772 65.1472C44.0778 65.1568 44.0765 65.1664 44.0733 65.1755C44.0702 65.1847 44.0653 65.1931 44.0589 65.2003C44.0525 65.2075 44.0447 65.2134 44.036 65.2176C44.0274 65.2218 44.0179 65.2242 44.0083 65.2248H44.0039ZM43.8062 62.1223C43.7875 62.1223 43.7695 62.1152 43.7559 62.1024C43.7423 62.0896 43.7341 62.0721 43.7329 62.0534L43.6348 60.5021C43.6342 60.4925 43.6355 60.4829 43.6386 60.4738C43.6418 60.4646 43.6467 60.4562 43.6531 60.449C43.6595 60.4418 43.6672 60.4359 43.6759 60.4317C43.6846 60.4275 43.694 60.4251 43.7036 60.4245C43.7134 60.4233 43.7233 60.4241 43.7327 60.427C43.7421 60.4299 43.7508 60.4348 43.7581 60.4413C43.7655 60.4478 43.7713 60.4558 43.7753 60.4648C43.7793 60.4738 43.7814 60.4835 43.7813 60.4934L43.8794 62.0446C43.88 62.0542 43.8787 62.0639 43.8756 62.073C43.8724 62.0821 43.8675 62.0905 43.8611 62.0977C43.8547 62.105 43.847 62.1108 43.8383 62.115C43.8296 62.1192 43.8202 62.1217 43.8106 62.1223H43.8062ZM43.6099 59.0197C43.5911 59.0201 43.5729 59.0131 43.5592 59.0003C43.5455 58.9874 43.5374 58.9697 43.5366 58.9509L43.437 57.3996C43.4364 57.39 43.4378 57.3803 43.4409 57.3712C43.444 57.3621 43.4489 57.3537 43.4553 57.3465C43.4617 57.3393 43.4695 57.3334 43.4782 57.3292C43.4868 57.325 43.4963 57.3225 43.5059 57.322C43.5155 57.3214 43.5252 57.3227 43.5343 57.3258C43.5434 57.329 43.5518 57.3339 43.559 57.3403C43.5662 57.3467 43.5721 57.3544 43.5763 57.3631C43.5805 57.3718 43.583 57.3812 43.5835 57.3908L43.6817 58.9494C43.6829 58.9686 43.6765 58.9875 43.6639 59.002C43.6513 59.0166 43.6335 59.0255 43.6143 59.0271L43.6099 59.0197ZM43.4121 55.9172C43.3933 55.9176 43.3751 55.9106 43.3614 55.8977C43.3478 55.8848 43.3397 55.8671 43.3389 55.8483L43.2393 54.2971C43.2388 54.2778 43.2457 54.2591 43.2584 54.2447C43.2712 54.2303 43.289 54.2213 43.3081 54.2194C43.3179 54.2182 43.3278 54.219 43.3372 54.2219C43.3466 54.2248 43.3552 54.2297 43.3626 54.2362C43.37 54.2427 43.3758 54.2507 43.3798 54.2597C43.3838 54.2687 43.3858 54.2784 43.3858 54.2883L43.4854 55.8395C43.4858 55.8588 43.479 55.8775 43.4662 55.8919C43.4534 55.9063 43.4357 55.9153 43.4165 55.9172H43.4121ZM44.1592 67.6535C44.1404 67.6539 44.1222 67.6469 44.1085 67.6341C44.0948 67.6212 44.0867 67.6034 44.086 67.5847L44.0303 66.7058C44.0291 66.6866 44.0355 66.6677 44.0481 66.6531C44.0607 66.6386 44.0785 66.6296 44.0977 66.6281C44.1162 66.6281 44.134 66.6353 44.1474 66.6481C44.1608 66.6609 44.1687 66.6784 44.1695 66.697L44.2266 67.5759C44.227 67.5951 44.2202 67.6138 44.2074 67.6282C44.1947 67.6426 44.1769 67.6517 44.1577 67.6535H44.1592Z" fill="#383333"/>
<path d="M24.29 44.5439C24.9575 44.5439 25.4985 44.0029 25.4985 43.3354C25.4985 42.668 24.9575 42.127 24.29 42.127C23.6226 42.127 23.0815 42.668 23.0815 43.3354C23.0815 44.0029 23.6226 44.5439 24.29 44.5439Z" fill="#FFB833"/>
<path d="M38.7524 44.5439C39.4199 44.5439 39.9609 44.0029 39.9609 43.3354C39.9609 42.668 39.4199 42.127 38.7524 42.127C38.085 42.127 37.5439 42.668 37.5439 43.3354C37.5439 44.0029 38.085 44.5439 38.7524 44.5439Z" fill="#FFB833"/>
<path d="M32.0024 13.2607C33.3171 13.2607 34.3828 12.195 34.3828 10.8804C34.3828 9.56573 33.3171 8.5 32.0024 8.5C30.6878 8.5 29.6221 9.56573 29.6221 10.8804C29.6221 12.195 30.6878 13.2607 32.0024 13.2607Z" fill="#FFB833"/>
<path d="M21.2402 20.6184C21.2258 20.6183 21.2117 20.6139 21.1997 20.6059C21.1877 20.5978 21.1783 20.5863 21.1729 20.5729C21.169 20.5641 21.167 20.5546 21.167 20.545C21.1669 20.5354 21.1688 20.5258 21.1725 20.517C21.1762 20.5081 21.1816 20.5 21.1885 20.4933C21.1953 20.4866 21.2035 20.4813 21.2124 20.4777C22.2378 20.0383 22.207 18.0344 22.2056 18.0139C22.2054 18.0042 22.2071 17.9947 22.2106 17.9857C22.2141 17.9768 22.2193 17.9686 22.226 17.9616C22.2326 17.9547 22.2406 17.9491 22.2494 17.9453C22.2582 17.9414 22.2677 17.9393 22.2773 17.9392C22.287 17.9383 22.2967 17.9395 22.3059 17.9427C22.315 17.9459 22.3234 17.951 22.3304 17.9576C22.3375 17.9643 22.343 17.9723 22.3468 17.9812C22.3505 17.9902 22.3523 17.9998 22.3521 18.0095C22.3521 18.0974 22.3872 20.1437 21.2681 20.6125C21.2594 20.6165 21.2498 20.6186 21.2402 20.6184ZM20.8638 19.8947C20.8528 19.8946 20.842 19.892 20.8321 19.8872C20.8222 19.8824 20.8135 19.8754 20.8066 19.8669C20.8005 19.8595 20.796 19.8509 20.7932 19.8416C20.7905 19.8324 20.7897 19.8227 20.7908 19.8131C20.7919 19.8036 20.7949 19.7943 20.7996 19.7859C20.8043 19.7776 20.8107 19.7702 20.8184 19.7644C21.041 19.5856 21.2271 18.9499 21.2813 18.7185C21.2858 18.6996 21.2976 18.6834 21.314 18.6732C21.3305 18.6631 21.3503 18.6598 21.3691 18.6643C21.388 18.6688 21.4042 18.6806 21.4144 18.697C21.4245 18.7135 21.4277 18.7333 21.4233 18.7521C21.4146 18.7873 21.2183 19.6311 20.9092 19.8786C20.8962 19.8888 20.8803 19.8945 20.8638 19.8947ZM43.2349 20.4719H43.2261C41.9971 20.3254 41.5532 18.1589 41.5342 18.0666C41.5324 18.057 41.5324 18.0471 41.5344 18.0375C41.5364 18.0279 41.5403 18.0188 41.5458 18.0107C41.5513 18.0026 41.5584 17.9957 41.5665 17.9903C41.5747 17.985 41.5839 17.9813 41.5935 17.9794C41.6031 17.9776 41.613 17.9777 41.6226 17.9797C41.6322 17.9817 41.6413 17.9855 41.6494 17.9911C41.6575 17.9966 41.6644 18.0036 41.6698 18.0118C41.6751 18.02 41.6788 18.0291 41.6807 18.0388C41.6807 18.0593 42.1201 20.1936 43.2466 20.3254C43.2658 20.3279 43.2832 20.338 43.295 20.3534C43.3068 20.3688 43.3121 20.3882 43.3096 20.4074C43.3074 20.4255 43.2985 20.4422 43.2847 20.4541C43.2709 20.466 43.2531 20.4724 43.2349 20.4719ZM43.3931 19.5095C42.731 19.5095 42.2959 18.5441 42.2769 18.5031C42.2728 18.4943 42.2705 18.4848 42.2702 18.475C42.2699 18.4653 42.2716 18.4557 42.2752 18.4466C42.2788 18.4376 42.2841 18.4294 42.2909 18.4225C42.2978 18.4155 42.3059 18.4101 42.3149 18.4064C42.3327 18.3989 42.3526 18.3985 42.3706 18.4053C42.3887 18.4122 42.4033 18.4257 42.4116 18.4431C42.4116 18.4519 42.8364 19.3835 43.4077 19.363C43.4271 19.363 43.4458 19.3707 43.4595 19.3844C43.4732 19.3982 43.481 19.4168 43.481 19.4362C43.481 19.4557 43.4732 19.4743 43.4595 19.488C43.4458 19.5018 43.4271 19.5095 43.4077 19.5095H43.3931ZM22.7666 12.3435C22.7037 12.3433 22.6418 12.327 22.587 12.296C22.5322 12.265 22.4863 12.2204 22.4538 12.1665C22.4212 12.1126 22.4031 12.0513 22.4012 11.9884C22.3993 11.9254 22.4137 11.8631 22.4429 11.8073C22.5483 11.6037 25.103 6.8415 30.0527 5.90986C30.1009 5.8987 30.1508 5.89739 30.1994 5.90601C30.2481 5.91464 30.2945 5.93302 30.3358 5.96005C30.3772 5.98707 30.4126 6.02219 30.4401 6.06328C30.4675 6.10438 30.4863 6.1506 30.4954 6.19916C30.5045 6.24772 30.5037 6.29762 30.493 6.34586C30.4823 6.39409 30.462 6.43967 30.4332 6.47983C30.4044 6.52 30.3678 6.55393 30.3256 6.57958C30.2834 6.60524 30.2364 6.62208 30.1875 6.6291C25.5923 7.49482 23.1152 12.1018 23.0903 12.1472C23.0593 12.2062 23.0127 12.2556 22.9557 12.2902C22.8987 12.3248 22.8333 12.3432 22.7666 12.3435ZM27.3442 18.8664C24.4468 18.8664 23.7686 17.3664 23.7363 17.2917C23.6975 17.2025 23.6956 17.1016 23.7312 17.0111C23.7668 16.9206 23.8369 16.8479 23.926 16.809C24.0152 16.7702 24.1161 16.7683 24.2066 16.8039C24.2972 16.8395 24.3698 16.9096 24.4087 16.9987C24.4263 17.0353 25.2202 18.5866 28.897 17.9992C28.9929 17.9839 29.0911 18.0073 29.1698 18.0643C29.2485 18.1213 29.3013 18.2072 29.3167 18.3032C29.332 18.3991 29.3086 18.4973 29.2516 18.576C29.1946 18.6547 29.1087 18.7075 29.0127 18.7228C28.4612 18.8146 27.9033 18.8626 27.3442 18.8664ZM48.7954 17.6081C48.7167 17.6076 48.6402 17.5819 48.5772 17.5349C46.9424 16.3088 47.1123 13.2619 47.124 13.1403C47.127 13.0922 47.1394 13.0452 47.1606 13.0019C47.1818 12.9586 47.2112 12.9199 47.2473 12.888C47.2835 12.8561 47.3255 12.8317 47.3711 12.816C47.4166 12.8004 47.4649 12.7938 47.5129 12.7968C47.561 12.7998 47.6081 12.8122 47.6514 12.8334C47.6946 12.8545 47.7333 12.884 47.7652 12.9201C47.7971 12.9563 47.8216 12.9983 47.8373 13.0439C47.8529 13.0894 47.8594 13.1376 47.8565 13.1857C47.8565 13.2136 47.7012 15.9689 49.0181 16.9562C49.0954 17.0148 49.1466 17.1015 49.1603 17.1975C49.174 17.2935 49.1492 17.3911 49.0913 17.4689C49.0558 17.5131 49.0107 17.5487 48.9595 17.5728C48.9082 17.5969 48.8521 17.609 48.7954 17.6081ZM17.6895 42.4929H17.6499C17.602 42.4879 17.5556 42.4736 17.5133 42.4506C17.471 42.4277 17.4337 42.3966 17.4034 42.3591C17.3732 42.3217 17.3507 42.2786 17.3372 42.2325C17.3237 42.1863 17.3194 42.1379 17.3247 42.09C17.3408 41.9333 17.7642 38.2653 20.1797 37.5739C20.226 37.5607 20.2744 37.5568 20.3221 37.5623C20.3699 37.5679 20.4162 37.5828 20.4582 37.6062C20.5002 37.6295 20.5372 37.661 20.5671 37.6987C20.597 37.7364 20.6192 37.7796 20.6323 37.8259C20.6455 37.8721 20.6494 37.9205 20.6439 37.9683C20.6384 38.0161 20.6235 38.0623 20.6001 38.1044C20.5767 38.1464 20.5453 38.1834 20.5076 38.2133C20.4699 38.2432 20.4266 38.2653 20.3804 38.2785C18.4395 38.8337 18.0571 42.1354 18.0527 42.1691C18.0423 42.2582 17.9996 42.3404 17.9326 42.4001C17.8657 42.4597 17.7791 42.4928 17.6895 42.4929ZM30.0293 31.883H29.9824C26.6323 31.4436 24.5435 28.0744 24.457 27.9279C24.4085 27.8451 24.3944 27.7464 24.4179 27.6533C24.4414 27.5601 24.5005 27.4799 24.5825 27.43C24.6646 27.38 24.763 27.3643 24.8565 27.3862C24.95 27.4081 25.0312 27.4659 25.0825 27.5471C25.1016 27.5793 27.0791 30.7697 30.0776 31.1564C30.1748 31.1629 30.2654 31.2076 30.3295 31.2808C30.3937 31.354 30.4261 31.4497 30.4197 31.5468C30.4133 31.6439 30.3685 31.7345 30.2953 31.7987C30.2221 31.8628 30.1264 31.8953 30.0293 31.8889V31.883ZM25.4092 54.6804C25.3172 54.6803 25.2286 54.6456 25.161 54.5832C25.0934 54.5207 25.0518 54.4352 25.0444 54.3435C24.898 52.5739 25.2422 49.8728 25.2568 49.7585C25.2691 49.6614 25.3194 49.5731 25.3967 49.5131C25.4741 49.453 25.5721 49.4262 25.6692 49.4384C25.7663 49.4507 25.8546 49.501 25.9146 49.5783C25.9747 49.6556 26.0015 49.7537 25.9893 49.8508C25.9893 49.8786 25.645 52.5915 25.7798 54.2849C25.7875 54.3816 25.7565 54.4774 25.6936 54.5513C25.6307 54.6252 25.541 54.6711 25.4443 54.6789L25.4092 54.6804Z" fill="white"/>
<path fill-rule="evenodd" clip-rule="evenodd" d="M17.0025 43.8833C16.3755 43.8833 16.4678 44.8545 17.0918 44.8545C17.7158 44.8545 17.6265 43.8833 17.0025 43.8833ZM25.9424 55.5801C25.3155 55.5801 25.4092 56.5513 26.0332 56.5513C26.6572 56.5513 26.5679 55.5801 25.9424 55.5801ZM31.6509 30.9619C31.0239 30.9619 31.1162 31.9331 31.7417 31.9331C32.3672 31.9331 32.2749 30.9619 31.6509 30.9619ZM30.7281 17.6904C30.1011 17.6904 30.1948 18.6616 30.8189 18.6616C31.4429 18.6616 31.3477 17.6904 30.7281 17.6904ZM22.3711 13.1143C21.7442 13.1143 21.8364 14.0854 22.4619 14.0854C23.0874 14.0854 22.9981 13.1143 22.3711 13.1143ZM49.7783 17.5967C49.1514 17.5967 49.2437 18.5679 49.8692 18.5679C50.4947 18.5679 50.4024 17.5967 49.7783 17.5967Z" fill="white"/>
<path d="M50.9444 53.3719C50.8938 53.3718 50.8439 53.3614 50.7975 53.3412C50.7512 53.321 50.7094 53.2916 50.6749 53.2547C49.0137 51.4574 48.8116 47.3133 48.8042 47.1376C48.8021 47.0895 48.8095 47.0414 48.826 46.9962C48.8424 46.9509 48.8676 46.9094 48.9001 46.8739C48.9326 46.8384 48.9718 46.8096 49.0154 46.7893C49.059 46.7689 49.1063 46.7574 49.1543 46.7552C49.2024 46.7531 49.2505 46.7605 49.2957 46.7769C49.341 46.7934 49.3825 46.8186 49.418 46.8511C49.4535 46.8836 49.4823 46.9228 49.5026 46.9664C49.523 47.01 49.5346 47.0572 49.5367 47.1053C49.5367 47.1449 49.7359 51.1571 51.2139 52.7567C51.2623 52.8089 51.2945 52.8741 51.3064 52.9443C51.3184 53.0145 51.3096 53.0867 51.2811 53.152C51.2527 53.2173 51.2058 53.2729 51.1463 53.3119C51.0867 53.351 51.0171 53.3718 50.9458 53.3719H50.9444Z" fill="white"/>
<path fill-rule="evenodd" clip-rule="evenodd" d="M52.5791 53.1748C51.9522 53.1748 52.0459 54.146 52.67 54.146C53.294 54.146 53.2046 53.1748 52.5791 53.1748Z" fill="white"/>
</svg>
