<svg width="82" height="88" viewBox="0 0 82 88" fill="none" xmlns="http://www.w3.org/2000/svg">
<path d="M34.875 0.25H28.625C25.3098 0.25 22.1304 1.56696 19.7862 3.91117C17.442 6.25537 16.125 9.43479 16.125 12.75V22.125H47.375V12.75C47.375 9.43479 46.058 6.25537 43.7138 3.91117C41.3696 1.56696 38.1902 0.25 34.875 0.25Z" fill="#0A5078"/>
<path d="M13 44H50.5V87.75H13V44Z" fill="#C80A50"/>
<path d="M31.75 50.25C30.0924 50.25 28.5027 49.5915 27.3306 48.4194C26.1585 47.2473 25.5 45.6576 25.5 44V34.625H38V44C38 45.6576 37.3415 47.2473 36.1694 48.4194C34.9973 49.5915 33.4076 50.25 31.75 50.25Z" fill="#D2AA82"/>
<path d="M34.875 40.875H28.625C25.3098 40.875 22.1304 39.558 19.7862 37.2138C17.442 34.8696 16.125 31.6902 16.125 28.375V22.125C16.9538 22.125 17.7487 21.7958 18.3347 21.2097C18.9208 20.6237 19.25 19.8288 19.25 19V15.875C19.25 15.0462 19.5792 14.2513 20.1653 13.6653C20.7513 13.0792 21.5462 12.75 22.375 12.75H41.125C41.9538 12.75 42.7487 13.0792 43.3347 13.6653C43.9208 14.2513 44.25 15.0462 44.25 15.875V19C44.25 19.8288 44.5792 20.6237 45.1653 21.2097C45.7513 21.7958 46.5462 22.125 47.375 22.125V28.375C47.375 31.6902 46.058 34.8696 43.7138 37.2138C41.3696 39.558 38.1902 40.875 34.875 40.875Z" fill="#F0C8A0"/>
<path d="M16.125 28.375V19C15.2962 19 14.5013 19.3292 13.9153 19.9153C13.3292 20.5013 13 21.2962 13 22.125V25.25C13 26.0788 13.3292 26.8737 13.9153 27.4597C14.5013 28.0458 15.2962 28.375 16.125 28.375ZM47.375 28.375V19C48.2038 19 48.9987 19.3292 49.5847 19.9153C50.1708 20.5013 50.5 21.2962 50.5 22.125V25.25C50.5 26.0788 50.1708 26.8737 49.5847 27.4597C48.9987 28.0458 48.2038 28.375 47.375 28.375Z" fill="#D2AA82"/>
<path d="M0.5 69H13V87.75H0.5V69ZM50.5 69H63V87.75H50.5V69Z" fill="#F0C8A0"/>
<path d="M69.25 72.125H59.875C59.4606 72.125 59.0632 72.2896 58.7701 72.5826C58.4771 72.8757 58.3125 73.2731 58.3125 73.6875V86.1875C58.3125 86.6019 58.4771 86.9993 58.7701 87.2924C59.0632 87.5854 59.4606 87.75 59.875 87.75H69.25C69.6644 87.75 70.0618 87.5854 70.3549 87.2924C70.6479 86.9993 70.8125 86.6019 70.8125 86.1875V73.6875C70.8125 73.2731 70.6479 72.8757 70.3549 72.5826C70.0618 72.2896 69.6644 72.125 69.25 72.125Z" fill="#D2AA82"/>
<path d="M13 69V44C9.68479 44 6.50537 45.317 4.16116 47.6612C1.81696 50.0054 0.5 53.1848 0.5 56.5V69H13ZM63 69V56.5C63 53.1848 61.683 50.0054 59.3388 47.6612C56.9946 45.317 53.8152 44 50.5 44V69H63Z" fill="#A00028"/>
<path d="M44.25 62.75V44H38V59.625H25.5V44H19.25V62.75C19.25 64.4076 18.5915 65.9973 17.4194 67.1694C16.2473 68.3415 14.6576 69 13 69V87.75H50.5V69C48.8424 69 47.2527 68.3415 46.0806 67.1694C44.9085 65.9973 44.25 64.4076 44.25 62.75Z" fill="#00A0C8"/>
<path d="M70.8125 72.125H61.4375C61.0231 72.125 60.6257 72.2896 60.3326 72.5826C60.0396 72.8757 59.875 73.2731 59.875 73.6875V86.1875C59.875 86.6019 60.0396 86.9993 60.3326 87.2924C60.6257 87.5854 61.0231 87.75 61.4375 87.75H70.8125C71.2269 87.75 71.6243 87.5854 71.9174 87.2924C72.2104 86.9993 72.375 86.6019 72.375 86.1875V73.6875C72.375 73.2731 72.2104 72.8757 71.9174 72.5826C71.6243 72.2896 71.2269 72.125 70.8125 72.125Z" fill="#F0C8A0"/>
<path d="M63 44H69.25V72.125H63V44Z" fill="#0A5078"/>
<path d="M78.625 37.75H53.625C52.7962 37.75 52.0013 37.4208 51.4153 36.8347C50.8292 36.2487 50.5 35.4538 50.5 34.625V31.5H81.75V34.625C81.75 35.4538 81.4208 36.2487 80.8347 36.8347C80.2487 37.4208 79.4538 37.75 78.625 37.75ZM69.25 44H63C62.5856 44 62.1882 43.8354 61.8951 43.5424C61.6021 43.2493 61.4375 42.8519 61.4375 42.4375V37.75H70.8125V42.4375C70.8125 42.8519 70.6479 43.2493 70.3549 43.5424C70.0618 43.8354 69.6644 44 69.25 44Z" fill="#FAB400"/>
<path d="M80.1875 22.125H52.0625C51.6481 22.125 51.2507 22.2896 50.9576 22.5826C50.6646 22.8757 50.5 23.2731 50.5 23.6875V31.5H81.75V23.6875C81.75 23.2731 81.5854 22.8757 81.2924 22.5826C80.9993 22.2896 80.6019 22.125 80.1875 22.125Z" fill="#00A0C8"/>
<path d="M80.1875 22.125H78.625V29.9375H75.5V22.125H72.375V29.9375H69.25V22.125H66.125V29.9375H63V22.125H59.875V29.9375H56.75V22.125H53.625V29.9375H50.5V31.5H81.75V23.6875C81.75 23.2731 81.5854 22.8757 81.2924 22.5826C80.9993 22.2896 80.6019 22.125 80.1875 22.125Z" fill="#0082AA"/>
<path d="M61.4375 37.75H70.8125V39.3125H61.4375V37.75Z" fill="#DC9600"/>
<path d="M63 44H69.25V45.5625H63V44Z" fill="#00325A"/>
<path d="M0.5 69H13V70.5625H0.5V69ZM50.5 69H63V70.5625H50.5V69Z" fill="#D2AA82"/>
<path d="M22.375 64.3125C21.5462 64.3125 20.7513 63.9833 20.1653 63.3972C19.5792 62.8112 19.25 62.0163 19.25 61.1875V62.75C19.25 63.5788 19.5792 64.3737 20.1653 64.9597C20.7513 65.5458 21.5462 65.875 22.375 65.875C23.2038 65.875 23.9987 65.5458 24.5847 64.9597C25.1708 64.3737 25.5 63.5788 25.5 62.75V61.1875C25.5 62.0163 25.1708 62.8112 24.5847 63.3972C23.9987 63.9833 23.2038 64.3125 22.375 64.3125ZM41.125 64.3125C40.2962 64.3125 39.5013 63.9833 38.9153 63.3972C38.3292 62.8112 38 62.0163 38 61.1875V62.75C38 63.5788 38.3292 64.3737 38.9153 64.9597C39.5013 65.5458 40.2962 65.875 41.125 65.875C41.9538 65.875 42.7487 65.5458 43.3347 64.9597C43.9208 64.3737 44.25 63.5788 44.25 62.75V61.1875C44.25 62.0163 43.9208 62.8112 43.3347 63.3972C42.7487 63.9833 41.9538 64.3125 41.125 64.3125Z" fill="#0082AA"/>
</svg>
