<svg width="100" height="100" viewBox="0 0 100 100" fill="none" xmlns="http://www.w3.org/2000/svg">
<path d="M46.875 6.25H40.625C37.3098 6.25 34.1304 7.56696 31.7862 9.91117C29.442 12.2554 28.125 15.4348 28.125 18.75V28.125H59.375V18.75C59.375 15.4348 58.058 12.2554 55.7138 9.91117C53.3696 7.56696 50.1902 6.25 46.875 6.25Z" fill="#0A5078"/>
<path d="M25 50H62.5V93.75H25V50Z" fill="#C80A50"/>
<path d="M43.75 56.25C42.0924 56.25 40.5027 55.5915 39.3306 54.4194C38.1585 53.2473 37.5 51.6576 37.5 50V40.625H50V50C50 51.6576 49.3415 53.2473 48.1694 54.4194C46.9973 55.5915 45.4076 56.25 43.75 56.25Z" fill="#D2AA82"/>
<path d="M46.875 46.875H40.625C37.3098 46.875 34.1304 45.558 31.7862 43.2138C29.442 40.8696 28.125 37.6902 28.125 34.375V28.125C28.9538 28.125 29.7487 27.7958 30.3347 27.2097C30.9208 26.6237 31.25 25.8288 31.25 25V21.875C31.25 21.0462 31.5792 20.2513 32.1653 19.6653C32.7513 19.0792 33.5462 18.75 34.375 18.75H53.125C53.9538 18.75 54.7487 19.0792 55.3347 19.6653C55.9208 20.2513 56.25 21.0462 56.25 21.875V25C56.25 25.8288 56.5792 26.6237 57.1653 27.2097C57.7513 27.7958 58.5462 28.125 59.375 28.125V34.375C59.375 37.6902 58.058 40.8696 55.7138 43.2138C53.3696 45.558 50.1902 46.875 46.875 46.875Z" fill="#F0C8A0"/>
<path d="M28.125 34.375V25C27.2962 25 26.5013 25.3292 25.9153 25.9153C25.3292 26.5013 25 27.2962 25 28.125V31.25C25 32.0788 25.3292 32.8737 25.9153 33.4597C26.5013 34.0458 27.2962 34.375 28.125 34.375ZM59.375 34.375V25C60.2038 25 60.9987 25.3292 61.5847 25.9153C62.1708 26.5013 62.5 27.2962 62.5 28.125V31.25C62.5 32.0788 62.1708 32.8737 61.5847 33.4597C60.9987 34.0458 60.2038 34.375 59.375 34.375Z" fill="#D2AA82"/>
<path d="M12.5 75H25V93.75H12.5V75ZM62.5 75H75V93.75H62.5V75Z" fill="#F0C8A0"/>
<path d="M81.25 78.125H71.875C71.4606 78.125 71.0632 78.2896 70.7701 78.5826C70.4771 78.8757 70.3125 79.2731 70.3125 79.6875V92.1875C70.3125 92.6019 70.4771 92.9993 70.7701 93.2924C71.0632 93.5854 71.4606 93.75 71.875 93.75H81.25C81.6644 93.75 82.0618 93.5854 82.3549 93.2924C82.6479 92.9993 82.8125 92.6019 82.8125 92.1875V79.6875C82.8125 79.2731 82.6479 78.8757 82.3549 78.5826C82.0618 78.2896 81.6644 78.125 81.25 78.125Z" fill="#D2AA82"/>
<path d="M25 75V50C21.6848 50 18.5054 51.317 16.1612 53.6612C13.817 56.0054 12.5 59.1848 12.5 62.5V75H25ZM75 75V62.5C75 59.1848 73.683 56.0054 71.3388 53.6612C68.9946 51.317 65.8152 50 62.5 50V75H75Z" fill="#A00028"/>
<path d="M56.25 68.75V50H50V65.625H37.5V50H31.25V68.75C31.25 70.4076 30.5915 71.9973 29.4194 73.1694C28.2473 74.3415 26.6576 75 25 75V93.75H62.5V75C60.8424 75 59.2527 74.3415 58.0806 73.1694C56.9085 71.9973 56.25 70.4076 56.25 68.75Z" fill="#00A0C8"/>
<path d="M82.8125 78.125H73.4375C73.0231 78.125 72.6257 78.2896 72.3326 78.5826C72.0396 78.8757 71.875 79.2731 71.875 79.6875V92.1875C71.875 92.6019 72.0396 92.9993 72.3326 93.2924C72.6257 93.5854 73.0231 93.75 73.4375 93.75H82.8125C83.2269 93.75 83.6243 93.5854 83.9174 93.2924C84.2104 92.9993 84.375 92.6019 84.375 92.1875V79.6875C84.375 79.2731 84.2104 78.8757 83.9174 78.5826C83.6243 78.2896 83.2269 78.125 82.8125 78.125Z" fill="#F0C8A0"/>
<path d="M75 50H81.25V78.125H75V50Z" fill="#0A5078"/>
<path d="M90.625 43.75H65.625C64.7962 43.75 64.0013 43.4208 63.4153 42.8347C62.8292 42.2487 62.5 41.4538 62.5 40.625V37.5H93.75V40.625C93.75 41.4538 93.4208 42.2487 92.8347 42.8347C92.2487 43.4208 91.4538 43.75 90.625 43.75ZM81.25 50H75C74.5856 50 74.1882 49.8354 73.8951 49.5424C73.6021 49.2493 73.4375 48.8519 73.4375 48.4375V43.75H82.8125V48.4375C82.8125 48.8519 82.6479 49.2493 82.3549 49.5424C82.0618 49.8354 81.6644 50 81.25 50Z" fill="#FAB400"/>
<path d="M92.1875 28.125H64.0625C63.6481 28.125 63.2507 28.2896 62.9576 28.5826C62.6646 28.8757 62.5 29.2731 62.5 29.6875V37.5H93.75V29.6875C93.75 29.2731 93.5854 28.8757 93.2924 28.5826C92.9993 28.2896 92.6019 28.125 92.1875 28.125Z" fill="#00A0C8"/>
<path d="M92.1875 28.125H90.625V35.9375H87.5V28.125H84.375V35.9375H81.25V28.125H78.125V35.9375H75V28.125H71.875V35.9375H68.75V28.125H65.625V35.9375H62.5V37.5H93.75V29.6875C93.75 29.2731 93.5854 28.8757 93.2924 28.5826C92.9993 28.2896 92.6019 28.125 92.1875 28.125Z" fill="#0082AA"/>
<path d="M73.4375 43.75H82.8125V45.3125H73.4375V43.75Z" fill="#DC9600"/>
<path d="M75 50H81.25V51.5625H75V50Z" fill="#00325A"/>
<path d="M12.5 75H25V76.5625H12.5V75ZM62.5 75H75V76.5625H62.5V75Z" fill="#D2AA82"/>
<path d="M34.375 70.3125C33.5462 70.3125 32.7513 69.9833 32.1653 69.3972C31.5792 68.8112 31.25 68.0163 31.25 67.1875V68.75C31.25 69.5788 31.5792 70.3737 32.1653 70.9597C32.7513 71.5458 33.5462 71.875 34.375 71.875C35.2038 71.875 35.9987 71.5458 36.5847 70.9597C37.1708 70.3737 37.5 69.5788 37.5 68.75V67.1875C37.5 68.0163 37.1708 68.8112 36.5847 69.3972C35.9987 69.9833 35.2038 70.3125 34.375 70.3125ZM53.125 70.3125C52.2962 70.3125 51.5013 69.9833 50.9153 69.3972C50.3292 68.8112 50 68.0163 50 67.1875V68.75C50 69.5788 50.3292 70.3737 50.9153 70.9597C51.5013 71.5458 52.2962 71.875 53.125 71.875C53.9538 71.875 54.7487 71.5458 55.3347 70.9597C55.9208 70.3737 56.25 69.5788 56.25 68.75V67.1875C56.25 68.0163 55.9208 68.8112 55.3347 69.3972C54.7487 69.9833 53.9538 70.3125 53.125 70.3125Z" fill="#0082AA"/>
</svg>
