<svg width="75" height="76" viewBox="0 0 75 76" fill="none" xmlns="http://www.w3.org/2000/svg">
<path d="M55.021 51.9297L54.0198 60.2436L57.5106 64.5388L59.8103 53.6272L55.021 51.9297Z" fill="#FFC2D3"/>
<path d="M53.7157 60.1987C51.9949 55.8487 48.9102 52.6352 46.5063 50.6465L48.4223 65.0496C52.6186 68.6191 58.0686 64.7261 58.0686 64.7261L53.7157 60.1987Z" fill="#001255"/>
<path d="M53.803 58.9375L53.0194 60.286L55.5212 66.7488C55.5212 66.7488 58.8244 66.8592 58.5195 61.8098L53.803 58.9375Z" fill="#60CCC2"/>
<path d="M75 48.7969L63.6993 48.8772L56.9162 48.9258C56.9162 48.9258 56.2948 49.9286 53.9836 48.2919L51.3636 48.1838L53.6224 50.9559L27.3527 46.5497L28.8743 48.3746L0 45.4148L20.5456 42.8774L16.2853 38.2441L49.8505 44.6181L47.6212 41.4832L75 48.7969Z" fill="#FFC91F"/>
<path d="M63.6993 48.8772C63.3829 50.6674 60.2001 50.2736 60.2001 50.2736L60.465 55.936L53.0194 52.7571L55.4981 49.7511C55.4981 49.7511 54.7362 49.1458 53.9836 48.2921C53.1129 47.3032 52.2529 45.9762 52.6288 44.8763C53.3259 42.8313 57.5879 44.4856 57.6334 45.9655C57.6782 47.4145 54.168 46.1083 54.0261 46.0566L56.9162 48.926L63.6993 48.8772Z" fill="#001255"/>
<path d="M56.2948 45.6533L64.1818 47.0205L65.1584 44.6004C65.1584 44.6003 57.1539 39.6406 56.2948 45.6533Z" fill="#001255"/>
<path d="M60.5351 46.108C60.3113 45.1585 60.5559 43.8152 61.5231 43.3551C61.7925 43.227 61.3673 43.2532 61.2637 43.302C60.1938 43.8114 59.8241 45.1323 60.0819 46.23C60.1043 46.3233 60.5582 46.2091 60.5351 46.108ZM58.6979 45.9126C58.0811 45.1121 58.7975 43.3674 59.7725 43.183C60.0565 43.1297 59.9741 42.848 59.6969 42.9004C58.5026 43.1259 57.4891 45.075 58.2819 46.1048C58.3969 46.2554 58.8306 46.0856 58.6979 45.9126ZM62.5129 46.4275C62.3971 45.7459 62.3215 44.5501 63.1173 44.2475C63.4099 44.1371 63.149 43.9203 62.9235 44.006C61.923 44.3851 61.9084 45.6564 62.0604 46.5488C62.093 46.7417 62.5468 46.6283 62.5129 46.4275ZM23.7237 21.2842L20.8945 33.7336L28.6427 35.3878L36.3035 18.2373L23.7237 21.2842Z" fill="#0F776D"/>
<path d="M24.9426 36.8248C24.9426 36.8248 24.6809 44.6601 28.1208 44.7466C31.5591 44.8338 35.8248 43.659 37.8714 50.1449L40.9182 50.5363C40.9182 50.5363 40.3516 43.7894 43.7474 42.0487C47.1425 40.3071 52.8881 37.5644 53.4107 34.5175C53.9334 31.4706 47.1425 17.4102 47.1425 17.4102L33.1261 21.1974C33.1261 21.1974 28.6427 30.6437 27.9895 30.6871C27.3365 30.731 27.4669 27.8579 27.4669 27.8579L24.938 32.8632C24.938 32.8632 18.6303 28.6846 16.8895 32.0365C15.1481 35.3882 16.9768 40.3943 24.9426 36.8248Z" fill="#FFC2D3"/>
<path d="M39.6059 24.168C39.6059 24.168 44.4059 29.9392 44.0392 37.231C44.0392 37.231 35.435 39.225 34.5951 36.5223C33.756 33.8206 37.009 34.1879 37.9014 35.8145C37.9014 35.8145 35.3253 34.6735 35.1201 35.8669C34.9147 37.0604 37.7432 38.1751 43.2002 36.5223L39.6059 24.168ZM34.4068 40.8099C33.8356 40.8099 33.3223 40.6949 32.8676 40.4626C31.3067 39.6675 31.0496 37.814 31.0396 37.7354L31.3855 37.6914C31.3878 37.7084 31.6317 39.4437 33.0281 40.1532C34.2031 40.7515 35.8488 40.4812 37.9185 39.3527L38.0852 39.6584C36.6787 40.4254 35.4482 40.8099 34.4068 40.8099Z" fill="#001255"/>
<path d="M32.2068 37.8833C32.2068 37.8833 30.466 37.9118 29.6539 38.8413C29.6539 38.8413 30.611 36.8095 32.3811 37.3892L32.2068 37.8833Z" fill="#001255"/>
<path d="M37.5579 31.8079C37.5579 32.7914 36.3505 33.5873 34.863 33.5873C33.3738 33.5873 32.1672 32.7914 32.1672 31.8079C32.1672 30.826 33.3738 30.0293 34.863 30.0293C36.3505 30.0293 37.5579 30.826 37.5579 31.8079Z" fill="white"/>
<path d="M34.863 31.8781C34.863 32.3335 34.4531 32.7018 33.9482 32.7018C33.4434 32.7018 33.0334 32.3335 33.0334 31.8781C33.0334 31.4234 33.4433 31.0537 33.9482 31.0537C34.4531 31.0536 34.863 31.4234 34.863 31.8781Z" fill="#001255"/>
<path d="M49.2028 30.473C49.2028 31.4556 47.9954 32.2523 46.5063 32.2523C45.0187 32.2523 43.8114 31.4557 43.8114 30.473C43.8114 29.4911 45.0187 28.6943 46.5063 28.6943C47.9954 28.6943 49.2028 29.4909 49.2028 30.473Z" fill="white"/>
<path d="M46.1807 30.4738C46.1807 30.9285 45.7708 31.2975 45.2666 31.2975C44.7609 31.2975 44.3518 30.9285 44.3518 30.4738C44.3518 30.0184 44.7609 29.6494 45.2666 29.6494C45.7707 29.6494 46.1807 30.0184 46.1807 30.4738Z" fill="#001255"/>
<path d="M32.1157 29.8628L30.4282 29.4352C30.4506 29.3448 31.0118 27.2042 32.9726 26.1846C34.3204 25.4836 35.9477 25.4883 37.8104 26.1969L37.1905 27.8242C35.8134 27.2993 34.6646 27.2675 33.7761 27.7292C32.5208 28.3823 32.1195 29.8481 32.1157 29.8628ZM49.1048 28.6517C48.6562 27.7291 48.0464 27.154 47.2412 26.8924C45.5591 26.3466 43.5559 27.3749 43.5366 27.3849L42.7167 25.8487C42.824 25.7923 45.3715 24.4553 47.7792 25.2365C49.0406 25.6456 50.0133 26.5389 50.6702 27.8905L49.1048 28.6517Z" fill="#0F776D"/>
<path d="M16.5523 34.8449C16.5523 34.8449 18.0946 33.4709 20.1235 33.7094C22.153 33.9478 22.234 35.7727 20.7734 36.2862C19.3121 36.7987 20.3681 35.3251 20.3681 35.3251L18.3919 35.5697L19.8261 35.7087C19.8261 35.7087 19.204 37.1507 20.6112 36.9585C22.0178 36.7663 22.8245 35.1645 21.7715 34.076C20.7193 32.9867 17.8777 33.0509 16.5523 34.8449Z" fill="#001255"/>
<path d="M34.2756 36.7257C32.3742 34.6097 29.0565 35.3361 28.2381 38.048C27.3573 40.9676 29.2856 43.8608 31.9042 44.9215C34.1559 45.8339 36.8361 45.7815 38.9367 44.5178C40.8891 43.3437 42.7579 38.319 39.2571 38.1283C39.0425 38.116 38.1092 38.5128 38.6095 38.5405C41.4132 38.6933 39.9589 42.7151 38.834 43.9395C37.1789 45.7427 34.2525 45.2216 32.2701 44.3325C30.5177 43.5466 29.5875 42.0274 29.1954 40.1925C28.9862 39.213 29.0688 38.1939 29.4369 37.2661C30.168 35.4249 32.2352 35.8465 33.3322 37.0677C33.502 37.2567 34.4331 36.9016 34.2756 36.7257ZM41.0487 17.4098C41.0487 17.4098 46.4895 25.4628 47.317 25.2019C48.1437 24.9403 47.317 23.1119 47.317 23.1119C47.317 23.1119 51.5827 26.0719 52.7145 25.506C53.8462 24.9401 51.4524 19.9777 51.4524 19.9777C51.4524 19.9777 52.6712 20.7617 53.1939 20.4567C53.7157 20.1521 49.7108 15.7559 49.7108 15.7559L41.0487 17.4098Z" fill="#0F776D"/>
<path d="M52.8017 17.4099L21.59 25.9847C21.59 25.9847 18.0646 9.09504 31.7767 4.69875C45.4882 0.30305 52.8017 17.4099 52.8017 17.4099Z" fill="#60CCC2"/>
<path d="M34.7086 22.1358C34.1767 19.0646 32.9122 17.0401 30.9492 16.1195C27.1342 14.3293 21.8927 17.3006 21.8401 17.3311L21.6849 17.0601C21.9042 16.9338 27.1188 13.9776 31.0826 15.8369C33.1429 16.8034 34.4669 18.9043 35.0165 22.0824L34.7086 22.1358Z" fill="#001255"/>
<path d="M37.3456 20.9818C36.5613 15.4781 34.8098 12.231 32.1395 11.3304C27.8514 9.88579 22.5634 15.0394 22.5102 15.0918L22.291 14.8699C22.5124 14.6506 27.768 9.52954 32.2383 11.0348C35.0304 11.9754 36.853 15.3072 37.6544 20.9379L37.3456 20.9818ZM42.6366 16.5902C39.5859 16.5902 37.104 15.0243 37.104 13.0998C37.104 11.175 39.5859 9.60938 42.6366 9.60938C45.6882 9.60938 48.1699 11.1749 48.1699 13.0998C48.1699 15.0243 45.6882 16.5902 42.6366 16.5902ZM42.6366 9.92168C39.758 9.92168 37.4159 11.3467 37.4159 13.0998C37.4159 14.8522 39.758 16.2779 42.6366 16.2779C45.5161 16.2779 47.8573 14.8522 47.8573 13.0998C47.8573 11.3467 45.5161 9.92168 42.6366 9.92168Z" fill="#001255"/>
<path d="M42.6366 15.9513C40.1448 15.9513 38.1168 14.6722 38.1168 13.0997C38.1168 11.5269 40.1448 10.248 42.6366 10.248C45.1301 10.248 47.158 11.5267 47.158 13.0997C47.158 14.6722 45.1299 15.9513 42.6366 15.9513ZM42.6366 10.5028C40.2845 10.5028 38.3716 11.6676 38.3716 13.0997C38.3716 14.5308 40.2845 15.6965 42.6366 15.6965C44.9887 15.6965 46.9024 14.531 46.9024 13.0997C46.9024 11.6678 44.9887 10.5028 42.6366 10.5028Z" fill="#001255"/>
<path d="M40.6349 8.73945L43.4579 8.63281L43.0396 12.3869L44.6383 11.792L43.6494 17.5667L43.4896 13.8343L41.7518 15.5349L40.6349 8.73945Z" fill="#FFC91F"/>
<path d="M20.6134 25.4293L53.095 16.1436V17.8349L21.3476 26.3866L20.6134 25.4293ZM44.0802 48.8389C43.4673 48.4352 43.0944 48.2291 43.0944 48.2291L43.485 44.8765L34.0819 46.3602L35.1271 48.7524C35.1271 48.7524 34.8794 48.7826 34.4439 48.8566L34.0818 49.9289L32.9393 49.146C28.9939 49.9921 20.852 52.4191 18.1533 58.374C14.5391 66.3382 23.899 63.7259 23.899 63.7259L25.3766 58.1547L23.419 57.4129L33.0337 52.5689L35.8343 57.5913L44.6177 56.9444L47.0014 54.5567L44.0802 48.8389Z" fill="#001255"/>
<path d="M39.5693 46.0342L39.5843 45.8786L39.8955 45.9087L39.8804 46.0643L39.5693 46.0342Z" fill="#60CCC2"/>
<path d="M41.4848 54.7839L41.1722 54.7724C41.1753 54.6936 41.1776 54.6156 41.1776 54.5377L41.1769 54.4768L41.4895 54.4721V54.5377C41.4895 54.6194 41.4879 54.7013 41.4848 54.7839ZM41.1668 54.1787C41.1619 54.0797 41.1547 53.9808 41.1451 53.8822L41.4562 53.852C41.4663 53.9554 41.474 54.0581 41.4786 54.1624L41.1668 54.1787ZM41.1104 53.5866C41.0972 53.487 41.0818 53.389 41.0656 53.2924L41.3736 53.2391C41.3906 53.3402 41.4069 53.4421 41.4199 53.5448L41.1104 53.5866ZM41.01 52.9992C40.9901 52.9015 40.9685 52.8042 40.9451 52.7074L41.2485 52.6349C41.2725 52.7337 41.2948 52.8348 41.3156 52.9359L41.01 52.9992ZM40.8712 52.4163C40.8448 52.32 40.8173 52.224 40.7886 52.1283L41.0881 52.0388C41.1174 52.1368 41.146 52.2357 41.1722 52.3353L40.8712 52.4163ZM40.6982 51.8419C40.667 51.7471 40.6345 51.6527 40.6009 51.5586L40.895 51.4529C40.929 51.5487 40.9621 51.6459 40.9947 51.7439L40.6982 51.8419ZM40.4968 51.2769C40.4597 51.182 40.4226 51.0886 40.3856 50.9975L40.6743 50.8794C40.7121 50.972 40.7508 51.0678 40.7878 51.165L40.4968 51.2769ZM40.2682 50.7203C40.2266 50.6261 40.1856 50.5343 40.1448 50.4462L40.4281 50.315C40.4705 50.4054 40.5121 50.4987 40.5548 50.5952L40.2682 50.7203ZM40.015 50.1738C39.9713 50.0837 39.9265 49.9941 39.8806 49.9051L40.1585 49.7623C40.2033 49.8487 40.2496 49.9406 40.2959 50.0371L40.015 50.1738ZM39.7402 49.6381C39.6877 49.5423 39.6391 49.4544 39.5943 49.3756L39.8653 49.2212C39.9116 49.3015 39.9618 49.3918 40.015 49.4898L39.7402 49.6381ZM39.4415 49.1162C39.4027 49.0514 39.3628 48.9873 39.3218 48.924L39.2916 48.8784L39.3039 48.7511L39.5486 48.7743L39.5825 48.7526C39.5825 48.7526 39.5887 48.7611 39.6003 48.7795L39.6149 48.7811L39.6126 48.7989C39.635 48.8336 39.6674 48.886 39.7084 48.954L39.4415 49.1162ZM39.6445 48.4785L39.3326 48.4476L39.3627 48.145L39.6738 48.1759L39.6445 48.4785ZM39.7031 47.8734L39.392 47.8432L39.4213 47.5406L39.7324 47.5706L39.7031 47.8734ZM39.7618 47.2681L39.4507 47.2381L39.48 46.9354L39.7911 46.9656L39.7618 47.2681ZM39.8204 46.663L39.5093 46.6337L39.5386 46.3311L39.8497 46.3603L39.8204 46.663ZM41.4486 55.2509L41.1391 55.2146C41.1452 55.1644 41.1499 55.1143 41.1545 55.064L41.4656 55.0911C41.4609 55.1452 41.4555 55.1985 41.4486 55.2509Z" fill="#60CCC2"/>
<path d="M48.4225 65.0499C47.9631 64.6592 47.5209 64.1791 47.0993 63.597L33.3013 61.9397L33.0334 52.5689L32.9392 49.146C33.4384 49.0378 33.94 48.9413 34.4437 48.8566L36.9998 56.326L45.0095 54.8917L44.0801 48.8389C44.693 49.2426 45.5429 49.8455 46.5032 50.643L46.5063 50.6468C48.214 53.7421 50.5113 59.4323 48.4225 65.0499Z" fill="#0F776D"/>
<path d="M42.0491 59.9351C40.5615 59.9351 39.3519 59.1716 39.3519 58.2336C39.3519 57.2957 40.5615 56.5322 42.0491 56.5322C43.5359 56.5322 44.7456 57.2957 44.7456 58.2336C44.7456 59.1716 43.5359 59.9351 42.0491 59.9351ZM42.0491 56.685C40.6456 56.685 39.5047 57.3791 39.5047 58.2335C39.5047 59.0872 40.6456 59.782 42.0491 59.782C43.4517 59.782 44.5934 59.0872 44.5934 58.2335C44.5935 57.3791 43.4518 56.685 42.0491 56.685Z" fill="#001255"/>
<path d="M42.0491 59.6236C40.834 59.6236 39.8451 58.9999 39.8451 58.234C39.8451 57.4675 40.834 56.8438 42.0491 56.8438C43.2642 56.8438 44.2531 57.4675 44.2531 58.234C44.2531 58.9999 43.2642 59.6236 42.0491 59.6236ZM42.0491 56.968C40.9027 56.968 39.9702 57.5354 39.9702 58.234C39.9702 58.9319 40.9027 59.4992 42.0491 59.4992C43.1955 59.4992 44.1287 58.9319 44.1287 58.234C44.1287 57.5354 43.1955 56.968 42.0491 56.968Z" fill="#001255"/>
<path d="M41.0734 56.1076L42.4499 56.0566L42.2452 57.8861L43.025 57.5959L42.5425 60.4105L42.4645 58.591L41.6177 59.4208L41.0734 56.1076Z" fill="#FFC91F"/>
<path d="M37.6953 61.5059L46.4021 62.9424V67.165L37.6953 63.3778V61.5059Z" fill="#FF5CAA"/>
<path d="M45.0095 61.8105L44.6174 70.3862C44.6174 70.3862 51.6259 73.1282 54.0198 72.0836C56.4143 71.0383 54.0198 63.813 54.0198 63.813L45.0095 61.8105Z" fill="#FF5CAA"/>
<path d="M52.049 68.0785L48.0448 67.7303L48.0047 67.6885C46.9981 66.6356 45.3406 64.925 45.1739 64.8138L45.2457 64.7073V64.5205C45.3283 64.5205 45.4069 64.5205 48.1891 67.4293L51.9702 67.7581L54.4597 66.1664L54.628 66.4289L52.049 68.0785ZM47.6381 66.2975V68.5693L48.7559 68.8403L48.979 66.2975H47.6381Z" fill="#001255"/>
<path d="M51.3396 66.75L51.1483 68.8405H52.2876V66.75H51.3396Z" fill="#001255"/>
<path d="M24.613 57.6592L33.7329 59.3722L34.8715 63.8858L24.4346 64.3627L24.613 57.6592Z" fill="#FFC2D3"/>
<path d="M25.6969 57.2941L23.1248 56.9775C23.1248 56.9775 20.4369 57.8815 19.0836 64.6461L25.575 65.0444L25.6969 57.2941Z" fill="#60CCC2"/>
<path d="M41.3498 67.6067C41.3498 67.6067 36.3158 71.1515 33.4458 67.9935L35.107 66.58C34.6377 65.5 35.3849 63.9924 35.3849 63.9924C35.3849 63.9924 33.1486 66.2002 31.6858 65.114C30.2206 64.0287 32.2446 58.7061 32.2446 58.7061L40.452 60.5935L41.3498 67.6067Z" fill="#001255"/>
<path d="M37.4499 67.8291C36.2742 67.8437 35.4737 67.5249 35.0692 66.8833C34.3452 65.7308 35.1943 63.9901 35.2298 63.916L35.5424 64.0711C35.5346 64.0874 34.7434 65.7124 35.3641 66.6989C35.6991 67.2308 36.3993 67.494 37.4461 67.4817L37.4499 67.8291ZM36.6517 68.7608C35.1224 68.7794 33.9869 67.6546 33.9306 67.5983L34.1783 67.3528C34.1922 67.3682 35.6682 68.8234 37.4074 68.2938L37.5085 68.6272C37.2308 68.7125 36.9422 68.7575 36.6517 68.7608Z" fill="#0F776D"/>
</svg>
