<svg width="158" height="30" viewBox="0 0 158 30" fill="none" xmlns="http://www.w3.org/2000/svg">
<path fill-rule="evenodd" clip-rule="evenodd" d="M2.86861 5.32454L11.8126 5.32766C16.7316 5.32766 20.7815 5.337 20.8095 5.34947C20.8531 5.36816 20.7596 5.55198 19.6195 7.56776H17.5789C15.663 7.56776 15.5384 7.57088 15.5197 7.62073C15.5104 7.65189 15.2674 8.06937 14.9808 8.54917C14.6942 9.02897 14.2923 9.70194 14.0898 10.0447C13.8873 10.3874 13.4979 11.0448 13.2238 11.509C12.9496 11.9732 12.42 12.8611 12.0493 13.4874C11.6755 14.1136 11.2923 14.7648 11.1926 14.9361C11.0929 15.1075 10.8406 15.5343 10.6319 15.8864C10.42 16.2384 10.0275 16.9021 9.75337 17.3663C9.47923 17.8305 8.95586 18.7122 8.59137 19.3291C8.22689 19.946 7.57268 21.0551 7.13654 21.7904C6.7004 22.5257 6.16146 23.4355 5.94027 23.8093C5.71909 24.1801 5.52906 24.4854 5.51348 24.4854C5.50102 24.4854 5.28918 24.3141 5.03996 24.1084C4.79074 23.8997 4.3141 23.4541 3.98077 23.1177C3.64432 22.7812 3.21752 22.317 3.03372 22.0864C2.84681 21.8559 2.55397 21.4477 2.3764 21.1829C2.20194 20.9181 1.96207 20.5317 1.84369 20.3261C1.72842 20.1205 1.52904 19.7341 1.40132 19.4693C1.27671 19.2045 1.08356 18.7621 0.974525 18.4879C0.86549 18.2137 0.719072 17.8056 0.647421 17.5844C0.578885 17.3632 0.472965 16.9893 0.413775 16.7587C0.3577 16.5282 0.279818 16.1917 0.24555 16.011C0.211282 15.8303 0.161438 15.5374 0.136515 15.3567C0.111593 15.176 0.0742099 14.8676 0.0586335 14.6713C0.0399419 14.475 0.018135 14.0949 0.00567392 13.8301C-0.00678719 13.5559 0.00255864 13.0979 0.0212503 12.7708C0.0430572 12.453 0.0773252 12.0262 0.102247 11.8205C0.12717 11.6149 0.183245 11.2504 0.226858 11.0105C0.270472 10.7706 0.360815 10.3656 0.429351 10.107C0.494772 9.85149 0.594461 9.50566 0.647421 9.34365C0.70038 9.18164 0.81253 8.8732 0.899758 8.65822C0.98387 8.44324 1.15521 8.06003 1.27982 7.80143C1.40755 7.54596 1.60381 7.17208 1.72219 6.9758C1.83746 6.77952 2.03995 6.46485 2.16768 6.2748C2.29852 6.08474 2.50724 5.79499 2.63497 5.62987L2.86861 5.32454ZM3.33902 7.74535C3.27671 7.84505 3.13964 8.07249 3.03684 8.25319C2.93403 8.43078 2.77515 8.73299 2.68793 8.91993C2.59758 9.10998 2.45428 9.45269 2.36705 9.68636C2.27982 9.91692 2.15833 10.2814 2.09602 10.4933C2.03683 10.7083 1.93714 11.1227 1.87795 11.4155C1.82188 11.7053 1.75023 12.1539 1.71908 12.4094C1.68585 12.723 1.66923 13.1229 1.66923 13.6089C1.66923 14.0825 1.68792 14.5031 1.72219 14.7928C1.75023 15.0421 1.80007 15.4066 1.83434 15.606C1.86861 15.8023 1.94649 16.1512 2.00568 16.3818C2.06176 16.6154 2.16456 16.9644 2.2331 17.1638C2.29852 17.3601 2.39821 17.6405 2.45428 17.7838C2.51036 17.9302 2.67858 18.3041 2.82811 18.6125C2.98076 18.9179 3.21752 19.3603 3.35771 19.5908C3.4979 19.8245 3.70974 20.1454 3.825 20.3105C3.94027 20.4725 4.14588 20.7405 4.28295 20.9087C4.4169 21.077 4.53529 21.2016 4.54463 21.1891C4.55709 21.1767 4.83435 20.7093 5.16769 20.1516C5.49791 19.5971 6.00258 18.7465 6.28919 18.2667C6.57579 17.79 7.12408 16.8616 7.51037 16.2104C7.89355 15.5624 8.34215 14.8022 8.50415 14.528C8.66614 14.2569 9.16147 13.422 9.60695 12.6742C10.0493 11.9296 10.526 11.1227 10.663 10.8828C10.8032 10.646 11.1428 10.0696 11.4169 9.60536C11.6911 9.14425 12.0556 8.52737 12.2269 8.2345C12.4014 7.94475 12.5571 7.67369 12.5758 7.63631L12.6101 7.56465H3.45428L3.33902 7.74535ZM13.9341 0C14.445 0 14.9403 0.0155779 15.2736 0.0467338C15.5665 0.0716585 15.9715 0.121508 16.1771 0.152664C16.3827 0.186935 16.6911 0.243016 16.8624 0.277287C17.0338 0.311559 17.3079 0.376986 17.4699 0.420604C17.6319 0.464223 17.9497 0.554575 18.1708 0.626233C18.3951 0.694776 18.7939 0.841209 19.0587 0.947139C19.3235 1.05307 19.7316 1.23377 19.9621 1.34593C20.1927 1.4581 20.5385 1.63568 20.7254 1.74161C20.9154 1.84754 21.2924 2.08121 21.5665 2.26192C21.8406 2.44262 22.2269 2.71368 22.4232 2.86323C22.6195 3.01589 22.9434 3.27448 23.1397 3.44584C23.336 3.61408 23.7005 3.95368 23.9497 4.20293C24.1989 4.45218 24.5416 4.8167 24.7098 5.01298C24.878 5.20926 25.1335 5.52394 25.2737 5.71399C25.4139 5.90404 25.635 6.21871 25.7659 6.415C25.8967 6.61128 26.0961 6.9353 26.2083 7.13158C26.3235 7.32786 26.5198 7.70173 26.6444 7.95721C26.7721 8.21581 26.9559 8.63641 27.0587 8.89189C27.1615 9.15048 27.2955 9.51189 27.3547 9.70194C27.417 9.89199 27.5042 10.1911 27.5478 10.3718C27.5946 10.5525 27.66 10.8329 27.6911 10.9949C27.7254 11.1569 27.7815 11.4529 27.8157 11.6492C27.8469 11.8455 27.8967 12.2598 27.9248 12.5683C27.9653 12.9951 27.9715 13.3441 27.959 14.0326C27.9497 14.6059 27.9248 15.0794 27.8936 15.3256C27.8656 15.5406 27.8064 15.9051 27.7628 16.1356C27.7223 16.3662 27.6382 16.7587 27.5759 17.008C27.5136 17.2572 27.3952 17.6716 27.308 17.9271C27.2207 18.1857 27.0681 18.5876 26.9684 18.8244C26.8687 19.0581 26.688 19.4475 26.5665 19.6874C26.3765 20.0675 26.3422 20.1174 26.2986 20.0862C26.2737 20.0644 26.0712 19.731 25.8531 19.3447C25.6319 18.9584 25.4076 18.5596 25.2488 18.2698L25.3516 18.0206C25.4076 17.8835 25.5167 17.5875 25.5914 17.3663C25.6662 17.1451 25.769 16.8148 25.8189 16.6341C25.8687 16.4534 25.9466 16.1325 25.9871 15.9175C26.0307 15.7026 26.0899 15.3536 26.1179 15.1386C26.1428 14.9237 26.174 14.4252 26.1833 14.0326C26.1927 13.6089 26.1865 13.126 26.1646 12.8487C26.146 12.5932 26.0961 12.1726 26.0525 11.914C26.0089 11.6585 25.9248 11.2566 25.8656 11.0261C25.8095 10.7955 25.7223 10.4871 25.6787 10.3406C25.6319 10.1942 25.4917 9.82345 25.3671 9.51501C25.2425 9.20656 25.04 8.75792 24.9154 8.51802C24.7908 8.27812 24.5945 7.91983 24.4762 7.72354C24.3547 7.52726 24.1366 7.19389 23.9871 6.98515C23.8375 6.7764 23.5977 6.45238 23.4512 6.26856C23.3048 6.08474 22.9497 5.69218 22.6568 5.40243C22.3671 5.10956 21.9559 4.73258 21.7441 4.56122C21.5353 4.38986 21.1989 4.13439 20.9964 3.99418C20.797 3.85398 20.4917 3.65459 20.3204 3.55177C20.149 3.44896 19.7908 3.25579 19.526 3.1187C19.2612 2.9785 18.8188 2.77599 18.5447 2.66694C18.2705 2.55478 17.8842 2.41147 17.688 2.34915C17.4917 2.28684 17.1054 2.18091 16.8313 2.11548C16.5571 2.05006 16.1428 1.96594 15.9123 1.93166C15.6817 1.89739 15.2549 1.85066 14.9621 1.83197C14.6506 1.81016 14.1366 1.80393 13.716 1.81327C13.3235 1.82262 12.8749 1.84754 12.7191 1.86312C12.5665 1.88182 12.2362 1.93478 11.987 1.9784C11.7378 2.02202 11.3733 2.09991 11.1771 2.14976C10.9808 2.19961 10.554 2.33046 10.2269 2.44262C9.90291 2.55167 9.42627 2.73237 9.1677 2.84765C8.91225 2.95981 8.52907 3.14363 7.93717 3.45519H6.40445C4.95585 3.4583 4.87174 3.45519 4.91535 3.40534C4.94027 3.37418 5.09604 3.24333 5.25803 3.11559C5.42314 2.98473 5.7004 2.77287 5.88108 2.64513C6.06177 2.5174 6.43872 2.26503 6.72221 2.09056C7.0057 1.91297 7.53218 1.62322 7.89044 1.44563C8.25181 1.26804 8.71287 1.05618 8.91848 0.975179C9.12409 0.89729 9.52284 0.753973 9.80633 0.660505C10.0898 0.567037 10.5727 0.429951 10.8811 0.355177C11.1895 0.280403 11.6319 0.190051 11.8624 0.152664C12.0929 0.118392 12.473 0.0685429 12.7035 0.0467338C12.9341 0.0218091 13.4886 0.00311559 13.9341 0ZM17.5665 8.80465C17.5789 8.81711 17.7565 9.13179 17.959 9.49943C18.1646 9.86707 18.5073 10.484 18.7223 10.8703C18.9372 11.2566 19.311 11.9358 19.5571 12.3813C19.8033 12.8269 20.3422 13.8021 20.7565 14.5467C21.1709 15.2913 21.8313 16.4783 22.2207 17.1794C22.6101 17.8804 23.0805 18.7216 23.2643 19.0487C23.4481 19.3758 23.8656 20.1174 24.1896 20.7C24.5135 21.2826 24.8407 21.8527 25.04 22.1799L24.8033 22.4509C24.6724 22.6036 24.2674 23.0149 23.9061 23.3731C23.5447 23.7283 23.2301 24.0181 23.2114 24.0181C23.1896 24.0181 22.931 23.5881 22.635 23.0585C22.3422 22.5319 21.9434 21.8278 21.7534 21.4944C21.5634 21.1611 21.3453 20.7716 21.1304 20.3728L16.4169 20.3573L16.797 19.703C17.0089 19.3447 17.3422 18.7683 17.8998 17.8025L19.6818 17.7869L19.445 17.3725C19.3142 17.1482 19.0026 16.5967 18.7534 16.1512C18.5042 15.7057 18.255 15.257 18.1958 15.1542C18.1397 15.0514 17.9652 14.7336 17.5322 13.9236L17.3515 14.2414C17.2518 14.4189 16.9092 15.0109 16.5914 15.5592C16.2736 16.1076 15.6226 17.223 15.149 18.0361C14.6755 18.8493 13.959 20.0769 13.5634 20.7623C13.1646 21.4477 12.5478 22.507 12.1895 23.1145C11.8344 23.7221 11.3733 24.5072 11.1708 24.8593C10.9652 25.2113 10.6911 25.6787 10.5602 25.903C10.4294 26.1242 10.2518 26.4327 10.1615 26.5884C10.0711 26.7442 9.9839 26.872 9.96521 26.8751C9.94652 26.8813 9.42315 26.6726 8.80321 26.414C8.18016 26.1554 7.66302 25.9342 7.64745 25.9248C7.63499 25.9123 7.77517 25.6444 7.95897 25.3266C8.13966 25.0088 8.66303 24.1053 9.12097 23.3171C9.57892 22.5288 10.1802 21.4913 10.4605 21.0115C10.7409 20.5317 11.4107 19.3821 11.9496 18.4567C12.4886 17.5314 13.1895 16.3257 13.5073 15.7773C13.825 15.229 14.364 14.2974 14.7067 13.7055C15.0493 13.1135 15.4606 12.4 15.6257 12.1165C15.7877 11.833 16.2799 10.9793 16.716 10.216C17.1522 9.45269 17.5166 8.81711 17.526 8.80465C17.5384 8.78907 17.554 8.78907 17.5665 8.80465Z" fill="#115E59"/>
<path d="M46.463 23.2015H42.6574V7.11833H36.7784L37.2335 4.61961H52.4811L52.0259 7.11833H46.463V23.2015Z" fill="#115E59"/>
<path d="M60.1048 21.2355C59.8688 21.4384 59.5907 21.6709 59.2704 21.9331C58.9585 22.1867 58.6129 22.4277 58.2337 22.656C57.8544 22.8759 57.4456 23.0619 57.0073 23.2141C56.569 23.3748 56.1096 23.4551 55.6292 23.4551C55.0982 23.4551 54.6135 23.3537 54.1752 23.1507C53.7454 22.9478 53.3787 22.6772 53.0753 22.339C52.7719 21.9923 52.5358 21.5906 52.3673 21.134C52.2071 20.6774 52.1271 20.1996 52.1271 19.7007C52.1271 19.1003 52.2577 18.5253 52.519 17.9757C52.7803 17.4176 53.1933 16.9272 53.758 16.5044C54.3312 16.0816 55.0729 15.7476 55.9832 15.5024C56.8935 15.2487 57.9977 15.1218 59.2957 15.1218H60.0037V14.2086C60.0037 13.4898 59.7761 12.936 59.321 12.547C58.8742 12.158 58.28 11.9636 57.5383 11.9636C57.2348 11.9636 56.9103 12.0016 56.5648 12.0777C56.2192 12.1454 55.8736 12.2468 55.528 12.3821C55.1909 12.509 54.858 12.6612 54.5292 12.8387C54.2089 13.0079 53.9139 13.1939 53.6442 13.3968L53.4166 13.27L52.7466 10.8727C53.8002 10.3569 54.7863 10.0018 55.705 9.8073C56.6322 9.60436 57.5214 9.50289 58.3727 9.50289C59.165 9.50289 59.8899 9.58322 60.5473 9.74389C61.2132 9.89609 61.7779 10.1413 62.2415 10.4795C62.7135 10.8093 63.0802 11.2406 63.3414 11.7733C63.6027 12.306 63.7334 12.9487 63.7334 13.7012V19.5105C63.7334 19.6542 63.7418 19.8022 63.7587 19.9544C63.784 20.1066 63.8303 20.2461 63.8977 20.373C63.9652 20.4998 64.0579 20.6055 64.1759 20.6901C64.2939 20.7662 64.4498 20.8042 64.6437 20.8042C64.7617 20.8042 64.8923 20.7915 65.0356 20.7662C65.1789 20.7408 65.3306 20.6943 65.4908 20.6266V22.3263C64.985 22.6814 64.4793 22.9605 63.9736 23.1634C63.4763 23.3579 62.9917 23.4551 62.5196 23.4551C62.1825 23.4551 61.8875 23.3959 61.6346 23.2776C61.3818 23.1676 61.1584 23.0154 60.9646 22.8209C60.7707 22.6265 60.6021 22.3939 60.4588 22.1233C60.324 21.8527 60.206 21.5568 60.1048 21.2355ZM60.0037 16.6439H59.3589C58.5834 16.6439 57.9513 16.6989 57.4624 16.8088C56.982 16.9187 56.6069 17.0752 56.3372 17.2781C56.0675 17.4726 55.882 17.7051 55.7809 17.9757C55.6798 18.2463 55.6292 18.538 55.6292 18.8509C55.6292 19.1807 55.6755 19.4682 55.7683 19.7134C55.861 19.9586 55.9874 20.1616 56.1475 20.3222C56.3161 20.4829 56.51 20.6055 56.7291 20.6901C56.9483 20.7662 57.1843 20.8042 57.4371 20.8042C57.7996 20.8042 58.1873 20.7196 58.6003 20.5505C59.0217 20.3814 59.4895 20.0601 60.0037 19.5866V16.6439Z" fill="#115E59"/>
<path d="M67.893 19.9544L68.1205 19.8149C68.8032 20.1869 69.5113 20.4787 70.2446 20.6901C70.9863 20.893 71.6606 20.9945 72.2674 20.9945C73.0007 20.9945 73.557 20.8507 73.9363 20.5632C74.3156 20.2673 74.5053 19.9079 74.5053 19.4851C74.5053 19.1722 74.4083 18.9185 74.2145 18.7241C74.0206 18.5211 73.7635 18.352 73.4432 18.2167C73.123 18.0729 72.7563 17.9503 72.3433 17.8489C71.9387 17.7389 71.5257 17.6206 71.1043 17.4937C70.6828 17.3669 70.2656 17.2189 69.8526 17.0498C69.448 16.8807 69.0856 16.665 68.7653 16.4029C68.445 16.1323 68.188 15.8025 67.9941 15.4136C67.8002 15.0246 67.7033 14.5468 67.7033 13.9803C67.7033 13.3376 67.8382 12.7457 68.1079 12.2046C68.3776 11.6549 68.7695 11.1814 69.2837 10.784C69.7978 10.3781 70.4258 10.0652 71.1675 9.84536C71.9177 9.61705 72.769 9.50289 73.7214 9.50289C73.9574 9.50289 74.2313 9.51135 74.5432 9.52826C74.8551 9.54517 75.1753 9.57477 75.5041 9.61705C75.8328 9.65087 76.1573 9.69738 76.4776 9.75657C76.7979 9.81576 77.0929 9.88764 77.3626 9.97219L76.7684 12.5343L76.5029 12.6865C76.2247 12.5597 75.9339 12.4498 75.6305 12.3568C75.3355 12.2637 75.0405 12.1919 74.7455 12.1411C74.4589 12.0819 74.185 12.0397 73.9237 12.0143C73.6624 11.9805 73.4264 11.9636 73.2157 11.9636C72.4908 11.9636 71.9514 12.0989 71.5974 12.3694C71.2434 12.64 71.0664 12.9825 71.0664 13.3968C71.0664 13.7182 71.1633 13.9803 71.3571 14.1832C71.5594 14.3862 71.8207 14.5595 72.141 14.7033C72.4613 14.847 72.8237 14.9739 73.2283 15.0838C73.6413 15.1853 74.0628 15.2994 74.4926 15.4263C74.9225 15.5446 75.3397 15.6884 75.7443 15.8575C76.1573 16.0182 76.5239 16.2338 76.8442 16.5044C77.1645 16.7665 77.4216 17.0921 77.6155 17.481C77.8177 17.8616 77.9189 18.3351 77.9189 18.9016C77.9189 19.5274 77.7882 20.1193 77.5269 20.6774C77.2657 21.227 76.8822 21.709 76.3764 22.1233C75.8791 22.5292 75.2596 22.8548 74.5179 23.1C73.7846 23.3367 72.946 23.4551 72.0019 23.4551C71.6311 23.4551 71.2434 23.434 70.8388 23.3917C70.4426 23.3579 70.0423 23.3029 69.6377 23.2268C69.2331 23.1507 68.8327 23.0577 68.4366 22.9478C68.0404 22.8294 67.6612 22.6941 67.2987 22.5419L67.893 19.9544Z" fill="#115E59"/>
<path d="M81.0544 2.88192H84.7841V23.2015H81.0544V2.88192ZM89.9045 23.2015L85.4036 16.1873L90.4102 9.83267H93.9882L88.9942 15.6419L94.3422 23.2015H89.9045Z" fill="#115E59"/>
<path d="M107.112 18.648H100.259L98.8811 23.2015H95.6065L101.84 4.61961H106.303L112.523 23.2015H108.515L107.112 18.648ZM106.416 16.2888L104.469 9.79462L103.812 7.06759H103.559L102.902 9.79462L100.942 16.2888H106.416Z" fill="#115E59"/>
<path d="M115.292 2.88192H119.021V23.2015H115.292V2.88192Z" fill="#115E59"/>
<path d="M123.181 2.88192H126.911V23.2015H123.181V2.88192Z" fill="#115E59"/>
<path d="M142.285 21.8823C141.872 22.1783 141.438 22.4277 140.982 22.6307C140.527 22.8252 140.068 22.9858 139.604 23.1127C139.141 23.231 138.681 23.3156 138.226 23.3663C137.771 23.4255 137.337 23.4551 136.924 23.4551C135.913 23.4551 134.99 23.3114 134.155 23.0239C133.321 22.7364 132.604 22.3136 132.006 21.7555C131.407 21.1974 130.944 20.5167 130.615 19.7134C130.286 18.9016 130.122 17.9757 130.122 16.9356C130.122 15.7856 130.316 14.754 130.704 13.8408C131.1 12.9191 131.627 12.1369 132.284 11.4943C132.941 10.8516 133.7 10.3612 134.56 10.0229C135.428 9.67624 136.334 9.50289 137.278 9.50289C138.079 9.50289 138.82 9.62973 139.503 9.88341C140.186 10.1371 140.776 10.5176 141.273 11.025C141.771 11.5239 142.158 12.1454 142.436 12.8895C142.715 13.6336 142.854 14.4961 142.854 15.477C142.854 15.7645 142.841 16.0435 142.816 16.3141C142.79 16.5763 142.757 16.8172 142.715 17.0371H133.966C133.966 17.6713 134.075 18.2252 134.294 18.6987C134.522 19.1722 134.838 19.5654 135.242 19.8783C135.656 20.1912 136.149 20.4237 136.722 20.5759C137.303 20.7281 137.944 20.8042 138.643 20.8042C138.871 20.8042 139.128 20.7957 139.415 20.7788C139.701 20.7619 140.005 20.7323 140.325 20.6901C140.645 20.6393 140.97 20.5717 141.299 20.4871C141.636 20.4025 141.964 20.2969 142.285 20.17V21.8823ZM139.44 15.5024C139.44 14.9104 139.373 14.3946 139.238 13.9549C139.103 13.5068 138.917 13.1347 138.681 12.8387C138.445 12.5428 138.167 12.3229 137.847 12.1792C137.527 12.0354 137.181 11.9636 136.81 11.9636C136.397 11.9636 136.018 12.0481 135.672 12.2172C135.327 12.3864 135.028 12.6273 134.775 12.9402C134.522 13.2531 134.324 13.6251 134.18 14.0564C134.037 14.4876 133.966 14.9696 133.966 15.5024H139.44Z" fill="#115E59"/>
<path d="M144.687 9.75657H148.733L151.034 17.8869L151.577 20.4744H151.83L152.374 17.8869L154.675 9.75657H158L151.135 30H147.81L150.667 23.2015H149.251L144.687 9.75657Z" fill="#115E59"/>
</svg>
