<svg width="33" height="33" viewBox="0 0 33 33" fill="none" xmlns="http://www.w3.org/2000/svg">
<path fill-rule="evenodd" clip-rule="evenodd" d="M0.455322 16.8887C0.455322 8.05212 7.61877 0.888672 16.4553 0.888672C25.2919 0.888672 32.4553 8.05212 32.4553 16.8887C32.4553 25.7252 25.2919 32.8887 16.4553 32.8887C7.61877 32.8887 0.455322 25.7252 0.455322 16.8887Z" fill="#2563EB"/>
<path d="M23.0907 13.189C23.1798 13.0851 23.0636 12.9494 22.9318 12.998C22.6375 13.1065 22.3686 13.1781 21.9708 13.2223C22.46 12.9499 22.6876 12.5606 22.8726 12.0837C22.9172 11.9687 22.7826 11.8643 22.6667 11.9193C22.1958 12.1425 21.6878 12.3082 21.1535 12.406C20.6254 11.8827 19.8727 11.5557 19.04 11.5557C17.4411 11.5557 16.1445 12.7615 16.1445 14.2484C16.1445 14.4595 16.1704 14.6652 16.2192 14.862C13.9207 14.7549 11.8712 13.7717 10.4473 12.2641C10.3498 12.1607 10.1727 12.1745 10.1119 12.3005C9.9498 12.6367 9.85942 13.0097 9.85942 13.4024C9.85942 14.3365 10.3704 15.1606 11.1472 15.6435C10.7989 15.6331 10.4659 15.5652 10.1589 15.45C10.0094 15.394 9.83812 15.4925 9.8582 15.6432C10.0124 16.8005 10.9493 17.7552 12.1587 17.9808C11.9158 18.0426 11.66 18.0754 11.3954 18.0754C11.3312 18.0754 11.2676 18.0734 11.2046 18.0695C11.0442 18.0596 10.9139 18.2031 10.9826 18.3403C11.4363 19.2458 12.4159 19.8779 13.5559 19.8976C12.565 20.62 11.3166 21.0504 9.95998 21.0504C9.7927 21.0504 9.72094 21.2655 9.86934 21.3384C11.0155 21.9018 12.3207 22.2223 13.7076 22.2223C19.0336 22.2223 21.9456 18.1192 21.9456 14.5607C21.9456 14.4442 21.9426 14.3277 21.9374 14.2124C22.3696 13.9219 22.7582 13.5766 23.0907 13.189Z" fill="white"/>
</svg>
