<svg width="33" height="33" viewBox="0 0 33 33" fill="none" xmlns="http://www.w3.org/2000/svg">
<path d="M16.3415 32.661C25.1152 32.661 32.2276 25.5485 32.2276 16.7748C32.2276 8.00115 25.1152 0.888672 16.3415 0.888672C7.5678 0.888672 0.455322 8.00115 0.455322 16.7748C0.455322 25.5485 7.5678 32.661 16.3415 32.661Z" fill="#2563EB"/>
<g clip-path="url(#clip0_11024_557)">
<path d="M23.8803 13.1639C23.7053 12.4889 23.1803 11.9639 22.5053 11.7889C21.3053 11.4639 16.4553 11.4639 16.4553 11.4639C16.4553 11.4639 11.6053 11.4639 10.4053 11.7889C9.73032 11.9639 9.20532 12.4889 9.03032 13.1639C8.70532 14.3889 8.70532 16.8889 8.70532 16.8889C8.70532 16.8889 8.70532 19.4139 9.03032 20.6139C9.20532 21.2889 9.73032 21.8139 10.4053 21.9889C11.6053 22.3139 16.4553 22.3139 16.4553 22.3139C16.4553 22.3139 21.3053 22.3139 22.5053 21.9889C23.1803 21.8139 23.7053 21.2889 23.8803 20.6139C24.2053 19.4139 24.2053 16.8889 24.2053 16.8889C24.2053 16.8889 24.2053 14.3889 23.8803 13.1639ZM14.9053 19.2139V14.5639L18.9303 16.8889L14.9053 19.2139Z" fill="#DC2626"/>
</g>
<defs>
<clipPath id="clip0_11024_557">
<rect width="16" height="16" fill="white" transform="translate(8.45532 8.88867)"/>
</clipPath>
</defs>
</svg>
