<svg width="106" height="102" viewBox="0 0 106 102" fill="none" xmlns="http://www.w3.org/2000/svg">
<path opacity="0.99" fill-rule="evenodd" clip-rule="evenodd" d="M11.4414 20.1875L45.086 20.1992C63.5899 20.1992 78.8242 20.2344 78.9297 20.2813C79.0938 20.3516 78.7422 21.043 74.4531 28.625H66.7773C59.5703 28.625 59.1016 28.6367 59.0313 28.8242C58.9961 28.9414 58.082 30.5117 57.0039 32.3164C55.9258 34.1211 54.4141 36.6523 53.6524 37.9414C52.8906 39.2305 51.4258 41.7031 50.3945 43.4492C49.3633 45.1953 47.3711 48.5352 45.9766 50.8906C44.5703 53.2461 43.1289 55.6953 42.7539 56.3399C42.3789 56.9844 41.4297 58.5899 40.6445 59.9141C39.8477 61.2383 38.3711 63.7344 37.3399 65.4805C36.3086 67.2266 34.3399 70.543 32.9688 72.8633C31.5977 75.1836 29.1367 79.3555 27.4961 82.1211C25.8555 84.8867 23.8281 88.3086 22.9961 89.7149C22.1641 91.1094 21.4492 92.2578 21.3906 92.2578C21.3438 92.2578 20.5469 91.6133 19.6094 90.8399C18.6719 90.0547 16.8789 88.3789 15.625 87.1133C14.3594 85.8477 12.7539 84.1016 12.0625 83.2344C11.3594 82.3672 10.2578 80.832 9.58986 79.8359C8.93361 78.8399 8.03126 77.3867 7.58595 76.6133C7.15236 75.8399 6.40236 74.3867 5.92189 73.3906C5.45314 72.3945 4.72657 70.7305 4.31642 69.6992C3.90626 68.668 3.35548 67.1328 3.08595 66.3008C2.82814 65.4688 2.4297 64.0625 2.20704 63.1953C1.99611 62.3281 1.70314 61.0625 1.57423 60.3828C1.44532 59.7031 1.25782 58.6016 1.16407 57.9219C1.07032 57.2422 0.929699 56.082 0.871105 55.3438C0.800793 54.6055 0.718762 53.1758 0.671887 52.1797C0.625012 51.1484 0.660168 49.4258 0.730481 48.1953C0.812512 47 0.941418 45.3945 1.03517 44.6211C1.12892 43.8477 1.33986 42.4766 1.50392 41.5742C1.66798 40.6719 2.00782 39.1484 2.26564 38.1758C2.51173 37.2148 2.88673 35.9141 3.08595 35.3047C3.28517 34.6953 3.70704 33.5352 4.03517 32.7266C4.35157 31.918 4.99611 30.4766 5.46486 29.5039C5.94532 28.543 6.68361 27.1367 7.12892 26.3984C7.56251 25.6602 8.32423 24.4766 8.8047 23.7617C9.29689 23.0469 10.082 21.957 10.5625 21.3359L11.4414 20.1875ZM13.2109 29.293C12.9766 29.668 12.4609 30.5234 12.0742 31.2031C11.6875 31.8711 11.0899 33.0078 10.7617 33.7109C10.4219 34.4258 9.88282 35.7148 9.5547 36.5938C9.22657 37.4609 8.76954 38.832 8.53517 39.6289C8.31251 40.4375 7.93751 41.9961 7.71486 43.0977C7.50392 44.1875 7.23439 45.875 7.1172 46.8359C6.9922 48.0156 6.9297 49.5195 6.9297 51.3477C6.9297 53.1289 7.00001 54.7109 7.12892 55.8008C7.23439 56.7383 7.42189 58.1094 7.55079 58.8594C7.6797 59.5977 7.97267 60.9102 8.19532 61.7774C8.40626 62.6563 8.79298 63.9688 9.05079 64.7188C9.29689 65.457 9.67189 66.5117 9.88282 67.0508C10.0938 67.6016 10.7266 69.0078 11.2891 70.168C11.8633 71.3164 12.7539 72.9805 13.2813 73.8477C13.8086 74.7266 14.6055 75.9336 15.0391 76.5547C15.4727 77.1641 16.2461 78.1719 16.7617 78.8047C17.2656 79.4375 17.7109 79.9063 17.7461 79.8594C17.793 79.8125 18.836 78.0547 20.0899 75.957C21.332 73.8711 23.2305 70.6719 24.3086 68.8672C25.3867 67.0742 27.4492 63.582 28.9024 61.1328C30.3438 58.6953 32.0313 55.8359 32.6406 54.8047C33.25 53.7852 35.1133 50.6445 36.7891 47.832C38.4531 45.0313 40.2461 41.9961 40.7617 41.0938C41.2891 40.2031 42.5664 38.0352 43.5977 36.2891C44.6289 34.5547 46 32.2344 46.6445 31.1328C47.3008 30.043 47.8867 29.0234 47.957 28.8828L48.0859 28.6133H13.6445L13.2109 29.293ZM53.0664 0.160156C54.9883 0.160156 56.8516 0.21875 58.1055 0.335938C59.207 0.429688 60.7305 0.617188 61.5039 0.734375C62.2774 0.863282 63.4375 1.07422 64.082 1.20313C64.7266 1.33203 65.7578 1.57813 66.3672 1.74219C66.9766 1.90625 68.1719 2.24609 69.0039 2.51563C69.8477 2.77344 71.3477 3.32422 72.3438 3.72266C73.3398 4.12109 74.875 4.80078 75.7422 5.22266C76.6094 5.64453 77.9102 6.3125 78.6133 6.71094C79.3281 7.10938 80.7461 7.98828 81.7774 8.66797C82.8086 9.34766 84.2617 10.3672 85 10.9297C85.7383 11.5039 86.957 12.4766 87.6953 13.1211C88.4336 13.7539 89.8047 15.0313 90.7422 15.9688C91.6797 16.9063 92.9688 18.2773 93.6016 19.0156C94.2344 19.7539 95.1953 20.9375 95.7227 21.6523C96.25 22.3672 97.082 23.5508 97.5742 24.2891C98.0664 25.0273 98.8164 26.2461 99.2383 26.9844C99.6719 27.7227 100.41 29.1289 100.879 30.0898C101.359 31.0625 102.051 32.6445 102.438 33.6055C102.824 34.5781 103.328 35.9375 103.551 36.6523C103.785 37.3672 104.113 38.4922 104.277 39.1719C104.453 39.8516 104.699 40.9063 104.816 41.5156C104.945 42.125 105.156 43.2383 105.285 43.9766C105.402 44.7148 105.59 46.2734 105.695 47.4336C105.848 49.0391 105.871 50.3516 105.824 52.9414C105.789 55.0977 105.695 56.8789 105.578 57.8047C105.473 58.6133 105.25 59.9844 105.086 60.8516C104.934 61.7188 104.617 63.1953 104.383 64.1328C104.148 65.0703 103.703 66.6289 103.375 67.5899C103.047 68.5625 102.473 70.0742 102.098 70.9649C101.723 71.8438 101.043 73.3086 100.586 74.2109C99.8711 75.6406 99.7422 75.8281 99.5781 75.7109C99.4844 75.6289 98.7227 74.375 97.9023 72.9219C97.0703 71.4688 96.2266 69.9688 95.6289 68.8789L96.0156 67.9414C96.2266 67.4258 96.6367 66.3125 96.918 65.4805C97.1992 64.6484 97.586 63.4063 97.7735 62.7266C97.961 62.0469 98.2539 60.8399 98.4063 60.0313C98.5703 59.2227 98.793 57.9102 98.8984 57.1016C98.9922 56.293 99.1094 54.418 99.1445 52.9414C99.1797 51.3477 99.1563 49.5313 99.0742 48.4883C99.0039 47.5273 98.8164 45.9453 98.6524 44.9727C98.4883 44.0117 98.1719 42.5 97.9492 41.6328C97.7383 40.7656 97.4102 39.6055 97.2461 39.0547C97.0703 38.5039 96.543 37.1094 96.0742 35.9492C95.6055 34.7891 94.8438 33.1016 94.375 32.1992C93.9063 31.2969 93.168 29.9492 92.7227 29.2109C92.2656 28.4727 91.4453 27.2187 90.8828 26.4336C90.3203 25.6484 89.418 24.4297 88.8672 23.7383C88.3164 23.0469 86.9805 21.5703 85.8789 20.4805C84.7891 19.3789 83.2422 17.9609 82.4453 17.3164C81.6602 16.6719 80.3945 15.7109 79.6328 15.1836C78.8828 14.6563 77.7344 13.9063 77.0899 13.5195C76.4453 13.1328 75.0977 12.4063 74.1016 11.8906C73.1055 11.3633 71.4414 10.6016 70.4102 10.1914C69.3789 9.76953 67.9258 9.23047 67.1875 8.99609C66.4492 8.76172 64.9961 8.36328 63.9649 8.11719C62.9336 7.87109 61.375 7.55469 60.5078 7.42578C59.6406 7.29688 58.0352 7.12109 56.9336 7.05078C55.7617 6.96875 53.8281 6.94531 52.2461 6.98047C50.7695 7.01563 49.082 7.10938 48.4961 7.16797C47.9219 7.23828 46.6797 7.4375 45.7422 7.60156C44.8047 7.76563 43.4336 8.0586 42.6953 8.2461C41.957 8.4336 40.3516 8.92578 39.1211 9.34766C37.9024 9.75781 36.1094 10.4375 35.1367 10.8711C34.1758 11.293 32.7344 11.9844 30.5078 13.1563H24.7422C19.293 13.168 18.9766 13.1563 19.1406 12.9688C19.2344 12.8516 19.8203 12.3594 20.4297 11.8789C21.0508 11.3867 22.0938 10.5898 22.7734 10.1094C23.4531 9.62891 24.8711 8.67969 25.9375 8.02344C27.0039 7.35547 28.9844 6.26563 30.332 5.59766C31.6914 4.92969 33.4258 4.13281 34.1992 3.82813C34.9727 3.53516 36.4727 2.99609 37.5391 2.64453C38.6055 2.29297 40.4219 1.77734 41.582 1.49609C42.7422 1.21484 44.4063 0.875 45.2735 0.734375C46.1406 0.605469 47.5703 0.417969 48.4375 0.335938C49.3047 0.242188 51.3906 0.171875 53.0664 0.160156ZM66.7305 33.2773C66.7773 33.3242 67.4453 34.5078 68.207 35.8906C68.9805 37.2734 70.2695 39.5938 71.0781 41.0469C71.8867 42.5 73.293 45.0547 74.2188 46.7305C75.1445 48.4063 77.1719 52.0742 78.7305 54.875C80.2891 57.6758 82.7734 62.1406 84.2383 64.7774C85.7031 67.4141 87.4727 70.5781 88.1641 71.8086C88.8555 73.0391 90.4258 75.8281 91.6445 78.0195C92.8633 80.2109 94.0938 82.3555 94.8438 83.5859L93.9531 84.6055C93.4609 85.1797 91.9375 86.7266 90.5781 88.0742C89.2188 89.4102 88.0352 90.5 87.9649 90.5C87.8828 90.5 86.9102 88.8828 85.7969 86.8906C84.6953 84.9102 83.1953 82.2617 82.4805 81.0078C81.7656 79.7539 80.9453 78.2891 80.1367 76.7891L62.4063 76.7305L63.8359 74.2695C64.6328 72.9219 65.8867 70.7539 67.9844 67.1211L74.6875 67.0625L73.7969 65.5039C73.3047 64.6602 72.1328 62.5859 71.1953 60.9102C70.2578 59.2344 69.3203 57.5469 69.0977 57.1602C68.8867 56.7734 68.2305 55.5781 66.6016 52.5313L65.9219 53.7266C65.5469 54.3945 64.2578 56.6211 63.0625 58.6836C61.8672 60.7461 59.418 64.9414 57.6367 68C55.8555 71.0586 53.1602 75.6758 51.6719 78.2539C50.1719 80.832 47.8516 84.8164 46.5039 87.1016C45.168 89.3867 43.4336 92.3399 42.6719 93.6641C41.8985 94.9883 40.8672 96.7461 40.375 97.5899C39.8828 98.4219 39.2149 99.582 38.875 100.168C38.5352 100.754 38.207 101.234 38.1367 101.246C38.0664 101.27 36.0977 100.484 33.7656 99.5117C31.4219 98.5391 29.4766 97.707 29.418 97.6719C29.3711 97.625 29.8985 96.6172 30.5899 95.4219C31.2695 94.2266 33.2383 90.8281 34.961 87.8633C36.6836 84.8984 38.9453 80.9961 40 79.1914C41.0547 77.3867 43.5742 73.0625 45.6016 69.582C47.6289 66.1016 50.2656 61.5664 51.4609 59.5039C52.6563 57.4414 54.6836 53.9375 55.9727 51.7109C57.2617 49.4844 58.8086 46.8008 59.4297 45.7344C60.0391 44.668 61.8906 41.457 63.5313 38.5859C65.1719 35.7148 66.543 33.3242 66.5781 33.2773C66.625 33.2188 66.6836 33.2188 66.7305 33.2773Z" fill="#115E59"/>
</svg>
